<?xml version="1.0" standalone="yes"?>


<svg version="1.1" viewBox="0.0 0.0 960.0 540.0" fill="none" stroke="none" stroke-linecap="square" stroke-miterlimit="10" xmlns="http://www.w3.org/2000/svg" xmlns:xlink="http://www.w3.org/1999/xlink">
<clipPath id="g34a07b1fe5_0_106.0">
<path d="m0 0l960.0 0l0 540.0l-960.0 0l0 -540.0z" clip-rule="nonzero">
</path>
</clipPath>
<g clip-path="url(#g34a07b1fe5_0_106.0)">
<path d="m0 0l960.0 0l0 540.0l-960.0 0z" fill-rule="evenodd">
</path>
<path fill="#000000" fill-opacity="0.0" d="m32.72441 46.721786l894.55115 0l0 60.125984l-894.55115 0z" fill-rule="evenodd">
</path>
<path fill="#000000" fill-opacity="0.0" d="m135.5433 248.84908l223.18109 0" fill-rule="evenodd">
</path>
<path stroke="#000000" stroke-width="4.0" stroke-linejoin="round" stroke-linecap="butt" d="m159.5433 248.84908l175.18109 0" fill-rule="evenodd">
</path>
<path fill="#000000" stroke="#000000" stroke-width="4.0" stroke-linecap="butt" d="m159.5433 242.24216l-18.15239 6.6069183l18.15239 6.6069336z" fill-rule="evenodd">
</path>
<path fill="#000000" stroke="#000000" stroke-width="4.0" stroke-linecap="butt" d="m334.7244 255.45601l18.152405 -6.6069336l-18.152405 -6.6069183z" fill-rule="evenodd">
</path>
<path fill="#000000" fill-opacity="0.0" d="m123.2126 225.88058l0 43.748016" fill-rule="evenodd">
</path>
<path stroke="#000000" stroke-width="4.0" stroke-linejoin="round" stroke-linecap="butt" d="m123.2126 225.88058l0 43.748016" fill-rule="evenodd">
</path>
<path fill="#000000" fill-opacity="0.0" d="m358.74014 225.88058l0 43.748016" fill-rule="evenodd">
</path>
<path stroke="#000000" stroke-width="4.0" stroke-linejoin="round" stroke-linecap="butt" d="m358.74014 225.88058l0 43.748016" fill-rule="evenodd">
</path>
<path fill="#000000" fill-opacity="0.0" d="m127.70079 177.19423l0 57.38582" fill-rule="evenodd">
</path>
<path stroke="#000000" stroke-width="4.0" stroke-linejoin="round" stroke-linecap="butt" d="m127.70079 177.19423l0 33.38582" fill-rule="evenodd">
</path>
<path fill="#000000" stroke="#000000" stroke-width="4.0" stroke-linecap="butt" d="m121.09386 210.58005l6.6069336 18.15239l6.6069336 -18.15239z" fill-rule="evenodd">
</path>
<path fill="#000000" fill-opacity="0.0" d="m32.72441 117.79527l189.95276 0l0 60.12599l-189.95276 0z" fill-rule="evenodd">
</path>
<path fill="#000000" d="m73.32911 162.16652q0 0.140625 -0.078125 0.25q-0.078125 0.109375 -0.25 0.1875q-0.171875 0.0625 -0.484375 0.09375q-0.3125 0.046875 -0.78125 0.046875q-0.484375 0 -0.8125 -0.03125q-0.3125 -0.03125 -0.53125 -0.09375q-0.21875 -0.0625 -0.359375 -0.171875q-0.140625 -0.125 -0.25 -0.28125l-6.921875 -9.078125l0 9.09375q0 0.140625 -0.078125 0.25q-0.0625 0.09375 -0.234375 0.171875q-0.15625 0.0625 -0.453125 0.09375q-0.296875 0.046875 -0.75 0.046875q-0.4375 0 -0.734375 -0.046875q-0.28125 -0.03125 -0.453125 -0.09375q-0.171875 -0.078125 -0.25 -0.171875q-0.0625 -0.109375 -0.0625 -0.25l0 -24.359375q0 -0.140625 0.0625 -0.25q0.078125 -0.109375 0.25 -0.171875q0.171875 -0.078125 0.453125 -0.109375q0.296875 -0.046875 0.734375 -0.046875q0.453125 0 0.75 0.046875q0.296875 0.03125 0.453125 0.109375q0.171875 0.0625 0.234375 0.171875q0.078125 0.109375 0.078125 0.25l0 14.84375l6.203125 -6.8125q0.140625 -0.1875 0.296875 -0.296875q0.171875 -0.125 0.390625 -0.203125q0.234375 -0.09375 0.546875 -0.109375q0.3125 -0.03125 0.75 -0.03125q0.453125 0 0.765625 0.03125q0.3125 0.015625 0.5 0.078125q0.1875 0.0625 0.265625 0.171875q0.09375 0.09375 0.09375 0.265625q0 0.21875 -0.125 0.4375q-0.125 0.21875 -0.390625 0.5l-5.9375 5.953125l6.671875 8.65625q0.234375 0.3125 0.328125 0.5q0.109375 0.1875 0.109375 0.359375zm17.48462 -8.90625q0 0.71875 -0.359375 1.015625q-0.34375 0.296875 -0.796875 0.296875l-10.765625 0q0 1.375 0.265625 2.46875q0.28125 1.09375 0.921875 1.875q0.640625 0.78125 1.65625 1.203125q1.03125 0.421875 2.5 0.421875q1.171875 0 2.078125 -0.1875q0.921875 -0.203125 1.578125 -0.4375q0.671875 -0.234375 1.09375 -0.421875q0.4375 -0.1875 0.65625 -0.1875q0.125 0 0.21875 0.0625q0.109375 0.0625 0.15625 0.1875q0.0625 0.125 0.078125 0.359375q0.03125 0.21875 0.03125 0.546875q0 0.234375 -0.015625 0.421875q-0.015625 0.171875 -0.046875 0.3125q-0.03125 0.125 -0.09375 0.234375q-0.0625 0.109375 -0.171875 0.21875q-0.09375 0.09375 -0.59375 0.328125q-0.484375 0.21875 -1.265625 0.4375q-0.78125 0.21875 -1.8125 0.390625q-1.03125 0.171875 -2.203125 0.171875q-2.015625 0 -3.546875 -0.5625q-1.515625 -0.5625 -2.5625 -1.671875q-1.03125 -1.109375 -1.5625 -2.78125q-0.53125 -1.6875 -0.53125 -3.90625q0 -2.125 0.546875 -3.8125q0.546875 -1.6875 1.578125 -2.859375q1.03125 -1.171875 2.484375 -1.796875q1.46875 -0.640625 3.265625 -0.640625q1.9375 0 3.296875 0.625q1.359375 0.625 2.234375 1.671875q0.875 1.046875 1.28125 2.46875q0.40625 1.40625 0.40625 3.0l0 0.546875zm-3.015625 -0.890625q0.046875 -2.359375 -1.0625 -3.703125q-1.09375 -1.359375 -3.265625 -1.359375q-1.109375 0 -1.953125 0.421875q-0.828125 0.421875 -1.40625 1.109375q-0.5625 0.6875 -0.875 1.609375q-0.296875 0.921875 -0.34375 1.921875l8.90625 0zm15.072937 10.265625l-2.1875 6.03125q-0.109375 0.296875 -0.5625 0.453125q-0.4375 0.15625 -1.359375 0.15625q-0.46875 0 -0.765625 -0.046875q-0.28125 -0.046875 -0.4375 -0.15625q-0.15625 -0.109375 -0.1875 -0.296875q-0.015625 -0.1875 0.09375 -0.4375l2.265625 -5.703125q-0.15625 -0.078125 -0.3125 -0.234375q-0.140625 -0.171875 -0.203125 -0.34375l-5.84375 -15.6875q-0.140625 -0.375 -0.140625 -0.59375q0 -0.21875 0.140625 -0.34375q0.140625 -0.125 0.46875 -0.171875q0.328125 -0.046875 0.875 -0.046875q0.546875 0 0.859375 0.03125q0.3125 0.015625 0.484375 0.09375q0.1875 0.078125 0.265625 0.21875q0.09375 0.125 0.1875 0.359375l4.671875 13.171875l0.0625 0l4.515625 -13.234375q0.109375 -0.359375 0.265625 -0.453125q0.15625 -0.09375 0.46875 -0.140625q0.3125 -0.046875 0.890625 -0.046875q0.515625 0 0.84375 0.046875q0.328125 0.046875 0.484375 0.171875q0.15625 0.125 0.15625 0.34375q0 0.21875 -0.109375 0.546875l-5.890625 16.3125zm32.94439 -8.90625q0 2.140625 -0.46875 3.859375q-0.453125 1.71875 -1.359375 2.90625q-0.90625 1.1875 -2.234375 1.84375q-1.328125 0.640625 -3.046875 0.640625q-0.7187424 0 -1.3437424 -0.15625q-0.625 -0.140625 -1.21875 -0.4375q-0.578125 -0.3125 -1.171875 -0.78125q-0.578125 -0.484375 -1.234375 -1.125l0 8.203125q0 0.15625 -0.078125 0.265625q-0.0625 0.109375 -0.234375 0.171875q-0.15625 0.078125 -0.453125 0.109375q-0.296875 0.046875 -0.75 0.046875q-0.4375 0 -0.734375 -0.046875q-0.28125 -0.03125 -0.453125 -0.109375q-0.171875 -0.0625 -0.25 -0.171875q-0.0625 -0.109375 -0.0625 -0.265625l0 -22.90625q0 -0.171875 0.046875 -0.265625q0.0625 -0.09375 0.21875 -0.171875q0.171875 -0.078125 0.421875 -0.09375q0.265625 -0.03125 0.625 -0.03125q0.390625 0 0.625 0.03125q0.25 0.015625 0.40625 0.09375q0.171875 0.078125 0.234375 0.171875q0.078125 0.09375 0.078125 0.265625l0 2.203125q0.734375 -0.765625 1.421875 -1.328125q0.703125 -0.5625 1.40625 -0.9375q0.703125 -0.375 1.4375 -0.5625q0.7343674 -0.203125 1.5624924 -0.203125q1.78125 0 3.03125 0.703125q1.265625 0.6875 2.0625 1.890625q0.796875 1.203125 1.15625 2.796875q0.359375 1.59375 0.359375 3.390625zm-3.171875 0.34375q0 -1.265625 -0.1875 -2.4375q-0.1875 -1.171875 -0.65625 -2.078125q-0.46875 -0.921875 -1.25 -1.46875q-0.78125 -0.546875 -1.953125 -0.546875q-0.578125 0 -1.1406174 0.171875q-0.5625 0.171875 -1.15625 0.546875q-0.578125 0.375 -1.21875 0.984375q-0.640625 0.609375 -1.34375 1.5l0 6.53125q1.234375 1.515625 2.34375 2.328125q1.125 0.796875 2.3437424 0.796875q1.125 0 1.9375 -0.546875q0.8125 -0.546875 1.3125 -1.453125q0.5 -0.921875 0.734375 -2.046875q0.234375 -1.140625 0.234375 -2.28125zm17.283722 -7.21875q0 0.390625 -0.015625 0.671875q-0.015625 0.265625 -0.078125 0.421875q-0.046875 0.15625 -0.140625 0.25q-0.078125 0.078125 -0.21875 0.078125q-0.140625 0 -0.359375 -0.078125q-0.203125 -0.09375 -0.46875 -0.171875q-0.265625 -0.078125 -0.59375 -0.15625q-0.328125 -0.078125 -0.71875 -0.078125q-0.453125 0 -0.890625 0.1875q-0.4375 0.1875 -0.921875 0.609375q-0.484375 0.40625 -1.015625 1.109375q-0.515625 0.6875 -1.15625 1.6875l0 10.796875q0 0.140625 -0.078125 0.25q-0.0625 0.09375 -0.234375 0.171875q-0.15625 0.0625 -0.453125 0.09375q-0.296875 0.046875 -0.75 0.046875q-0.4375 0 -0.734375 -0.046875q-0.28125 -0.03125 -0.453125 -0.09375q-0.171875 -0.078125 -0.25 -0.171875q-0.0625 -0.109375 -0.0625 -0.25l0 -16.40625q0 -0.140625 0.046875 -0.234375q0.0625 -0.109375 0.21875 -0.1875q0.171875 -0.09375 0.421875 -0.109375q0.265625 -0.03125 0.6875 -0.03125q0.40625 0 0.65625 0.03125q0.265625 0.015625 0.40625 0.109375q0.15625 0.078125 0.21875 0.1875q0.0625 0.09375 0.0625 0.234375l0 2.390625q0.671875 -0.984375 1.265625 -1.609375q0.59375 -0.625 1.125 -0.96875q0.53125 -0.359375 1.046875 -0.5q0.515625 -0.140625 1.046875 -0.140625q0.234375 0 0.53125 0.03125q0.3125 0.03125 0.640625 0.109375q0.328125 0.0625 0.59375 0.15625q0.265625 0.09375 0.375 0.1875q0.109375 0.09375 0.140625 0.171875q0.03125 0.078125 0.0625 0.203125q0.03125 0.125 0.03125 0.375q0.015625 0.25 0.015625 0.671875zm17.42006 6.40625q0 0.71875 -0.359375 1.015625q-0.34375 0.296875 -0.796875 0.296875l-10.765625 0q0 1.375 0.265625 2.46875q0.28125 1.09375 0.921875 1.875q0.640625 0.78125 1.65625 1.203125q1.03125 0.421875 2.5 0.421875q1.171875 0 2.078125 -0.1875q0.921875 -0.203125 1.578125 -0.4375q0.671875 -0.234375 1.09375 -0.421875q0.4375 -0.1875 0.65625 -0.1875q0.125 0 0.21875 0.0625q0.109375 0.0625 0.15625 0.1875q0.0625 0.125 0.078125 0.359375q0.03125 0.21875 0.03125 0.546875q0 0.234375 -0.015625 0.421875q-0.015625 0.171875 -0.046875 0.3125q-0.03125 0.125 -0.09375 0.234375q-0.0625 0.109375 -0.171875 0.21875q-0.09375 0.09375 -0.59375 0.328125q-0.484375 0.21875 -1.265625 0.4375q-0.78125 0.21875 -1.8125 0.390625q-1.03125 0.171875 -2.203125 0.171875q-2.015625 0 -3.546875 -0.5625q-1.515625 -0.5625 -2.5625 -1.671875q-1.03125 -1.109375 -1.5625 -2.78125q-0.53125 -1.6875 -0.53125 -3.90625q0 -2.125 0.546875 -3.8125q0.546875 -1.6875 1.578125 -2.859375q1.03125 -1.171875 2.484375 -1.796875q1.46875 -0.640625 3.265625 -0.640625q1.9375 0 3.296875 0.625q1.359375 0.625 2.234375 1.671875q0.875 1.046875 1.28125 2.46875q0.40625 1.40625 0.40625 3.0l0 0.546875zm-3.015625 -0.890625q0.046875 -2.359375 -1.0625 -3.703125q-1.09375 -1.359375 -3.265625 -1.359375q-1.109375 0 -1.953125 0.421875q-0.828125 0.421875 -1.40625 1.109375q-0.5625 0.6875 -0.875 1.609375q-0.296875 0.921875 -0.34375 1.921875l8.90625 0zm17.901062 5.34375q0 1.265625 -0.46875 2.25q-0.46875 0.984375 -1.328125 1.65625q-0.859375 0.671875 -2.046875 1.015625q-1.171875 0.34375 -2.59375 0.34375q-0.875 0 -1.671875 -0.140625q-0.796875 -0.125 -1.421875 -0.328125q-0.625 -0.21875 -1.0625 -0.4375q-0.4375 -0.234375 -0.640625 -0.421875q-0.203125 -0.1875 -0.296875 -0.515625q-0.09375 -0.328125 -0.09375 -0.890625q0 -0.34375 0.03125 -0.578125q0.046875 -0.234375 0.09375 -0.375q0.0625 -0.15625 0.15625 -0.21875q0.109375 -0.0625 0.234375 -0.0625q0.203125 0 0.59375 0.25q0.390625 0.234375 0.96875 0.53125q0.578125 0.296875 1.359375 0.546875q0.78125 0.234375 1.796875 0.234375q0.765625 0 1.390625 -0.15625q0.625 -0.171875 1.078125 -0.484375q0.453125 -0.328125 0.6875 -0.8125q0.25 -0.5 0.25 -1.171875q0 -0.6875 -0.359375 -1.15625q-0.34375 -0.484375 -0.9375 -0.84375q-0.578125 -0.359375 -1.3125 -0.640625q-0.71875 -0.296875 -1.5 -0.59375q-0.765625 -0.3125 -1.515625 -0.703125q-0.734375 -0.390625 -1.3125 -0.953125q-0.578125 -0.578125 -0.9375 -1.359375q-0.359375 -0.78125 -0.359375 -1.875q0 -0.96875 0.375 -1.84375q0.375 -0.890625 1.125 -1.546875q0.75 -0.671875 1.859375 -1.078125q1.125 -0.40625 2.625 -0.40625q0.65625 0 1.3125 0.109375q0.65625 0.109375 1.171875 0.28125q0.53125 0.15625 0.90625 0.359375q0.375 0.1875 0.5625 0.34375q0.203125 0.140625 0.265625 0.25q0.0625 0.109375 0.078125 0.25q0.03125 0.125 0.0625 0.328125q0.03125 0.203125 0.03125 0.484375q0 0.3125 -0.03125 0.546875q-0.03125 0.21875 -0.09375 0.375q-0.0625 0.140625 -0.15625 0.203125q-0.078125 0.0625 -0.1875 0.0625q-0.171875 0 -0.484375 -0.1875q-0.3125 -0.203125 -0.8125 -0.4375q-0.484375 -0.234375 -1.15625 -0.421875q-0.65625 -0.203125 -1.515625 -0.203125q-0.765625 0 -1.34375 0.171875q-0.578125 0.171875 -0.953125 0.5q-0.375 0.3125 -0.578125 0.75q-0.1875 0.4375 -0.1875 0.9375q0 0.71875 0.359375 1.203125q0.375 0.484375 0.953125 0.84375q0.59375 0.359375 1.328125 0.65625q0.75 0.296875 1.53125 0.609375q0.78125 0.296875 1.53125 0.6875q0.75 0.375 1.328125 0.921875q0.59375 0.546875 0.953125 1.3125q0.359375 0.765625 0.359375 1.828125zm14.599548 0q0 1.265625 -0.46875 2.25q-0.46875 0.984375 -1.328125 1.65625q-0.859375 0.671875 -2.046875 1.015625q-1.171875 0.34375 -2.59375 0.34375q-0.875 0 -1.671875 -0.140625q-0.796875 -0.125 -1.421875 -0.328125q-0.625 -0.21875 -1.0625 -0.4375q-0.4375 -0.234375 -0.640625 -0.421875q-0.203125 -0.1875 -0.296875 -0.515625q-0.09375 -0.328125 -0.09375 -0.890625q0 -0.34375 0.03125 -0.578125q0.046875 -0.234375 0.09375 -0.375q0.0625 -0.15625 0.15625 -0.21875q0.109375 -0.0625 0.234375 -0.0625q0.203125 0 0.59375 0.25q0.390625 0.234375 0.96875 0.53125q0.578125 0.296875 1.359375 0.546875q0.78125 0.234375 1.796875 0.234375q0.765625 0 1.390625 -0.15625q0.625 -0.171875 1.078125 -0.484375q0.453125 -0.328125 0.6875 -0.8125q0.25 -0.5 0.25 -1.171875q0 -0.6875 -0.359375 -1.15625q-0.34375 -0.484375 -0.9375 -0.84375q-0.578125 -0.359375 -1.3125 -0.640625q-0.71875 -0.296875 -1.5 -0.59375q-0.765625 -0.3125 -1.515625 -0.703125q-0.734375 -0.390625 -1.3125 -0.953125q-0.578125 -0.578125 -0.9375 -1.359375q-0.359375 -0.78125 -0.359375 -1.875q0 -0.96875 0.375 -1.84375q0.375 -0.890625 1.125 -1.546875q0.75 -0.671875 1.859375 -1.078125q1.125 -0.40625 2.625 -0.40625q0.65625 0 1.3125 0.109375q0.65625 0.109375 1.171875 0.28125q0.53125 0.15625 0.90625 0.359375q0.375 0.1875 0.5625 0.34375q0.203125 0.140625 0.265625 0.25q0.0625 0.109375 0.078125 0.25q0.03125 0.125 0.0625 0.328125q0.03125 0.203125 0.03125 0.484375q0 0.3125 -0.03125 0.546875q-0.03125 0.21875 -0.09375 0.375q-0.0625 0.140625 -0.15625 0.203125q-0.078125 0.0625 -0.1875 0.0625q-0.171875 0 -0.484375 -0.1875q-0.3125 -0.203125 -0.8125 -0.4375q-0.484375 -0.234375 -1.15625 -0.421875q-0.65625 -0.203125 -1.515625 -0.203125q-0.765625 0 -1.34375 0.171875q-0.578125 0.171875 -0.953125 0.5q-0.375 0.3125 -0.578125 0.75q-0.1875 0.4375 -0.1875 0.9375q0 0.71875 0.359375 1.203125q0.375 0.484375 0.953125 0.84375q0.59375 0.359375 1.328125 0.65625q0.75 0.296875 1.53125 0.609375q0.78125 0.296875 1.53125 0.6875q0.75 0.375 1.328125 0.921875q0.59375 0.546875 0.953125 1.3125q0.359375 0.765625 0.359375 1.828125z" fill-rule="nonzero">
</path>
<path fill="#000000" fill-opacity="0.0" d="m138.89764 248.85039l219.8425 0l0 57.38582l-219.8425 0z" fill-rule="evenodd">
</path>
<path fill="#000000" d="m188.81151 293.23727q0 0.140625 -0.078125 0.25q-0.078125 0.09375 -0.25 0.171875q-0.15625 0.0625 -0.453125 0.09375q-0.28125 0.046875 -0.71875 0.046875q-0.453125 0 -0.75 -0.046875q-0.28125 -0.03125 -0.46875 -0.09375q-0.171875 -0.078125 -0.25 -0.171875q-0.0625 -0.109375 -0.0625 -0.25l0 -9.96875q0 -1.046875 -0.1875 -1.890625q-0.171875 -0.859375 -0.578125 -1.484375q-0.40625 -0.625 -1.03125 -0.953125q-0.609375 -0.328125 -1.453125 -0.328125q-1.03125 0 -2.078125 0.8125q-1.046875 0.796875 -2.3125 2.34375l0 11.46875q0 0.140625 -0.078125 0.25q-0.0625 0.09375 -0.234375 0.171875q-0.171875 0.0625 -0.46875 0.09375q-0.28125 0.046875 -0.71875 0.046875q-0.421875 0 -0.734375 -0.046875q-0.296875 -0.03125 -0.46875 -0.09375q-0.171875 -0.078125 -0.234375 -0.171875q-0.0625 -0.109375 -0.0625 -0.25l0 -9.96875q0 -1.046875 -0.203125 -1.890625q-0.203125 -0.859375 -0.609375 -1.484375q-0.390625 -0.625 -1.0 -0.953125q-0.609375 -0.328125 -1.453125 -0.328125q-1.03125 0 -2.09375 0.8125q-1.0625 0.796875 -2.296875 2.34375l0 11.46875q0 0.140625 -0.078125 0.25q-0.0625 0.09375 -0.234375 0.171875q-0.15625 0.0625 -0.453125 0.09375q-0.296875 0.046875 -0.75 0.046875q-0.4375 0 -0.734375 -0.046875q-0.28125 -0.03125 -0.453125 -0.09375q-0.171875 -0.078125 -0.25 -0.171875q-0.0625 -0.109375 -0.0625 -0.25l0 -16.40625q0 -0.140625 0.046875 -0.234375q0.0625 -0.109375 0.21875 -0.1875q0.171875 -0.09375 0.421875 -0.109375q0.265625 -0.03125 0.6875 -0.03125q0.40625 0 0.65625 0.03125q0.265625 0.015625 0.40625 0.109375q0.15625 0.078125 0.21875 0.1875q0.0625 0.09375 0.0625 0.234375l0 2.171875q1.390625 -1.546875 2.6875 -2.265625q1.3125 -0.734375 2.640625 -0.734375q1.015625 0 1.828125 0.25q0.8125 0.234375 1.421875 0.671875q0.625 0.421875 1.0625 1.015625q0.4375 0.578125 0.734375 1.3125q0.828125 -0.890625 1.5625 -1.5q0.734375 -0.625 1.40625 -1.0q0.6875 -0.390625 1.328125 -0.5625q0.65625 -0.1875 1.3125 -0.1875q1.59375 0 2.65625 0.5625q1.078125 0.5625 1.75 1.5q0.671875 0.921875 0.953125 2.171875q0.28125 1.234375 0.28125 2.625l0 10.375zm17.834381 0.015625q0 0.21875 -0.140625 0.328125q-0.140625 0.109375 -0.40625 0.15625q-0.25 0.0625 -0.734375 0.0625q-0.484375 0 -0.765625 -0.0625q-0.28125 -0.046875 -0.40625 -0.15625q-0.125 -0.109375 -0.125 -0.328125l0 -1.640625q-1.078125 1.15625 -2.40625 1.796875q-1.3125 0.625 -2.796875 0.625q-1.296875 0 -2.34375 -0.34375q-1.046875 -0.328125 -1.78125 -0.96875q-0.734375 -0.640625 -1.15625 -1.5625q-0.40625 -0.9375 -0.40625 -2.109375q0 -1.390625 0.5625 -2.40625q0.578125 -1.03125 1.625 -1.703125q1.0625 -0.671875 2.59375 -1.0q1.53125 -0.34375 3.4375 -0.34375l2.265625 0l0 -1.28125q0 -0.953125 -0.203125 -1.671875q-0.203125 -0.734375 -0.65625 -1.21875q-0.4375 -0.484375 -1.15625 -0.71875q-0.703125 -0.25 -1.734375 -0.25q-1.109375 0 -2.0 0.265625q-0.890625 0.265625 -1.5625 0.578125q-0.65625 0.3125 -1.109375 0.578125q-0.4375 0.265625 -0.65625 0.265625q-0.140625 0 -0.25 -0.0625q-0.109375 -0.078125 -0.203125 -0.21875q-0.078125 -0.15625 -0.109375 -0.375q-0.03125 -0.234375 -0.03125 -0.5q0 -0.46875 0.0625 -0.71875q0.0625 -0.265625 0.296875 -0.5q0.25 -0.25 0.84375 -0.5625q0.609375 -0.328125 1.390625 -0.578125q0.796875 -0.265625 1.71875 -0.4375q0.9375 -0.1875 1.875 -0.1875q1.765625 0 3.0 0.40625q1.25 0.40625 2.015625 1.1875q0.765625 0.765625 1.109375 1.921875q0.34375 1.140625 0.34375 2.671875l0 11.0625zm-2.984375 -7.484375l-2.5625 0q-1.25 0 -2.15625 0.203125q-0.90625 0.203125 -1.515625 0.625q-0.59375 0.40625 -0.890625 0.984375q-0.28125 0.5625 -0.28125 1.3125q0 1.28125 0.8125 2.046875q0.8125 0.75 2.28125 0.75q1.171875 0 2.1875 -0.59375q1.015625 -0.609375 2.125 -1.859375l0 -3.46875zm17.036575 6.265625q0 0.53125 -0.078125 0.84375q-0.0625 0.296875 -0.21875 0.453125q-0.140625 0.140625 -0.4375 0.265625q-0.28125 0.125 -0.65625 0.203125q-0.375 0.09375 -0.796875 0.140625q-0.40625 0.0625 -0.828125 0.0625q-1.28125 0 -2.203125 -0.328125q-0.90625 -0.34375 -1.484375 -1.03125q-0.578125 -0.6875 -0.84375 -1.734375q-0.265625 -1.046875 -0.265625 -2.46875l0 -9.59375l-2.296875 0q-0.28125 0 -0.453125 -0.28125q-0.15625 -0.296875 -0.15625 -0.953125q0 -0.34375 0.046875 -0.578125q0.046875 -0.234375 0.125 -0.390625q0.078125 -0.15625 0.1875 -0.21875q0.125 -0.0625 0.265625 -0.0625l2.28125 0l0 -3.90625q0 -0.125 0.0625 -0.234375q0.0625 -0.109375 0.234375 -0.1875q0.171875 -0.09375 0.46875 -0.125q0.296875 -0.03125 0.734375 -0.03125q0.453125 0 0.734375 0.03125q0.296875 0.03125 0.453125 0.125q0.171875 0.078125 0.234375 0.1875q0.078125 0.109375 0.078125 0.234375l0 3.90625l4.21875 0q0.140625 0 0.25 0.0625q0.109375 0.0625 0.1875 0.21875q0.09375 0.15625 0.125 0.390625q0.03125 0.234375 0.03125 0.578125q0 0.65625 -0.171875 0.953125q-0.15625 0.28125 -0.421875 0.28125l-4.21875 0l0 9.15625q0 1.703125 0.5 2.5625q0.515625 0.859375 1.796875 0.859375q0.421875 0 0.75 -0.078125q0.328125 -0.078125 0.578125 -0.171875q0.265625 -0.09375 0.4375 -0.171875q0.1875 -0.078125 0.34375 -0.078125q0.078125 0 0.15625 0.046875q0.09375 0.046875 0.140625 0.171875q0.046875 0.125 0.078125 0.34375q0.03125 0.21875 0.03125 0.546875zm13.565964 -14.125q0 0.390625 -0.015625 0.671875q-0.015625 0.265625 -0.078125 0.421875q-0.046875 0.15625 -0.140625 0.25q-0.078125 0.078125 -0.21875 0.078125q-0.140625 0 -0.359375 -0.078125q-0.203125 -0.09375 -0.46875 -0.171875q-0.265625 -0.078125 -0.59375 -0.15625q-0.328125 -0.078125 -0.71875 -0.078125q-0.453125 0 -0.890625 0.1875q-0.4375 0.1875 -0.921875 0.609375q-0.484375 0.40625 -1.015625 1.109375q-0.515625 0.6875 -1.15625 1.6875l0 10.796875q0 0.140625 -0.078125 0.25q-0.0625 0.09375 -0.234375 0.171875q-0.15625 0.0625 -0.453125 0.09375q-0.296875 0.046875 -0.75 0.046875q-0.4375 0 -0.734375 -0.046875q-0.28125 -0.03125 -0.453125 -0.09375q-0.171875 -0.078125 -0.25 -0.171875q-0.0625 -0.109375 -0.0625 -0.25l0 -16.40625q0 -0.140625 0.046875 -0.234375q0.0625 -0.109375 0.21875 -0.1875q0.171875 -0.09375 0.421875 -0.109375q0.265625 -0.03125 0.6875 -0.03125q0.40625 0 0.65625 0.03125q0.265625 0.015625 0.40625 0.109375q0.15625 0.078125 0.21875 0.1875q0.0625 0.09375 0.0625 0.234375l0 2.390625q0.671875 -0.984375 1.265625 -1.609375q0.59375 -0.625 1.125 -0.96875q0.53125 -0.359375 1.046875 -0.5q0.515625 -0.140625 1.046875 -0.140625q0.234375 0 0.53125 0.03125q0.3125 0.03125 0.640625 0.109375q0.328125 0.0625 0.59375 0.15625q0.265625 0.09375 0.375 0.1875q0.109375 0.09375 0.140625 0.171875q0.03125 0.078125 0.0625 0.203125q0.03125 0.125 0.03125 0.375q0.015625 0.25 0.015625 0.671875zm6.435684 15.328125q0 0.140625 -0.078125 0.25q-0.0625 0.09375 -0.234375 0.171875q-0.15625 0.0625 -0.453125 0.09375q-0.296875 0.046875 -0.75 0.046875q-0.4375 0 -0.734375 -0.046875q-0.28125 -0.03125 -0.453125 -0.09375q-0.171875 -0.078125 -0.25 -0.171875q-0.0625 -0.109375 -0.0625 -0.25l0 -16.40625q0 -0.125 0.0625 -0.234375q0.078125 -0.109375 0.25 -0.1875q0.171875 -0.078125 0.453125 -0.109375q0.296875 -0.03125 0.734375 -0.03125q0.453125 0 0.75 0.03125q0.296875 0.03125 0.453125 0.109375q0.171875 0.078125 0.234375 0.1875q0.078125 0.109375 0.078125 0.234375l0 16.40625zm0.34375 -21.953125q0 1.0625 -0.40625 1.453125q-0.390625 0.375 -1.46875 0.375q-1.0625 0 -1.453125 -0.375q-0.390625 -0.375 -0.390625 -1.40625q0 -1.0625 0.390625 -1.4375q0.40625 -0.390625 1.484375 -0.390625q1.0625 0 1.453125 0.375q0.390625 0.375 0.390625 1.40625zm17.644623 21.609375q0.140625 0.25 0.140625 0.421875q0 0.171875 -0.171875 0.28125q-0.171875 0.109375 -0.53125 0.15625q-0.34375 0.046875 -0.90625 0.046875q-0.546875 0 -0.875 -0.03125q-0.3125 -0.03125 -0.51560974 -0.09375q-0.1875 -0.0625 -0.296875 -0.15625q-0.09375 -0.09375 -0.15625 -0.234375l-3.9375 -6.5l-3.921875 6.5q-0.078125 0.140625 -0.1875 0.234375q-0.09375 0.09375 -0.28125 0.15625q-0.1875 0.0625 -0.5 0.09375q-0.3125 0.03125 -0.8125 0.03125q-0.53125 0 -0.875 -0.046875q-0.328125 -0.046875 -0.484375 -0.15625q-0.15625 -0.109375 -0.15625 -0.28125q0.015625 -0.171875 0.171875 -0.421875l5.109375 -8.0l-4.828125 -7.71875q-0.140625 -0.25 -0.15625 -0.421875q-0.015625 -0.171875 0.15625 -0.296875q0.1875 -0.125 0.53125 -0.15625q0.359375 -0.03125 0.9375 -0.03125q0.53125 0 0.84375 0.03125q0.328125 0.015625 0.5 0.078125q0.1875 0.046875 0.28125 0.140625q0.09375 0.09375 0.171875 0.21875l3.734375 6.109375l3.796875 -6.109375q0.0625 -0.109375 0.15625 -0.203125q0.09375 -0.09375 0.25 -0.15625q0.15623474 -0.0625 0.43748474 -0.078125q0.28125 -0.03125 0.765625 -0.03125q0.53125 0 0.859375 0.03125q0.34375 0.03125 0.5 0.140625q0.171875 0.09375 0.15625 0.28125q-0.015625 0.1875 -0.171875 0.453125l-4.7968597 7.625l5.0624847 8.09375zm22.480957 -4.125q0 1.265625 -0.46875 2.25q-0.46875 0.984375 -1.328125 1.65625q-0.859375 0.671875 -2.046875 1.015625q-1.171875 0.34375 -2.59375 0.34375q-0.875 0 -1.671875 -0.140625q-0.796875 -0.125 -1.421875 -0.328125q-0.625 -0.21875 -1.0625 -0.4375q-0.4375 -0.234375 -0.640625 -0.421875q-0.203125 -0.1875 -0.296875 -0.515625q-0.09375 -0.328125 -0.09375 -0.890625q0 -0.34375 0.03125 -0.578125q0.046875 -0.234375 0.09375 -0.375q0.0625 -0.15625 0.15625 -0.21875q0.109375 -0.0625 0.234375 -0.0625q0.203125 0 0.59375 0.25q0.390625 0.234375 0.96875 0.53125q0.578125 0.296875 1.359375 0.546875q0.78125 0.234375 1.796875 0.234375q0.765625 0 1.390625 -0.15625q0.625 -0.171875 1.078125 -0.484375q0.453125 -0.328125 0.6875 -0.8125q0.25 -0.5 0.25 -1.171875q0 -0.6875 -0.359375 -1.15625q-0.34375 -0.484375 -0.9375 -0.84375q-0.578125 -0.359375 -1.3125 -0.640625q-0.71875 -0.296875 -1.5 -0.59375q-0.765625 -0.3125 -1.515625 -0.703125q-0.734375 -0.390625 -1.3125 -0.953125q-0.578125 -0.578125 -0.9375 -1.359375q-0.359375 -0.78125 -0.359375 -1.875q0 -0.96875 0.375 -1.84375q0.375 -0.890625 1.125 -1.546875q0.75 -0.671875 1.859375 -1.078125q1.125 -0.40625 2.625 -0.40625q0.65625 0 1.3125 0.109375q0.65625 0.109375 1.171875 0.28125q0.53125 0.15625 0.90625 0.359375q0.375 0.1875 0.5625 0.34375q0.203125 0.140625 0.265625 0.25q0.0625 0.109375 0.078125 0.25q0.03125 0.125 0.0625 0.328125q0.03125 0.203125 0.03125 0.484375q0 0.3125 -0.03125 0.546875q-0.03125 0.21875 -0.09375 0.375q-0.0625 0.140625 -0.15625 0.203125q-0.078125 0.0625 -0.1875 0.0625q-0.171875 0 -0.484375 -0.1875q-0.3125 -0.203125 -0.8125 -0.4375q-0.484375 -0.234375 -1.15625 -0.421875q-0.65625 -0.203125 -1.515625 -0.203125q-0.765625 0 -1.34375 0.171875q-0.578125 0.171875 -0.953125 0.5q-0.375 0.3125 -0.578125 0.75q-0.1875 0.4375 -0.1875 0.9375q0 0.71875 0.359375 1.203125q0.375 0.484375 0.953125 0.84375q0.59375 0.359375 1.328125 0.65625q0.75 0.296875 1.53125 0.609375q0.78125 0.296875 1.53125 0.6875q0.75 0.375 1.328125 0.921875q0.59375 0.546875 0.953125 1.3125q0.359375 0.765625 0.359375 1.828125zm16.083923 1.96875q0 0.3125 -0.015625 0.546875q-0.015625 0.21875 -0.0625 0.375q-0.046875 0.15625 -0.109375 0.28125q-0.0625 0.109375 -0.296875 0.34375q-0.21875 0.21875 -0.765625 0.5625q-0.546875 0.328125 -1.234375 0.59375q-0.6875 0.265625 -1.484375 0.421875q-0.796875 0.171875 -1.65625 0.171875q-1.765625 0 -3.140625 -0.578125q-1.359375 -0.578125 -2.28125 -1.703125q-0.921875 -1.125 -1.40625 -2.75q-0.484375 -1.640625 -0.484375 -3.765625q0 -2.421875 0.59375 -4.15625q0.59375 -1.75 1.625 -2.859375q1.03125 -1.125 2.421875 -1.65625q1.390625 -0.53125 3.015625 -0.53125q0.78125 0 1.515625 0.140625q0.75 0.140625 1.359375 0.390625q0.625 0.234375 1.109375 0.546875q0.484375 0.296875 0.703125 0.515625q0.21875 0.21875 0.296875 0.359375q0.078125 0.125 0.125 0.296875q0.0625 0.171875 0.078125 0.390625q0.03125 0.21875 0.03125 0.546875q0 0.703125 -0.171875 0.984375q-0.15625 0.28125 -0.40625 0.28125q-0.265625 0 -0.625 -0.296875q-0.359375 -0.296875 -0.90625 -0.65625q-0.546875 -0.375 -1.328125 -0.671875q-0.765625 -0.296875 -1.8125 -0.296875q-2.171875 0 -3.328125 1.671875q-1.15625 1.65625 -1.15625 4.828125q0 1.59375 0.296875 2.796875q0.296875 1.1875 0.875 1.984375q0.59375 0.796875 1.4375 1.1875q0.84375 0.390625 1.9375 0.390625q1.046875 0 1.828125 -0.328125q0.78125 -0.328125 1.359375 -0.71875q0.578125 -0.390625 0.96875 -0.703125q0.390625 -0.328125 0.609375 -0.328125q0.125 0 0.21875 0.078125q0.09375 0.078125 0.15625 0.25q0.0625 0.171875 0.078125 0.4375q0.03125 0.265625 0.03125 0.625zm16.34674 2.515625q0 0.21875 -0.140625 0.328125q-0.140625 0.109375 -0.40625 0.15625q-0.25 0.0625 -0.734375 0.0625q-0.484375 0 -0.765625 -0.0625q-0.28125 -0.046875 -0.40625 -0.15625q-0.125 -0.109375 -0.125 -0.328125l0 -1.640625q-1.078125 1.15625 -2.40625 1.796875q-1.3125 0.625 -2.796875 0.625q-1.296875 0 -2.34375 -0.34375q-1.046875 -0.328125 -1.78125 -0.96875q-0.734375 -0.640625 -1.15625 -1.5625q-0.40625 -0.9375 -0.40625 -2.109375q0 -1.390625 0.5625 -2.40625q0.578125 -1.03125 1.625 -1.703125q1.0625 -0.671875 2.59375 -1.0q1.53125 -0.34375 3.4375 -0.34375l2.265625 0l0 -1.28125q0 -0.953125 -0.203125 -1.671875q-0.203125 -0.734375 -0.65625 -1.21875q-0.4375 -0.484375 -1.15625 -0.71875q-0.703125 -0.25 -1.734375 -0.25q-1.109375 0 -2.0 0.265625q-0.890625 0.265625 -1.5625 0.578125q-0.65625 0.3125 -1.109375 0.578125q-0.4375 0.265625 -0.65625 0.265625q-0.140625 0 -0.25 -0.0625q-0.109375 -0.078125 -0.203125 -0.21875q-0.078125 -0.15625 -0.109375 -0.375q-0.03125 -0.234375 -0.03125 -0.5q0 -0.46875 0.0625 -0.71875q0.0625 -0.265625 0.296875 -0.5q0.25 -0.25 0.84375 -0.5625q0.609375 -0.328125 1.390625 -0.578125q0.796875 -0.265625 1.71875 -0.4375q0.9375 -0.1875 1.875 -0.1875q1.765625 0 3.0 0.40625q1.25 0.40625 2.015625 1.1875q0.765625 0.765625 1.109375 1.921875q0.34375 1.140625 0.34375 2.671875l0 11.0625zm-2.984375 -7.484375l-2.5625 0q-1.25 0 -2.15625 0.203125q-0.90625 0.203125 -1.515625 0.625q-0.59375 0.40625 -0.890625 0.984375q-0.28125 0.5625 -0.28125 1.3125q0 1.28125 0.8125 2.046875q0.8125 0.75 2.28125 0.75q1.171875 0 2.1875 -0.59375q1.015625 -0.609375 2.125 -1.859375l0 -3.46875zm22.645966 7.46875q0 0.140625 -0.078125 0.25q-0.078125 0.09375 -0.25 0.171875q-0.15625 0.0625 -0.453125 0.09375q-0.28125 0.046875 -0.71875 0.046875q-0.453125 0 -0.75 -0.046875q-0.296875 -0.03125 -0.46875 -0.09375q-0.15625 -0.078125 -0.234375 -0.171875q-0.0625 -0.109375 -0.0625 -0.25l0 -9.609375q0 -1.40625 -0.21875 -2.25q-0.21875 -0.859375 -0.640625 -1.484375q-0.421875 -0.625 -1.09375 -0.953125q-0.65625 -0.328125 -1.53125 -0.328125q-1.125 0 -2.265625 0.8125q-1.125 0.796875 -2.359375 2.34375l0 11.46875q0 0.140625 -0.078125 0.25q-0.0625 0.09375 -0.234375 0.171875q-0.15625 0.0625 -0.453125 0.09375q-0.296875 0.046875 -0.75 0.046875q-0.4375 0 -0.734375 -0.046875q-0.28125 -0.03125 -0.453125 -0.09375q-0.171875 -0.078125 -0.25 -0.171875q-0.0625 -0.109375 -0.0625 -0.25l0 -16.40625q0 -0.140625 0.046875 -0.234375q0.0625 -0.109375 0.21875 -0.1875q0.171875 -0.09375 0.421875 -0.109375q0.265625 -0.03125 0.6875 -0.03125q0.40625 0 0.65625 0.03125q0.265625 0.015625 0.40625 0.109375q0.15625 0.078125 0.21875 0.1875q0.0625 0.09375 0.0625 0.234375l0 2.171875q1.390625 -1.546875 2.765625 -2.265625q1.375 -0.734375 2.78125 -0.734375q1.640625 0 2.75 0.5625q1.125 0.5625 1.8125 1.5q0.703125 0.921875 1.0 2.171875q0.3125 1.234375 0.3125 2.984375l0 10.015625z" fill-rule="nonzero">
</path>
<path fill="#000000" fill-opacity="0.0" d="m364.9134 287.2874l223.18109 0" fill-rule="evenodd">
</path>
<path stroke="#000000" stroke-width="4.0" stroke-linejoin="round" stroke-linecap="butt" d="m388.9134 287.2874l175.18109 0" fill-rule="evenodd">
</path>
<path fill="#000000" stroke="#000000" stroke-width="4.0" stroke-linecap="butt" d="m388.9134 280.68048l-18.152405 6.6069336l18.152405 6.606903z" fill-rule="evenodd">
</path>
<path fill="#000000" stroke="#000000" stroke-width="4.0" stroke-linecap="butt" d="m564.0945 293.89432l18.152405 -6.606903l-18.152405 -6.6069336z" fill-rule="evenodd">
</path>
<path fill="#000000" fill-opacity="0.0" d="m358.74014 269.6286l0 43.748047" fill-rule="evenodd">
</path>
<path stroke="#000000" stroke-width="4.0" stroke-linejoin="round" stroke-linecap="butt" d="m358.74014 269.6286l0 43.748047" fill-rule="evenodd">
</path>
<path fill="#000000" fill-opacity="0.0" d="m594.2677 269.6286l0 43.748047" fill-rule="evenodd">
</path>
<path stroke="#000000" stroke-width="4.0" stroke-linejoin="round" stroke-linecap="butt" d="m594.2677 269.6286l0 43.748047" fill-rule="evenodd">
</path>
<path fill="#000000" fill-opacity="0.0" d="m364.9134 287.28873l219.84253 0l0 60.125977l-219.84253 0z" fill-rule="evenodd">
</path>
<path fill="#000000" d="m402.55933 331.6756q0 0.140625 -0.0625 0.25q-0.0625 0.109375 -0.21875 0.171875q-0.15625 0.0625 -0.421875 0.09375q-0.25 0.046875 -0.609375 0.046875q-0.390625 0 -0.640625 -0.046875q-0.25 -0.03125 -0.421875 -0.09375q-0.15625 -0.0625 -0.234375 -0.171875q-0.078125 -0.109375 -0.078125 -0.25l0 -2.171875q-1.28125 1.40625 -2.6875 2.1875q-1.390625 0.78125 -3.046875 0.78125q-1.8125 0 -3.09375 -0.703125q-1.265625 -0.703125 -2.0625 -1.890625q-0.78125 -1.1875 -1.15625 -2.796875q-0.359375 -1.625 -0.359375 -3.40625q0 -2.125 0.453125 -3.828125q0.453125 -1.703125 1.34375 -2.90625q0.90625 -1.203125 2.21875 -1.84375q1.328125 -0.65625 3.0625 -0.65625q1.4375 0 2.625 0.640625q1.203125 0.625 2.359375 1.84375l0 -9.53125q0 -0.125 0.0625 -0.234375q0.0625 -0.125 0.25 -0.1875q0.1875 -0.0625 0.46875 -0.109375q0.28125 -0.046875 0.71875 -0.046875q0.453125 0 0.734375 0.046875q0.296875 0.046875 0.453125 0.109375q0.171875 0.0625 0.25 0.1875q0.09375 0.109375 0.09375 0.234375l0 24.28125zm-3.03125 -11.546875q-1.21875 -1.5 -2.359375 -2.296875q-1.140625 -0.796875 -2.375 -0.796875q-1.15625 0 -1.953125 0.546875q-0.796875 0.546875 -1.296875 1.4375q-0.5 0.890625 -0.734375 2.03125q-0.234375 1.125 -0.234375 2.296875q0 1.234375 0.1875 2.421875q0.203125 1.1875 0.671875 2.109375q0.484375 0.921875 1.265625 1.484375q0.78125 0.546875 1.96875 0.546875q0.59375 0 1.140625 -0.15625q0.5625 -0.171875 1.140625 -0.546875q0.59375 -0.390625 1.234375 -1.0q0.640625 -0.609375 1.34375 -1.515625l0 -6.5625zm22.580597 2.625q0 0.71875 -0.359375 1.015625q-0.34375 0.296875 -0.796875 0.296875l-10.765625 0q0 1.375 0.265625 2.46875q0.28125 1.09375 0.921875 1.875q0.640625 0.78125 1.65625 1.203125q1.03125 0.421875 2.5 0.421875q1.171875 0 2.078125 -0.1875q0.921875 -0.203125 1.578125 -0.4375q0.671875 -0.234375 1.09375 -0.421875q0.4375 -0.1875 0.65625 -0.1875q0.125 0 0.21875 0.0625q0.109375 0.0625 0.15625 0.1875q0.0625 0.125 0.078125 0.359375q0.03125 0.21875 0.03125 0.546875q0 0.234375 -0.015625 0.421875q-0.015625 0.171875 -0.046875 0.3125q-0.03125 0.125 -0.09375 0.234375q-0.0625 0.109375 -0.171875 0.21875q-0.09375 0.09375 -0.59375 0.328125q-0.484375 0.21875 -1.265625 0.4375q-0.78125 0.21875 -1.8125 0.390625q-1.03125 0.171875 -2.203125 0.171875q-2.015625 0 -3.546875 -0.5625q-1.515625 -0.5625 -2.5625 -1.671875q-1.03125 -1.109375 -1.5625 -2.78125q-0.53125 -1.6875 -0.53125 -3.90625q0 -2.125 0.546875 -3.8125q0.546875 -1.6875 1.578125 -2.859375q1.03125 -1.171875 2.484375 -1.796875q1.46875 -0.640625 3.265625 -0.640625q1.9375 0 3.296875 0.625q1.359375 0.625 2.234375 1.671875q0.875 1.046875 1.28125 2.46875q0.40625 1.40625 0.40625 3.0l0 0.546875zm-3.015625 -0.890625q0.046875 -2.359375 -1.0625 -3.703125q-1.09375 -1.359375 -3.265625 -1.359375q-1.109375 0 -1.953125 0.421875q-0.828125 0.421875 -1.40625 1.109375q-0.5625 0.6875 -0.875 1.609375q-0.296875 0.921875 -0.34375 1.921875l8.90625 0zm22.682312 1.390625q0 2.125 -0.46875 3.84375q-0.453125 1.703125 -1.359375 2.90625q-0.90625 1.203125 -2.21875 1.84375q-1.3125 0.625 -3.0 0.625q-0.78125 0 -1.453125 -0.15625q-0.65625 -0.15625 -1.296875 -0.5q-0.640625 -0.34375 -1.28125 -0.875q-0.640625 -0.53125 -1.34375 -1.265625l0 2.0q0 0.140625 -0.078125 0.25q-0.078125 0.109375 -0.25 0.171875q-0.15625 0.0625 -0.40625 0.09375q-0.234375 0.046875 -0.625 0.046875q-0.359375 0 -0.625 -0.046875q-0.25 -0.03125 -0.421875 -0.09375q-0.15625 -0.0625 -0.21875 -0.171875q-0.046875 -0.109375 -0.046875 -0.25l0 -24.359375q0 -0.140625 0.0625 -0.25q0.078125 -0.109375 0.25 -0.171875q0.171875 -0.078125 0.453125 -0.109375q0.296875 -0.046875 0.734375 -0.046875q0.453125 0 0.75 0.046875q0.296875 0.03125 0.453125 0.109375q0.171875 0.0625 0.234375 0.171875q0.078125 0.109375 0.078125 0.25l0 9.828125q0.734375 -0.75 1.40625 -1.25q0.6875 -0.515625 1.34375 -0.828125q0.65625 -0.328125 1.3125 -0.46875q0.65625 -0.15625 1.390625 -0.15625q1.78125 0 3.046875 0.71875q1.265625 0.703125 2.0625 1.90625q0.796875 1.1875 1.15625 2.796875q0.359375 1.609375 0.359375 3.390625zm-3.171875 0.34375q0 -1.25 -0.1875 -2.4375q-0.1875 -1.1875 -0.671875 -2.09375q-0.46875 -0.921875 -1.25 -1.46875q-0.78125 -0.5625 -1.953125 -0.5625q-0.578125 0 -1.140625 0.171875q-0.5625 0.15625 -1.15625 0.546875q-0.578125 0.375 -1.21875 0.984375q-0.625 0.59375 -1.328125 1.5l0 6.546875q1.234375 1.515625 2.359375 2.3125q1.140625 0.796875 2.359375 0.796875q1.125 0 1.921875 -0.546875q0.8125 -0.546875 1.3125 -1.453125q0.5 -0.90625 0.71875 -2.015625q0.234375 -1.125 0.234375 -2.28125zm22.955597 -0.3125q0 2.015625 -0.53125 3.703125q-0.53125 1.671875 -1.578125 2.90625q-1.046875 1.21875 -2.625 1.90625q-1.578125 0.671875 -3.65625 0.671875q-2.015625 0 -3.53125 -0.59375q-1.5 -0.609375 -2.5 -1.75q-1.0 -1.15625 -1.5 -2.796875q-0.484375 -1.640625 -0.484375 -3.71875q0 -2.0 0.515625 -3.6875q0.515625 -1.6875 1.5625 -2.90625q1.0625 -1.21875 2.625 -1.890625q1.5625 -0.6875 3.65625 -0.6875q2.03125 0 3.53125 0.609375q1.5 0.59375 2.5 1.75q1.015625 1.140625 1.515625 2.78125q0.5 1.640625 0.5 3.703125zm-3.171875 0.203125q0 -1.328125 -0.25 -2.515625q-0.25 -1.1875 -0.8125 -2.078125q-0.5625 -0.890625 -1.53125 -1.40625q-0.96875 -0.53125 -2.40625 -0.53125q-1.328125 0 -2.28125 0.484375q-0.953125 0.46875 -1.578125 1.34375q-0.625 0.859375 -0.921875 2.046875q-0.296875 1.1875 -0.296875 2.578125q0 1.359375 0.234375 2.546875q0.25 1.171875 0.828125 2.0625q0.578125 0.890625 1.53125 1.40625q0.96875 0.515625 2.421875 0.515625q1.3125 0 2.265625 -0.46875q0.96875 -0.484375 1.59375 -1.328125q0.625 -0.859375 0.90625 -2.046875q0.296875 -1.1875 0.296875 -2.609375zm21.653503 8.1875q0 0.140625 -0.0625 0.25q-0.0625 0.09375 -0.234375 0.171875q-0.15625 0.0625 -0.421875 0.09375q-0.265625 0.046875 -0.65625 0.046875q-0.40625 0 -0.671875 -0.046875q-0.265625 -0.03125 -0.421875 -0.09375q-0.15625 -0.078125 -0.21875 -0.171875q-0.046875 -0.109375 -0.046875 -0.25l0 -2.171875q-1.40625 1.546875 -2.78125 2.265625q-1.359375 0.703125 -2.765625 0.703125q-1.640625 0 -2.765625 -0.546875q-1.109375 -0.546875 -1.8125 -1.484375q-0.6875 -0.9375 -0.984375 -2.1875q-0.296875 -1.25 -0.296875 -3.03125l0 -9.953125q0 -0.140625 0.0625 -0.234375q0.0625 -0.109375 0.234375 -0.1875q0.1875 -0.09375 0.46875 -0.109375q0.296875 -0.03125 0.734375 -0.03125q0.4375 0 0.734375 0.03125q0.296875 0.015625 0.46875 0.109375q0.171875 0.078125 0.234375 0.1875q0.078125 0.09375 0.078125 0.234375l0 9.546875q0 1.4375 0.203125 2.3125q0.21875 0.859375 0.640625 1.46875q0.4375 0.609375 1.09375 0.953125q0.65625 0.34375 1.53125 0.34375q1.125 0 2.25 -0.796875q1.125 -0.8125 2.375 -2.359375l0 -11.46875q0 -0.140625 0.0625 -0.234375q0.0625 -0.109375 0.25 -0.1875q0.1875 -0.09375 0.46875 -0.109375q0.28125 -0.03125 0.734375 -0.03125q0.4375 0 0.71875 0.03125q0.296875 0.015625 0.453125 0.109375q0.171875 0.078125 0.25 0.1875q0.09375 0.09375 0.09375 0.234375l0 16.40625zm19.689972 0q0 0.140625 -0.078125 0.25q-0.078125 0.09375 -0.25 0.171875q-0.15625 0.0625 -0.453125 0.09375q-0.28125 0.046875 -0.71875 0.046875q-0.453125 0 -0.75 -0.046875q-0.296875 -0.03125 -0.46875 -0.09375q-0.15625 -0.078125 -0.234375 -0.171875q-0.0625 -0.109375 -0.0625 -0.25l0 -9.609375q0 -1.40625 -0.21875 -2.25q-0.21875 -0.859375 -0.640625 -1.484375q-0.421875 -0.625 -1.09375 -0.953125q-0.65625 -0.328125 -1.53125 -0.328125q-1.125 0 -2.265625 0.8125q-1.125 0.796875 -2.359375 2.34375l0 11.46875q0 0.140625 -0.078125 0.25q-0.0625 0.09375 -0.234375 0.171875q-0.15625 0.0625 -0.453125 0.09375q-0.296875 0.046875 -0.75 0.046875q-0.4375 0 -0.734375 -0.046875q-0.28125 -0.03125 -0.453125 -0.09375q-0.171875 -0.078125 -0.25 -0.171875q-0.0625 -0.109375 -0.0625 -0.25l0 -16.40625q0 -0.140625 0.046875 -0.234375q0.0625 -0.109375 0.21875 -0.1875q0.171875 -0.09375 0.421875 -0.109375q0.265625 -0.03125 0.6875 -0.03125q0.40625 0 0.65625 0.03125q0.265625 0.015625 0.40625 0.109375q0.15625 0.078125 0.21875 0.1875q0.0625 0.09375 0.0625 0.234375l0 2.171875q1.390625 -1.546875 2.765625 -2.265625q1.375 -0.734375 2.78125 -0.734375q1.640625 0 2.75 0.5625q1.125 0.5625 1.8125 1.5q0.703125 0.921875 1.0 2.171875q0.3125 1.234375 0.3125 2.984375l0 10.015625zm17.268097 -2.5q0 0.3125 -0.015625 0.546875q-0.015625 0.21875 -0.0625 0.375q-0.046875 0.15625 -0.109375 0.28125q-0.0625 0.109375 -0.296875 0.34375q-0.21875 0.21875 -0.765625 0.5625q-0.546875 0.328125 -1.234375 0.59375q-0.6875 0.265625 -1.484375 0.421875q-0.796875 0.171875 -1.65625 0.171875q-1.765625 0 -3.140625 -0.578125q-1.359375 -0.578125 -2.28125 -1.703125q-0.921875 -1.125 -1.40625 -2.75q-0.484375 -1.640625 -0.484375 -3.765625q0 -2.421875 0.59375 -4.15625q0.59375 -1.75 1.625 -2.859375q1.03125 -1.125 2.421875 -1.65625q1.390625 -0.53125 3.015625 -0.53125q0.78125 0 1.515625 0.140625q0.75 0.140625 1.359375 0.390625q0.625 0.234375 1.109375 0.546875q0.484375 0.296875 0.703125 0.515625q0.21875 0.21875 0.296875 0.359375q0.078125 0.125 0.125 0.296875q0.0625 0.171875 0.078125 0.390625q0.03125 0.21875 0.03125 0.546875q0 0.703125 -0.171875 0.984375q-0.15625 0.28125 -0.40625 0.28125q-0.265625 0 -0.625 -0.296875q-0.359375 -0.296875 -0.90625 -0.65625q-0.546875 -0.375 -1.328125 -0.671875q-0.765625 -0.296875 -1.8125 -0.296875q-2.171875 0 -3.328125 1.671875q-1.15625 1.65625 -1.15625 4.828125q0 1.59375 0.296875 2.796875q0.296875 1.1875 0.875 1.984375q0.59375 0.796875 1.4375 1.1875q0.84375 0.390625 1.9375 0.390625q1.046875 0 1.828125 -0.328125q0.78125 -0.328125 1.359375 -0.71875q0.578125 -0.390625 0.96875 -0.703125q0.390625 -0.328125 0.609375 -0.328125q0.125 0 0.21875 0.078125q0.09375 0.078125 0.15625 0.25q0.0625 0.171875 0.078125 0.4375q0.03125 0.265625 0.03125 0.625zm7.0029907 2.5q0 0.140625 -0.078125 0.25q-0.0625 0.09375 -0.234375 0.171875q-0.15625 0.0625 -0.453125 0.09375q-0.296875 0.046875 -0.75 0.046875q-0.4375 0 -0.734375 -0.046875q-0.28125 -0.03125 -0.453125 -0.09375q-0.171875 -0.078125 -0.25 -0.171875q-0.0625 -0.109375 -0.0625 -0.25l0 -16.40625q0 -0.125 0.0625 -0.234375q0.078125 -0.109375 0.25 -0.1875q0.171875 -0.078125 0.453125 -0.109375q0.296875 -0.03125 0.734375 -0.03125q0.453125 0 0.75 0.03125q0.296875 0.03125 0.453125 0.109375q0.171875 0.078125 0.234375 0.1875q0.078125 0.109375 0.078125 0.234375l0 16.40625zm0.34375 -21.953125q0 1.0625 -0.40625 1.453125q-0.390625 0.375 -1.46875 0.375q-1.0625 0 -1.453125 -0.375q-0.390625 -0.375 -0.390625 -1.40625q0 -1.0625 0.390625 -1.4375q0.40625 -0.390625 1.484375 -0.390625q1.0625 0 1.453125 0.375q0.390625 0.375 0.390625 1.40625zm19.347778 21.953125q0 0.140625 -0.078125 0.25q-0.078125 0.09375 -0.25 0.171875q-0.15625 0.0625 -0.453125 0.09375q-0.28125 0.046875 -0.71875 0.046875q-0.453125 0 -0.75 -0.046875q-0.296875 -0.03125 -0.46875 -0.09375q-0.15625 -0.078125 -0.234375 -0.171875q-0.0625 -0.109375 -0.0625 -0.25l0 -9.609375q0 -1.40625 -0.21875 -2.25q-0.21875 -0.859375 -0.640625 -1.484375q-0.421875 -0.625 -1.09375 -0.953125q-0.65625 -0.328125 -1.53125 -0.328125q-1.125 0 -2.265625 0.8125q-1.125 0.796875 -2.359375 2.34375l0 11.46875q0 0.140625 -0.078125 0.25q-0.0625 0.09375 -0.234375 0.171875q-0.15625 0.0625 -0.453125 0.09375q-0.296875 0.046875 -0.75 0.046875q-0.4375 0 -0.734375 -0.046875q-0.28125 -0.03125 -0.453125 -0.09375q-0.171875 -0.078125 -0.25 -0.171875q-0.0625 -0.109375 -0.0625 -0.25l0 -16.40625q0 -0.140625 0.046875 -0.234375q0.0625 -0.109375 0.21875 -0.1875q0.171875 -0.09375 0.421875 -0.109375q0.265625 -0.03125 0.6875 -0.03125q0.40625 0 0.65625 0.03125q0.265625 0.015625 0.40625 0.109375q0.15625 0.078125 0.21875 0.1875q0.0625 0.09375 0.0625 0.234375l0 2.171875q1.390625 -1.546875 2.765625 -2.265625q1.375 -0.734375 2.78125 -0.734375q1.640625 0 2.75 0.5625q1.125 0.5625 1.8125 1.5q0.703125 0.921875 1.0 2.171875q0.3125 1.234375 0.3125 2.984375l0 10.015625zm19.189941 -15.65625q0 0.640625 -0.171875 0.921875q-0.171875 0.28125 -0.453125 0.28125l-2.34375 0q0.625 0.65625 0.875 1.453125q0.265625 0.78125 0.265625 1.640625q0 1.421875 -0.453125 2.515625q-0.453125 1.09375 -1.3125 1.859375q-0.84375 0.75 -2.015625 1.15625q-1.15625 0.390625 -2.578125 0.390625q-1.0 0 -1.90625 -0.265625q-0.90625 -0.265625 -1.390625 -0.65625q-0.328125 0.328125 -0.546875 0.75q-0.203125 0.40625 -0.203125 0.953125q0 0.640625 0.59375 1.0625q0.59375 0.421875 1.578125 0.453125l4.28125 0.1875q1.21875 0.03125 2.234375 0.34375q1.03125 0.296875 1.765625 0.859375q0.75 0.546875 1.171875 1.359375q0.421875 0.8125 0.421875 1.875q0 1.140625 -0.484375 2.15625q-0.46875 1.015625 -1.4375 1.796875q-0.96875 0.78125 -2.484375 1.21875q-1.515625 0.453125 -3.578125 0.453125q-1.984375 0 -3.390625 -0.34375q-1.390625 -0.328125 -2.28125 -0.921875q-0.890625 -0.578125 -1.296875 -1.390625q-0.390625 -0.8125 -0.390625 -1.765625q0 -0.59375 0.140625 -1.15625q0.140625 -0.5625 0.4375 -1.078125q0.3125 -0.515625 0.75 -0.96875q0.453125 -0.46875 1.03125 -0.921875q-0.890625 -0.453125 -1.328125 -1.140625q-0.421875 -0.703125 -0.421875 -1.5q0 -1.125 0.453125 -2.0q0.46875 -0.875 1.140625 -1.5625q-0.5625 -0.671875 -0.890625 -1.515625q-0.328125 -0.859375 -0.328125 -2.0625q0 -1.390625 0.46875 -2.5q0.46875 -1.125 1.3125 -1.890625q0.84375 -0.765625 2.015625 -1.171875q1.171875 -0.40625 2.5625 -0.40625q0.75 0 1.390625 0.078125q0.65625 0.078125 1.21875 0.234375l4.953125 0q0.3125 0 0.46875 0.296875q0.15625 0.296875 0.15625 0.921875zm-4.703125 4.3125q0 -1.671875 -0.921875 -2.609375q-0.921875 -0.9375 -2.625 -0.9375q-0.875 0 -1.515625 0.296875q-0.640625 0.28125 -1.078125 0.796875q-0.421875 0.5 -0.640625 1.171875q-0.203125 0.671875 -0.203125 1.390625q0 1.625 0.921875 2.5625q0.921875 0.921875 2.578125 0.921875q0.890625 0 1.546875 -0.28125q0.65625 -0.28125 1.078125 -0.78125q0.4375 -0.5 0.640625 -1.15625q0.21875 -0.65625 0.21875 -1.375zm1.515625 13.0q0 -1.0625 -0.875 -1.625q-0.859375 -0.578125 -2.34375 -0.609375l-4.25 -0.15625q-0.578125 0.453125 -0.953125 0.875q-0.375 0.40625 -0.59375 0.78125q-0.21875 0.375 -0.296875 0.734375q-0.078125 0.359375 -0.078125 0.75q0 1.1875 1.203125 1.796875q1.203125 0.609375 3.34375 0.609375q1.375 0 2.296875 -0.265625q0.921875 -0.265625 1.484375 -0.703125q0.5625 -0.4375 0.8125 -1.0q0.25 -0.5625 0.25 -1.1875z" fill-rule="nonzero">
</path>
<path fill="#000000" fill-opacity="0.0" d="m600.43304 333.27954l223.18115 0" fill-rule="evenodd">
</path>
<path stroke="#000000" stroke-width="4.0" stroke-linejoin="round" stroke-linecap="butt" d="m624.43304 333.27954l175.18115 0" fill-rule="evenodd">
</path>
<path fill="#000000" stroke="#000000" stroke-width="4.0" stroke-linecap="butt" d="m624.43304 326.6726l-18.152344 6.6069336l18.152344 6.606903z" fill-rule="evenodd">
</path>
<path fill="#000000" stroke="#000000" stroke-width="4.0" stroke-linecap="butt" d="m799.6142 339.88644l18.152344 -6.606903l-18.152344 -6.6069336z" fill-rule="evenodd">
</path>
<path fill="#000000" fill-opacity="0.0" d="m594.2677 313.37665l0 43.748016" fill-rule="evenodd">
</path>
<path stroke="#000000" stroke-width="4.0" stroke-linejoin="round" stroke-linecap="butt" d="m594.2677 313.37665l0 43.748016" fill-rule="evenodd">
</path>
<path fill="#000000" fill-opacity="0.0" d="m829.7953 313.37665l0 43.748016" fill-rule="evenodd">
</path>
<path stroke="#000000" stroke-width="4.0" stroke-linejoin="round" stroke-linecap="butt" d="m829.7953 313.37665l0 43.748016" fill-rule="evenodd">
</path>
<path fill="#000000" fill-opacity="0.0" d="m603.7874 333.28085l219.84253 0l0 60.125977l-219.84253 0z" fill-rule="evenodd">
</path>
<path fill="#000000" d="m671.44666 369.4021q0 2.15625 -0.640625 3.84375q-0.625 1.6875 -1.796875 2.859375q-1.15625 1.15625 -2.84375 1.765625q-1.671875 0.59375 -3.796875 0.59375q-1.953125 0 -3.5625 -0.5625q-1.59375 -0.5625 -2.75 -1.65625q-1.140625 -1.109375 -1.765625 -2.765625q-0.625 -1.671875 -0.625 -3.828125l0 -14.640625q0 -0.140625 0.078125 -0.25q0.078125 -0.109375 0.25 -0.171875q0.1875 -0.078125 0.46875 -0.109375q0.296875 -0.046875 0.78125 -0.046875q0.4375 0 0.734375 0.046875q0.3125 0.03125 0.484375 0.109375q0.171875 0.0625 0.25 0.171875q0.078125 0.109375 0.078125 0.25l0 14.25q0 1.640625 0.390625 2.859375q0.40625 1.21875 1.15625 2.03125q0.765625 0.8125 1.828125 1.234375q1.0625 0.40625 2.40625 0.40625q1.359375 0 2.421875 -0.40625q1.078125 -0.40625 1.8125 -1.203125q0.734375 -0.796875 1.125 -1.984375q0.390625 -1.1875 0.390625 -2.765625l0 -14.421875q0 -0.140625 0.078125 -0.25q0.078125 -0.109375 0.25 -0.171875q0.1875 -0.078125 0.484375 -0.109375q0.296875 -0.046875 0.75 -0.046875q0.4375 0 0.734375 0.046875q0.3125 0.03125 0.484375 0.109375q0.171875 0.0625 0.25 0.171875q0.09375 0.109375 0.09375 0.25l0 14.390625zm18.871643 2.109375q0 1.65625 -0.609375 2.953125q-0.609375 1.28125 -1.703125 2.1875q-1.078125 0.90625 -2.546875 1.359375q-1.453125 0.453125 -3.15625 0.453125q-1.1875 0 -2.203125 -0.203125q-1.0 -0.1875 -1.796875 -0.484375q-0.796875 -0.296875 -1.34375 -0.59375q-0.53125 -0.3125 -0.734375 -0.53125q-0.203125 -0.21875 -0.3125 -0.5625q-0.09375 -0.34375 -0.09375 -0.90625q0 -0.390625 0.03125 -0.65625q0.03125 -0.265625 0.109375 -0.421875q0.078125 -0.171875 0.1875 -0.234375q0.109375 -0.0625 0.25 -0.0625q0.25 0 0.71875 0.3125q0.46875 0.296875 1.1875 0.671875q0.734375 0.359375 1.765625 0.6875q1.03125 0.3125 2.375 0.3125q1.03125 0 1.875 -0.265625q0.84375 -0.28125 1.453125 -0.78125q0.609375 -0.5 0.9375 -1.234375q0.328125 -0.734375 0.328125 -1.65625q0 -1.0 -0.453125 -1.703125q-0.453125 -0.71875 -1.203125 -1.25q-0.75 -0.546875 -1.703125 -0.984375q-0.953125 -0.453125 -1.953125 -0.921875q-1.0 -0.46875 -1.953125 -1.03125q-0.953125 -0.5625 -1.703125 -1.328125q-0.734375 -0.765625 -1.203125 -1.796875q-0.46875 -1.03125 -0.46875 -2.46875q0 -1.484375 0.53125 -2.640625q0.546875 -1.15625 1.5 -1.9375q0.953125 -0.78125 2.28125 -1.1875q1.328125 -0.421875 2.859375 -0.421875q0.78125 0 1.5625 0.140625q0.796875 0.140625 1.5 0.375q0.703125 0.21875 1.25 0.5q0.546875 0.28125 0.71875 0.453125q0.171875 0.171875 0.21875 0.28125q0.0625 0.09375 0.09375 0.25q0.046875 0.15625 0.0625 0.375q0.015625 0.21875 0.015625 0.5625q0 0.328125 -0.03125 0.59375q-0.015625 0.25 -0.078125 0.421875q-0.046875 0.171875 -0.15625 0.265625q-0.09375 0.078125 -0.21875 0.078125q-0.203125 0 -0.640625 -0.25q-0.421875 -0.265625 -1.046875 -0.578125q-0.609375 -0.328125 -1.46875 -0.59375q-0.84375 -0.265625 -1.890625 -0.265625q-0.984375 0 -1.71875 0.265625q-0.734375 0.265625 -1.203125 0.703125q-0.46875 0.4375 -0.71875 1.046875q-0.234375 0.59375 -0.234375 1.265625q0 0.984375 0.453125 1.703125q0.46875 0.703125 1.21875 1.25q0.75 0.546875 1.71875 1.0q0.96875 0.453125 1.96875 0.921875q1.0 0.46875 1.96875 1.03125q0.96875 0.546875 1.71875 1.3125q0.765625 0.75 1.21875 1.78125q0.46875 1.03125 0.46875 2.4375zm20.04187 -0.15625q0 1.109375 -0.28125 2.0625q-0.28125 0.9375 -0.796875 1.6875q-0.515625 0.734375 -1.234375 1.3125q-0.71875 0.5625 -1.625 0.953125q-0.890625 0.375 -1.921875 0.5625q-1.03125 0.1875 -2.359375 0.1875l-6.171875 0q-0.421875 0 -0.796875 -0.28125q-0.359375 -0.28125 -0.359375 -1.0l0 -21.03125q0 -0.703125 0.359375 -0.984375q0.375 -0.28125 0.796875 -0.28125l5.359375 0q2.125 0 3.46875 0.40625q1.34375 0.390625 2.25 1.15625q0.90625 0.765625 1.359375 1.875q0.453125 1.109375 0.453125 2.515625q0 0.84375 -0.203125 1.609375q-0.203125 0.765625 -0.59375 1.40625q-0.390625 0.640625 -0.984375 1.15625q-0.59375 0.515625 -1.359375 0.84375q0.96875 0.171875 1.8125 0.65625q0.84375 0.484375 1.46875 1.234375q0.625 0.75 0.984375 1.75q0.375 1.0 0.375 2.203125zm-4.71875 -10.546875q0 -0.859375 -0.25 -1.546875q-0.234375 -0.703125 -0.75 -1.171875q-0.5 -0.484375 -1.328125 -0.734375q-0.8125 -0.265625 -2.15625 -0.265625l-3.25 0l0 7.640625l3.578125 0q1.21875 0 1.953125 -0.3125q0.75 -0.328125 1.234375 -0.859375q0.5 -0.546875 0.734375 -1.265625q0.234375 -0.71875 0.234375 -1.484375zm1.421875 10.734375q0 -1.0625 -0.34375 -1.859375q-0.34375 -0.796875 -0.984375 -1.34375q-0.640625 -0.546875 -1.625 -0.828125q-0.96875 -0.296875 -2.453125 -0.296875l-3.75 0l0 8.3125l4.5625 0q1.0625 0 1.859375 -0.25q0.8125 -0.25 1.421875 -0.75q0.609375 -0.5 0.953125 -1.25q0.359375 -0.75 0.359375 -1.734375zm31.227783 -2.328125q0 2.140625 -0.46875 3.859375q-0.453125 1.71875 -1.359375 2.90625q-0.90625 1.1875 -2.234375 1.84375q-1.328125 0.640625 -3.046875 0.640625q-0.71875 0 -1.34375 -0.15625q-0.625 -0.140625 -1.21875 -0.4375q-0.578125 -0.3125 -1.171875 -0.78125q-0.578125 -0.484375 -1.234375 -1.125l0 8.203125q0 0.15625 -0.078125 0.265625q-0.0625 0.109375 -0.234375 0.171875q-0.15625 0.078125 -0.453125 0.109375q-0.296875 0.046875 -0.75 0.046875q-0.4375 0 -0.734375 -0.046875q-0.28125 -0.03125 -0.453125 -0.109375q-0.171875 -0.0625 -0.25 -0.171875q-0.0625 -0.109375 -0.0625 -0.265625l0 -22.90625q0 -0.171875 0.046875 -0.265625q0.0625 -0.09375 0.21875 -0.171875q0.171875 -0.078125 0.421875 -0.09375q0.265625 -0.03125 0.625 -0.03125q0.390625 0 0.625 0.03125q0.25 0.015625 0.40625 0.09375q0.171875 0.078125 0.234375 0.171875q0.078125 0.09375 0.078125 0.265625l0 2.203125q0.734375 -0.765625 1.421875 -1.328125q0.703125 -0.5625 1.40625 -0.9375q0.703125 -0.375 1.4375 -0.5625q0.734375 -0.203125 1.5625 -0.203125q1.78125 0 3.03125 0.703125q1.265625 0.6875 2.0625 1.890625q0.796875 1.203125 1.15625 2.796875q0.359375 1.59375 0.359375 3.390625zm-3.171875 0.34375q0 -1.265625 -0.1875 -2.4375q-0.1875 -1.171875 -0.65625 -2.078125q-0.46875 -0.921875 -1.25 -1.46875q-0.78125 -0.546875 -1.953125 -0.546875q-0.578125 0 -1.140625 0.171875q-0.5625 0.171875 -1.15625 0.546875q-0.578125 0.375 -1.21875 0.984375q-0.640625 0.609375 -1.34375 1.5l0 6.53125q1.234375 1.515625 2.34375 2.328125q1.125 0.796875 2.34375 0.796875q1.125 0 1.9375 -0.546875q0.8125 -0.546875 1.3125 -1.453125q0.5 -0.921875 0.734375 -2.046875q0.234375 -1.140625 0.234375 -2.28125zm22.955566 -0.28125q0 2.015625 -0.53125 3.703125q-0.53125 1.671875 -1.578125 2.90625q-1.046875 1.21875 -2.625 1.90625q-1.578125 0.671875 -3.65625 0.671875q-2.015625 0 -3.53125 -0.59375q-1.5 -0.609375 -2.5 -1.75q-1.0 -1.15625 -1.5 -2.796875q-0.484375 -1.640625 -0.484375 -3.71875q0 -2.0 0.515625 -3.6875q0.515625 -1.6875 1.5625 -2.90625q1.0625 -1.21875 2.625 -1.890625q1.5625 -0.6875 3.65625 -0.6875q2.03125 0 3.53125 0.609375q1.5 0.59375 2.5 1.75q1.015625 1.140625 1.515625 2.78125q0.5 1.640625 0.5 3.703125zm-3.171875 0.203125q0 -1.328125 -0.25 -2.515625q-0.25 -1.1875 -0.8125 -2.078125q-0.5625 -0.890625 -1.53125 -1.40625q-0.96875 -0.53125 -2.40625 -0.53125q-1.328125 0 -2.28125 0.484375q-0.953125 0.46875 -1.578125 1.34375q-0.625 0.859375 -0.921875 2.046875q-0.296875 1.1875 -0.296875 2.578125q0 1.359375 0.234375 2.546875q0.25 1.171875 0.828125 2.0625q0.578125 0.890625 1.53125 1.40625q0.96875 0.515625 2.421875 0.515625q1.3125 0 2.265625 -0.46875q0.96875 -0.484375 1.59375 -1.328125q0.625 -0.859375 0.90625 -2.046875q0.296875 -1.1875 0.296875 -2.609375zm10.606628 8.1875q0 0.140625 -0.078125 0.25q-0.0625 0.09375 -0.234375 0.171875q-0.15625 0.0625 -0.453125 0.09375q-0.296875 0.046875 -0.75 0.046875q-0.4375 0 -0.734375 -0.046875q-0.28125 -0.03125 -0.453125 -0.09375q-0.171875 -0.078125 -0.25 -0.171875q-0.0625 -0.109375 -0.0625 -0.25l0 -24.359375q0 -0.140625 0.0625 -0.25q0.078125 -0.109375 0.25 -0.171875q0.171875 -0.078125 0.453125 -0.109375q0.296875 -0.046875 0.734375 -0.046875q0.453125 0 0.75 0.046875q0.296875 0.03125 0.453125 0.109375q0.171875 0.0625 0.234375 0.171875q0.078125 0.109375 0.078125 0.25l0 24.359375zm8.566528 0q0 0.140625 -0.078125 0.25q-0.0625 0.09375 -0.234375 0.171875q-0.15625 0.0625 -0.453125 0.09375q-0.296875 0.046875 -0.75 0.046875q-0.4375 0 -0.734375 -0.046875q-0.28125 -0.03125 -0.453125 -0.09375q-0.171875 -0.078125 -0.25 -0.171875q-0.0625 -0.109375 -0.0625 -0.25l0 -24.359375q0 -0.140625 0.0625 -0.25q0.078125 -0.109375 0.25 -0.171875q0.171875 -0.078125 0.453125 -0.109375q0.296875 -0.046875 0.734375 -0.046875q0.453125 0 0.75 0.046875q0.296875 0.03125 0.453125 0.109375q0.171875 0.0625 0.234375 0.171875q0.078125 0.109375 0.078125 0.25l0 24.359375z" fill-rule="nonzero">
</path>
</g>
</svg>


