<svg version="1.1" viewBox="0.0 0.0 956.6640419947506 228.20209973753282" fill="none" stroke="none" stroke-linecap="square" stroke-miterlimit="10" xmlns:xlink="http://www.w3.org/1999/xlink" xmlns="http://www.w3.org/2000/svg"><clipPath id="p.0"><path d="m0 0l956.66406 0l0 228.2021l-956.66406 0l0 -228.2021z" clip-rule="nonzero"/></clipPath><g clip-path="url(#p.0)"><path fill="#000000" fill-opacity="0.0" d="m0 0l956.66406 0l0 228.2021l-956.66406 0z" fill-rule="evenodd"/><path fill="#cfe2f3" d="m109.94095 9.010499l151.52756 0l0 88.47244l-151.52756 0z" fill-rule="evenodd"/><path stroke="#000000" stroke-width="1.0" stroke-linejoin="round" stroke-linecap="butt" d="m109.94095 9.010499l151.52756 0l0 88.47244l-151.52756 0z" fill-rule="evenodd"/><path fill="#000000" d="m136.6059 47.744843l-0.75 1.515625q-1.375 -1.03125 -2.703125 -1.03125q-2.09375 0 -3.3125 1.484375q-1.203125 1.46875 -1.203125 3.90625q0 2.3125 1.1875 3.734375q1.1875 1.40625 3.234375 1.40625q1.46875 0 2.359375 -0.875l0 -3.125l-1.84375 0l0 -1.546875l3.671875 0l0 5.8125q-0.734375 0.609375 -2.03125 1.0q-1.296875 0.375 -2.53125 0.375q-2.765625 0 -4.359375 -1.875q-1.5937424 -1.875 -1.5937424 -4.984375q0 -3.09375 1.7499924 -5.015625q1.75 -1.9375 4.734375 -1.9375q2.078125 0 3.390625 1.15625zm5.0229034 -1.03125q0.453125 0 0.765625 0.328125q0.3125 0.3125 0.3125 0.75q0 0.4375 -0.3125 0.75q-0.3125 0.3125 -0.765625 0.3125q-0.4375 0 -0.75 -0.3125q-0.3125 -0.3125 -0.3125 -0.75q0 -0.453125 0.296875 -0.765625q0.3125 -0.3125 0.765625 -0.3125zm-0.953125 13.453125l0 -8.296875l-1.328125 0l0 -1.453125l3.0625 0l0 9.75l-1.734375 0zm4.1324463 2.671875l0.9375 -1.390625q1.515625 1.015625 2.78125 1.015625q1.1875 0 1.859375 -0.40625q0.671875 -0.40625 0.671875 -1.0q0 -1.1875 -1.703125 -1.1875q-0.296875 0 -1.0625 0.140625q-0.765625 0.140625 -1.1875 0.140625q-2.078125 0 -2.078125 -1.5625q0 -0.484375 0.484375 -0.875q0.484375 -0.390625 1.203125 -0.5625q-2.046875 -0.96875 -2.046875 -3.359375q0 -1.515625 1.0625 -2.53125q1.0625 -1.03125 2.625 -1.03125q1.4375 0 2.25 0.59375l0.875 -1.046875l1.125 1.078125l-1.03125 0.78125q0.65625 0.859375 0.65625 2.25q0 1.484375 -0.921875 2.484375q-0.921875 1.0 -2.40625 1.140625l-1.4375 0.15625q-0.25 0.015625 -0.6875 0.1875q-0.421875 0.171875 -0.421875 0.4375q0 0.375 0.890625 0.375q0.390625 0 1.21875 -0.140625q0.828125 -0.140625 1.234375 -0.140625q1.4375 0 2.234375 0.6875q0.8125 0.6875 0.8125 1.90625q0 1.359375 -1.203125 2.1875q-1.203125 0.828125 -3.046875 0.828125q-0.953125 0 -2.0 -0.34375q-1.046875 -0.328125 -1.6875 -0.8125zm3.671875 -11.21875q-0.90625 0 -1.484375 0.640625q-0.5625 0.640625 -0.5625 1.546875q0 1.015625 0.546875 1.6875q0.5625 0.671875 1.5 0.671875q0.921875 0 1.4375 -0.640625q0.515625 -0.65625 0.515625 -1.71875q0 -0.90625 -0.5625 -1.546875q-0.546875 -0.640625 -1.390625 -0.640625zm11.552063 7.421875q-1.03125 1.3125 -3.171875 1.3125q-1.15625 0 -2.0 -0.828125q-0.828125 -0.84375 -0.828125 -2.078125q0 -1.484375 1.296875 -2.515625q1.296875 -1.03125 3.3125 -1.03125q0.546875 0 1.234375 0.25q0 -2.375 -2.109375 -2.375q-1.625 0 -2.5 0.875l-0.734375 -1.453125q0.5 -0.390625 1.359375 -0.671875q0.875 -0.296875 1.671875 -0.296875q2.125 0 3.078125 0.96875q0.96875 0.96875 0.96875 3.0625l0 3.5q0 1.28125 0.765625 1.71875l0 0.859375q-1.0625 0 -1.59375 -0.296875q-0.515625 -0.296875 -0.75 -1.0zm-0.15625 -3.671875q-0.828125 -0.171875 -1.15625 -0.171875q-1.296875 0 -2.140625 0.671875q-0.828125 0.671875 -0.828125 1.59375q0 1.515625 1.796875 1.515625q1.3125 0 2.328125 -1.25l0 -2.359375zm5.926819 4.09375l-0.609375 0.890625l-0.859375 0l0 -13.9375l1.71875 0l0 4.71875q0.25 -0.34375 0.921875 -0.625q0.6875 -0.28125 1.34375 -0.28125q2.0 0 3.234375 1.390625q1.25 1.375 1.25 3.484375q0 2.453125 -1.25 3.859375q-1.234375 1.390625 -3.375 1.390625q-0.6875 0 -1.359375 -0.265625q-0.671875 -0.265625 -1.015625 -0.625zm0.25 -7.015625l0 5.625q0 0.15625 0.640625 0.484375q0.65625 0.328125 1.0 0.328125q1.765625 0 2.53125 -0.84375q0.765625 -0.84375 0.765625 -2.84375q0 -1.65625 -0.890625 -2.578125q-0.890625 -0.9375 -2.40625 -0.9375q-0.328125 0 -0.890625 0.28125q-0.5625 0.265625 -0.75 0.484375zm10.456436 -5.734375q0.453125 0 0.765625 0.328125q0.3125 0.3125 0.3125 0.75q0 0.4375 -0.3125 0.75q-0.3125 0.3125 -0.765625 0.3125q-0.4375 0 -0.75 -0.3125q-0.3125 -0.3125 -0.3125 -0.75q0 -0.453125 0.296875 -0.765625q0.3125 -0.3125 0.765625 -0.3125zm-0.953125 13.453125l0 -8.296875l-1.328125 0l0 -1.453125l3.0625 0l0 9.75l-1.734375 0zm5.1011963 -8.390625l-1.125 0l0 -1.359375l1.125 0l0 -2.046875l1.734375 -0.671875l0 2.71875l2.6875 0l0 1.359375l-2.6875 0l0 4.84375q0 1.234375 0.40625 1.75q0.421875 0.515625 1.34375 0.515625q0.671875 0 1.375 -0.328125l0.25 1.515625q-1.0625 0.28125 -2.359375 0.28125q-1.15625 0 -1.953125 -0.859375q-0.796875 -0.875 -0.796875 -2.171875l0 -5.546875zm11.767471 7.8125l0.609375 -1.640625q1.453125 0.9375 2.328125 0.9375q1.609375 0 1.609375 -1.34375q0 -0.96875 -1.546875 -1.65625q-1.203125 -0.546875 -1.625 -0.828125q-0.40625 -0.28125 -0.71875 -0.640625q-0.296875 -0.359375 -0.453125 -0.765625q-0.140625 -0.40625 -0.140625 -0.875q0 -1.203125 0.875 -1.875q0.875 -0.671875 2.28125 -0.671875q1.0625 0 2.6875 0.671875l-0.484375 1.609375q-1.03125 -0.828125 -2.078125 -0.828125q-0.609375 0 -1.03125 0.296875q-0.421875 0.296875 -0.421875 0.734375q0 0.9375 1.0625 1.421875l1.234375 0.5625q1.140625 0.515625 1.65625 1.1875q0.515625 0.671875 0.515625 1.671875q0 1.3125 -0.921875 2.0625q-0.90625 0.734375 -2.546875 0.734375q-1.53125 0 -2.890625 -0.765625zm17.208023 0.765625l-0.453125 0l-2.859375 -6.640625l-2.859375 6.640625l-0.453125 0l-3.484375 -9.96875l1.84375 0l2.09375 6.40625l2.59375 -6.40625l0.453125 0l2.671875 6.40625l2.25 -6.40625l1.703125 0l-3.5 9.96875zm6.6484985 -13.640625q0.453125 0 0.765625 0.328125q0.3125 0.3125 0.3125 0.75q0 0.4375 -0.3125 0.75q-0.3125 0.3125 -0.765625 0.3125q-0.4375 0 -0.75 -0.3125q-0.3125 -0.3125 -0.3125 -0.75q0 -0.453125 0.296875 -0.765625q0.3125 -0.3125 0.765625 -0.3125zm-0.953125 13.453125l0 -8.296875l-1.328125 0l0 -1.453125l3.0625 0l0 9.75l-1.734375 0zm5.1011963 -8.390625l-1.125 0l0 -1.359375l1.125 0l0 -2.046875l1.734375 -0.671875l0 2.71875l2.6875 0l0 1.359375l-2.6875 0l0 4.84375q0 1.234375 0.40625 1.75q0.421875 0.515625 1.34375 0.515625q0.671875 0 1.375 -0.328125l0.25 1.515625q-1.0625 0.28125 -2.359375 0.28125q-1.15625 0 -1.953125 -0.859375q-0.796875 -0.875 -0.796875 -2.171875l0 -5.546875zm14.146912 -0.578125l-0.859375 1.21875q-0.265625 -0.25 -0.9375 -0.484375q-0.671875 -0.25 -1.3125 -0.25q-1.40625 0 -2.25 1.0q-0.828125 0.984375 -0.828125 2.703125q0 1.71875 0.84375 2.609375q0.859375 0.890625 2.359375 0.890625q1.171875 0 2.359375 -0.890625l0.671875 1.453125q-1.390625 0.90625 -3.453125 0.90625q-1.984375 0 -3.296875 -1.34375q-1.296875 -1.34375 -1.296875 -3.625q0 -2.328125 1.34375 -3.734375q1.359375 -1.421875 3.703125 -1.421875q0.765625 0 1.640625 0.328125q0.890625 0.3125 1.3125 0.640625zm7.877655 8.96875l0 -6.125q0 -1.09375 -0.53125 -1.71875q-0.53125 -0.640625 -1.515625 -0.640625q-0.625 0 -1.265625 0.375q-0.625 0.359375 -0.96875 0.859375l0 7.25l-1.71875 0l0 -13.75l1.71875 0l0 5.0625q0.359375 -0.53125 1.125 -0.890625q0.765625 -0.359375 1.59375 -0.359375q1.546875 0 2.421875 1.03125q0.875 1.015625 0.875 2.78125l0 6.125l-1.734375 0z" fill-rule="nonzero"/><path fill="#cfe2f3" d="m13.287401 129.85826l151.52756 0l0 88.47244l-151.52756 0z" fill-rule="evenodd"/><path stroke="#000000" stroke-width="1.0" stroke-linejoin="round" stroke-linecap="butt" d="m13.287401 129.85826l151.52756 0l0 88.47244l-151.52756 0z" fill-rule="evenodd"/><path fill="#000000" d="m70.457634 172.04573l-0.859375 1.21875q-0.265625 -0.25 -0.9375 -0.484375q-0.671875 -0.25 -1.3125 -0.25q-1.40625 0 -2.25 1.0q-0.828125 0.984375 -0.828125 2.703125q0 1.71875 0.84375 2.609375q0.859375 0.890625 2.359375 0.890625q1.171875 0 2.359375 -0.890625l0.671875 1.453125q-1.390625 0.90625 -3.453125 0.90625q-1.984375 0 -3.2968712 -1.34375q-1.296875 -1.34375 -1.296875 -3.625q0 -2.328125 1.34375 -3.734375q1.3593712 -1.421875 3.7031212 -1.421875q0.765625 0 1.640625 0.328125q0.890625 0.3125 1.3125 0.640625zm7.877655 8.96875l0 -6.125q0 -1.09375 -0.53125 -1.71875q-0.53125 -0.640625 -1.515625 -0.640625q-0.625 0 -1.265625 0.375q-0.625 0.359375 -0.96875 0.859375l0 7.25l-1.71875 0l0 -13.75l1.71875 0l0 5.0625q0.359375 -0.53125 1.125 -0.890625q0.765625 -0.359375 1.59375 -0.359375q1.546875 0 2.421875 1.03125q0.875 1.015625 0.875 2.78125l0 6.125l-1.734375 0zm5.834152 -9.75l0 6.21875q0 2.25 1.953125 2.25q0.859375 0 1.5625 -0.484375q0.71875 -0.5 0.9375 -1.140625l0 -6.84375l1.734375 0l0 9.75l-1.734375 0l0 -1.34375q-0.28125 0.5625 -1.171875 1.046875q-0.875 0.484375 -1.703125 0.484375q-1.609375 0 -2.46875 -0.921875q-0.84375 -0.921875 -0.84375 -2.625l0 -6.390625l1.734375 0zm15.912277 0.78125l-0.859375 1.21875q-0.265625 -0.25 -0.9375 -0.484375q-0.671875 -0.25 -1.3125 -0.25q-1.40625 0 -2.25 1.0q-0.828125 0.984375 -0.828125 2.703125q0 1.71875 0.84375 2.609375q0.859375 0.890625 2.359375 0.890625q1.171875 0 2.359375 -0.890625l0.671875 1.453125q-1.390625 0.90625 -3.453125 0.90625q-1.984375 0 -3.296875 -1.34375q-1.296875 -1.34375 -1.296875 -3.625q0 -2.328125 1.34375 -3.734375q1.359375 -1.421875 3.703125 -1.421875q0.765625 0 1.640625 0.328125q0.890625 0.3125 1.3125 0.640625zm7.877655 8.96875l0 -6.125q0 -1.09375 -0.53125 -1.71875q-0.53125 -0.640625 -1.515625 -0.640625q-0.625 0 -1.265625 0.375q-0.625 0.359375 -0.96875 0.859375l0 7.25l-1.71875 0l0 -13.75l1.71875 0l0 5.0625q0.359375 -0.53125 1.125 -0.890625q0.765625 -0.359375 1.59375 -0.359375q1.546875 0 2.421875 1.03125q0.875 1.015625 0.875 2.78125l0 6.125l-1.734375 0zm5.974777 -13.453125q0.453125 0 0.765625 0.328125q0.3125 0.3125 0.3125 0.75q0 0.4375 -0.3125 0.75q-0.3125 0.3125 -0.765625 0.3125q-0.4375 0 -0.75 -0.3125q-0.3125 -0.3125 -0.3125 -0.75q0 -0.453125 0.296875 -0.765625q0.3125 -0.3125 0.765625 -0.3125zm-0.953125 13.453125l0 -8.296875l-1.328125 0l0 -1.453125l3.0625 0l0 9.75l-1.734375 0z" fill-rule="nonzero"/><path fill="#cfe2f3" d="m198.46063 129.85826l151.52756 0l0 88.47244l-151.52756 0z" fill-rule="evenodd"/><path stroke="#000000" stroke-width="1.0" stroke-linejoin="round" stroke-linecap="butt" d="m198.46063 129.85826l151.52756 0l0 88.47244l-151.52756 0z" fill-rule="evenodd"/><path fill="#000000" d="m239.14992 180.43636l0.609375 -1.640625q1.453125 0.9375 2.328125 0.9375q1.609375 0 1.609375 -1.34375q0 -0.96875 -1.546875 -1.65625q-1.203125 -0.546875 -1.625 -0.828125q-0.40625 -0.28125 -0.71875 -0.640625q-0.296875 -0.359375 -0.453125 -0.765625q-0.140625 -0.40625 -0.140625 -0.875q0 -1.203125 0.875 -1.875q0.875 -0.671875 2.28125 -0.671875q1.0625 0 2.6875 0.671875l-0.484375 1.609375q-1.03125 -0.828125 -2.078125 -0.828125q-0.609375 0 -1.03125 0.296875q-0.421875 0.296875 -0.421875 0.734375q0 0.9375 1.0625 1.421875l1.234375 0.5625q1.140625 0.515625 1.65625 1.1875q0.515625 0.671875 0.515625 1.671875q0 1.3125 -0.921875 2.0625q-0.90625 0.734375 -2.546875 0.734375q-1.53125 0 -2.890625 -0.765625zm8.801773 -7.8125l-1.125 0l0 -1.359375l1.125 0l0 -2.046875l1.734375 -0.671875l0 2.71875l2.6875 0l0 1.359375l-2.6875 0l0 4.84375q0 1.234375 0.40625 1.75q0.421875 0.515625 1.34375 0.515625q0.671875 0 1.375 -0.328125l0.25 1.515625q-1.0625 0.28125 -2.359375 0.28125q-1.15625 0 -1.953125 -0.859375q-0.796875 -0.875 -0.796875 -2.171875l0 -5.546875zm6.1469116 3.484375q0 -2.25 1.21875 -3.640625q1.21875 -1.390625 3.203125 -1.390625q2.09375 0 3.25 1.34375q1.15625 1.328125 1.15625 3.6875q0 2.359375 -1.1875 3.734375q-1.1875 1.359375 -3.21875 1.359375q-2.09375 0 -3.265625 -1.375q-1.15625 -1.375 -1.15625 -3.71875zm1.8125 0q0 3.671875 2.609375 3.671875q1.203125 0 1.890625 -0.984375q0.6875 -0.984375 0.6875 -2.6875q0 -3.625 -2.578125 -3.625q-1.1875 0 -1.90625 0.96875q-0.703125 0.96875 -0.703125 2.65625zm14.136353 -3.1875q-0.5625 -0.390625 -1.140625 -0.390625q-0.921875 0 -1.609375 0.859375q-0.6875 0.84375 -0.6875 2.03125l0 5.59375l-1.734375 0l0 -9.75l1.734375 0l0 1.546875q0.953125 -1.734375 2.8125 -1.734375q0.46875 0 1.34375 0.15625l-0.71875 1.6875zm7.4542847 6.96875q-1.03125 1.3125 -3.171875 1.3125q-1.15625 0 -2.0 -0.828125q-0.828125 -0.84375 -0.828125 -2.078125q0 -1.484375 1.296875 -2.515625q1.296875 -1.03125 3.3125 -1.03125q0.546875 0 1.234375 0.25q0 -2.375 -2.109375 -2.375q-1.625 0 -2.5 0.875l-0.734375 -1.453125q0.5 -0.390625 1.359375 -0.671875q0.875 -0.296875 1.671875 -0.296875q2.125 0 3.078125 0.96875q0.96875 0.96875 0.96875 3.0625l0 3.5q0 1.28125 0.765625 1.71875l0 0.859375q-1.0625 0 -1.59375 -0.296875q-0.515625 -0.296875 -0.75 -1.0zm-0.15625 -3.671875q-0.828125 -0.171875 -1.15625 -0.171875q-1.296875 0 -2.140625 0.671875q-0.828125 0.671875 -0.828125 1.59375q0 1.515625 1.796875 1.515625q1.3125 0 2.328125 -1.25l0 -2.359375zm4.098694 7.46875l0.9375 -1.390625q1.515625 1.015625 2.78125 1.015625q1.1875 0 1.859375 -0.40625q0.671875 -0.40625 0.671875 -1.0q0 -1.1875 -1.703125 -1.1875q-0.296875 0 -1.0625 0.140625q-0.765625 0.140625 -1.1875 0.140625q-2.078125 0 -2.078125 -1.5625q0 -0.484375 0.484375 -0.875q0.484375 -0.390625 1.203125 -0.5625q-2.046875 -0.96875 -2.046875 -3.359375q0 -1.515625 1.0625 -2.53125q1.0625 -1.03125 2.625 -1.03125q1.4375 0 2.25 0.59375l0.875 -1.046875l1.125 1.078125l-1.03125 0.78125q0.65625 0.859375 0.65625 2.25q0 1.484375 -0.921875 2.484375q-0.921875 1.0 -2.40625 1.140625l-1.4375 0.15625q-0.25 0.015625 -0.6875 0.1875q-0.421875 0.171875 -0.421875 0.4375q0 0.375 0.890625 0.375q0.390625 0 1.21875 -0.140625q0.828125 -0.140625 1.234375 -0.140625q1.4375 0 2.234375 0.6875q0.8125 0.6875 0.8125 1.90625q0 1.359375 -1.203125 2.1875q-1.203125 0.828125 -3.046875 0.828125q-0.953125 0 -2.0 -0.34375q-1.046875 -0.328125 -1.6875 -0.8125zm3.671875 -11.21875q-0.90625 0 -1.484375 0.640625q-0.5625 0.640625 -0.5625 1.546875q0 1.015625 0.546875 1.6875q0.5625 0.671875 1.5 0.671875q0.921875 0 1.4375 -0.640625q0.515625 -0.65625 0.515625 -1.71875q0 -0.90625 -0.5625 -1.546875q-0.546875 -0.640625 -1.390625 -0.640625zm14.270813 3.84375l-7.046875 0q0 1.703125 0.953125 2.625q0.828125 0.796875 2.125 0.796875q1.484375 0 2.484375 -0.859375l0.71875 1.25q-0.390625 0.40625 -1.234375 0.6875q-1.03125 0.390625 -2.3125 0.390625q-1.828125 0 -3.125 -1.25q-1.421875 -1.375 -1.421875 -3.703125q0 -2.40625 1.46875 -3.875q1.3125 -1.296875 3.109375 -1.296875q2.078125 0 3.265625 1.171875q1.140625 1.125 1.140625 3.0q0 0.578125 -0.125 1.0625zm-4.203125 -3.78125q-1.15625 0 -1.9375 0.75q-0.75 0.71875 -0.859375 1.765625l5.40625 0q0 -1.046875 -0.65625 -1.75q-0.71875 -0.765625 -1.953125 -0.765625zm5.550293 8.484375l0 -0.359375l4.1875 -6.40625q1.3125 -2.015625 1.3125 -3.421875q0 -1.84375 -2.09375 -1.84375q-0.734375 0 -1.390625 0.390625q-0.640625 0.375 -0.921875 0.96875l-1.1875 -0.96875q0.3125 -0.890625 1.21875 -1.40625q0.90625 -0.53125 2.1875 -0.53125q1.921875 0 3.0 0.890625q1.09375 0.875 1.09375 2.5q0 1.5 -1.4375 3.796875l-3.0 4.75l5.234375 0l0 1.640625l-8.203125 0z" fill-rule="nonzero"/><path fill="#cfe2f3" d="m295.49738 9.010499l151.52756 0l0 88.47244l-151.52756 0z" fill-rule="evenodd"/><path stroke="#000000" stroke-width="1.0" stroke-linejoin="round" stroke-linecap="butt" d="m295.49738 9.010499l151.52756 0l0 88.47244l-151.52756 0z" fill-rule="evenodd"/><path fill="#000000" d="m358.20383 49.166718l0 -6.171875q0 -2.3125 -2.0 -2.3125q-0.625 0 -1.171875 0.390625q-0.546875 0.390625 -0.75 0.875l0 7.21875l-1.734375 0l0 -6.9375q0 -0.71875 -0.546875 -1.125q-0.53125 -0.421875 -1.421875 -0.421875q-0.53125 0 -1.125 0.40625q-0.578125 0.40625 -0.828125 0.875l0 7.203125l-1.71875 0l0 -9.75l1.125 0l0.578125 1.125q1.0 -1.3125 2.5 -1.3125q2.09375 0 2.9375 1.296875q0.28125 -0.546875 1.078125 -0.921875q0.796875 -0.375 1.640625 -0.375q1.5 0 2.328125 0.90625q0.828125 0.890625 0.828125 2.515625l0 6.515625l-1.71875 0zm12.40802 -4.703125l-7.046875 0q0 1.703125 0.953125 2.625q0.828125 0.796875 2.125 0.796875q1.484375 0 2.484375 -0.859375l0.71875 1.25q-0.390625 0.40625 -1.234375 0.6875q-1.03125 0.390625 -2.3125 0.390625q-1.828125 0 -3.125 -1.25q-1.421875 -1.375 -1.421875 -3.703125q0 -2.40625 1.46875 -3.875q1.3125 -1.296875 3.109375 -1.296875q2.078125 0 3.265625 1.171875q1.140625 1.125 1.140625 3.0q0 0.578125 -0.125 1.0625zm-4.203125 -3.78125q-1.15625 0 -1.9375 0.75q-0.75 0.71875 -0.859375 1.765625l5.40625 0q0 -1.046875 -0.65625 -1.75q-0.71875 -0.765625 -1.953125 -0.765625zm12.347168 8.46875l0 -0.71875q-0.90625 0.90625 -2.625 0.90625q-1.84375 0 -2.984375 -1.3125q-1.125 -1.3125 -1.125 -3.5q0 -2.1875 1.3125 -3.734375q1.3125 -1.5625 3.125 -1.5625q1.5 0 2.296875 0.703125l0 -4.515625l1.71875 0l0 13.734375l-1.71875 0zm0 -7.484375q-0.65625 -0.984375 -1.796875 -0.984375q-1.390625 0 -2.265625 1.046875q-0.859375 1.03125 -0.859375 2.640625q0 3.515625 3.21875 3.515625q0.40625 0 0.96875 -0.25q0.578125 -0.265625 0.734375 -0.5625l0 -5.40625zm5.9877014 -5.953125q0.453125 0 0.765625 0.328125q0.3125 0.3125 0.3125 0.75q0 0.4375 -0.3125 0.75q-0.3125 0.3125 -0.765625 0.3125q-0.4375 0 -0.75 -0.3125q-0.3125 -0.3125 -0.3125 -0.75q0 -0.453125 0.296875 -0.765625q0.3125 -0.3125 0.765625 -0.3125zm-0.953125 13.453125l0 -8.296875l-1.328125 0l0 -1.453125l3.0625 0l0 9.75l-1.734375 0zm9.991821 -1.125q-1.03125 1.3125 -3.171875 1.3125q-1.15625 0 -2.0 -0.828125q-0.828125 -0.84375 -0.828125 -2.078125q0 -1.484375 1.296875 -2.515625q1.296875 -1.03125 3.3125 -1.03125q0.546875 0 1.234375 0.25q0 -2.375 -2.109375 -2.375q-1.625 0 -2.5 0.875l-0.734375 -1.453125q0.5 -0.390625 1.359375 -0.671875q0.875 -0.296875 1.671875 -0.296875q2.125 0 3.078125 0.96875q0.96875 0.96875 0.96875 3.0625l0 3.5q0 1.28125 0.765625 1.71875l0 0.859375q-1.0625 0 -1.59375 -0.296875q-0.515625 -0.296875 -0.75 -1.0zm-0.15625 -3.671875q-0.828125 -0.171875 -1.15625 -0.171875q-1.296875 0 -2.140625 0.671875q-0.828125 0.671875 -0.828125 1.59375q0 1.515625 1.796875 1.515625q1.3125 0 2.328125 -1.25l0 -2.359375z" fill-rule="nonzero"/><path fill="#000000" d="m339.4406 62.197968l-0.859375 1.21875q-0.265625 -0.25 -0.9375 -0.484375q-0.671875 -0.25 -1.3125 -0.25q-1.40625 0 -2.25 1.0q-0.828125 0.984375 -0.828125 2.703125q0 1.71875 0.84375 2.609375q0.859375 0.890625 2.359375 0.890625q1.171875 0 2.359375 -0.890625l0.671875 1.453125q-1.390625 0.90625 -3.453125 0.90625q-1.984375 0 -3.296875 -1.34375q-1.296875 -1.34375 -1.296875 -3.625q0 -2.328125 1.34375 -3.734375q1.359375 -1.421875 3.703125 -1.421875q0.765625 0 1.640625 0.328125q0.890625 0.3125 1.3125 0.640625zm1.23703 4.0625q0 -2.25 1.21875 -3.640625q1.21875 -1.390625 3.203125 -1.390625q2.09375 0 3.25 1.34375q1.15625 1.328125 1.15625 3.6875q0 2.359375 -1.1875 3.734375q-1.1875 1.359375 -3.21875 1.359375q-2.09375 0 -3.265625 -1.375q-1.15625 -1.375 -1.15625 -3.71875zm1.8125 0q0 3.671875 2.609375 3.671875q1.203125 0 1.890625 -0.984375q0.6875 -0.984375 0.6875 -2.6875q0 -3.625 -2.578125 -3.625q-1.1875 0 -1.90625 0.96875q-0.703125 0.96875 -0.703125 2.65625zm14.839478 4.90625l0 -5.671875q0 -1.5625 -0.46875 -2.1875q-0.46875 -0.625 -1.578125 -0.625q-0.59375 0 -1.234375 0.359375q-0.640625 0.359375 -1.0 0.875l0 7.25l-1.71875 0l0 -9.75l1.171875 0l0.546875 1.25q0.859375 -1.4375 2.796875 -1.4375q3.21875 0 3.21875 3.890625l0 6.046875l-1.734375 0zm7.709137 0.1875l-0.453125 0l-4.1875 -9.96875l1.890625 0l2.578125 6.828125l2.640625 -6.828125l1.8125 0l-4.28125 9.96875zm13.839966 -4.890625l-7.046875 0q0 1.703125 0.953125 2.625q0.828125 0.796875 2.125 0.796875q1.484375 0 2.484375 -0.859375l0.71875 1.25q-0.390625 0.40625 -1.234375 0.6875q-1.03125 0.390625 -2.3125 0.390625q-1.828125 0 -3.125 -1.25q-1.421875 -1.375 -1.421875 -3.703125q0 -2.40625 1.46875 -3.875q1.3125 -1.296875 3.109375 -1.296875q2.078125 0 3.265625 1.171875q1.140625 1.125 1.140625 3.0q0 0.578125 -0.125 1.0625zm-4.203125 -3.78125q-1.15625 0 -1.9375 0.75q-0.75 0.71875 -0.859375 1.765625l5.40625 0q0 -1.046875 -0.65625 -1.75q-0.71875 -0.765625 -1.953125 -0.765625zm11.456543 0.390625q-0.5625 -0.390625 -1.140625 -0.390625q-0.921875 0 -1.609375 0.859375q-0.6875 0.84375 -0.6875 2.03125l0 5.59375l-1.734375 0l0 -9.75l1.734375 0l0 1.546875q0.953125 -1.734375 2.8125 -1.734375q0.46875 0 1.34375 0.15625l-0.71875 1.6875zm2.5636597 -0.296875l-1.125 0l0 -1.359375l1.125 0l0 -2.046875l1.734375 -0.671875l0 2.71875l2.6875 0l0 1.359375l-2.6875 0l0 4.84375q0 1.234375 0.40625 1.75q0.421875 0.515625 1.34375 0.515625q0.671875 0 1.375 -0.328125l0.25 1.515625q-1.0625 0.28125 -2.359375 0.28125q-1.15625 0 -1.953125 -0.859375q-0.796875 -0.875 -0.796875 -2.171875l0 -5.546875zm15.006287 3.6875l-7.046875 0q0 1.703125 0.953125 2.625q0.828125 0.796875 2.125 0.796875q1.484375 0 2.484375 -0.859375l0.71875 1.25q-0.390625 0.40625 -1.234375 0.6875q-1.03125 0.390625 -2.3125 0.390625q-1.828125 0 -3.125 -1.25q-1.421875 -1.375 -1.421875 -3.703125q0 -2.40625 1.46875 -3.875q1.3125 -1.296875 3.109375 -1.296875q2.078125 0 3.265625 1.171875q1.140625 1.125 1.140625 3.0q0 0.578125 -0.125 1.0625zm-4.203125 -3.78125q-1.15625 0 -1.9375 0.75q-0.75 0.71875 -0.859375 1.765625l5.40625 0q0 -1.046875 -0.65625 -1.75q-0.71875 -0.765625 -1.953125 -0.765625zm11.4565735 0.390625q-0.5625 -0.390625 -1.140625 -0.390625q-0.921875 0 -1.609375 0.859375q-0.6875 0.84375 -0.6875 2.03125l0 5.59375l-1.734375 0l0 -9.75l1.734375 0l0 1.546875q0.953125 -1.734375 2.8125 -1.734375q0.46875 0 1.34375 0.15625l-0.71875 1.6875z" fill-rule="nonzero"/><path fill="#cfe2f3" d="m517.23755 9.010499l151.52753 0l0 88.47244l-151.52753 0z" fill-rule="evenodd"/><path stroke="#000000" stroke-width="1.0" stroke-linejoin="round" stroke-linecap="butt" d="m517.23755 9.010499l151.52753 0l0 88.47244l-151.52753 0z" fill-rule="evenodd"/><path fill="#000000" d="m579.944 49.166718l0 -6.171875q0 -2.3125 -2.0 -2.3125q-0.625 0 -1.171875 0.390625q-0.546875 0.390625 -0.75 0.875l0 7.21875l-1.734375 0l0 -6.9375q0 -0.71875 -0.546875 -1.125q-0.53125 -0.421875 -1.421875 -0.421875q-0.53125 0 -1.125 0.40625q-0.578125 0.40625 -0.828125 0.875l0 7.203125l-1.71875 0l0 -9.75l1.125 0l0.578125 1.125q1.0 -1.3125 2.5 -1.3125q2.09375 0 2.9375 1.296875q0.28125 -0.546875 1.078125 -0.921875q0.796875 -0.375 1.640625 -0.375q1.5 0 2.328125 0.90625q0.828125 0.890625 0.828125 2.515625l0 6.515625l-1.71875 0zm12.40802 -4.703125l-7.046875 0q0 1.703125 0.953125 2.625q0.828125 0.796875 2.125 0.796875q1.484375 0 2.484375 -0.859375l0.71875 1.25q-0.390625 0.40625 -1.234375 0.6875q-1.03125 0.390625 -2.3125 0.390625q-1.828125 0 -3.125 -1.25q-1.421875 -1.375 -1.421875 -3.703125q0 -2.40625 1.46875 -3.875q1.3125 -1.296875 3.109375 -1.296875q2.078125 0 3.265625 1.171875q1.140625 1.125 1.140625 3.0q0 0.578125 -0.125 1.0625zm-4.203125 -3.78125q-1.15625 0 -1.9375 0.75q-0.75 0.71875 -0.859375 1.765625l5.40625 0q0 -1.046875 -0.65625 -1.75q-0.71875 -0.765625 -1.953125 -0.765625zm12.347168 8.46875l0 -0.71875q-0.90625 0.90625 -2.625 0.90625q-1.84375 0 -2.984375 -1.3125q-1.125 -1.3125 -1.125 -3.5q0 -2.1875 1.3125 -3.734375q1.3125 -1.5625 3.125 -1.5625q1.5 0 2.296875 0.703125l0 -4.515625l1.71875 0l0 13.734375l-1.71875 0zm0 -7.484375q-0.65625 -0.984375 -1.796875 -0.984375q-1.390625 0 -2.265625 1.046875q-0.859375 1.03125 -0.859375 2.640625q0 3.515625 3.21875 3.515625q0.40625 0 0.96875 -0.25q0.578125 -0.265625 0.734375 -0.5625l0 -5.40625zm5.987732 -5.953125q0.453125 0 0.765625 0.328125q0.3125 0.3125 0.3125 0.75q0 0.4375 -0.3125 0.75q-0.3125 0.3125 -0.765625 0.3125q-0.4375 0 -0.75 -0.3125q-0.3125 -0.3125 -0.3125 -0.75q0 -0.453125 0.296875 -0.765625q0.3125 -0.3125 0.765625 -0.3125zm-0.953125 13.453125l0 -8.296875l-1.328125 0l0 -1.453125l3.0625 0l0 9.75l-1.734375 0zm9.991821 -1.125q-1.03125 1.3125 -3.171875 1.3125q-1.15625 0 -2.0 -0.828125q-0.828125 -0.84375 -0.828125 -2.078125q0 -1.484375 1.296875 -2.515625q1.296875 -1.03125 3.3125 -1.03125q0.546875 0 1.234375 0.25q0 -2.375 -2.109375 -2.375q-1.625 0 -2.5 0.875l-0.734375 -1.453125q0.5 -0.390625 1.359375 -0.671875q0.875 -0.296875 1.671875 -0.296875q2.125 0 3.078125 0.96875q0.96875 0.96875 0.96875 3.0625l0 3.5q0 1.28125 0.765625 1.71875l0 0.859375q-1.0625 0 -1.59375 -0.296875q-0.515625 -0.296875 -0.75 -1.0zm-0.15625 -3.671875q-0.828125 -0.171875 -1.15625 -0.171875q-1.296875 0 -2.140625 0.671875q-0.828125 0.671875 -0.828125 1.59375q0 1.515625 1.796875 1.515625q1.3125 0 2.328125 -1.25l0 -2.359375z" fill-rule="nonzero"/><path fill="#000000" d="m561.1808 62.197968l-0.859375 1.21875q-0.265625 -0.25 -0.9375 -0.484375q-0.671875 -0.25 -1.3125 -0.25q-1.40625 0 -2.25 1.0q-0.828125 0.984375 -0.828125 2.703125q0 1.71875 0.84375 2.609375q0.859375 0.890625 2.359375 0.890625q1.171875 0 2.359375 -0.890625l0.671875 1.453125q-1.390625 0.90625 -3.453125 0.90625q-1.984375 0 -3.296875 -1.34375q-1.296875 -1.34375 -1.296875 -3.625q0 -2.328125 1.34375 -3.734375q1.359375 -1.421875 3.703125 -1.421875q0.765625 0 1.640625 0.328125q0.890625 0.3125 1.3125 0.640625zm1.2369995 4.0625q0 -2.25 1.21875 -3.640625q1.21875 -1.390625 3.203125 -1.390625q2.09375 0 3.25 1.34375q1.15625 1.328125 1.15625 3.6875q0 2.359375 -1.1875 3.734375q-1.1875 1.359375 -3.21875 1.359375q-2.09375 0 -3.265625 -1.375q-1.15625 -1.375 -1.15625 -3.71875zm1.8125 0q0 3.671875 2.609375 3.671875q1.203125 0 1.890625 -0.984375q0.6875 -0.984375 0.6875 -2.6875q0 -3.625 -2.578125 -3.625q-1.1875 0 -1.90625 0.96875q-0.703125 0.96875 -0.703125 2.65625zm14.839478 4.90625l0 -5.671875q0 -1.5625 -0.46875 -2.1875q-0.46875 -0.625 -1.578125 -0.625q-0.59375 0 -1.234375 0.359375q-0.640625 0.359375 -1.0 0.875l0 7.25l-1.71875 0l0 -9.75l1.171875 0l0.546875 1.25q0.859375 -1.4375 2.796875 -1.4375q3.21875 0 3.21875 3.890625l0 6.046875l-1.734375 0zm7.7091675 0.1875l-0.453125 0l-4.1875 -9.96875l1.890625 0l2.578125 6.828125l2.640625 -6.828125l1.8125 0l-4.28125 9.96875zm13.839966 -4.890625l-7.046875 0q0 1.703125 0.953125 2.625q0.828125 0.796875 2.125 0.796875q1.484375 0 2.484375 -0.859375l0.71875 1.25q-0.390625 0.40625 -1.234375 0.6875q-1.03125 0.390625 -2.3125 0.390625q-1.828125 0 -3.125 -1.25q-1.421875 -1.375 -1.421875 -3.703125q0 -2.40625 1.46875 -3.875q1.3125 -1.296875 3.109375 -1.296875q2.078125 0 3.265625 1.171875q1.140625 1.125 1.140625 3.0q0 0.578125 -0.125 1.0625zm-4.203125 -3.78125q-1.15625 0 -1.9375 0.75q-0.75 0.71875 -0.859375 1.765625l5.40625 0q0 -1.046875 -0.65625 -1.75q-0.71875 -0.765625 -1.953125 -0.765625zm11.456543 0.390625q-0.5625 -0.390625 -1.140625 -0.390625q-0.921875 0 -1.609375 0.859375q-0.6875 0.84375 -0.6875 2.03125l0 5.59375l-1.734375 0l0 -9.75l1.734375 0l0 1.546875q0.953125 -1.734375 2.8125 -1.734375q0.46875 0 1.34375 0.15625l-0.71875 1.6875zm2.5636597 -0.296875l-1.125 0l0 -1.359375l1.125 0l0 -2.046875l1.734375 -0.671875l0 2.71875l2.6875 0l0 1.359375l-2.6875 0l0 4.84375q0 1.234375 0.40625 1.75q0.421875 0.515625 1.34375 0.515625q0.671875 0 1.375 -0.328125l0.25 1.515625q-1.0625 0.28125 -2.359375 0.28125q-1.15625 0 -1.953125 -0.859375q-0.796875 -0.875 -0.796875 -2.171875l0 -5.546875zm15.006287 3.6875l-7.046875 0q0 1.703125 0.953125 2.625q0.828125 0.796875 2.125 0.796875q1.484375 0 2.484375 -0.859375l0.71875 1.25q-0.390625 0.40625 -1.234375 0.6875q-1.03125 0.390625 -2.3125 0.390625q-1.828125 0 -3.125 -1.25q-1.421875 -1.375 -1.421875 -3.703125q0 -2.40625 1.46875 -3.875q1.3125 -1.296875 3.109375 -1.296875q2.078125 0 3.265625 1.171875q1.140625 1.125 1.140625 3.0q0 0.578125 -0.125 1.0625zm-4.203125 -3.78125q-1.15625 0 -1.9375 0.75q-0.75 0.71875 -0.859375 1.765625l5.40625 0q0 -1.046875 -0.65625 -1.75q-0.71875 -0.765625 -1.953125 -0.765625zm11.456543 0.390625q-0.5625 -0.390625 -1.140625 -0.390625q-0.921875 0 -1.609375 0.859375q-0.6875 0.84375 -0.6875 2.03125l0 5.59375l-1.734375 0l0 -9.75l1.734375 0l0 1.546875q0.953125 -1.734375 2.8125 -1.734375q0.46875 0 1.34375 0.15625l-0.71875 1.6875z" fill-rule="nonzero"/><path fill="#cfe2f3" d="m702.5971 9.010499l151.52759 0l0 88.47244l-151.52759 0z" fill-rule="evenodd"/><path stroke="#000000" stroke-width="1.0" stroke-linejoin="round" stroke-linecap="butt" d="m702.5971 9.010499l151.52759 0l0 88.47244l-151.52759 0z" fill-rule="evenodd"/><path fill="#000000" d="m729.2621 47.744843l-0.75 1.515625q-1.375 -1.03125 -2.703125 -1.03125q-2.09375 0 -3.3125 1.484375q-1.203125 1.46875 -1.203125 3.90625q0 2.3125 1.1875 3.734375q1.1875 1.40625 3.234375 1.40625q1.46875 0 2.359375 -0.875l0 -3.125l-1.84375 0l0 -1.546875l3.671875 0l0 5.8125q-0.734375 0.609375 -2.03125 1.0q-1.296875 0.375 -2.53125 0.375q-2.765625 0 -4.359375 -1.875q-1.59375 -1.875 -1.59375 -4.984375q0 -3.09375 1.75 -5.015625q1.75 -1.9375 4.734375 -1.9375q2.078125 0 3.390625 1.15625zm5.022888 -1.03125q0.453125 0 0.765625 0.328125q0.3125 0.3125 0.3125 0.75q0 0.4375 -0.3125 0.75q-0.3125 0.3125 -0.765625 0.3125q-0.4375 0 -0.75 -0.3125q-0.3125 -0.3125 -0.3125 -0.75q0 -0.453125 0.296875 -0.765625q0.3125 -0.3125 0.765625 -0.3125zm-0.953125 13.453125l0 -8.296875l-1.328125 0l0 -1.453125l3.0625 0l0 9.75l-1.734375 0zm4.1324463 2.671875l0.9375 -1.390625q1.515625 1.015625 2.78125 1.015625q1.1875 0 1.859375 -0.40625q0.671875 -0.40625 0.671875 -1.0q0 -1.1875 -1.703125 -1.1875q-0.296875 0 -1.0625 0.140625q-0.765625 0.140625 -1.1875 0.140625q-2.078125 0 -2.078125 -1.5625q0 -0.484375 0.484375 -0.875q0.484375 -0.390625 1.203125 -0.5625q-2.046875 -0.96875 -2.046875 -3.359375q0 -1.515625 1.0625 -2.53125q1.0625 -1.03125 2.625 -1.03125q1.4375 0 2.25 0.59375l0.875 -1.046875l1.125 1.078125l-1.03125 0.78125q0.65625 0.859375 0.65625 2.25q0 1.484375 -0.921875 2.484375q-0.921875 1.0 -2.40625 1.140625l-1.4375 0.15625q-0.25 0.015625 -0.6875 0.1875q-0.421875 0.171875 -0.421875 0.4375q0 0.375 0.890625 0.375q0.390625 0 1.21875 -0.140625q0.828125 -0.140625 1.234375 -0.140625q1.4375 0 2.234375 0.6875q0.8125 0.6875 0.8125 1.90625q0 1.359375 -1.203125 2.1875q-1.203125 0.828125 -3.046875 0.828125q-0.953125 0 -2.0 -0.34375q-1.046875 -0.328125 -1.6875 -0.8125zm3.671875 -11.21875q-0.90625 0 -1.484375 0.640625q-0.5625 0.640625 -0.5625 1.546875q0 1.015625 0.546875 1.6875q0.5625 0.671875 1.5 0.671875q0.921875 0 1.4375 -0.640625q0.515625 -0.65625 0.515625 -1.71875q0 -0.90625 -0.5625 -1.546875q-0.546875 -0.640625 -1.390625 -0.640625zm11.552063 7.421875q-1.03125 1.3125 -3.171875 1.3125q-1.15625 0 -2.0 -0.828125q-0.828125 -0.84375 -0.828125 -2.078125q0 -1.484375 1.296875 -2.515625q1.296875 -1.03125 3.3125 -1.03125q0.546875 0 1.234375 0.25q0 -2.375 -2.109375 -2.375q-1.625 0 -2.5 0.875l-0.734375 -1.453125q0.5 -0.390625 1.359375 -0.671875q0.875 -0.296875 1.671875 -0.296875q2.125 0 3.078125 0.96875q0.96875 0.96875 0.96875 3.0625l0 3.5q0 1.28125 0.765625 1.71875l0 0.859375q-1.0625 0 -1.59375 -0.296875q-0.515625 -0.296875 -0.75 -1.0zm-0.15625 -3.671875q-0.828125 -0.171875 -1.15625 -0.171875q-1.296875 0 -2.140625 0.671875q-0.828125 0.671875 -0.828125 1.59375q0 1.515625 1.796875 1.515625q1.3125 0 2.328125 -1.25l0 -2.359375zm5.926819 4.09375l-0.609375 0.890625l-0.859375 0l0 -13.9375l1.71875 0l0 4.71875q0.25 -0.34375 0.921875 -0.625q0.6875 -0.28125 1.34375 -0.28125q2.0 0 3.234375 1.390625q1.25 1.375 1.25 3.484375q0 2.453125 -1.25 3.859375q-1.234375 1.390625 -3.375 1.390625q-0.6875 0 -1.359375 -0.265625q-0.671875 -0.265625 -1.015625 -0.625zm0.25 -7.015625l0 5.625q0 0.15625 0.640625 0.484375q0.65625 0.328125 1.0 0.328125q1.765625 0 2.53125 -0.84375q0.765625 -0.84375 0.765625 -2.84375q0 -1.65625 -0.890625 -2.578125q-0.890625 -0.9375 -2.40625 -0.9375q-0.328125 0 -0.890625 0.28125q-0.5625 0.265625 -0.75 0.484375zm10.456421 -5.734375q0.453125 0 0.765625 0.328125q0.3125 0.3125 0.3125 0.75q0 0.4375 -0.3125 0.75q-0.3125 0.3125 -0.765625 0.3125q-0.4375 0 -0.75 -0.3125q-0.3125 -0.3125 -0.3125 -0.75q0 -0.453125 0.296875 -0.765625q0.3125 -0.3125 0.765625 -0.3125zm-0.953125 13.453125l0 -8.296875l-1.328125 0l0 -1.453125l3.0625 0l0 9.75l-1.734375 0zm5.1011963 -8.390625l-1.125 0l0 -1.359375l1.125 0l0 -2.046875l1.734375 -0.671875l0 2.71875l2.6875 0l0 1.359375l-2.6875 0l0 4.84375q0 1.234375 0.40625 1.75q0.421875 0.515625 1.34375 0.515625q0.671875 0 1.375 -0.328125l0.25 1.515625q-1.0625 0.28125 -2.359375 0.28125q-1.15625 0 -1.953125 -0.859375q-0.796875 -0.875 -0.796875 -2.171875l0 -5.546875zm11.767456 7.8125l0.609375 -1.640625q1.453125 0.9375 2.328125 0.9375q1.609375 0 1.609375 -1.34375q0 -0.96875 -1.546875 -1.65625q-1.203125 -0.546875 -1.625 -0.828125q-0.40625 -0.28125 -0.71875 -0.640625q-0.296875 -0.359375 -0.453125 -0.765625q-0.140625 -0.40625 -0.140625 -0.875q0 -1.203125 0.875 -1.875q0.875 -0.671875 2.28125 -0.671875q1.0625 0 2.6875 0.671875l-0.484375 1.609375q-1.03125 -0.828125 -2.078125 -0.828125q-0.609375 0 -1.03125 0.296875q-0.421875 0.296875 -0.421875 0.734375q0 0.9375 1.0625 1.421875l1.234375 0.5625q1.140625 0.515625 1.65625 1.1875q0.515625 0.671875 0.515625 1.671875q0 1.3125 -0.921875 2.0625q-0.90625 0.734375 -2.546875 0.734375q-1.53125 0 -2.890625 -0.765625zm17.208069 0.765625l-0.453125 0l-2.859375 -6.640625l-2.859375 6.640625l-0.453125 0l-3.484375 -9.96875l1.84375 0l2.09375 6.40625l2.59375 -6.40625l0.453125 0l2.671875 6.40625l2.25 -6.40625l1.703125 0l-3.5 9.96875zm6.6484985 -13.640625q0.453125 0 0.765625 0.328125q0.3125 0.3125 0.3125 0.75q0 0.4375 -0.3125 0.75q-0.3125 0.3125 -0.765625 0.3125q-0.4375 0 -0.75 -0.3125q-0.3125 -0.3125 -0.3125 -0.75q0 -0.453125 0.296875 -0.765625q0.3125 -0.3125 0.765625 -0.3125zm-0.953125 13.453125l0 -8.296875l-1.328125 0l0 -1.453125l3.0625 0l0 9.75l-1.734375 0zm5.1011963 -8.390625l-1.125 0l0 -1.359375l1.125 0l0 -2.046875l1.734375 -0.671875l0 2.71875l2.6875 0l0 1.359375l-2.6875 0l0 4.84375q0 1.234375 0.40625 1.75q0.421875 0.515625 1.34375 0.515625q0.671875 0 1.375 -0.328125l0.25 1.515625q-1.0625 0.28125 -2.359375 0.28125q-1.15625 0 -1.953125 -0.859375q-0.796875 -0.875 -0.796875 -2.171875l0 -5.546875zm14.146912 -0.578125l-0.859375 1.21875q-0.265625 -0.25 -0.9375 -0.484375q-0.671875 -0.25 -1.3125 -0.25q-1.40625 0 -2.25 1.0q-0.828125 0.984375 -0.828125 2.703125q0 1.71875 0.84375 2.609375q0.859375 0.890625 2.359375 0.890625q1.171875 0 2.359375 -0.890625l0.671875 1.453125q-1.390625 0.90625 -3.453125 0.90625q-1.984375 0 -3.296875 -1.34375q-1.296875 -1.34375 -1.296875 -3.625q0 -2.328125 1.34375 -3.734375q1.359375 -1.421875 3.703125 -1.421875q0.765625 0 1.640625 0.328125q0.890625 0.3125 1.3125 0.640625zm7.8776245 8.96875l0 -6.125q0 -1.09375 -0.53125 -1.71875q-0.53125 -0.640625 -1.515625 -0.640625q-0.625 0 -1.265625 0.375q-0.625 0.359375 -0.96875 0.859375l0 7.25l-1.71875 0l0 -13.75l1.71875 0l0 5.0625q0.359375 -0.53125 1.125 -0.890625q0.765625 -0.359375 1.59375 -0.359375q1.546875 0 2.421875 1.03125q0.875 1.015625 0.875 2.78125l0 6.125l-1.734375 0z" fill-rule="nonzero"/><path fill="#cfe2f3" d="m610.0105 129.85826l151.52759 0l0 88.47244l-151.52759 0z" fill-rule="evenodd"/><path stroke="#000000" stroke-width="1.0" stroke-linejoin="round" stroke-linecap="butt" d="m610.0105 129.85826l151.52759 0l0 88.47244l-151.52759 0z" fill-rule="evenodd"/><path fill="#000000" d="m672.7078 181.01448l0 -6.171875q0 -2.3125 -2.0 -2.3125q-0.625 0 -1.171875 0.390625q-0.546875 0.390625 -0.75 0.875l0 7.21875l-1.734375 0l0 -6.9375q0 -0.71875 -0.546875 -1.125q-0.53125 -0.421875 -1.421875 -0.421875q-0.53125 0 -1.125 0.40625q-0.578125 0.40625 -0.828125 0.875l0 7.203125l-1.71875 0l0 -9.75l1.125 0l0.578125 1.125q1.0 -1.3125 2.5 -1.3125q2.09375 0 2.9375 1.296875q0.28125 -0.546875 1.078125 -0.921875q0.796875 -0.375 1.640625 -0.375q1.5 0 2.328125 0.90625q0.828125 0.890625 0.828125 2.515625l0 6.515625l-1.71875 0zm5.97052 -13.453125q0.453125 0 0.765625 0.328125q0.3125 0.3125 0.3125 0.75q0 0.4375 -0.3125 0.75q-0.3125 0.3125 -0.765625 0.3125q-0.4375 0 -0.75 -0.3125q-0.3125 -0.3125 -0.3125 -0.75q0 -0.453125 0.296875 -0.765625q0.3125 -0.3125 0.765625 -0.3125zm-0.953125 13.453125l0 -8.296875l-1.328125 0l0 -1.453125l3.0625 0l0 9.75l-1.734375 0zm10.679321 -0.015625l0 -0.71875q-0.90625 0.90625 -2.625 0.90625q-1.84375 0 -2.984375 -1.3125q-1.125 -1.3125 -1.125 -3.5q0 -2.1875 1.3125 -3.734375q1.3125 -1.5625 3.125 -1.5625q1.5 0 2.296875 0.703125l0 -4.515625l1.71875 0l0 13.734375l-1.71875 0zm0 -7.484375q-0.65625 -0.984375 -1.796875 -0.984375q-1.390625 0 -2.265625 1.046875q-0.859375 1.03125 -0.859375 2.640625q0 3.515625 3.21875 3.515625q0.40625 0 0.96875 -0.25q0.578125 -0.265625 0.734375 -0.5625l0 -5.40625zm10.206482 7.5l0 -5.671875q0 -1.5625 -0.46875 -2.1875q-0.46875 -0.625 -1.578125 -0.625q-0.59375 0 -1.234375 0.359375q-0.640625 0.359375 -1.0 0.875l0 7.25l-1.71875 0l0 -9.75l1.171875 0l0.546875 1.25q0.859375 -1.4375 2.796875 -1.4375q3.21875 0 3.21875 3.890625l0 6.046875l-1.734375 0zm9.693481 -1.125q-1.03125 1.3125 -3.171875 1.3125q-1.15625 0 -2.0 -0.828125q-0.828125 -0.84375 -0.828125 -2.078125q0 -1.484375 1.296875 -2.515625q1.296875 -1.03125 3.3125 -1.03125q0.546875 0 1.234375 0.25q0 -2.375 -2.109375 -2.375q-1.625 0 -2.5 0.875l-0.734375 -1.453125q0.5 -0.390625 1.359375 -0.671875q0.875 -0.296875 1.671875 -0.296875q2.125 0 3.078125 0.96875q0.96875 0.96875 0.96875 3.0625l0 3.5q0 1.28125 0.765625 1.71875l0 0.859375q-1.0625 0 -1.59375 -0.296875q-0.515625 -0.296875 -0.75 -1.0zm-0.15625 -3.671875q-0.828125 -0.171875 -1.15625 -0.171875q-1.296875 0 -2.140625 0.671875q-0.828125 0.671875 -0.828125 1.59375q0 1.515625 1.796875 1.515625q1.3125 0 2.328125 -1.25l0 -2.359375z" fill-rule="nonzero"/><path fill="#cfe2f3" d="m795.1837 129.85826l151.52759 0l0 88.47244l-151.52759 0z" fill-rule="evenodd"/><path stroke="#000000" stroke-width="1.0" stroke-linejoin="round" stroke-linecap="butt" d="m795.1837 129.85826l151.52759 0l0 88.47244l-151.52759 0z" fill-rule="evenodd"/><path fill="#000000" d="m846.44727 172.92073q-0.5625 -0.390625 -1.140625 -0.390625q-0.921875 0 -1.609375 0.859375q-0.6875 0.84375 -0.6875 2.03125l0 5.59375l-1.734375 0l0 -9.75l1.734375 0l0 1.546875q0.953125 -1.734375 2.8125 -1.734375q0.46875 0 1.34375 0.15625l-0.71875 1.6875zm1.3136597 3.1875q0 -2.25 1.21875 -3.640625q1.21875 -1.390625 3.203125 -1.390625q2.09375 0 3.25 1.34375q1.15625 1.328125 1.15625 3.6875q0 2.359375 -1.1875 3.734375q-1.1875 1.359375 -3.21875 1.359375q-2.09375 0 -3.265625 -1.375q-1.15625 -1.375 -1.15625 -3.71875zm1.8125 0q0 3.671875 2.609375 3.671875q1.203125 0 1.890625 -0.984375q0.6875 -0.984375 0.6875 -2.6875q0 -3.625 -2.578125 -3.625q-1.1875 0 -1.90625 0.96875q-0.703125 0.96875 -0.703125 2.65625zm10.480103 -4.84375l0 6.21875q0 2.25 1.953125 2.25q0.859375 0 1.5625 -0.484375q0.71875 -0.5 0.9375 -1.140625l0 -6.84375l1.734375 0l0 9.75l-1.734375 0l0 -1.34375q-0.28125 0.5625 -1.171875 1.046875q-0.875 0.484375 -1.703125 0.484375q-1.609375 0 -2.46875 -0.921875q-0.84375 -0.921875 -0.84375 -2.625l0 -6.390625l1.734375 0zm9.162231 1.359375l-1.125 0l0 -1.359375l1.125 0l0 -2.046875l1.734375 -0.671875l0 2.71875l2.6875 0l0 1.359375l-2.6875 0l0 4.84375q0 1.234375 0.40625 1.75q0.421875 0.515625 1.34375 0.515625q0.671875 0 1.375 -0.328125l0.25 1.515625q-1.0625 0.28125 -2.359375 0.28125q-1.15625 0 -1.953125 -0.859375q-0.796875 -0.875 -0.796875 -2.171875l0 -5.546875zm15.006287 3.6875l-7.046875 0q0 1.703125 0.953125 2.625q0.828125 0.796875 2.125 0.796875q1.484375 0 2.484375 -0.859375l0.71875 1.25q-0.390625 0.40625 -1.234375 0.6875q-1.03125 0.390625 -2.3125 0.390625q-1.828125 0 -3.125 -1.25q-1.421875 -1.375 -1.421875 -3.703125q0 -2.40625 1.46875 -3.875q1.3125 -1.296875 3.109375 -1.296875q2.078125 0 3.265625 1.171875q1.140625 1.125 1.140625 3.0q0 0.578125 -0.125 1.0625zm-4.203125 -3.78125q-1.15625 0 -1.9375 0.75q-0.75 0.71875 -0.859375 1.765625l5.40625 0q0 -1.046875 -0.65625 -1.75q-0.71875 -0.765625 -1.953125 -0.765625zm11.456604 0.390625q-0.5625 -0.390625 -1.140625 -0.390625q-0.921875 0 -1.609375 0.859375q-0.6875 0.84375 -0.6875 2.03125l0 5.59375l-1.734375 0l0 -9.75l1.734375 0l0 1.546875q0.953125 -1.734375 2.8125 -1.734375q0.46875 0 1.34375 0.15625l-0.71875 1.6875zm4.6261597 8.09375l-2.03125 0q0.671875 -2.140625 2.265625 -5.65625q1.59375 -3.53125 2.921875 -6.015625l-6.296875 0l0 -1.734375l8.65625 0l0 0.71875l-1.171875 2.3125q-0.59375 1.171875 -1.25 2.578125q-0.640625 1.40625 -1.265625 2.859375q-0.609375 1.453125 -1.078125 2.703125q-0.46875 1.25 -0.75 2.234375z" fill-rule="nonzero"/><path fill="#000000" fill-opacity="0.0" d="m447.02493 53.24672l70.20474 0" fill-rule="evenodd"/><path stroke="#000000" stroke-width="2.0" stroke-linejoin="round" stroke-linecap="butt" d="m459.02493 53.24672l46.204712 0" fill-rule="evenodd"/><path fill="#000000" stroke="#000000" stroke-width="2.0" stroke-linecap="butt" d="m459.02493 49.943253l-9.076202 3.3034668l9.076202 3.303463z" fill-rule="evenodd"/><path fill="#000000" stroke="#000000" stroke-width="2.0" stroke-linecap="butt" d="m505.22964 56.550182l9.076202 -3.303463l-9.076202 -3.3034668z" fill-rule="evenodd"/><path fill="#000000" fill-opacity="0.0" d="m261.4685 53.24672l34.015747 0" fill-rule="evenodd"/><path stroke="#000000" stroke-width="2.0" stroke-linejoin="round" stroke-linecap="butt" d="m273.4685 53.24672l10.015747 0" fill-rule="evenodd"/><path fill="#000000" stroke="#000000" stroke-width="2.0" stroke-linecap="butt" d="m273.4685 49.943253l-9.076202 3.3034668l9.076202 3.303463z" fill-rule="evenodd"/><path fill="#000000" stroke="#000000" stroke-width="2.0" stroke-linecap="butt" d="m283.48425 56.550182l9.076202 -3.303463l-9.076202 -3.3034668z" fill-rule="evenodd"/><path fill="#000000" fill-opacity="0.0" d="m185.70473 97.48294l88.535416 32.377945" fill-rule="evenodd"/><path stroke="#000000" stroke-width="2.0" stroke-linejoin="round" stroke-linecap="butt" d="m196.97473 101.604454l65.99542 24.134926" fill-rule="evenodd"/><path fill="#000000" stroke="#000000" stroke-width="2.0" stroke-linecap="butt" d="m198.10934 98.501945l-9.658676 -0.014801025l7.3894653 6.2198105z" fill-rule="evenodd"/><path fill="#000000" stroke="#000000" stroke-width="2.0" stroke-linecap="butt" d="m261.83554 128.84189l9.658661 0.014801025l-7.389435 -6.219818z" fill-rule="evenodd"/><path fill="#000000" fill-opacity="0.0" d="m185.70473 97.48294l-96.66142 32.377945" fill-rule="evenodd"/><path stroke="#000000" stroke-width="2.0" stroke-linejoin="round" stroke-linecap="butt" d="m174.3261 101.29435l-73.90416 24.755127" fill-rule="evenodd"/><path fill="#000000" stroke="#000000" stroke-width="2.0" stroke-linecap="butt" d="m175.37534 104.42676l7.5569763 -6.015167l-9.655457 -0.24964905z" fill-rule="evenodd"/><path fill="#000000" stroke="#000000" stroke-width="2.0" stroke-linecap="butt" d="m99.372696 122.91707l-7.556984 6.015167l9.655457 0.24964905z" fill-rule="evenodd"/><path fill="#000000" fill-opacity="0.0" d="m778.3609 97.48294l-92.59845 32.377945" fill-rule="evenodd"/><path stroke="#000000" stroke-width="2.0" stroke-linejoin="round" stroke-linecap="butt" d="m767.0334 101.44371l-69.94342 24.456406" fill-rule="evenodd"/><path fill="#000000" stroke="#000000" stroke-width="2.0" stroke-linecap="butt" d="m768.1237 104.56204l7.477234 -6.1140594l-9.657898 -0.12260437z" fill-rule="evenodd"/><path fill="#000000" stroke="#000000" stroke-width="2.0" stroke-linecap="butt" d="m695.99963 122.781784l-7.477234 6.1140594l9.657898 0.12260437z" fill-rule="evenodd"/><path fill="#000000" fill-opacity="0.0" d="m778.3609 97.48294l92.59839 32.377945" fill-rule="evenodd"/><path stroke="#000000" stroke-width="2.0" stroke-linejoin="round" stroke-linecap="butt" d="m789.6884 101.44371l69.94342 24.456406" fill-rule="evenodd"/><path fill="#000000" stroke="#000000" stroke-width="2.0" stroke-linecap="butt" d="m790.77875 98.32538l-9.657898 0.12260437l7.477173 6.1140594z" fill-rule="evenodd"/><path fill="#000000" stroke="#000000" stroke-width="2.0" stroke-linecap="butt" d="m858.54144 129.01845l9.657898 -0.12260437l-7.477173 -6.1140594z" fill-rule="evenodd"/><path fill="#000000" fill-opacity="0.0" d="m668.7651 53.24672l34.015747 0" fill-rule="evenodd"/><path stroke="#000000" stroke-width="2.0" stroke-linejoin="round" stroke-linecap="butt" d="m680.7651 53.24672l10.015747 0" fill-rule="evenodd"/><path fill="#000000" stroke="#000000" stroke-width="2.0" stroke-linecap="butt" d="m680.7651 49.943253l-9.076172 3.3034668l9.076172 3.303463z" fill-rule="evenodd"/><path fill="#000000" stroke="#000000" stroke-width="2.0" stroke-linecap="butt" d="m690.7808 56.550182l9.076233 -3.303463l-9.076233 -3.3034668z" fill-rule="evenodd"/><path fill="#000000" fill-opacity="0.0" d="m446.93176 53.24672l70.20471 0l0 42.015747l-70.20471 0z" fill-rule="evenodd"/><path fill="#000000" d="m475.36523 80.16672l0 -10.234375l-2.703125 1.703125l0 -1.703125q1.015625 -0.53125 2.171875 -1.4375q1.171875 -0.90625 1.8125 -1.734375l0.546875 0l0 13.40625l-1.828125 0zm15.861725 -12.421875l-0.75 1.515625q-1.375 -1.03125 -2.703125 -1.03125q-2.09375 0 -3.3125 1.484375q-1.203125 1.46875 -1.203125 3.90625q0 2.3125 1.1875 3.734375q1.1875 1.40625 3.234375 1.40625q1.46875 0 2.359375 -0.875l0 -3.125l-1.84375 0l0 -1.546875l3.671875 0l0 5.8125q-0.734375 0.609375 -2.03125 1.0q-1.296875 0.375 -2.53125 0.375q-2.765625 0 -4.359375 -1.875q-1.59375 -1.875 -1.59375 -4.984375q0 -3.09375 1.75 -5.015625q1.75 -1.9375 4.734375 -1.9375q2.078125 0 3.390625 1.15625z" fill-rule="nonzero"/></g></svg>