<svg version="1.1" viewBox="0.0 0.0 761.5380577427821 418.46194225721786" fill="none" stroke="none" stroke-linecap="square" stroke-miterlimit="10" xmlns:xlink="http://www.w3.org/1999/xlink" xmlns="http://www.w3.org/2000/svg"><clipPath id="p.0"><path d="m0 0l761.5381 0l0 418.46194l-761.5381 0l0 -418.46194z" clip-rule="nonzero"/></clipPath><g clip-path="url(#p.0)"><path fill="#000000" fill-opacity="0.0" d="m0 0l761.5381 0l0 418.46194l-761.5381 0z" fill-rule="evenodd"/><path fill="#000000" fill-opacity="0.0" d="m97.614174 80.7489l641.0079 0" fill-rule="evenodd"/><path stroke="#000000" stroke-width="2.0" stroke-linejoin="round" stroke-linecap="butt" d="m97.614174 80.7489l629.0079 0" fill-rule="evenodd"/><path fill="#000000" stroke="#000000" stroke-width="2.0" stroke-linecap="butt" d="m726.6221 84.05236l9.076172 -3.3034592l-9.076172 -3.3034668z" fill-rule="evenodd"/><path fill="#000000" fill-opacity="0.0" d="m109.35958 68.21346l0 25.07087" fill-rule="evenodd"/><path stroke="#000000" stroke-width="2.0" stroke-linejoin="round" stroke-linecap="butt" d="m109.35958 68.21346l0 25.07087" fill-rule="evenodd"/><path fill="#000000" fill-opacity="0.0" d="m263.65878 67.756775l0 25.070862" fill-rule="evenodd"/><path stroke="#000000" stroke-width="2.0" stroke-linejoin="round" stroke-linecap="butt" d="m263.65878 67.756775l0 25.070862" fill-rule="evenodd"/><path fill="#000000" fill-opacity="0.0" d="m417.958 68.21346l0 25.07087" fill-rule="evenodd"/><path stroke="#000000" stroke-width="2.0" stroke-linejoin="round" stroke-linecap="butt" d="m417.958 68.21346l0 25.07087" fill-rule="evenodd"/><path fill="#cfe2f3" d="m109.35958 98.25984l70.99212 0l0 67.02362l-70.99212 0z" fill-rule="evenodd"/><path stroke="#000000" stroke-width="1.0" stroke-linejoin="round" stroke-linecap="butt" d="m109.35958 98.25984l70.99212 0l0 67.02362l-70.99212 0z" fill-rule="evenodd"/><path fill="#000000" d="m136.77594 117.17978l0.6875 0.765625q-0.625 0.25 -1.828125 1.703125q-1.1875 1.4375 -1.3125 2.21875q0.59375 -0.578125 1.65625 -0.578125q1.390625 0 2.21875 0.890625q0.84375 0.890625 0.84375 2.4375q0 1.53125 -0.859375 2.46875q-0.859375 0.9375 -2.171875 0.9375q-3.453125 0 -3.453125 -4.5625q0 -1.90625 1.34375 -3.890625q1.359375 -2.0 2.875 -2.390625zm-2.703125 7.390625q0 2.25 1.828125 2.25q0.78125 0 1.21875 -0.578125q0.453125 -0.59375 0.453125 -1.546875q0 -1.0 -0.46875 -1.59375q-0.46875 -0.59375 -1.21875 -0.59375q-1.8125 0 -1.8125 2.0625zm15.420319 3.28125l0 -4.859375q0 -1.796875 -1.578125 -1.796875q-0.484375 0 -0.921875 0.3125q-0.421875 0.296875 -0.578125 0.671875l0 5.671875l-1.359375 0l0 -5.453125q0 -0.5625 -0.4375 -0.875q-0.421875 -0.328125 -1.125 -0.328125q-0.40625 0 -0.875 0.3125q-0.453125 0.3125 -0.640625 0.6875l0 5.65625l-1.359375 0l0 -7.671875l0.890625 0l0.4375 0.890625q0.796875 -1.03125 1.96875 -1.03125q1.65625 0 2.3125 1.03125q0.234375 -0.4375 0.84375 -0.734375q0.625 -0.296875 1.28125 -0.296875q1.1875 0 1.84375 0.71875q0.65625 0.703125 0.65625 1.96875l0 5.125l-1.359375 0zm2.7908325 -0.453125l0.46875 -1.296875q1.140625 0.75 1.84375 0.75q1.25 0 1.25 -1.0625q0 -0.75 -1.21875 -1.296875q-0.9375 -0.4375 -1.265625 -0.65625q-0.3125 -0.21875 -0.5625 -0.5q-0.234375 -0.28125 -0.359375 -0.59375q-0.109375 -0.328125 -0.109375 -0.6875q0 -0.953125 0.6875 -1.484375q0.6875 -0.53125 1.796875 -0.53125q0.828125 0 2.109375 0.53125l-0.390625 1.265625q-0.796875 -0.640625 -1.625 -0.640625q-0.484375 0 -0.8125 0.234375q-0.328125 0.21875 -0.328125 0.5625q0 0.75 0.828125 1.125l0.96875 0.4375q0.90625 0.40625 1.3125 0.9375q0.40625 0.515625 0.40625 1.3125q0 1.03125 -0.734375 1.609375q-0.71875 0.578125 -2.0 0.578125q-1.203125 0 -2.265625 -0.59375z" fill-rule="nonzero"/><path fill="#000000" d="m122.76265 145.42978l0 3.421875l-1.359375 0l0 -10.671875l1.359375 0l0 0.640625q0.765625 -0.78125 1.859375 -0.78125q1.640625 0 2.546875 1.015625q0.90625 1.015625 0.90625 2.984375q0 1.75 -0.921875 2.859375q-0.90625 1.09375 -2.640625 1.09375q-0.484375 0 -1.046875 -0.171875q-0.546875 -0.171875 -0.703125 -0.390625zm0 -5.59375l0 4.46875q0.125 0.1875 0.53125 0.375q0.421875 0.171875 0.8125 0.171875q2.546875 0 2.546875 -2.859375q0 -1.453125 -0.609375 -2.125q-0.59375 -0.671875 -1.921875 -0.671875q-0.28125 0 -0.703125 0.203125q-0.421875 0.1875 -0.65625 0.4375zm10.962296 -0.34375q-0.4375 -0.296875 -0.890625 -0.296875q-0.71875 0 -1.265625 0.671875q-0.53125 0.65625 -0.53125 1.59375l0 4.390625l-1.359375 0l0 -7.671875l1.359375 0l0 1.234375q0.734375 -1.375 2.203125 -1.375q0.375 0 1.0625 0.140625l-0.578125 1.3125zm1.0402222 2.515625q0 -1.78125 0.953125 -2.875q0.953125 -1.09375 2.515625 -1.09375q1.640625 0 2.546875 1.0625q0.921875 1.046875 0.921875 2.90625q0 1.84375 -0.9375 2.921875q-0.9375 1.0625 -2.53125 1.0625q-1.640625 0 -2.5625 -1.078125q-0.90625 -1.078125 -0.90625 -2.90625zm1.421875 0q0 2.875 2.046875 2.875q0.953125 0 1.484375 -0.765625q0.546875 -0.78125 0.546875 -2.109375q0 -2.859375 -2.03125 -2.859375q-0.9375 0 -1.5 0.765625q-0.546875 0.75 -0.546875 2.09375zm12.724228 -3.203125l-0.671875 0.96875q-0.203125 -0.21875 -0.734375 -0.390625q-0.53125 -0.1875 -1.03125 -0.1875q-1.109375 0 -1.765625 0.78125q-0.65625 0.765625 -0.65625 2.125q0 1.34375 0.671875 2.046875q0.671875 0.703125 1.84375 0.703125q0.921875 0 1.84375 -0.703125l0.546875 1.140625q-1.09375 0.703125 -2.71875 0.703125q-1.5625 0 -2.59375 -1.046875q-1.015625 -1.046875 -1.015625 -2.84375q0 -1.84375 1.0625 -2.953125q1.0625 -1.109375 2.90625 -1.109375q0.59375 0 1.28125 0.25q0.703125 0.25 1.03125 0.515625zm7.9284363 3.34375l-5.53125 0q0 1.34375 0.75 2.078125q0.640625 0.625 1.671875 0.625q1.15625 0 1.9375 -0.6875l0.578125 0.984375q-0.3125 0.3125 -0.96875 0.546875q-0.8125 0.296875 -1.8125 0.296875q-1.453125 0 -2.453125 -0.984375q-1.125 -1.078125 -1.125 -2.90625q0 -1.890625 1.15625 -3.03125q1.015625 -1.03125 2.4375 -1.03125q1.640625 0 2.5625 0.921875q0.90625 0.890625 0.90625 2.359375q0 0.453125 -0.109375 0.828125zm-3.296875 -2.953125q-0.90625 0 -1.53125 0.578125q-0.578125 0.5625 -0.65625 1.390625l4.234375 0q0 -0.828125 -0.515625 -1.375q-0.5625 -0.59375 -1.53125 -0.59375zm4.3374176 6.203125l0.46875 -1.296875q1.140625 0.75 1.84375 0.75q1.25 0 1.25 -1.0625q0 -0.75 -1.21875 -1.296875q-0.9375 -0.4375 -1.265625 -0.65625q-0.3125 -0.21875 -0.5625 -0.5q-0.234375 -0.28125 -0.359375 -0.59375q-0.109375 -0.328125 -0.109375 -0.6875q0 -0.953125 0.6875 -1.484375q0.6875 -0.53125 1.796875 -0.53125q0.828125 0 2.109375 0.53125l-0.390625 1.265625q-0.796875 -0.640625 -1.625 -0.640625q-0.484375 0 -0.8125 0.234375q-0.328125 0.21875 -0.328125 0.5625q0 0.75 0.828125 1.125l0.96875 0.4375q0.90625 0.40625 1.3125 0.9375q0.40625 0.515625 0.40625 1.3125q0 1.03125 -0.734375 1.609375q-0.71875 0.578125 -2.0 0.578125q-1.203125 0 -2.265625 -0.59375zm5.9326324 0l0.46875 -1.296875q1.140625 0.75 1.84375 0.75q1.25 0 1.25 -1.0625q0 -0.75 -1.21875 -1.296875q-0.9375 -0.4375 -1.265625 -0.65625q-0.3125 -0.21875 -0.5625 -0.5q-0.234375 -0.28125 -0.359375 -0.59375q-0.109375 -0.328125 -0.109375 -0.6875q0 -0.953125 0.6875 -1.484375q0.6875 -0.53125 1.796875 -0.53125q0.828125 0 2.109375 0.53125l-0.390625 1.265625q-0.796875 -0.640625 -1.625 -0.640625q-0.484375 0 -0.8125 0.234375q-0.328125 0.21875 -0.328125 0.5625q0 0.75 0.828125 1.125l0.96875 0.4375q0.90625 0.40625 1.3125 0.9375q0.40625 0.515625 0.40625 1.3125q0 1.03125 -0.734375 1.609375q-0.71875 0.578125 -2.0 0.578125q-1.203125 0 -2.265625 -0.59375z" fill-rule="nonzero"/><path fill="#000000" fill-opacity="0.0" d="m8.028872 58.764645l76.409454 0l0 43.968502l-76.409454 0z" fill-rule="evenodd"/><path fill="#000000" d="m23.153872 72.10652l0.875 0.96875q-0.796875 0.328125 -2.3125 2.15625q-1.515625 1.828125 -1.6875 2.828125q0.765625 -0.734375 2.109375 -0.734375q1.765625 0 2.828125 1.140625q1.078125 1.125 1.078125 3.09375q0 1.96875 -1.109375 3.171875q-1.09375 1.1875 -2.75 1.1875q-4.390625 0 -4.390625 -5.828125q0 -2.421875 1.71875 -4.953125q1.71875 -2.546875 3.640625 -3.03125zm-3.453125 9.40625q0 2.84375 2.34375 2.84375q0.984375 0 1.546875 -0.734375q0.578125 -0.75 0.578125 -1.96875q0 -1.265625 -0.609375 -2.015625q-0.59375 -0.765625 -1.546875 -0.765625q-2.3125 0 -2.3125 2.640625zm7.68985 -2.90625q0 -2.875 1.171875 -4.6875q1.171875 -1.8125 3.28125 -1.8125q2.093748 0 3.140623 1.515625q1.0625 1.5 1.0625 5.28125q0 3.234375 -1.109375 5.109375q-1.109375 1.859375 -3.218748 1.859375q-2.125 0 -3.234375 -1.5q-1.09375 -1.515625 -1.09375 -5.765625zm1.828125 0.15625q0 5.5625 2.359375 5.5625q1.3593731 0 1.9999981 -1.234375q0.640625 -1.234375 0.640625 -4.3125q0 -2.125 -0.25 -3.109375q-0.234375 -1.0 -0.78125 -1.5q-0.546875 -0.515625 -1.3906231 -0.515625q-2.578125 0 -2.578125 5.109375zm22.013533 6.921875l0 -6.453125l-5.828125 0l0 6.453125l-1.828125 0l0 -13.34375l1.828125 0l0 5.34375l5.828125 0l0 -5.34375l1.828125 0l0 13.34375l-1.828125 0zm6.269226 -1.546875l5.40625 0l0 1.546875l-8.125 0l0 -0.453125l5.546875 -7.75l-5.453125 0l0 -1.546875l7.984375 0l0 0.484375l-5.359375 7.71875z" fill-rule="nonzero"/><path fill="#000000" fill-opacity="0.0" d="m44.509186 7.2125986E-4l64.850395 0l0 42.015747l-64.850395 0z" fill-rule="evenodd"/><path fill="#000000" d="m62.102936 17.95197l-0.859375 1.21875q-0.265625 -0.25 -0.9375 -0.484375q-0.671875 -0.25 -1.3125 -0.25q-1.40625 0 -2.25 1.0q-0.828125 0.984375 -0.828125 2.703125q0 1.71875 0.84375 2.609375q0.859375 0.890625 2.359375 0.890625q1.171875 0 2.359375 -0.890625l0.671875 1.453125q-1.390625 0.90625 -3.453125 0.90625q-1.984375 0 -3.296875 -1.34375q-1.296875 -1.34375 -1.296875 -3.625q0 -2.328125 1.34375 -3.734375q1.359375 -1.421875 3.703125 -1.421875q0.765625 0 1.640625 0.328125q0.890625 0.3125 1.3125 0.640625zm2.002655 6.203125l0 -10.984375l1.734375 0l0 10.703125q0 0.78125 0.453125 1.234375q0.453125 0.453125 1.1875 0.453125l0 1.546875q-3.375 0 -3.375 -2.953125zm7.158386 -10.6875q0.453125 0 0.765625 0.328125q0.3125 0.3125 0.3125 0.75q0 0.4375 -0.3125 0.75q-0.3125 0.3125 -0.765625 0.3125q-0.4375 0 -0.75 -0.3125q-0.3125 -0.3125 -0.3125 -0.75q0 -0.453125 0.296875 -0.765625q0.3125 -0.3125 0.765625 -0.3125zm-0.953125 13.453125l0 -8.296875l-1.328125 0l0 -1.453125l3.0625 0l0 9.75l-1.734375 0zm11.851196 -8.96875l-0.859375 1.21875q-0.265625 -0.25 -0.9375 -0.484375q-0.671875 -0.25 -1.3125 -0.25q-1.40625 0 -2.25 1.0q-0.828125 0.984375 -0.828125 2.703125q0 1.71875 0.84375 2.609375q0.859375 0.890625 2.359375 0.890625q1.171875 0 2.359375 -0.890625l0.671875 1.453125q-1.390625 0.90625 -3.453125 0.90625q-1.984375 0 -3.296875 -1.34375q-1.296875 -1.34375 -1.296875 -3.625q0 -2.328125 1.34375 -3.734375q1.359375 -1.421875 3.703125 -1.421875q0.765625 0 1.640625 0.328125q0.890625 0.3125 1.3125 0.640625zm8.17453 8.96875l-3.0625 -4.875l-1.515625 1.546875l0 3.328125l-1.71875 0l0 -13.75l1.71875 0l0 8.53125l3.75 -4.53125l2.015625 0l-3.125 3.703125l3.8125 6.046875l-1.875 0zm5.6444855 -3.484375l-0.65625 0q-0.703125 -4.578125 -0.703125 -6.359375l0 -3.734375l2.0625 0l0 3.71875q0 1.75 -0.703125 6.375zm-0.265625 0.921875q0.5625 0 0.953125 0.40625q0.40625 0.390625 0.40625 0.96875q0 0.5625 -0.40625 0.96875q-0.390625 0.40625 -0.953125 0.40625q-0.5625 0 -0.96875 -0.40625q-0.40625 -0.40625 -0.40625 -0.96875q0 -0.578125 0.40625 -0.96875q0.40625 -0.40625 0.96875 -0.40625z" fill-rule="nonzero"/><path fill="#000000" fill-opacity="0.0" d="m76.93438 42.016468c0 44.881893 16.220474 89.76378 32.44095 89.76378" fill-rule="evenodd"/><path stroke="#000000" stroke-width="1.0" stroke-linejoin="round" stroke-linecap="butt" d="m76.93438 42.016468c0 22.440945 4.0551224 44.881886 10.137802 61.712597c3.041336 8.415352 6.5895615 15.428146 10.391235 20.337105c1.9008408 2.4544754 3.865036 4.383003 5.860916 5.697899l0.32920074 0.21032715" fill-rule="evenodd"/><path fill="#000000" stroke="#000000" stroke-width="1.0" stroke-linecap="butt" d="m103.1564 131.54955l4.824806 -0.20928955l-3.8305435 -2.9409943z" fill-rule="evenodd"/><path fill="#000000" fill-opacity="0.0" d="m180.3517 131.77165l80.31496 0" fill-rule="evenodd"/><path stroke="#000000" stroke-width="2.0" stroke-linejoin="round" stroke-linecap="butt" stroke-dasharray="8.0,6.0" d="m180.3517 131.77165l68.31497 0" fill-rule="evenodd"/><path fill="#000000" stroke="#000000" stroke-width="2.0" stroke-linecap="butt" d="m248.66667 135.07512l9.076187 -3.3034668l-9.076187 -3.3034668z" fill-rule="evenodd"/><path fill="#000000" fill-opacity="0.0" d="m177.91077 93.28346l96.12598 0l0 38.771652l-96.12598 0z" fill-rule="evenodd"/><path fill="#000000" d="m195.70764 117.79971l-0.390625 0l-2.453125 -5.703125l-2.453125 5.703125l-0.390625 0l-2.984375 -8.546875l1.578125 0l1.796875 5.484375l2.21875 -5.484375l0.390625 0l2.296875 5.484375l1.921875 -5.484375l1.46875 0l-3.0 8.546875zm8.890625 -1.125q-0.890625 1.125 -2.71875 1.125q-0.984375 0 -1.71875 -0.71875q-0.71875 -0.71875 -0.71875 -1.78125q0 -1.265625 1.109375 -2.140625q1.125 -0.890625 2.84375 -0.890625q0.46875 0 1.0625 0.203125q0 -2.03125 -1.8125 -2.03125q-1.390625 0 -2.140625 0.75l-0.625 -1.234375q0.421875 -0.34375 1.171875 -0.59375q0.75 -0.25 1.421875 -0.25q1.828125 0 2.640625 0.828125q0.828125 0.828125 0.828125 2.640625l0 3.0q0 1.09375 0.65625 1.46875l0 0.75q-0.90625 0 -1.359375 -0.265625q-0.4375 -0.265625 -0.640625 -0.859375zm-0.140625 -3.140625q-0.703125 -0.15625 -0.984375 -0.15625q-1.125 0 -1.84375 0.578125q-0.703125 0.578125 -0.703125 1.359375q0 1.3125 1.546875 1.3125q1.125 0 1.984375 -1.078125l0 -2.015625zm5.359375 -7.421875q0.375 0 0.640625 0.265625q0.28125 0.265625 0.28125 0.640625q0 0.390625 -0.28125 0.65625q-0.265625 0.265625 -0.640625 0.265625q-0.375 0 -0.65625 -0.265625q-0.265625 -0.265625 -0.265625 -0.65625q0 -0.375 0.265625 -0.640625q0.265625 -0.265625 0.65625 -0.265625zm-0.8125 11.53125l0 -7.125l-1.15625 0l0 -1.25l2.640625 0l0 8.375l-1.484375 0zm4.375 -7.203125l-0.96875 0l0 -1.171875l0.96875 0l0 -1.75l1.484375 -0.5625l0 2.3125l2.296875 0l0 1.171875l-2.296875 0l0 4.15625q0 1.0625 0.34375 1.515625q0.359375 0.4375 1.15625 0.4375q0.5625 0 1.171875 -0.296875l0.21875 1.3125q-0.921875 0.234375 -2.015625 0.234375q-1.0 0 -1.6875 -0.734375q-0.671875 -0.75 -0.671875 -1.875l0 -4.75zm13.4609375 7.203125l0 -8.78125l-2.328125 1.453125l0 -1.453125q0.890625 -0.453125 1.875 -1.234375q1.0 -0.78125 1.546875 -1.484375l0.46875 0l0 11.5l-1.5625 0zm5.0 -6.078125q0 -2.46875 1.0 -4.015625q1.0 -1.5625 2.8125 -1.5625q1.796875 0 2.703125 1.296875q0.90625 1.296875 0.90625 4.53125q0 2.78125 -0.953125 4.390625q-0.9375 1.59375 -2.765625 1.59375q-1.8125 0 -2.765625 -1.28125q-0.9375 -1.296875 -0.9375 -4.953125zm1.5625 0.140625q0 4.765625 2.03125 4.765625q1.171875 0 1.71875 -1.046875q0.546875 -1.0625 0.546875 -3.703125q0 -1.828125 -0.21875 -2.671875q-0.203125 -0.859375 -0.671875 -1.296875q-0.46875 -0.4375 -1.1875 -0.4375q-2.21875 0 -2.21875 4.390625zm17.078125 5.9375l0 -5.296875q0 -1.984375 -1.71875 -1.984375q-0.53125 0 -1.0 0.34375q-0.46875 0.328125 -0.640625 0.75l0 6.1875l-1.484375 0l0 -5.953125q0 -0.609375 -0.46875 -0.96875q-0.46875 -0.359375 -1.234375 -0.359375q-0.4375 0 -0.953125 0.34375q-0.5 0.34375 -0.703125 0.765625l0 6.171875l-1.484375 0l0 -8.375l0.96875 0l0.484375 0.96875q0.859375 -1.125 2.15625 -1.125q1.796875 0 2.515625 1.125q0.25 -0.484375 0.921875 -0.796875q0.6875 -0.328125 1.40625 -0.328125q1.296875 0 2.0 0.78125q0.71875 0.765625 0.71875 2.15625l0 5.59375l-1.484375 0zm3.046875 -0.5l0.515625 -1.40625q1.25 0.8125 2.0 0.8125q1.375 0 1.375 -1.15625q0 -0.828125 -1.328125 -1.421875q-1.015625 -0.46875 -1.375 -0.703125q-0.359375 -0.25 -0.625 -0.5625q-0.25 -0.3125 -0.390625 -0.65625q-0.125 -0.34375 -0.125 -0.75q0 -1.03125 0.75 -1.609375q0.75 -0.578125 1.96875 -0.578125q0.90625 0 2.296875 0.578125l-0.421875 1.375q-0.875 -0.703125 -1.765625 -0.703125q-0.53125 0 -0.90625 0.25q-0.359375 0.25 -0.359375 0.640625q0 0.796875 0.921875 1.21875l1.0625 0.484375q0.96875 0.4375 1.40625 1.015625q0.453125 0.5625 0.453125 1.421875q0 1.125 -0.796875 1.765625q-0.78125 0.640625 -2.171875 0.640625q-1.328125 0 -2.484375 -0.65625z" fill-rule="nonzero"/><path fill="#000000" fill-opacity="0.0" d="m572.2572 67.985115l0 25.07087" fill-rule="evenodd"/><path stroke="#000000" stroke-width="2.0" stroke-linejoin="round" stroke-linecap="butt" d="m572.2572 67.985115l0 25.07087" fill-rule="evenodd"/><path fill="#cfe2f3" d="m507.72964 102.51575l70.99216 0l0 67.02362l-70.99216 0z" fill-rule="evenodd"/><path stroke="#000000" stroke-width="1.0" stroke-linejoin="round" stroke-linecap="butt" d="m507.72964 102.51575l70.99216 0l0 67.02362l-70.99216 0z" fill-rule="evenodd"/><path fill="#000000" d="m535.146 121.435684l0.6875 0.765625q-0.625 0.25 -1.828125 1.703125q-1.1875 1.4375 -1.3125 2.21875q0.59375 -0.578125 1.65625 -0.578125q1.390625 0 2.21875 0.890625q0.84375 0.890625 0.84375 2.4375q0 1.53125 -0.859375 2.46875q-0.859375 0.9375 -2.171875 0.9375q-3.453125 0 -3.453125 -4.5625q0 -1.90625 1.34375 -3.890625q1.359375 -2.0 2.875 -2.390625zm-2.703125 7.390625q0 2.25 1.828125 2.25q0.78125 0 1.21875 -0.578125q0.453125 -0.59375 0.453125 -1.546875q0 -1.0 -0.46875 -1.59375q-0.46875 -0.59375 -1.21875 -0.59375q-1.8125 0 -1.8125 2.0625zm15.420349 3.28125l0 -4.859375q0 -1.796875 -1.578125 -1.796875q-0.484375 0 -0.921875 0.3125q-0.421875 0.296875 -0.578125 0.671875l0 5.671875l-1.359375 0l0 -5.453125q0 -0.5625 -0.4375 -0.875q-0.421875 -0.328125 -1.125 -0.328125q-0.40625 0 -0.875 0.3125q-0.453125 0.3125 -0.640625 0.6875l0 5.65625l-1.359375 0l0 -7.671875l0.890625 0l0.4375 0.890625q0.796875 -1.03125 1.96875 -1.03125q1.65625 0 2.3125 1.03125q0.234375 -0.4375 0.84375 -0.734375q0.625 -0.296875 1.28125 -0.296875q1.1875 0 1.84375 0.71875q0.65625 0.703125 0.65625 1.96875l0 5.125l-1.359375 0zm2.7908325 -0.453125l0.46875 -1.296875q1.140625 0.75 1.84375 0.75q1.25 0 1.25 -1.0625q0 -0.75 -1.21875 -1.296875q-0.9375 -0.4375 -1.265625 -0.65625q-0.3125 -0.21875 -0.5625 -0.5q-0.234375 -0.28125 -0.359375 -0.59375q-0.109375 -0.328125 -0.109375 -0.6875q0 -0.953125 0.6875 -1.484375q0.6875 -0.53125 1.796875 -0.53125q0.828125 0 2.109375 0.53125l-0.390625 1.265625q-0.796875 -0.640625 -1.625 -0.640625q-0.484375 0 -0.8125 0.234375q-0.328125 0.21875 -0.328125 0.5625q0 0.75 0.828125 1.125l0.96875 0.4375q0.90625 0.40625 1.3125 0.9375q0.40625 0.515625 0.40625 1.3125q0 1.03125 -0.734375 1.609375q-0.71875 0.578125 -2.0 0.578125q-1.203125 0 -2.265625 -0.59375z" fill-rule="nonzero"/><path fill="#000000" d="m521.13275 149.68568l0 3.421875l-1.359375 0l0 -10.671875l1.359375 0l0 0.640625q0.765625 -0.78125 1.859375 -0.78125q1.640625 0 2.546875 1.015625q0.90625 1.015625 0.90625 2.984375q0 1.75 -0.921875 2.859375q-0.90625 1.09375 -2.640625 1.09375q-0.484375 0 -1.046875 -0.171875q-0.546875 -0.171875 -0.703125 -0.390625zm0 -5.59375l0 4.46875q0.125 0.1875 0.53125 0.375q0.421875 0.171875 0.8125 0.171875q2.546875 0 2.546875 -2.859375q0 -1.453125 -0.609375 -2.125q-0.59375 -0.671875 -1.921875 -0.671875q-0.28125 0 -0.703125 0.203125q-0.421875 0.1875 -0.65625 0.4375zm10.96228 -0.34375q-0.4375 -0.296875 -0.890625 -0.296875q-0.71875 0 -1.265625 0.671875q-0.53125 0.65625 -0.53125 1.59375l0 4.390625l-1.359375 0l0 -7.671875l1.359375 0l0 1.234375q0.734375 -1.375 2.203125 -1.375q0.375 0 1.0625 0.140625l-0.578125 1.3125zm1.0402222 2.515625q0 -1.78125 0.953125 -2.875q0.953125 -1.09375 2.515625 -1.09375q1.640625 0 2.546875 1.0625q0.921875 1.046875 0.921875 2.90625q0 1.84375 -0.9375 2.921875q-0.9375 1.0625 -2.53125 1.0625q-1.640625 0 -2.5625 -1.078125q-0.90625 -1.078125 -0.90625 -2.90625zm1.421875 0q0 2.875 2.046875 2.875q0.953125 0 1.484375 -0.765625q0.546875 -0.78125 0.546875 -2.109375q0 -2.859375 -2.03125 -2.859375q-0.9375 0 -1.5 0.765625q-0.546875 0.75 -0.546875 2.09375zm12.724243 -3.203125l-0.671875 0.96875q-0.203125 -0.21875 -0.734375 -0.390625q-0.53125 -0.1875 -1.03125 -0.1875q-1.109375 0 -1.765625 0.78125q-0.65625 0.765625 -0.65625 2.125q0 1.34375 0.671875 2.046875q0.671875 0.703125 1.84375 0.703125q0.921875 0 1.84375 -0.703125l0.546875 1.140625q-1.09375 0.703125 -2.71875 0.703125q-1.5625 0 -2.59375 -1.046875q-1.015625 -1.046875 -1.015625 -2.84375q0 -1.84375 1.0625 -2.953125q1.0625 -1.109375 2.90625 -1.109375q0.59375 0 1.28125 0.25q0.703125 0.25 1.03125 0.515625zm7.928406 3.34375l-5.53125 0q0 1.34375 0.75 2.078125q0.640625 0.625 1.671875 0.625q1.15625 0 1.9375 -0.6875l0.578125 0.984375q-0.3125 0.3125 -0.96875 0.546875q-0.8125 0.296875 -1.8125 0.296875q-1.453125 0 -2.453125 -0.984375q-1.125 -1.078125 -1.125 -2.90625q0 -1.890625 1.15625 -3.03125q1.015625 -1.03125 2.4375 -1.03125q1.640625 0 2.5625 0.921875q0.90625 0.890625 0.90625 2.359375q0 0.453125 -0.109375 0.828125zm-3.296875 -2.953125q-0.90625 0 -1.53125 0.578125q-0.578125 0.5625 -0.65625 1.390625l4.234375 0q0 -0.828125 -0.515625 -1.375q-0.5625 -0.59375 -1.53125 -0.59375zm4.3374023 6.203125l0.46875 -1.296875q1.140625 0.75 1.84375 0.75q1.25 0 1.25 -1.0625q0 -0.75 -1.21875 -1.296875q-0.9375 -0.4375 -1.265625 -0.65625q-0.3125 -0.21875 -0.5625 -0.5q-0.234375 -0.28125 -0.359375 -0.59375q-0.109375 -0.328125 -0.109375 -0.6875q0 -0.953125 0.6875 -1.484375q0.6875 -0.53125 1.796875 -0.53125q0.828125 0 2.109375 0.53125l-0.390625 1.265625q-0.796875 -0.640625 -1.625 -0.640625q-0.484375 0 -0.8125 0.234375q-0.328125 0.21875 -0.328125 0.5625q0 0.75 0.828125 1.125l0.96875 0.4375q0.90625 0.40625 1.3125 0.9375q0.40625 0.515625 0.40625 1.3125q0 1.03125 -0.734375 1.609375q-0.71875 0.578125 -2.0 0.578125q-1.203125 0 -2.265625 -0.59375zm5.932678 0l0.46875 -1.296875q1.140625 0.75 1.84375 0.75q1.25 0 1.25 -1.0625q0 -0.75 -1.21875 -1.296875q-0.9375 -0.4375 -1.265625 -0.65625q-0.3125 -0.21875 -0.5625 -0.5q-0.234375 -0.28125 -0.359375 -0.59375q-0.109375 -0.328125 -0.109375 -0.6875q0 -0.953125 0.6875 -1.484375q0.6875 -0.53125 1.796875 -0.53125q0.828125 0 2.109375 0.53125l-0.390625 1.265625q-0.796875 -0.640625 -1.625 -0.640625q-0.484375 0 -0.8125 0.234375q-0.328125 0.21875 -0.328125 0.5625q0 0.75 0.828125 1.125l0.96875 0.4375q0.90625 0.40625 1.3125 0.9375q0.40625 0.515625 0.40625 1.3125q0 1.03125 -0.734375 1.609375q-0.71875 0.578125 -2.0 0.578125q-1.203125 0 -2.265625 -0.59375z" fill-rule="nonzero"/><path fill="#000000" fill-opacity="0.0" d="m442.87927 4.2566266l64.85037 0l0 42.015747l-64.85037 0z" fill-rule="evenodd"/><path fill="#000000" d="m460.47302 22.207874l-0.859375 1.21875q-0.265625 -0.25 -0.9375 -0.484375q-0.671875 -0.25 -1.3125 -0.25q-1.40625 0 -2.25 1.0q-0.828125 0.984375 -0.828125 2.703125q0 1.71875 0.84375 2.609375q0.859375 0.890625 2.359375 0.890625q1.171875 0 2.359375 -0.890625l0.671875 1.453125q-1.390625 0.90625 -3.453125 0.90625q-1.984375 0 -3.296875 -1.34375q-1.296875 -1.34375 -1.296875 -3.625q0 -2.328125 1.34375 -3.734375q1.359375 -1.421875 3.703125 -1.421875q0.765625 0 1.640625 0.328125q0.890625 0.3125 1.3125 0.640625zm2.002655 6.203125l0 -10.984375l1.734375 0l0 10.703125q0 0.78125 0.453125 1.234375q0.453125 0.453125 1.1875 0.453125l0 1.546875q-3.375 0 -3.375 -2.953125zm7.158386 -10.6875q0.453125 0 0.765625 0.328125q0.3125 0.3125 0.3125 0.75q0 0.4375 -0.3125 0.75q-0.3125 0.3125 -0.765625 0.3125q-0.4375 0 -0.75 -0.3125q-0.3125 -0.3125 -0.3125 -0.75q0 -0.453125 0.296875 -0.765625q0.3125 -0.3125 0.765625 -0.3125zm-0.953125 13.453125l0 -8.296875l-1.328125 0l0 -1.453125l3.0625 0l0 9.75l-1.734375 0zm11.851196 -8.96875l-0.859375 1.21875q-0.265625 -0.25 -0.9375 -0.484375q-0.671875 -0.25 -1.3125 -0.25q-1.40625 0 -2.25 1.0q-0.828125 0.984375 -0.828125 2.703125q0 1.71875 0.84375 2.609375q0.859375 0.890625 2.359375 0.890625q1.171875 0 2.359375 -0.890625l0.671875 1.453125q-1.390625 0.90625 -3.453125 0.90625q-1.984375 0 -3.296875 -1.34375q-1.296875 -1.34375 -1.296875 -3.625q0 -2.328125 1.34375 -3.734375q1.359375 -1.421875 3.703125 -1.421875q0.765625 0 1.640625 0.328125q0.890625 0.3125 1.3125 0.640625zm8.17453 8.96875l-3.0625 -4.875l-1.515625 1.546875l0 3.328125l-1.71875 0l0 -13.75l1.71875 0l0 8.53125l3.75 -4.53125l2.015625 0l-3.125 3.703125l3.8125 6.046875l-1.875 0zm5.64447 -3.484375l-0.65625 0q-0.703125 -4.578125 -0.703125 -6.359375l0 -3.734375l2.0625 0l0 3.71875q0 1.75 -0.703125 6.375zm-0.265625 0.921875q0.5625 0 0.953125 0.40625q0.40625 0.390625 0.40625 0.96875q0 0.5625 -0.40625 0.96875q-0.390625 0.40625 -0.953125 0.40625q-0.5625 0 -0.96875 -0.40625q-0.40625 -0.40625 -0.40625 -0.96875q0 -0.578125 0.40625 -0.96875q0.40625 -0.40625 0.96875 -0.40625z" fill-rule="nonzero"/><path fill="#000000" fill-opacity="0.0" d="m475.30447 46.272373c0 44.881893 16.220459 89.76378 32.440918 89.76378" fill-rule="evenodd"/><path stroke="#000000" stroke-width="1.0" stroke-linejoin="round" stroke-linecap="butt" d="m475.30447 46.272377c0 22.44094 4.0551147 44.88188 10.137787 61.712593c3.0413208 8.415352 6.589569 15.428146 10.391235 20.337112c1.9008484 2.4544678 3.8650208 4.3829956 5.860901 5.697891l0.32922363 0.21032715" fill-rule="evenodd"/><path fill="#000000" stroke="#000000" stroke-width="1.0" stroke-linecap="butt" d="m501.5265 135.80545l4.8247986 -0.20928955l-3.830536 -2.9409943z" fill-rule="evenodd"/><path fill="#000000" fill-opacity="0.0" d="m578.7218 136.02756l160.69287 0" fill-rule="evenodd"/><path stroke="#000000" stroke-width="2.0" stroke-linejoin="round" stroke-linecap="butt" stroke-dasharray="8.0,6.0" d="m578.7218 136.02756l148.69287 0" fill-rule="evenodd"/><path fill="#000000" stroke="#000000" stroke-width="2.0" stroke-linecap="butt" d="m727.4147 139.33102l9.076233 -3.3034668l-9.076233 -3.3034668z" fill-rule="evenodd"/><path fill="#000000" fill-opacity="0.0" d="m576.2808 97.53937l96.12598 0l0 38.771652l-96.12598 0z" fill-rule="evenodd"/><path fill="#000000" d="m594.0777 122.05562l-0.390625 0l-2.453125 -5.703125l-2.453125 5.703125l-0.390625 0l-2.984375 -8.546875l1.578125 0l1.796875 5.484375l2.21875 -5.484375l0.390625 0l2.296875 5.484375l1.921875 -5.484375l1.46875 0l-3.0 8.546875zm8.890625 -1.125q-0.890625 1.125 -2.71875 1.125q-0.984375 0 -1.71875 -0.71875q-0.71875 -0.71875 -0.71875 -1.78125q0 -1.265625 1.109375 -2.140625q1.125 -0.890625 2.84375 -0.890625q0.46875 0 1.0625 0.203125q0 -2.03125 -1.8125 -2.03125q-1.390625 0 -2.140625 0.75l-0.625 -1.234375q0.421875 -0.34375 1.171875 -0.59375q0.75 -0.25 1.421875 -0.25q1.828125 0 2.640625 0.828125q0.828125 0.828125 0.828125 2.640625l0 3.0q0 1.09375 0.65625 1.46875l0 0.75q-0.90625 0 -1.359375 -0.265625q-0.4375 -0.265625 -0.640625 -0.859375zm-0.140625 -3.140625q-0.703125 -0.15625 -0.984375 -0.15625q-1.125 0 -1.84375 0.578125q-0.703125 0.578125 -0.703125 1.359375q0 1.3125 1.546875 1.3125q1.125 0 1.984375 -1.078125l0 -2.015625zm5.359375 -7.421875q0.375 0 0.640625 0.265625q0.28125 0.265625 0.28125 0.640625q0 0.390625 -0.28125 0.65625q-0.265625 0.265625 -0.640625 0.265625q-0.375 0 -0.65625 -0.265625q-0.265625 -0.265625 -0.265625 -0.65625q0 -0.375 0.265625 -0.640625q0.265625 -0.265625 0.65625 -0.265625zm-0.8125 11.53125l0 -7.125l-1.15625 0l0 -1.25l2.640625 0l0 8.375l-1.484375 0zm4.375 -7.203125l-0.96875 0l0 -1.171875l0.96875 0l0 -1.75l1.484375 -0.5625l0 2.3125l2.296875 0l0 1.171875l-2.296875 0l0 4.15625q0 1.0625 0.34375 1.515625q0.359375 0.4375 1.15625 0.4375q0.5625 0 1.171875 -0.296875l0.21875 1.3125q-0.921875 0.234375 -2.015625 0.234375q-1.0 0 -1.6875 -0.734375q-0.671875 -0.75 -0.671875 -1.875l0 -4.75zm13.4609375 7.203125l0 -8.78125l-2.328125 1.453125l0 -1.453125q0.890625 -0.453125 1.875 -1.234375q1.0 -0.78125 1.546875 -1.484375l0.46875 0l0 11.5l-1.5625 0zm9.75 -11.65625l0.765625 0.84375q-0.6875 0.265625 -2.0 1.84375q-1.296875 1.578125 -1.4375 2.421875q0.65625 -0.625 1.8125 -0.625q1.515625 0 2.421875 0.96875q0.921875 0.96875 0.921875 2.671875q0 1.671875 -0.953125 2.703125q-0.9375 1.03125 -2.359375 1.03125q-3.765625 0 -3.765625 -5.0q0 -2.078125 1.46875 -4.25q1.484375 -2.1875 3.125 -2.609375zm-2.953125 8.078125q0 2.4375 2.015625 2.4375q0.84375 0 1.328125 -0.625q0.484375 -0.640625 0.484375 -1.6875q0 -1.09375 -0.515625 -1.734375q-0.515625 -0.65625 -1.328125 -0.65625q-1.984375 0 -1.984375 2.265625zm16.84375 3.578125l0 -5.296875q0 -1.984375 -1.71875 -1.984375q-0.53125 0 -1.0 0.34375q-0.46875 0.328125 -0.640625 0.75l0 6.1875l-1.484375 0l0 -5.953125q0 -0.609375 -0.46875 -0.96875q-0.46875 -0.359375 -1.234375 -0.359375q-0.4375 0 -0.953125 0.34375q-0.5 0.34375 -0.703125 0.765625l0 6.171875l-1.484375 0l0 -8.375l0.96875 0l0.484375 0.96875q0.859375 -1.125 2.15625 -1.125q1.796875 0 2.515625 1.125q0.25 -0.484375 0.921875 -0.796875q0.6875 -0.328125 1.40625 -0.328125q1.296875 0 2.0 0.78125q0.71875 0.765625 0.71875 2.15625l0 5.59375l-1.484375 0zm3.046875 -0.5l0.515625 -1.40625q1.25 0.8125 2.0 0.8125q1.375 0 1.375 -1.15625q0 -0.828125 -1.328125 -1.421875q-1.015625 -0.46875 -1.375 -0.703125q-0.359375 -0.25 -0.625 -0.5625q-0.25 -0.3125 -0.390625 -0.65625q-0.125 -0.34375 -0.125 -0.75q0 -1.03125 0.75 -1.609375q0.75 -0.578125 1.96875 -0.578125q0.90625 0 2.296875 0.578125l-0.421875 1.375q-0.875 -0.703125 -1.765625 -0.703125q-0.53125 0 -0.90625 0.25q-0.359375 0.25 -0.359375 0.640625q0 0.796875 0.921875 1.21875l1.0625 0.484375q0.96875 0.4375 1.40625 1.015625q0.453125 0.5625 0.453125 1.421875q0 1.125 -0.796875 1.765625q-0.78125 0.640625 -2.171875 0.640625q-1.328125 0 -2.484375 -0.65625z" fill-rule="nonzero"/><path fill="#000000" fill-opacity="0.0" d="m97.614174 302.27646l641.0079 0" fill-rule="evenodd"/><path stroke="#000000" stroke-width="2.0" stroke-linejoin="round" stroke-linecap="butt" d="m97.614174 302.27646l629.0079 0" fill-rule="evenodd"/><path fill="#000000" stroke="#000000" stroke-width="2.0" stroke-linecap="butt" d="m726.6221 305.57993l9.076172 -3.3034668l-9.076172 -3.3034668z" fill-rule="evenodd"/><path fill="#000000" fill-opacity="0.0" d="m109.35958 289.74103l0 25.070862" fill-rule="evenodd"/><path stroke="#000000" stroke-width="2.0" stroke-linejoin="round" stroke-linecap="butt" d="m109.35958 289.74103l0 25.070862" fill-rule="evenodd"/><path fill="#000000" fill-opacity="0.0" d="m263.65878 289.28433l0 25.070862" fill-rule="evenodd"/><path stroke="#000000" stroke-width="2.0" stroke-linejoin="round" stroke-linecap="butt" d="m263.65878 289.28433l0 25.070862" fill-rule="evenodd"/><path fill="#000000" fill-opacity="0.0" d="m417.958 289.74103l0 25.070862" fill-rule="evenodd"/><path stroke="#000000" stroke-width="2.0" stroke-linejoin="round" stroke-linecap="butt" d="m417.958 289.74103l0 25.070862" fill-rule="evenodd"/><path fill="#cfe2f3" d="m109.35958 319.7874l70.99212 0l0 67.02362l-70.99212 0z" fill-rule="evenodd"/><path stroke="#000000" stroke-width="1.0" stroke-linejoin="round" stroke-linecap="butt" d="m109.35958 319.7874l70.99212 0l0 67.02362l-70.99212 0z" fill-rule="evenodd"/><path fill="#000000" d="m136.77594 338.70734l0.6875 0.765625q-0.625 0.25 -1.828125 1.703125q-1.1875 1.4375 -1.3125 2.21875q0.59375 -0.578125 1.65625 -0.578125q1.390625 0 2.21875 0.890625q0.84375 0.890625 0.84375 2.4375q0 1.53125 -0.859375 2.46875q-0.859375 0.9375 -2.171875 0.9375q-3.453125 0 -3.453125 -4.5625q0 -1.90625 1.34375 -3.890625q1.359375 -2.0 2.875 -2.390625zm-2.703125 7.390625q0 2.25 1.828125 2.25q0.78125 0 1.21875 -0.578125q0.453125 -0.59375 0.453125 -1.546875q0 -1.0 -0.46875 -1.59375q-0.46875 -0.59375 -1.21875 -0.59375q-1.8125 0 -1.8125 2.0625zm15.420319 3.28125l0 -4.859375q0 -1.796875 -1.578125 -1.796875q-0.484375 0 -0.921875 0.3125q-0.421875 0.296875 -0.578125 0.671875l0 5.671875l-1.359375 0l0 -5.453125q0 -0.5625 -0.4375 -0.875q-0.421875 -0.328125 -1.125 -0.328125q-0.40625 0 -0.875 0.3125q-0.453125 0.3125 -0.640625 0.6875l0 5.65625l-1.359375 0l0 -7.671875l0.890625 0l0.4375 0.890625q0.796875 -1.03125 1.96875 -1.03125q1.65625 0 2.3125 1.03125q0.234375 -0.4375 0.84375 -0.734375q0.625 -0.296875 1.28125 -0.296875q1.1875 0 1.84375 0.71875q0.65625 0.703125 0.65625 1.96875l0 5.125l-1.359375 0zm2.7908325 -0.453125l0.46875 -1.296875q1.140625 0.75 1.84375 0.75q1.25 0 1.25 -1.0625q0 -0.75 -1.21875 -1.296875q-0.9375 -0.4375 -1.265625 -0.65625q-0.3125 -0.21875 -0.5625 -0.5q-0.234375 -0.28125 -0.359375 -0.59375q-0.109375 -0.328125 -0.109375 -0.6875q0 -0.953125 0.6875 -1.484375q0.6875 -0.53125 1.796875 -0.53125q0.828125 0 2.109375 0.53125l-0.390625 1.265625q-0.796875 -0.640625 -1.625 -0.640625q-0.484375 0 -0.8125 0.234375q-0.328125 0.21875 -0.328125 0.5625q0 0.75 0.828125 1.125l0.96875 0.4375q0.90625 0.40625 1.3125 0.9375q0.40625 0.515625 0.40625 1.3125q0 1.03125 -0.734375 1.609375q-0.71875 0.578125 -2.0 0.578125q-1.203125 0 -2.265625 -0.59375z" fill-rule="nonzero"/><path fill="#000000" d="m122.76265 366.95734l0 3.421875l-1.359375 0l0 -10.671875l1.359375 0l0 0.640625q0.765625 -0.78125 1.859375 -0.78125q1.640625 0 2.546875 1.015625q0.90625 1.015625 0.90625 2.984375q0 1.75 -0.921875 2.859375q-0.90625 1.09375 -2.640625 1.09375q-0.484375 0 -1.046875 -0.171875q-0.546875 -0.171875 -0.703125 -0.390625zm0 -5.59375l0 4.46875q0.125 0.1875 0.53125 0.375q0.421875 0.171875 0.8125 0.171875q2.546875 0 2.546875 -2.859375q0 -1.453125 -0.609375 -2.125q-0.59375 -0.671875 -1.921875 -0.671875q-0.28125 0 -0.703125 0.203125q-0.421875 0.1875 -0.65625 0.4375zm10.962296 -0.34375q-0.4375 -0.296875 -0.890625 -0.296875q-0.71875 0 -1.265625 0.671875q-0.53125 0.65625 -0.53125 1.59375l0 4.390625l-1.359375 0l0 -7.671875l1.359375 0l0 1.234375q0.734375 -1.375 2.203125 -1.375q0.375 0 1.0625 0.140625l-0.578125 1.3125zm1.0402222 2.515625q0 -1.78125 0.953125 -2.875q0.953125 -1.09375 2.515625 -1.09375q1.640625 0 2.546875 1.0625q0.921875 1.046875 0.921875 2.90625q0 1.84375 -0.9375 2.921875q-0.9375 1.0625 -2.53125 1.0625q-1.640625 0 -2.5625 -1.078125q-0.90625 -1.078125 -0.90625 -2.90625zm1.421875 0q0 2.875 2.046875 2.875q0.953125 0 1.484375 -0.765625q0.546875 -0.78125 0.546875 -2.109375q0 -2.859375 -2.03125 -2.859375q-0.9375 0 -1.5 0.765625q-0.546875 0.75 -0.546875 2.09375zm12.724228 -3.203125l-0.671875 0.96875q-0.203125 -0.21875 -0.734375 -0.390625q-0.53125 -0.1875 -1.03125 -0.1875q-1.109375 0 -1.765625 0.78125q-0.65625 0.765625 -0.65625 2.125q0 1.34375 0.671875 2.046875q0.671875 0.703125 1.84375 0.703125q0.921875 0 1.84375 -0.703125l0.546875 1.140625q-1.09375 0.703125 -2.71875 0.703125q-1.5625 0 -2.59375 -1.046875q-1.015625 -1.046875 -1.015625 -2.84375q0 -1.84375 1.0625 -2.953125q1.0625 -1.109375 2.90625 -1.109375q0.59375 0 1.28125 0.25q0.703125 0.25 1.03125 0.515625zm7.9284363 3.34375l-5.53125 0q0 1.34375 0.75 2.078125q0.640625 0.625 1.671875 0.625q1.15625 0 1.9375 -0.6875l0.578125 0.984375q-0.3125 0.3125 -0.96875 0.546875q-0.8125 0.296875 -1.8125 0.296875q-1.453125 0 -2.453125 -0.984375q-1.125 -1.078125 -1.125 -2.90625q0 -1.890625 1.15625 -3.03125q1.015625 -1.03125 2.4375 -1.03125q1.640625 0 2.5625 0.921875q0.90625 0.890625 0.90625 2.359375q0 0.453125 -0.109375 0.828125zm-3.296875 -2.953125q-0.90625 0 -1.53125 0.578125q-0.578125 0.5625 -0.65625 1.390625l4.234375 0q0 -0.828125 -0.515625 -1.375q-0.5625 -0.59375 -1.53125 -0.59375zm4.3374176 6.203125l0.46875 -1.296875q1.140625 0.75 1.84375 0.75q1.25 0 1.25 -1.0625q0 -0.75 -1.21875 -1.296875q-0.9375 -0.4375 -1.265625 -0.65625q-0.3125 -0.21875 -0.5625 -0.5q-0.234375 -0.28125 -0.359375 -0.59375q-0.109375 -0.328125 -0.109375 -0.6875q0 -0.953125 0.6875 -1.484375q0.6875 -0.53125 1.796875 -0.53125q0.828125 0 2.109375 0.53125l-0.390625 1.265625q-0.796875 -0.640625 -1.625 -0.640625q-0.484375 0 -0.8125 0.234375q-0.328125 0.21875 -0.328125 0.5625q0 0.75 0.828125 1.125l0.96875 0.4375q0.90625 0.40625 1.3125 0.9375q0.40625 0.515625 0.40625 1.3125q0 1.03125 -0.734375 1.609375q-0.71875 0.578125 -2.0 0.578125q-1.203125 0 -2.265625 -0.59375zm5.9326324 0l0.46875 -1.296875q1.140625 0.75 1.84375 0.75q1.25 0 1.25 -1.0625q0 -0.75 -1.21875 -1.296875q-0.9375 -0.4375 -1.265625 -0.65625q-0.3125 -0.21875 -0.5625 -0.5q-0.234375 -0.28125 -0.359375 -0.59375q-0.109375 -0.328125 -0.109375 -0.6875q0 -0.953125 0.6875 -1.484375q0.6875 -0.53125 1.796875 -0.53125q0.828125 0 2.109375 0.53125l-0.390625 1.265625q-0.796875 -0.640625 -1.625 -0.640625q-0.484375 0 -0.8125 0.234375q-0.328125 0.21875 -0.328125 0.5625q0 0.75 0.828125 1.125l0.96875 0.4375q0.90625 0.40625 1.3125 0.9375q0.40625 0.515625 0.40625 1.3125q0 1.03125 -0.734375 1.609375q-0.71875 0.578125 -2.0 0.578125q-1.203125 0 -2.265625 -0.59375z" fill-rule="nonzero"/><path fill="#000000" fill-opacity="0.0" d="m8.028872 280.2922l76.409454 0l0 43.968506l-76.409454 0z" fill-rule="evenodd"/><path fill="#000000" d="m21.560122 307.2122l0 -10.234375l-2.703125 1.703125l0 -1.703125q1.015625 -0.53125 2.171875 -1.4375q1.171875 -0.90625 1.8125 -1.734375l0.546875 0l0 13.40625l-1.828125 0zm5.87735 0l0 -0.359375l4.1875 -6.40625q1.3124981 -2.015625 1.3124981 -3.421875q0 -1.84375 -2.093748 -1.84375q-0.734375 0 -1.390625 0.390625q-0.640625 0.375 -0.921875 0.96875l-1.1875 -0.96875q0.3125 -0.890625 1.21875 -1.40625q0.90625 -0.53125 2.1875 -0.53125q1.9218731 0 2.999998 0.890625q1.09375 0.875 1.09375 2.5q0 1.5 -1.4375 3.796875l-2.999998 4.75l5.234373 0l0 1.640625l-8.203123 0zm9.736723 -7.078125q0 -2.875 1.171875 -4.6875q1.171875 -1.8125 3.28125 -1.8125q2.09375 0 3.140625 1.515625q1.0625 1.5 1.0625 5.28125q0 3.234375 -1.109375 5.109375q-1.109375 1.859375 -3.21875 1.859375q-2.125 0 -3.234375 -1.5q-1.09375 -1.515625 -1.09375 -5.765625zm1.828125 0.15625q0 5.5625 2.359375 5.5625q1.359375 0 2.0 -1.234375q0.640625 -1.234375 0.640625 -4.3125q0 -2.125 -0.25 -3.109375q-0.234375 -1.0 -0.78125 -1.5q-0.546875 -0.515625 -1.390625 -0.515625q-2.578125 0 -2.578125 5.109375zm22.013535 6.921875l0 -6.453125l-5.828125 0l0 6.453125l-1.828125 0l0 -13.34375l1.828125 0l0 5.34375l5.828125 0l0 -5.34375l1.828125 0l0 13.34375l-1.828125 0zm6.269226 -1.546875l5.40625 0l0 1.546875l-8.125 0l0 -0.453125l5.546875 -7.75l-5.453125 0l0 -1.546875l7.984375 0l0 0.484375l-5.359375 7.71875z" fill-rule="nonzero"/><path fill="#000000" fill-opacity="0.0" d="m44.509186 221.52827l64.850395 0l0 42.015762l-64.850395 0z" fill-rule="evenodd"/><path fill="#000000" d="m62.102936 239.47952l-0.859375 1.21875q-0.265625 -0.25 -0.9375 -0.484375q-0.671875 -0.25 -1.3125 -0.25q-1.40625 0 -2.25 1.0q-0.828125 0.984375 -0.828125 2.703125q0 1.71875 0.84375 2.609375q0.859375 0.890625 2.359375 0.890625q1.171875 0 2.359375 -0.890625l0.671875 1.453125q-1.390625 0.90625 -3.453125 0.90625q-1.984375 0 -3.296875 -1.34375q-1.296875 -1.34375 -1.296875 -3.625q0 -2.328125 1.34375 -3.734375q1.359375 -1.421875 3.703125 -1.421875q0.765625 0 1.640625 0.328125q0.890625 0.3125 1.3125 0.640625zm2.002655 6.203125l0 -10.984375l1.734375 0l0 10.703125q0 0.78125 0.453125 1.234375q0.453125 0.453125 1.1875 0.453125l0 1.546875q-3.375 0 -3.375 -2.953125zm7.158386 -10.6875q0.453125 0 0.765625 0.328125q0.3125 0.3125 0.3125 0.75q0 0.4375 -0.3125 0.75q-0.3125 0.3125 -0.765625 0.3125q-0.4375 0 -0.75 -0.3125q-0.3125 -0.3125 -0.3125 -0.75q0 -0.453125 0.296875 -0.765625q0.3125 -0.3125 0.765625 -0.3125zm-0.953125 13.453125l0 -8.296875l-1.328125 0l0 -1.453125l3.0625 0l0 9.75l-1.734375 0zm11.851196 -8.96875l-0.859375 1.21875q-0.265625 -0.25 -0.9375 -0.484375q-0.671875 -0.25 -1.3125 -0.25q-1.40625 0 -2.25 1.0q-0.828125 0.984375 -0.828125 2.703125q0 1.71875 0.84375 2.609375q0.859375 0.890625 2.359375 0.890625q1.171875 0 2.359375 -0.890625l0.671875 1.453125q-1.390625 0.90625 -3.453125 0.90625q-1.984375 0 -3.296875 -1.34375q-1.296875 -1.34375 -1.296875 -3.625q0 -2.328125 1.34375 -3.734375q1.359375 -1.421875 3.703125 -1.421875q0.765625 0 1.640625 0.328125q0.890625 0.3125 1.3125 0.640625zm8.17453 8.96875l-3.0625 -4.875l-1.515625 1.546875l0 3.328125l-1.71875 0l0 -13.75l1.71875 0l0 8.53125l3.75 -4.53125l2.015625 0l-3.125 3.703125l3.8125 6.046875l-1.875 0zm5.6444855 -3.484375l-0.65625 0q-0.703125 -4.578125 -0.703125 -6.359375l0 -3.734375l2.0625 0l0 3.71875q0 1.75 -0.703125 6.375zm-0.265625 0.921875q0.5625 0 0.953125 0.40625q0.40625 0.390625 0.40625 0.96875q0 0.5625 -0.40625 0.96875q-0.390625 0.40625 -0.953125 0.40625q-0.5625 0 -0.96875 -0.40625q-0.40625 -0.40625 -0.40625 -0.96875q0 -0.578125 0.40625 -0.96875q0.40625 -0.40625 0.96875 -0.40625z" fill-rule="nonzero"/><path fill="#000000" fill-opacity="0.0" d="m76.93438 263.54404c0 44.881866 16.220474 89.76376 32.44095 89.76376" fill-rule="evenodd"/><path stroke="#000000" stroke-width="1.0" stroke-linejoin="round" stroke-linecap="butt" d="m76.93438 263.54404c0 22.440918 4.0551224 44.881866 10.137802 61.712616c3.041336 8.415344 6.5895615 15.428131 10.391235 20.337097c1.9008408 2.4544678 3.865036 4.3829956 5.860916 5.697876l0.32920074 0.21035767" fill-rule="evenodd"/><path fill="#000000" stroke="#000000" stroke-width="1.0" stroke-linecap="butt" d="m103.1564 353.07712l4.824806 -0.20928955l-3.8305435 -2.9410095z" fill-rule="evenodd"/><path fill="#000000" fill-opacity="0.0" d="m180.3517 353.29922l7.8740234 0" fill-rule="evenodd"/><path stroke="#000000" stroke-width="2.0" stroke-linejoin="round" stroke-linecap="butt" stroke-dasharray="8.0,6.0" d="m180.3517 353.29922l7.8740234 0" fill-rule="evenodd"/><path fill="#000000" stroke="#000000" stroke-width="2.0" stroke-linecap="butt" d="m188.22572 356.6027l9.076187 -3.3034668l-9.076187 -3.3034668z" fill-rule="evenodd"/><path fill="#000000" fill-opacity="0.0" d="m177.91077 314.81104l96.12598 0l0 77.5748l-96.12598 0z" fill-rule="evenodd"/><path fill="#000000" d="m195.70764 339.32727l-0.390625 0l-2.453125 -5.703125l-2.453125 5.703125l-0.390625 0l-2.984375 -8.546875l1.578125 0l1.796875 5.484375l2.21875 -5.484375l0.390625 0l2.296875 5.484375l1.921875 -5.484375l1.46875 0l-3.0 8.546875zm8.890625 -1.125q-0.890625 1.125 -2.71875 1.125q-0.984375 0 -1.71875 -0.71875q-0.71875 -0.71875 -0.71875 -1.78125q0 -1.265625 1.109375 -2.140625q1.125 -0.890625 2.84375 -0.890625q0.46875 0 1.0625 0.203125q0 -2.03125 -1.8125 -2.03125q-1.390625 0 -2.140625 0.75l-0.625 -1.234375q0.421875 -0.34375 1.171875 -0.59375q0.75 -0.25 1.421875 -0.25q1.828125 0 2.640625 0.828125q0.828125 0.828125 0.828125 2.640625l0 3.0q0 1.09375 0.65625 1.46875l0 0.75q-0.90625 0 -1.359375 -0.265625q-0.4375 -0.265625 -0.640625 -0.859375zm-0.140625 -3.140625q-0.703125 -0.15625 -0.984375 -0.15625q-1.125 0 -1.84375 0.578125q-0.703125 0.578125 -0.703125 1.359375q0 1.3125 1.546875 1.3125q1.125 0 1.984375 -1.078125l0 -2.015625zm5.359375 -7.421875q0.375 0 0.640625 0.265625q0.28125 0.265625 0.28125 0.640625q0 0.390625 -0.28125 0.65625q-0.265625 0.265625 -0.640625 0.265625q-0.375 0 -0.65625 -0.265625q-0.265625 -0.265625 -0.265625 -0.65625q0 -0.375 0.265625 -0.640625q0.265625 -0.265625 0.65625 -0.265625zm-0.8125 11.53125l0 -7.125l-1.15625 0l0 -1.25l2.640625 0l0 8.375l-1.484375 0zm4.375 -7.203125l-0.96875 0l0 -1.171875l0.96875 0l0 -1.75l1.484375 -0.5625l0 2.3125l2.296875 0l0 1.171875l-2.296875 0l0 4.15625q0 1.0625 0.34375 1.515625q0.359375 0.4375 1.15625 0.4375q0.5625 0 1.171875 -0.296875l0.21875 1.3125q-0.921875 0.234375 -2.015625 0.234375q-1.0 0 -1.6875 -0.734375q-0.671875 -0.75 -0.671875 -1.875l0 -4.75z" fill-rule="nonzero"/><path fill="#000000" d="m187.45764 377.571l0 -0.3125l3.578125 -5.5q1.125 -1.71875 1.125 -2.921875q0 -1.59375 -1.78125 -1.59375q-0.640625 0 -1.203125 0.34375q-0.546875 0.328125 -0.796875 0.828125l-1.0 -0.828125q0.265625 -0.765625 1.03125 -1.21875q0.78125 -0.453125 1.890625 -0.453125q1.640625 0 2.5625 0.765625q0.9375 0.765625 0.9375 2.15625q0 1.28125 -1.234375 3.25l-2.5625 4.078125l4.484375 0l0 1.40625l-7.03125 0zm18.59375 0l0 -5.296875q0 -1.984375 -1.71875 -1.984375q-0.53125 0 -1.0 0.34375q-0.46875 0.328125 -0.640625 0.75l0 6.1875l-1.484375 0l0 -5.953125q0 -0.609375 -0.46875 -0.96875q-0.46875 -0.359375 -1.234375 -0.359375q-0.4375 0 -0.953125 0.34375q-0.5 0.34375 -0.703125 0.765625l0 6.171875l-1.484375 0l0 -8.375l0.96875 0l0.484375 0.96875q0.859375 -1.125 2.15625 -1.125q1.796875 0 2.515625 1.125q0.25 -0.484375 0.921875 -0.796875q0.6875 -0.328125 1.40625 -0.328125q1.296875 0 2.0 0.78125q0.71875 0.765625 0.71875 2.15625l0 5.59375l-1.484375 0zm3.046875 -0.5l0.515625 -1.40625q1.25 0.8125 2.0 0.8125q1.375 0 1.375 -1.15625q0 -0.828125 -1.328125 -1.421875q-1.015625 -0.46875 -1.375 -0.703125q-0.359375 -0.25 -0.625 -0.5625q-0.25 -0.3125 -0.390625 -0.65625q-0.125 -0.34375 -0.125 -0.75q0 -1.03125 0.75 -1.609375q0.75 -0.578125 1.96875 -0.578125q0.90625 0 2.296875 0.578125l-0.421875 1.375q-0.875 -0.703125 -1.765625 -0.703125q-0.53125 0 -0.90625 0.25q-0.359375 0.25 -0.359375 0.640625q0 0.796875 0.921875 1.21875l1.0625 0.484375q0.96875 0.4375 1.40625 1.015625q0.453125 0.5625 0.453125 1.421875q0 1.125 -0.796875 1.765625q-0.78125 0.640625 -2.171875 0.640625q-1.328125 0 -2.484375 -0.65625z" fill-rule="nonzero"/><path fill="#000000" fill-opacity="0.0" d="m572.2572 289.51266l0 25.070892" fill-rule="evenodd"/><path stroke="#000000" stroke-width="2.0" stroke-linejoin="round" stroke-linecap="butt" d="m572.2572 289.51266l0 25.070892" fill-rule="evenodd"/><path fill="#cfe2f3" d="m507.72964 324.0433l70.99216 0l0 67.02362l-70.99216 0z" fill-rule="evenodd"/><path stroke="#000000" stroke-width="1.0" stroke-linejoin="round" stroke-linecap="butt" d="m507.72964 324.0433l70.99216 0l0 67.02362l-70.99216 0z" fill-rule="evenodd"/><path fill="#000000" d="m535.146 342.96326l0.6875 0.765625q-0.625 0.25 -1.828125 1.703125q-1.1875 1.4375 -1.3125 2.21875q0.59375 -0.578125 1.65625 -0.578125q1.390625 0 2.21875 0.890625q0.84375 0.890625 0.84375 2.4375q0 1.53125 -0.859375 2.46875q-0.859375 0.9375 -2.171875 0.9375q-3.453125 0 -3.453125 -4.5625q0 -1.90625 1.34375 -3.890625q1.359375 -2.0 2.875 -2.390625zm-2.703125 7.390625q0 2.25 1.828125 2.25q0.78125 0 1.21875 -0.578125q0.453125 -0.59375 0.453125 -1.546875q0 -1.0 -0.46875 -1.59375q-0.46875 -0.59375 -1.21875 -0.59375q-1.8125 0 -1.8125 2.0625zm15.420349 3.28125l0 -4.859375q0 -1.796875 -1.578125 -1.796875q-0.484375 0 -0.921875 0.3125q-0.421875 0.296875 -0.578125 0.671875l0 5.671875l-1.359375 0l0 -5.453125q0 -0.5625 -0.4375 -0.875q-0.421875 -0.328125 -1.125 -0.328125q-0.40625 0 -0.875 0.3125q-0.453125 0.3125 -0.640625 0.6875l0 5.65625l-1.359375 0l0 -7.671875l0.890625 0l0.4375 0.890625q0.796875 -1.03125 1.96875 -1.03125q1.65625 0 2.3125 1.03125q0.234375 -0.4375 0.84375 -0.734375q0.625 -0.296875 1.28125 -0.296875q1.1875 0 1.84375 0.71875q0.65625 0.703125 0.65625 1.96875l0 5.125l-1.359375 0zm2.7908325 -0.453125l0.46875 -1.296875q1.140625 0.75 1.84375 0.75q1.25 0 1.25 -1.0625q0 -0.75 -1.21875 -1.296875q-0.9375 -0.4375 -1.265625 -0.65625q-0.3125 -0.21875 -0.5625 -0.5q-0.234375 -0.28125 -0.359375 -0.59375q-0.109375 -0.328125 -0.109375 -0.6875q0 -0.953125 0.6875 -1.484375q0.6875 -0.53125 1.796875 -0.53125q0.828125 0 2.109375 0.53125l-0.390625 1.265625q-0.796875 -0.640625 -1.625 -0.640625q-0.484375 0 -0.8125 0.234375q-0.328125 0.21875 -0.328125 0.5625q0 0.75 0.828125 1.125l0.96875 0.4375q0.90625 0.40625 1.3125 0.9375q0.40625 0.515625 0.40625 1.3125q0 1.03125 -0.734375 1.609375q-0.71875 0.578125 -2.0 0.578125q-1.203125 0 -2.265625 -0.59375z" fill-rule="nonzero"/><path fill="#000000" d="m521.13275 371.21326l0 3.421875l-1.359375 0l0 -10.671875l1.359375 0l0 0.640625q0.765625 -0.78125 1.859375 -0.78125q1.640625 0 2.546875 1.015625q0.90625 1.015625 0.90625 2.984375q0 1.75 -0.921875 2.859375q-0.90625 1.09375 -2.640625 1.09375q-0.484375 0 -1.046875 -0.171875q-0.546875 -0.171875 -0.703125 -0.390625zm0 -5.59375l0 4.46875q0.125 0.1875 0.53125 0.375q0.421875 0.171875 0.8125 0.171875q2.546875 0 2.546875 -2.859375q0 -1.453125 -0.609375 -2.125q-0.59375 -0.671875 -1.921875 -0.671875q-0.28125 0 -0.703125 0.203125q-0.421875 0.1875 -0.65625 0.4375zm10.96228 -0.34375q-0.4375 -0.296875 -0.890625 -0.296875q-0.71875 0 -1.265625 0.671875q-0.53125 0.65625 -0.53125 1.59375l0 4.390625l-1.359375 0l0 -7.671875l1.359375 0l0 1.234375q0.734375 -1.375 2.203125 -1.375q0.375 0 1.0625 0.140625l-0.578125 1.3125zm1.0402222 2.515625q0 -1.78125 0.953125 -2.875q0.953125 -1.09375 2.515625 -1.09375q1.640625 0 2.546875 1.0625q0.921875 1.046875 0.921875 2.90625q0 1.84375 -0.9375 2.921875q-0.9375 1.0625 -2.53125 1.0625q-1.640625 0 -2.5625 -1.078125q-0.90625 -1.078125 -0.90625 -2.90625zm1.421875 0q0 2.875 2.046875 2.875q0.953125 0 1.484375 -0.765625q0.546875 -0.78125 0.546875 -2.109375q0 -2.859375 -2.03125 -2.859375q-0.9375 0 -1.5 0.765625q-0.546875 0.75 -0.546875 2.09375zm12.724243 -3.203125l-0.671875 0.96875q-0.203125 -0.21875 -0.734375 -0.390625q-0.53125 -0.1875 -1.03125 -0.1875q-1.109375 0 -1.765625 0.78125q-0.65625 0.765625 -0.65625 2.125q0 1.34375 0.671875 2.046875q0.671875 0.703125 1.84375 0.703125q0.921875 0 1.84375 -0.703125l0.546875 1.140625q-1.09375 0.703125 -2.71875 0.703125q-1.5625 0 -2.59375 -1.046875q-1.015625 -1.046875 -1.015625 -2.84375q0 -1.84375 1.0625 -2.953125q1.0625 -1.109375 2.90625 -1.109375q0.59375 0 1.28125 0.25q0.703125 0.25 1.03125 0.515625zm7.928406 3.34375l-5.53125 0q0 1.34375 0.75 2.078125q0.640625 0.625 1.671875 0.625q1.15625 0 1.9375 -0.6875l0.578125 0.984375q-0.3125 0.3125 -0.96875 0.546875q-0.8125 0.296875 -1.8125 0.296875q-1.453125 0 -2.453125 -0.984375q-1.125 -1.078125 -1.125 -2.90625q0 -1.890625 1.15625 -3.03125q1.015625 -1.03125 2.4375 -1.03125q1.640625 0 2.5625 0.921875q0.90625 0.890625 0.90625 2.359375q0 0.453125 -0.109375 0.828125zm-3.296875 -2.953125q-0.90625 0 -1.53125 0.578125q-0.578125 0.5625 -0.65625 1.390625l4.234375 0q0 -0.828125 -0.515625 -1.375q-0.5625 -0.59375 -1.53125 -0.59375zm4.3374023 6.203125l0.46875 -1.296875q1.140625 0.75 1.84375 0.75q1.25 0 1.25 -1.0625q0 -0.75 -1.21875 -1.296875q-0.9375 -0.4375 -1.265625 -0.65625q-0.3125 -0.21875 -0.5625 -0.5q-0.234375 -0.28125 -0.359375 -0.59375q-0.109375 -0.328125 -0.109375 -0.6875q0 -0.953125 0.6875 -1.484375q0.6875 -0.53125 1.796875 -0.53125q0.828125 0 2.109375 0.53125l-0.390625 1.265625q-0.796875 -0.640625 -1.625 -0.640625q-0.484375 0 -0.8125 0.234375q-0.328125 0.21875 -0.328125 0.5625q0 0.75 0.828125 1.125l0.96875 0.4375q0.90625 0.40625 1.3125 0.9375q0.40625 0.515625 0.40625 1.3125q0 1.03125 -0.734375 1.609375q-0.71875 0.578125 -2.0 0.578125q-1.203125 0 -2.265625 -0.59375zm5.932678 0l0.46875 -1.296875q1.140625 0.75 1.84375 0.75q1.25 0 1.25 -1.0625q0 -0.75 -1.21875 -1.296875q-0.9375 -0.4375 -1.265625 -0.65625q-0.3125 -0.21875 -0.5625 -0.5q-0.234375 -0.28125 -0.359375 -0.59375q-0.109375 -0.328125 -0.109375 -0.6875q0 -0.953125 0.6875 -1.484375q0.6875 -0.53125 1.796875 -0.53125q0.828125 0 2.109375 0.53125l-0.390625 1.265625q-0.796875 -0.640625 -1.625 -0.640625q-0.484375 0 -0.8125 0.234375q-0.328125 0.21875 -0.328125 0.5625q0 0.75 0.828125 1.125l0.96875 0.4375q0.90625 0.40625 1.3125 0.9375q0.40625 0.515625 0.40625 1.3125q0 1.03125 -0.734375 1.609375q-0.71875 0.578125 -2.0 0.578125q-1.203125 0 -2.265625 -0.59375z" fill-rule="nonzero"/><path fill="#000000" fill-opacity="0.0" d="m442.87927 225.78418l64.85037 0l0 42.015747l-64.85037 0z" fill-rule="evenodd"/><path fill="#000000" d="m460.47302 243.73543l-0.859375 1.21875q-0.265625 -0.25 -0.9375 -0.484375q-0.671875 -0.25 -1.3125 -0.25q-1.40625 0 -2.25 1.0q-0.828125 0.984375 -0.828125 2.703125q0 1.71875 0.84375 2.609375q0.859375 0.890625 2.359375 0.890625q1.171875 0 2.359375 -0.890625l0.671875 1.453125q-1.390625 0.90625 -3.453125 0.90625q-1.984375 0 -3.296875 -1.34375q-1.296875 -1.34375 -1.296875 -3.625q0 -2.328125 1.34375 -3.734375q1.359375 -1.421875 3.703125 -1.421875q0.765625 0 1.640625 0.328125q0.890625 0.3125 1.3125 0.640625zm2.002655 6.203125l0 -10.984375l1.734375 0l0 10.703125q0 0.78125 0.453125 1.234375q0.453125 0.453125 1.1875 0.453125l0 1.546875q-3.375 0 -3.375 -2.953125zm7.158386 -10.6875q0.453125 0 0.765625 0.328125q0.3125 0.3125 0.3125 0.75q0 0.4375 -0.3125 0.75q-0.3125 0.3125 -0.765625 0.3125q-0.4375 0 -0.75 -0.3125q-0.3125 -0.3125 -0.3125 -0.75q0 -0.453125 0.296875 -0.765625q0.3125 -0.3125 0.765625 -0.3125zm-0.953125 13.453125l0 -8.296875l-1.328125 0l0 -1.453125l3.0625 0l0 9.75l-1.734375 0zm11.851196 -8.96875l-0.859375 1.21875q-0.265625 -0.25 -0.9375 -0.484375q-0.671875 -0.25 -1.3125 -0.25q-1.40625 0 -2.25 1.0q-0.828125 0.984375 -0.828125 2.703125q0 1.71875 0.84375 2.609375q0.859375 0.890625 2.359375 0.890625q1.171875 0 2.359375 -0.890625l0.671875 1.453125q-1.390625 0.90625 -3.453125 0.90625q-1.984375 0 -3.296875 -1.34375q-1.296875 -1.34375 -1.296875 -3.625q0 -2.328125 1.34375 -3.734375q1.359375 -1.421875 3.703125 -1.421875q0.765625 0 1.640625 0.328125q0.890625 0.3125 1.3125 0.640625zm8.17453 8.96875l-3.0625 -4.875l-1.515625 1.546875l0 3.328125l-1.71875 0l0 -13.75l1.71875 0l0 8.53125l3.75 -4.53125l2.015625 0l-3.125 3.703125l3.8125 6.046875l-1.875 0zm5.64447 -3.484375l-0.65625 0q-0.703125 -4.578125 -0.703125 -6.359375l0 -3.734375l2.0625 0l0 3.71875q0 1.75 -0.703125 6.375zm-0.265625 0.921875q0.5625 0 0.953125 0.40625q0.40625 0.390625 0.40625 0.96875q0 0.5625 -0.40625 0.96875q-0.390625 0.40625 -0.953125 0.40625q-0.5625 0 -0.96875 -0.40625q-0.40625 -0.40625 -0.40625 -0.96875q0 -0.578125 0.40625 -0.96875q0.40625 -0.40625 0.96875 -0.40625z" fill-rule="nonzero"/><path fill="#000000" fill-opacity="0.0" d="m475.30447 267.79993c0 44.881897 16.220459 89.763794 32.440918 89.763794" fill-rule="evenodd"/><path stroke="#000000" stroke-width="1.0" stroke-linejoin="round" stroke-linecap="butt" d="m475.30447 267.79993c0 22.440948 4.0551147 44.881897 10.137787 61.712616c3.0413208 8.415375 6.589569 15.428162 10.391235 20.337128c1.9008484 2.4544678 3.8650208 4.3829956 5.860901 5.697876l0.32922363 0.21032715" fill-rule="evenodd"/><path fill="#000000" stroke="#000000" stroke-width="1.0" stroke-linecap="butt" d="m501.5265 357.33304l4.8247986 -0.20928955l-3.830536 -2.9410095z" fill-rule="evenodd"/><path fill="#000000" fill-opacity="0.0" d="m578.7218 357.5551l83.52753 0" fill-rule="evenodd"/><path stroke="#000000" stroke-width="2.0" stroke-linejoin="round" stroke-linecap="butt" stroke-dasharray="8.0,6.0" d="m578.7218 357.5551l71.52753 0" fill-rule="evenodd"/><path fill="#000000" stroke="#000000" stroke-width="2.0" stroke-linecap="butt" d="m650.2493 360.85858l9.076233 -3.3034668l-9.076233 -3.3034668z" fill-rule="evenodd"/><path fill="#000000" fill-opacity="0.0" d="m576.2808 319.06693l96.12598 0l0 38.771667l-96.12598 0z" fill-rule="evenodd"/><path fill="#000000" d="m594.0777 343.5832l-0.390625 0l-2.453125 -5.703125l-2.453125 5.703125l-0.390625 0l-2.984375 -8.546875l1.578125 0l1.796875 5.484375l2.21875 -5.484375l0.390625 0l2.296875 5.484375l1.921875 -5.484375l1.46875 0l-3.0 8.546875zm8.890625 -1.125q-0.890625 1.125 -2.71875 1.125q-0.984375 0 -1.71875 -0.71875q-0.71875 -0.71875 -0.71875 -1.78125q0 -1.265625 1.109375 -2.140625q1.125 -0.890625 2.84375 -0.890625q0.46875 0 1.0625 0.203125q0 -2.03125 -1.8125 -2.03125q-1.390625 0 -2.140625 0.75l-0.625 -1.234375q0.421875 -0.34375 1.171875 -0.59375q0.75 -0.25 1.421875 -0.25q1.828125 0 2.640625 0.828125q0.828125 0.828125 0.828125 2.640625l0 3.0q0 1.09375 0.65625 1.46875l0 0.75q-0.90625 0 -1.359375 -0.265625q-0.4375 -0.265625 -0.640625 -0.859375zm-0.140625 -3.140625q-0.703125 -0.15625 -0.984375 -0.15625q-1.125 0 -1.84375 0.578125q-0.703125 0.578125 -0.703125 1.359375q0 1.3125 1.546875 1.3125q1.125 0 1.984375 -1.078125l0 -2.015625zm5.359375 -7.421875q0.375 0 0.640625 0.265625q0.28125 0.265625 0.28125 0.640625q0 0.390625 -0.28125 0.65625q-0.265625 0.265625 -0.640625 0.265625q-0.375 0 -0.65625 -0.265625q-0.265625 -0.265625 -0.265625 -0.65625q0 -0.375 0.265625 -0.640625q0.265625 -0.265625 0.65625 -0.265625zm-0.8125 11.53125l0 -7.125l-1.15625 0l0 -1.25l2.640625 0l0 8.375l-1.484375 0zm4.375 -7.203125l-0.96875 0l0 -1.171875l0.96875 0l0 -1.75l1.484375 -0.5625l0 2.3125l2.296875 0l0 1.171875l-2.296875 0l0 4.15625q0 1.0625 0.34375 1.515625q0.359375 0.4375 1.15625 0.4375q0.5625 0 1.171875 -0.296875l0.21875 1.3125q-0.921875 0.234375 -2.015625 0.234375q-1.0 0 -1.6875 -0.734375q-0.671875 -0.75 -0.671875 -1.875l0 -4.75zm12.3359375 0.828125q-0.734375 -0.390625 -1.203125 -1.078125q-0.453125 -0.703125 -0.453125 -1.4375q0 -1.28125 0.859375 -2.015625q0.875 -0.75 2.234375 -0.75q1.484375 0 2.296875 0.75q0.8125 0.734375 0.8125 2.015625q0 0.75 -0.5 1.53125q-0.484375 0.78125 -1.140625 1.140625q2.0625 1.15625 2.0625 3.046875q0 1.578125 -0.953125 2.453125q-0.953125 0.875 -2.609375 0.875q-3.46875 0 -3.46875 -3.328125q0 -0.96875 0.59375 -1.890625q0.59375 -0.9375 1.46875 -1.3125zm1.90625 -0.484375q1.0625 -1.0 1.0625 -2.0625q0 -0.640625 -0.421875 -1.015625q-0.421875 -0.390625 -1.109375 -0.390625q-1.53125 0 -1.53125 1.421875q0 1.046875 2.0 2.046875zm-0.6875 1.171875q-1.71875 0.921875 -1.71875 2.515625q0 0.84375 0.53125 1.421875q0.53125 0.578125 1.375 0.578125q0.875 0 1.4375 -0.5625q0.5625 -0.5625 0.5625 -1.4375q0 -0.640625 -0.390625 -1.1875q-0.390625 -0.5625 -1.796875 -1.328125zm15.15625 5.6875l0 -5.296875q0 -1.984375 -1.71875 -1.984375q-0.53125 0 -1.0 0.34375q-0.46875 0.328125 -0.640625 0.75l0 6.1875l-1.484375 0l0 -5.953125q0 -0.609375 -0.46875 -0.96875q-0.46875 -0.359375 -1.234375 -0.359375q-0.4375 0 -0.953125 0.34375q-0.5 0.34375 -0.703125 0.765625l0 6.171875l-1.484375 0l0 -8.375l0.96875 0l0.484375 0.96875q0.859375 -1.125 2.15625 -1.125q1.796875 0 2.515625 1.125q0.25 -0.484375 0.921875 -0.796875q0.6875 -0.328125 1.40625 -0.328125q1.296875 0 2.0 0.78125q0.71875 0.765625 0.71875 2.15625l0 5.59375l-1.484375 0zm3.046875 -0.5l0.515625 -1.40625q1.25 0.8125 2.0 0.8125q1.375 0 1.375 -1.15625q0 -0.828125 -1.328125 -1.421875q-1.015625 -0.46875 -1.375 -0.703125q-0.359375 -0.25 -0.625 -0.5625q-0.25 -0.3125 -0.390625 -0.65625q-0.125 -0.34375 -0.125 -0.75q0 -1.03125 0.75 -1.609375q0.75 -0.578125 1.96875 -0.578125q0.90625 0 2.296875 0.578125l-0.421875 1.375q-0.875 -0.703125 -1.765625 -0.703125q-0.53125 0 -0.90625 0.25q-0.359375 0.25 -0.359375 0.640625q0 0.796875 0.921875 1.21875l1.0625 0.484375q0.96875 0.4375 1.40625 1.015625q0.453125 0.5625 0.453125 1.421875q0 1.125 -0.796875 1.765625q-0.78125 0.640625 -2.171875 0.640625q-1.328125 0 -2.484375 -0.65625z" fill-rule="nonzero"/><path fill="#000000" fill-opacity="0.0" d="m189.89502 289.28433l0 25.070862" fill-rule="evenodd"/><path stroke="#000000" stroke-width="2.0" stroke-linejoin="round" stroke-linecap="butt" d="m189.89502 289.28433l0 25.070862" fill-rule="evenodd"/><path fill="#000000" fill-opacity="0.0" d="m335.81628 289.28433l0 25.070862" fill-rule="evenodd"/><path stroke="#000000" stroke-width="2.0" stroke-linejoin="round" stroke-linecap="butt" d="m335.81628 289.28433l0 25.070862" fill-rule="evenodd"/><path fill="#000000" fill-opacity="0.0" d="m491.52493 289.74103l0 25.070862" fill-rule="evenodd"/><path stroke="#000000" stroke-width="2.0" stroke-linejoin="round" stroke-linecap="butt" d="m491.52493 289.74103l0 25.070862" fill-rule="evenodd"/><path fill="#000000" fill-opacity="0.0" d="m659.06824 289.74103l0 25.070862" fill-rule="evenodd"/><path stroke="#000000" stroke-width="2.0" stroke-linejoin="round" stroke-linecap="butt" d="m659.06824 289.74103l0 25.070862" fill-rule="evenodd"/></g></svg>