<svg xmlns="http://www.w3.org/2000/svg" width="583.124" height="41.832" viewBox="0 0 154.28494 11.068175"><path fill="#fff" fill-rule="evenodd" stroke="#000" stroke-width=".34" d="M40.711.896H74.39v6.56H40.711zM80.574.896h33.679v6.56H80.574zM120.436.896h33.679v6.56h-33.679zM.848.896h33.679v6.56H.848z"/><g style="line-height:6.61458px;-inkscape-font-specification:'Droid Sans';text-align:start" font-weight="400" font-size="4.939" font-family="Droid Sans" letter-spacing="0" word-spacing="0" stroke-width=".265"><path d="M4.273 4.064q0 .427-.063.764-.06.338-.198.572-.135.234-.35.357-.214.123-.52.123-.285 0-.497-.123-.21-.123-.35-.357-.137-.234-.207-.572-.068-.337-.068-.764t.06-.765q.063-.337.196-.569.135-.234.347-.357.215-.123.519-.123.287 0 .499.123.212.12.352.355.14.231.21.569.07.337.07.767zm-1.807 0q0 .361.036.632.037.27.116.45.08.179.208.27.13.09.316.09.185 0 .315-.09.13-.089.213-.267.084-.179.12-.449.039-.272.039-.636 0-.362-.039-.632-.036-.27-.12-.449-.082-.178-.213-.267-.13-.09-.315-.09-.186 0-.316.09-.128.089-.208.267-.08.179-.116.449-.036.27-.036.632zM8.276 4.064q0 .427-.063.764-.06.338-.198.572-.135.234-.35.357-.214.123-.52.123-.285 0-.497-.123-.21-.123-.35-.357-.137-.234-.207-.572-.068-.337-.068-.764t.06-.765q.063-.337.196-.569.135-.234.347-.357.215-.123.519-.123.287 0 .499.123.212.12.352.355.14.231.21.569.07.337.07.767zm-1.806 0q0 .361.036.632.036.27.115.45.08.179.208.27.13.09.316.09.185 0 .316-.09.13-.089.212-.267.084-.179.12-.449.039-.272.039-.636 0-.362-.039-.632-.036-.27-.12-.449-.082-.178-.212-.267-.13-.09-.316-.09t-.316.09q-.128.089-.208.267-.08.179-.115.449-.036.27-.036.632zM11.505 5.831h-.425V3.63v-.222l.005-.234q.005-.118.007-.224l.008-.191-.073.075q-.031.031-.065.06l-.067.063-.087.075-.357.291-.232-.296.924-.721h.362zM15.508 5.831h-.424V3.63v-.222l.004-.234.008-.224.007-.191-.073.075q-.03.031-.065.06l-.067.063-.087.075-.357.291-.231-.296.923-.721h.362zM20.285 4.064q0 .427-.062.764-.06.338-.198.572-.135.234-.35.357-.214.123-.52.123-.285 0-.497-.123-.21-.123-.35-.357-.138-.234-.208-.572-.067-.337-.067-.764t.06-.765q.063-.337.196-.569.135-.234.347-.357.215-.123.518-.123.287 0 .5.123.212.12.352.355.14.231.21.569.07.337.07.767zm-1.806 0q0 .361.036.632.036.27.116.45.08.179.207.27.13.09.316.09t.316-.09q.13-.089.212-.267.085-.179.121-.449.039-.272.039-.636 0-.362-.039-.632-.036-.27-.12-.449-.083-.178-.213-.267-.13-.09-.316-.09-.185 0-.316.09-.127.089-.207.267-.08.179-.116.449-.036.27-.036.632zM23.514 5.831h-.424V3.63v-.222l.005-.234q.005-.118.007-.224.005-.109.007-.191l-.072.075q-.031.031-.065.06l-.068.063-.087.075-.356.291-.232-.296.924-.721h.361zM27.518 5.831h-.425V3.63v-.222l.005-.234q.005-.118.007-.224.005-.109.007-.191l-.072.075q-.031.031-.065.06l-.068.063-.086.075-.357.291-.232-.296.924-.721h.362zM32.295 4.064q0 .427-.063.764-.06.338-.197.572-.136.234-.35.357-.215.123-.521.123-.285 0-.497-.123-.21-.123-.35-.357-.137-.234-.207-.572-.067-.337-.067-.764t.06-.765q.063-.337.195-.569.135-.234.347-.357.215-.123.519-.123.287 0 .5.123.211.12.351.355.14.231.21.569.07.337.07.767zm-1.806 0q0 .361.036.632.036.27.116.45.08.179.207.27.13.09.316.09t.316-.09q.13-.089.212-.267.085-.179.12-.449.04-.272.04-.636 0-.362-.04-.632-.036-.27-.12-.449-.082-.178-.212-.267-.13-.09-.316-.09t-.316.09q-.128.089-.207.267-.08.179-.116.449-.036.27-.036.632z"/></g><g style="line-height:6.61458px;-inkscape-font-specification:'Droid Sans';text-align:start" font-weight="400" font-size="4.939" font-family="Droid Sans" letter-spacing="0" word-spacing="0" stroke-width=".265"><path d="M44.135 4.064q0 .427-.063.764-.06.338-.197.572-.135.234-.35.357-.215.123-.52.123-.285 0-.498-.123-.21-.123-.35-.357-.137-.234-.207-.572-.067-.337-.067-.764t.06-.765q.063-.337.195-.569.135-.234.348-.357.214-.123.518-.123.287 0 .5.123.212.12.351.355.14.231.21.569.07.337.07.767zm-1.806 0q0 .361.036.632.036.27.116.45.08.179.207.27.13.09.316.09t.316-.09q.13-.089.212-.267.085-.179.12-.449.04-.272.04-.636 0-.362-.04-.632-.035-.27-.12-.449-.082-.178-.212-.267-.13-.09-.316-.09t-.316.09q-.128.089-.207.267-.08.179-.116.449-.036.27-.036.632zM48.138 4.064q0 .427-.062.764-.06.338-.198.572-.135.234-.35.357-.214.123-.52.123-.285 0-.497-.123-.21-.123-.35-.357-.138-.234-.207-.572-.068-.337-.068-.764t.06-.765q.063-.337.196-.569.135-.234.347-.357.215-.123.518-.123.287 0 .5.123.212.12.352.355.14.231.21.569.07.337.07.767zm-1.806 0q0 .361.036.632.036.27.116.45.08.179.207.27.13.09.316.09t.316-.09q.13-.089.213-.267.084-.179.12-.449.039-.272.039-.636 0-.362-.039-.632-.036-.27-.12-.449-.082-.178-.213-.267-.13-.09-.316-.09-.185 0-.316.09-.127.089-.207.267-.08.179-.116.449-.036.27-.036.632zM51.368 5.831h-.425V3.63v-.222l.005-.234q.005-.118.007-.224.005-.109.007-.191l-.072.075q-.031.031-.065.06l-.068.063-.087.075-.356.291-.232-.296.924-.721h.362zM56.145 4.064q0 .427-.063.764-.06.338-.198.572-.135.234-.35.357-.214.123-.52.123-.285 0-.497-.123-.21-.123-.35-.357-.137-.234-.207-.572-.068-.337-.068-.764t.06-.765q.063-.337.196-.569.135-.234.347-.357.215-.123.519-.123.287 0 .499.123.212.12.352.355.14.231.21.569.07.337.07.767zm-1.806 0q0 .361.036.632.036.27.115.45.08.179.208.27.13.09.316.09.185 0 .316-.09.13-.089.212-.267.084-.179.12-.449.04-.272.04-.636 0-.362-.04-.632-.036-.27-.12-.449-.082-.178-.212-.267-.13-.09-.316-.09t-.316.09q-.128.089-.208.267-.08.179-.115.449-.036.27-.036.632zM60.148 4.064q0 .427-.063.764-.06.338-.197.572-.135.234-.35.357-.215.123-.521.123-.285 0-.497-.123-.21-.123-.35-.357-.137-.234-.207-.572-.067-.337-.067-.764t.06-.765q.063-.337.195-.569.135-.234.348-.357.214-.123.518-.123.287 0 .5.123.211.12.351.355.14.231.21.569.07.337.07.767zm-1.806 0q0 .361.036.632.036.27.116.45.08.179.207.27.13.09.316.09t.316-.09q.13-.089.212-.267.085-.179.12-.449.04-.272.04-.636 0-.362-.04-.632-.035-.27-.12-.449-.082-.178-.212-.267-.13-.09-.316-.09t-.316.09q-.128.089-.207.267-.08.179-.116.449-.036.27-.036.632zM63.377 5.831h-.424V3.63v-.222l.004-.234.008-.224.007-.191-.072.075q-.032.031-.066.06l-.067.063-.087.075-.357.291-.231-.296.923-.721h.362zM67.38 5.831h-.424V3.63v-.222l.005-.234q.005-.118.007-.224.005-.109.007-.191l-.072.075q-.032.031-.065.06l-.068.063-.087.075-.357.291-.231-.296.924-.721h.361zM72.158 4.064q0 .427-.063.764-.06.338-.198.572-.135.234-.35.357-.214.123-.52.123-.285 0-.497-.123-.21-.123-.35-.357-.137-.234-.207-.572-.068-.337-.068-.764t.06-.765q.063-.337.196-.569.135-.234.347-.357.215-.123.519-.123.287 0 .499.123.212.12.352.355.14.231.21.569.07.337.07.767zm-1.807 0q0 .361.037.632.036.27.115.45.08.179.208.27.13.09.316.09.185 0 .316-.09.13-.089.212-.267.084-.179.12-.449.039-.272.039-.636 0-.362-.039-.632-.036-.27-.12-.449-.082-.178-.212-.267-.13-.09-.316-.09t-.316.09q-.128.089-.208.267-.08.179-.115.449-.037.27-.037.632z"/></g><g style="line-height:6.61458px;-inkscape-font-specification:'Droid Sans';text-align:start" font-weight="400" font-size="4.939" font-family="Droid Sans" letter-spacing="0" word-spacing="0" stroke-width=".265"><path d="M83.224 5.831h-.425V3.63v-.222l.005-.234q.005-.118.007-.224.005-.109.007-.191l-.072.075q-.031.031-.065.06l-.068.063-.086.075-.357.291-.232-.296.924-.721h.362zM88.001 4.064q0 .427-.063.764-.06.338-.197.572-.135.234-.35.357-.215.123-.521.123-.285 0-.497-.123-.21-.123-.35-.357-.137-.234-.207-.572-.067-.337-.067-.764t.06-.765q.063-.337.195-.569.135-.234.348-.357.214-.123.518-.123.287 0 .5.123.211.12.351.355.14.231.21.569.07.337.07.767zm-1.806 0q0 .361.036.632.036.27.116.45.08.179.207.27.13.09.316.09t.316-.09q.13-.089.212-.267.085-.179.12-.449.04-.272.04-.636 0-.362-.04-.632-.035-.27-.12-.449-.082-.178-.212-.267-.13-.09-.316-.09t-.316.09q-.128.089-.207.267-.08.179-.116.449-.036.27-.036.632zM92.004 4.064q0 .427-.062.764-.06.338-.198.572-.135.234-.35.357-.215.123-.52.123-.285 0-.498-.123-.21-.123-.35-.357-.137-.234-.207-.572-.067-.337-.067-.764t.06-.765q.063-.337.195-.569.136-.234.348-.357.214-.123.518-.123.287 0 .5.123.212.12.351.355.14.231.21.569.07.337.07.767zm-1.806 0q0 .361.036.632.036.27.116.45.08.179.207.27.13.09.316.09t.316-.09q.13-.089.212-.267.085-.179.12-.449.04-.272.04-.636 0-.362-.04-.632-.035-.27-.12-.449-.082-.178-.212-.267-.13-.09-.316-.09-.185 0-.316.09-.128.089-.207.267-.08.179-.116.449-.036.27-.036.632zM95.233 5.831h-.424V3.63v-.222l.005-.234.007-.224q.005-.109.007-.191l-.072.075q-.032.031-.065.06l-.068.063-.087.075-.357.291-.231-.296.924-.721h.361zM100.01 4.064q0 .427-.062.764-.06.338-.198.572-.135.234-.35.357-.214.123-.52.123-.285 0-.497-.123-.21-.123-.35-.357-.137-.234-.207-.572-.068-.337-.068-.764t.06-.765q.063-.337.196-.569.135-.234.347-.357.215-.123.519-.123.287 0 .499.123.212.12.352.355.14.231.21.569.07.337.07.767zm-1.806 0q0 .361.037.632.036.27.115.45.08.179.208.27.13.09.316.09.185 0 .316-.09.13-.089.212-.267.084-.179.12-.449.039-.272.039-.636 0-.362-.039-.632-.036-.27-.12-.449-.082-.178-.212-.267-.13-.09-.316-.09t-.316.09q-.128.089-.208.267-.08.179-.115.449-.037.27-.037.632zM104.014 4.064q0 .427-.063.764-.06.338-.198.572-.135.234-.35.357-.214.123-.52.123-.285 0-.497-.123-.21-.123-.35-.357-.137-.234-.207-.572-.068-.337-.068-.764t.06-.765q.063-.337.196-.569.135-.234.347-.357.215-.123.519-.123.287 0 .5.123.211.12.351.355.14.231.21.569.07.337.07.767zm-1.806 0q0 .361.036.632.036.27.116.45.08.179.207.27.13.09.316.09t.316-.09q.13-.089.212-.267.084-.179.12-.449.04-.272.04-.636 0-.362-.04-.632-.036-.27-.12-.449-.082-.178-.212-.267-.13-.09-.316-.09t-.316.09q-.128.089-.207.267-.08.179-.116.449-.036.27-.036.632zM108.017 4.064q0 .427-.063.764-.06.338-.197.572-.135.234-.35.357-.215.123-.521.123-.285 0-.497-.123-.21-.123-.35-.357-.137-.234-.207-.572-.067-.337-.067-.764t.06-.765q.063-.337.195-.569.135-.234.348-.357.214-.123.518-.123.287 0 .5.123.211.12.351.355.14.231.21.569.07.337.07.767zm-1.806 0q0 .361.036.632.036.27.116.45.08.179.207.27.13.09.316.09t.316-.09q.13-.089.212-.267.085-.179.12-.449.04-.272.04-.636 0-.362-.04-.632-.035-.27-.12-.449-.082-.178-.212-.267-.13-.09-.316-.09t-.316.09q-.128.089-.207.267-.08.179-.116.449-.036.27-.036.632zM111.246 5.831h-.424V3.63v-.222l.005-.234q.005-.118.007-.224.005-.109.007-.191l-.073.075q-.031.031-.065.06l-.067.063-.087.075-.357.291-.231-.296.923-.721h.362z"/></g><g style="line-height:6.61458px;-inkscape-font-specification:'Droid Sans';text-align:start" font-weight="400" font-size="4.939" font-family="Droid Sans" letter-spacing="0" word-spacing="0" stroke-width=".265"><path d="M123.086 5.831h-.424V3.63v-.222l.005-.234q.005-.118.007-.224.005-.109.007-.191l-.072.075q-.032.031-.066.06l-.067.063-.087.075-.357.291-.231-.296.923-.721h.362zM127.864 4.064q0 .427-.063.764-.06.338-.198.572-.135.234-.35.357-.214.123-.52.123-.285 0-.497-.123-.21-.123-.35-.357-.137-.234-.207-.572-.068-.337-.068-.764t.06-.765q.063-.337.196-.569.135-.234.347-.357.215-.123.519-.123.287 0 .499.123.212.12.352.355.14.231.21.569.07.337.07.767zm-1.807 0q0 .361.037.632.036.27.115.45.08.179.208.27.13.09.316.09.185 0 .316-.09.13-.089.212-.267.084-.179.12-.449.039-.272.039-.636 0-.362-.039-.632-.036-.27-.12-.449-.082-.178-.212-.267-.13-.09-.316-.09t-.316.09q-.128.089-.208.267-.08.179-.115.449-.037.27-.037.632zM131.093 5.831h-.425V3.63v-.222l.005-.234q.005-.118.007-.224.005-.109.007-.191l-.072.075q-.032.031-.065.06l-.068.063-.087.075-.356.291-.232-.296.924-.721h.361zM135.096 5.831h-.424V3.63v-.222l.005-.234q.005-.118.007-.224.005-.109.007-.191l-.073.075q-.031.031-.065.06l-.067.063-.087.075-.357.291-.232-.296.924-.721h.362zM139.1 5.831h-.425V3.63v-.222l.005-.234q.005-.118.007-.224.005-.109.007-.191l-.073.075q-.031.031-.065.06l-.067.063-.087.075-.357.291-.232-.296.924-.721h.362zM143.876 4.064q0 .427-.062.764-.06.338-.198.572-.135.234-.35.357-.214.123-.52.123-.285 0-.497-.123-.21-.123-.35-.357-.137-.234-.207-.572-.068-.337-.068-.764t.06-.765q.063-.337.196-.569.135-.234.347-.357.215-.123.518-.123.287 0 .5.123.212.12.352.355.14.231.21.569.07.337.07.767zm-1.806 0q0 .361.036.632.037.27.116.45.08.179.208.27.13.09.315.09.186 0 .316-.09.13-.089.213-.267.084-.179.12-.449.039-.272.039-.636 0-.362-.039-.632-.036-.27-.12-.449-.082-.178-.213-.267-.13-.09-.316-.09-.185 0-.315.09-.128.089-.208.267-.08.179-.116.449-.036.27-.036.632zM147.88 4.064q0 .427-.063.764-.06.338-.198.572-.135.234-.35.357-.214.123-.52.123-.285 0-.497-.123-.21-.123-.35-.357-.137-.234-.207-.572-.068-.337-.068-.764t.06-.765q.063-.337.196-.569.135-.234.347-.357.215-.123.519-.123.287 0 .499.123.212.12.352.355.14.231.21.569.07.337.07.767zm-1.807 0q0 .361.037.632.036.27.115.45.08.179.208.27.13.09.316.09.185 0 .316-.09.13-.089.212-.267.084-.179.12-.449.039-.272.039-.636 0-.362-.039-.632-.036-.27-.12-.449-.082-.178-.212-.267-.13-.09-.316-.09t-.316.09q-.128.089-.208.267-.08.179-.115.449-.037.27-.037.632zM151.883 4.064q0 .427-.063.764-.06.338-.198.572-.135.234-.35.357-.214.123-.52.123-.285 0-.497-.123-.21-.123-.35-.357-.137-.234-.207-.572-.067-.337-.067-.764t.06-.765q.063-.337.195-.569.135-.234.347-.357.215-.123.519-.123.287 0 .5.123.211.12.351.355.14.231.21.569.07.337.07.767zm-1.806 0q0 .361.036.632.036.27.116.45.08.179.207.27.13.09.316.09t.316-.09q.13-.089.212-.267.084-.179.12-.449.04-.272.04-.636 0-.362-.04-.632-.036-.27-.12-.449-.082-.178-.212-.267-.13-.09-.316-.09t-.316.09q-.128.089-.207.267-.08.179-.116.449-.036.27-.036.632z"/></g><path d="M10 .2v8h11v-8zM22.25.2v8h11v-8zM0 .2h8.75v8H0M75.625.2H70v8h5.625M57.625.2v8h11v-8zM45.625.2v8h11v-8z" fill="none" stroke="red" stroke-width=".401"/><g style="line-height:6.61458px;-inkscape-font-specification:'Droid Sans';text-align:start" font-weight="400" font-size="2.822" font-family="Droid Sans" letter-spacing="0" word-spacing="0" opacity=".796" stroke-width=".265"><path d="M26.391 9.99q0 .19-.047.337-.045.146-.132.247-.085.099-.208.151-.123.052-.276.052-.142 0-.261-.052-.12-.052-.208-.151-.087-.101-.137-.247-.048-.148-.048-.336 0-.188.045-.332.047-.147.133-.246.085-.1.208-.151.124-.053.277-.053.142 0 .262.053.12.05.206.151.088.1.137.246.05.144.05.332zm-1.058 0q0 .289.094.435.095.144.307.144t.304-.144q.094-.146.094-.434 0-.288-.095-.43-.094-.144-.306-.144t-.306.144q-.092.142-.092.43zM27.77 10.75l-.038-.203h-.014q-.034.06-.082.104-.047.042-.104.071-.056.028-.12.042-.063.014-.13.014-.125 0-.22-.032t-.158-.1q-.064-.067-.097-.172-.031-.104-.031-.25v-.987h.25v.974q0 .18.074.269.073.09.226.09.111 0 .187-.036t.121-.105q.047-.07.066-.172.021-.102.021-.235v-.785h.25v1.513zM28.912 10.572q.024 0 .055-.003.032-.002.06-.007.03-.004.053-.01.025-.005.037-.009v.19q-.018.009-.045.017-.028.008-.061.014-.033.007-.069.01-.036.003-.07.003-.086 0-.159-.022-.073-.022-.127-.075-.052-.054-.082-.145-.03-.092-.03-.232v-.877h-.214v-.112l.213-.107.108-.317h.145v.347h.38v.189h-.38v.877q0 .134.042.202.044.067.144.067zM30.596 9.74q0 .244-.036.437-.035.193-.113.326-.077.134-.2.204-.123.07-.298.07-.162 0-.284-.07-.12-.07-.2-.204-.078-.133-.118-.326-.038-.193-.038-.437t.034-.437q.036-.193.112-.325.077-.134.198-.204.123-.07.296-.07.164 0 .286.07.12.069.2.202.08.133.12.326.04.193.04.438zm-1.033 0q0 .207.021.36.02.155.066.259.046.102.119.154.074.05.18.05t.18-.05q.075-.051.122-.153.048-.102.069-.256.022-.156.022-.364 0-.207-.022-.361-.02-.155-.069-.257-.047-.101-.121-.152-.075-.051-.18-.051-.107 0-.181.05-.073.052-.119.153-.045.102-.066.257-.02.154-.02.36z"/></g><g style="line-height:6.61458px;-inkscape-font-specification:'Droid Sans';text-align:start" font-weight="400" font-size="2.822" font-family="Droid Sans" letter-spacing="0" word-spacing="0" stroke-width=".265"><path d="M14.358 10.182q0 .188-.047.336-.045.146-.132.246-.085.1-.208.152-.123.052-.276.052-.141 0-.261-.052-.12-.052-.208-.152-.087-.1-.137-.246-.048-.148-.048-.336 0-.188.045-.333.047-.146.133-.245.085-.1.208-.151.124-.053.277-.053.142 0 .262.053.12.05.206.151.088.1.137.245.05.145.05.333zm-1.058 0q0 .288.094.434.095.144.307.144t.305-.144q.093-.146.093-.434 0-.288-.095-.43-.094-.144-.306-.144t-.306.144q-.092.142-.092.43zM15.736 10.94l-.037-.202h-.014q-.034.06-.082.104-.047.042-.104.071-.056.028-.12.042-.063.013-.13.013-.125 0-.22-.031-.095-.032-.158-.1-.063-.067-.097-.172-.031-.105-.031-.25v-.987h.25v.974q0 .18.074.269.073.09.226.09.111 0 .187-.037.076-.035.121-.104.047-.07.066-.173.021-.101.021-.234v-.785h.25v1.513zM16.879 10.763q.025 0 .055-.003l.06-.007q.03-.004.053-.01.025-.005.037-.009v.19q-.018.009-.045.017-.028.008-.061.014-.033.007-.069.01-.036.003-.07.003-.086 0-.159-.022-.073-.022-.126-.075-.053-.054-.083-.145-.03-.093-.03-.232v-.877h-.214v-.112l.214-.108.107-.317h.145v.348h.38v.189h-.38v.877q0 .134.042.202.045.067.144.067zM18.12 10.94h-.242V9.684v-.127l.003-.134.004-.128.004-.109-.042.043q-.017.018-.037.034l-.038.036-.05.043-.204.167-.132-.17.528-.412h.206z"/></g><g style="line-height:6.61458px;-inkscape-font-specification:'Droid Sans';text-align:start" font-weight="400" font-size="2.822" font-family="Droid Sans" letter-spacing="0" word-spacing="0" stroke-width=".265"><path d="M3.152 10.281q0 .19-.047.337-.046.146-.132.246-.086.1-.209.152-.122.052-.275.052-.142 0-.262-.052-.12-.053-.208-.152-.087-.1-.137-.246-.048-.148-.048-.337 0-.187.046-.332.047-.146.132-.245.085-.1.208-.152.124-.052.277-.052.142 0 .262.052.12.051.207.152.088.1.136.245.05.145.05.332zm-1.059 0q0 .288.094.434.095.145.307.145.213 0 .305-.145.094-.146.094-.434 0-.288-.095-.43-.094-.143-.306-.143-.213 0-.306.143-.093.142-.093.43zM4.53 11.04l-.037-.202h-.014q-.035.06-.083.103-.047.043-.103.072-.057.028-.12.041-.064.014-.13.014-.125 0-.22-.032-.095-.031-.159-.099-.063-.067-.096-.172-.032-.105-.032-.25v-.987h.25v.974q0 .179.074.269.073.09.226.09.112 0 .187-.037.076-.036.122-.104.047-.07.066-.173.02-.102.02-.234v-.785h.251v1.513zM5.672 10.863q.025 0 .055-.003l.06-.007q.03-.004.053-.01.025-.005.037-.01v.191q-.017.008-.045.017-.028.008-.06.013-.034.007-.07.01-.035.004-.07.004-.085 0-.158-.022t-.127-.076q-.052-.053-.083-.144-.03-.093-.03-.232v-.878H5.02v-.111l.214-.108.107-.317h.145v.348h.38v.188h-.38v.878q0 .134.043.201.044.068.143.068zM7.323 11.04H6.066v-.214l.483-.525q.103-.112.184-.204.082-.093.138-.18.058-.09.088-.177.03-.09.03-.195 0-.08-.023-.143-.023-.062-.067-.105-.043-.044-.102-.066-.06-.022-.133-.022-.13 0-.237.054-.104.052-.2.135l-.14-.164q.055-.05.118-.092.064-.044.137-.076.073-.032.154-.05.081-.019.171-.019.132 0 .238.037.108.037.182.108.075.069.115.17.041.098.041.224 0 .117-.037.223-.036.106-.1.21-.064.101-.154.205-.088.103-.191.215l-.387.412v.01h.949z"/></g></svg>