<svg xmlns="http://www.w3.org/2000/svg" width="580.56" height="211.235" viewBox="0 0 153.60663 55.889274"><path fill="#fff" fill-rule="evenodd" stroke="#000" stroke-width=".34" d="M40.033 22.784h33.679v6.56H40.033zM40.033 33.646h33.679v6.56H40.033zM40.033 44.509h33.679v6.56H40.033zM.17 11.921h33.679v6.56H.17zM.17 22.784h33.679v6.56H.17zM.17 33.646h33.679v6.56H.17zM.17 44.509h33.679v6.56H.17zM119.758 22.784h33.679v6.56h-33.679zM119.758 33.646h33.679v6.56h-33.679zM119.758 44.509h33.679v6.56h-33.679zM.17 1.058h33.679v6.56H.17z"/><g style="line-height:6.61458px;-inkscape-font-specification:'Droid Sans';text-align:start" font-weight="400" font-size="4.939" font-family="Droid Sans" letter-spacing="0" word-spacing="0" stroke-width=".265"><path d="M3.594 4.225q0 .427-.062.765-.06.337-.198.571-.135.234-.35.357-.215.123-.52.123-.285 0-.498-.123-.21-.123-.35-.357-.137-.234-.207-.571-.067-.338-.067-.765t.06-.764q.063-.338.195-.57.136-.233.348-.356.214-.123.518-.123.287 0 .5.123.212.12.352.354.14.232.21.57.07.337.07.766zm-1.806 0q0 .362.036.632t.116.451q.08.179.207.27.13.09.316.09t.316-.09q.13-.09.212-.268.085-.178.12-.448.04-.273.04-.637 0-.361-.04-.632-.035-.27-.12-.448-.082-.179-.212-.268-.13-.089-.316-.089-.185 0-.316.09-.127.088-.207.267-.08.178-.116.448-.036.27-.036.632zM6.823 5.993H6.4V3.791 3.57l.005-.234q.005-.118.007-.224.005-.108.007-.19-.04.043-.072.074-.032.032-.065.06l-.068.063-.087.075-.357.292-.231-.297.924-.72h.361zM11.6 4.225q0 .427-.062.765-.06.337-.198.571-.135.234-.35.357-.214.123-.52.123-.285 0-.497-.123-.21-.123-.35-.357-.137-.234-.207-.571-.068-.338-.068-.765t.06-.764q.063-.338.196-.57.135-.233.347-.356.215-.123.519-.123.287 0 .499.123.212.12.352.354.14.232.21.57.07.337.07.766zm-1.806 0q0 .362.037.632.036.27.115.451.08.179.208.27.13.09.316.09.185 0 .316-.09.13-.09.212-.268.084-.178.12-.448.039-.273.039-.637 0-.361-.039-.632-.036-.27-.12-.448-.082-.179-.212-.268-.13-.089-.316-.089t-.316.09q-.128.088-.208.267-.08.178-.115.448-.037.27-.037.632zM15.604 4.225q0 .427-.063.765-.06.337-.198.571-.135.234-.35.357-.214.123-.52.123-.285 0-.497-.123-.21-.123-.35-.357-.137-.234-.207-.571-.068-.338-.068-.765t.06-.764q.063-.338.196-.57.135-.233.347-.356.215-.123.519-.123.287 0 .499.123.212.12.352.354.14.232.21.57.07.337.07.766zm-1.806 0q0 .362.036.632t.116.451q.08.179.207.27.13.09.316.09t.316-.09q.13-.09.212-.268.084-.178.12-.448.04-.273.04-.637 0-.361-.04-.632-.036-.27-.12-.448-.082-.179-.212-.268-.13-.089-.316-.089t-.316.09q-.128.088-.207.267-.08.178-.116.448-.036.27-.036.632zM19.607 4.225q0 .427-.063.765-.06.337-.197.571-.135.234-.35.357-.215.123-.521.123-.285 0-.497-.123-.21-.123-.35-.357-.137-.234-.207-.571-.067-.338-.067-.765t.06-.764q.063-.338.195-.57.135-.233.348-.356.214-.123.518-.123.287 0 .5.123.211.12.351.354.14.232.21.57.07.337.07.766zm-1.806 0q0 .362.036.632t.116.451q.08.179.207.27.13.09.316.09t.316-.09q.13-.09.212-.268.085-.178.12-.448.04-.273.04-.637 0-.361-.04-.632-.035-.27-.12-.448-.082-.179-.212-.268-.13-.089-.316-.089t-.316.09q-.128.088-.207.267-.08.178-.116.448-.036.27-.036.632zM23.61 4.225q0 .427-.062.765-.06.337-.198.571-.135.234-.35.357-.214.123-.52.123-.285 0-.498-.123-.21-.123-.35-.357-.137-.234-.207-.571-.067-.338-.067-.765t.06-.764q.063-.338.195-.57.136-.233.348-.356.214-.123.518-.123.287 0 .5.123.212.12.352.354.14.232.21.57.07.337.07.766zm-1.806 0q0 .362.036.632t.116.451q.08.179.207.27.13.09.316.09t.316-.09q.13-.09.212-.268.085-.178.12-.448.04-.273.04-.637 0-.361-.04-.632-.035-.27-.12-.448-.082-.179-.212-.268-.13-.089-.316-.089-.185 0-.316.09-.127.088-.207.267-.08.178-.116.448-.036.27-.036.632zM26.84 5.993h-.425V3.791 3.57l.005-.234q.005-.118.007-.224.005-.108.007-.19-.04.043-.072.074-.032.032-.065.06l-.068.063-.087.075-.357.292-.231-.297.924-.72h.361zM30.843 5.993h-.425V3.791 3.57l.005-.234q.005-.118.007-.224.005-.108.007-.19-.04.043-.072.074-.031.032-.065.06l-.068.063-.086.075-.357.292-.232-.297.924-.72h.362z"/></g><g style="line-height:6.61458px;-inkscape-font-specification:'Droid Sans';text-align:start" font-weight="400" font-size="4.939" font-family="Droid Sans" letter-spacing="0" word-spacing="0" stroke-width=".265"><path d="M3.594 15.088q0 .427-.062.765-.06.337-.198.571-.135.234-.35.357-.215.123-.52.123-.285 0-.498-.123-.21-.123-.35-.357-.137-.234-.207-.571-.067-.338-.067-.765t.06-.764q.063-.338.195-.57.136-.233.348-.356.214-.123.518-.123.287 0 .5.123.212.12.352.354.14.232.21.57.07.337.07.766zm-1.806 0q0 .362.036.632t.116.45q.08.18.207.271.13.09.316.09t.316-.09q.13-.09.212-.268.085-.178.12-.448.04-.273.04-.637 0-.362-.04-.632-.035-.27-.12-.448-.082-.179-.212-.268-.13-.09-.316-.09-.185 0-.316.09-.127.09-.207.268-.08.178-.116.448-.036.27-.036.632zM7.597 15.088q0 .427-.062.765-.06.337-.198.571-.135.234-.35.357-.214.123-.52.123-.285 0-.497-.123-.21-.123-.35-.357-.137-.234-.207-.571-.068-.338-.068-.765t.06-.764q.063-.338.196-.57.135-.233.347-.356.215-.123.518-.123.287 0 .5.123.212.12.352.354.14.232.21.57.07.337.07.766zm-1.806 0q0 .362.036.632.037.27.116.45.08.18.208.271.13.09.315.09.186 0 .316-.09t.213-.268q.084-.178.12-.448.039-.273.039-.637 0-.362-.039-.632-.036-.27-.12-.448-.082-.179-.213-.268-.13-.09-.316-.09-.185 0-.315.09-.128.09-.208.268-.08.178-.116.448-.036.27-.036.632zM11.6 15.088q0 .427-.062.765-.06.337-.198.571-.135.234-.35.357-.214.123-.52.123-.285 0-.497-.123-.21-.123-.35-.357-.137-.234-.207-.571-.068-.338-.068-.765t.06-.764q.063-.338.196-.57.135-.233.347-.356.215-.123.519-.123.287 0 .499.123.212.12.352.354.14.232.21.57.07.337.07.766zm-1.806 0q0 .362.037.632.036.27.115.45.08.18.208.271.13.09.316.09.185 0 .316-.09.13-.09.212-.268.084-.178.12-.448.039-.273.039-.637 0-.362-.039-.632-.036-.27-.12-.448-.082-.179-.212-.268-.13-.09-.316-.09t-.316.09q-.128.09-.208.268-.08.178-.115.448-.037.27-.037.632zM15.604 15.088q0 .427-.063.765-.06.337-.198.571-.135.234-.35.357-.214.123-.52.123-.285 0-.497-.123-.21-.123-.35-.357-.137-.234-.207-.571-.068-.338-.068-.765t.06-.764q.063-.338.196-.57.135-.233.347-.356.215-.123.519-.123.287 0 .499.123.212.12.352.354.14.232.21.57.07.337.07.766zm-1.806 0q0 .362.036.632t.116.45q.08.18.207.271.13.09.316.09t.316-.09q.13-.09.212-.268.084-.178.12-.448.04-.273.04-.637 0-.362-.04-.632-.036-.27-.12-.448-.082-.179-.212-.268-.13-.09-.316-.09t-.316.09q-.128.09-.207.268-.08.178-.116.448-.036.27-.036.632zM18.833 16.856h-.424v-2.202-.222l.004-.234.008-.224.007-.19q-.041.043-.073.074-.031.032-.065.06l-.067.063-.087.075-.357.292-.232-.297.924-.72h.362zM22.836 16.856h-.424v-2.202-.222l.005-.234.007-.224.007-.19-.072.074q-.032.032-.066.06-.03.03-.067.063l-.087.075-.357.292-.231-.297.923-.72h.362zM27.613 15.088q0 .427-.062.765-.06.337-.198.571-.135.234-.35.357-.214.123-.52.123-.285 0-.497-.123-.21-.123-.35-.357-.137-.234-.207-.571-.068-.338-.068-.765t.06-.764q.063-.338.196-.57.135-.233.347-.356.215-.123.518-.123.287 0 .5.123.212.12.352.354.14.232.21.57.07.337.07.766zm-1.806 0q0 .362.036.632.037.27.116.45.08.18.208.271.13.09.315.09.186 0 .316-.09t.213-.268q.084-.178.12-.448.039-.273.039-.637 0-.362-.039-.632-.036-.27-.12-.448-.082-.179-.213-.268-.13-.09-.316-.09-.185 0-.315.09-.128.09-.208.268-.08.178-.116.448-.036.27-.036.632zM30.843 16.856h-.425v-2.202-.222l.005-.234q.005-.118.007-.224l.007-.19q-.04.043-.072.074-.031.032-.065.06l-.068.063-.086.075-.357.292-.232-.297.924-.72h.361z"/></g><g style="line-height:6.61458px;-inkscape-font-specification:'Droid Sans';text-align:start" font-weight="400" font-size="4.939" font-family="Droid Sans" letter-spacing="0" word-spacing="0" stroke-width=".265"><path d="M3.594 25.951q0 .427-.062.764-.06.338-.198.572-.135.234-.35.357-.215.123-.52.123-.285 0-.498-.123-.21-.123-.35-.357-.137-.234-.207-.572-.067-.337-.067-.764t.06-.765q.063-.337.195-.569.136-.234.348-.357.214-.123.518-.123.287 0 .5.123.212.121.352.355.14.231.21.57.07.337.07.766zm-1.806 0q0 .362.036.632t.116.45q.08.18.207.27.13.09.316.09t.316-.09q.13-.088.212-.267.085-.178.12-.448.04-.273.04-.637 0-.362-.04-.632-.035-.27-.12-.448-.082-.179-.212-.268-.13-.09-.316-.09-.185 0-.316.09-.127.09-.207.268-.08.178-.116.448-.036.27-.036.632zM7.597 25.951q0 .427-.062.764-.06.338-.198.572-.135.234-.35.357-.214.123-.52.123-.285 0-.497-.123-.21-.123-.35-.357-.137-.234-.207-.572-.068-.337-.068-.764t.06-.765q.063-.337.196-.569.135-.234.347-.357.215-.123.518-.123.287 0 .5.123.212.121.352.355.14.231.21.57.07.337.07.766zm-1.806 0q0 .362.036.632.037.27.116.45.08.18.208.27.13.09.315.09.186 0 .316-.09.13-.088.213-.267.084-.178.12-.448.039-.273.039-.637 0-.362-.039-.632-.036-.27-.12-.448-.082-.179-.213-.268-.13-.09-.316-.09-.185 0-.315.09-.128.09-.208.268-.08.178-.116.448-.036.27-.036.632zM10.827 27.719h-.425v-2.202-.222l.005-.234q.005-.118.007-.224l.007-.19q-.04.043-.072.074-.031.031-.065.06l-.068.063-.086.075-.357.292-.232-.297.924-.721h.362zM14.83 27.719h-.425v-2.202-.222l.005-.234q.005-.118.007-.224l.008-.19q-.041.043-.073.074-.031.031-.065.06l-.067.063-.087.075-.357.292-.232-.297.924-.721h.362zM19.607 25.951q0 .427-.063.764-.06.338-.197.572-.135.234-.35.357-.215.123-.521.123-.285 0-.497-.123-.21-.123-.35-.357-.137-.234-.207-.572-.067-.337-.067-.764t.06-.765q.063-.337.195-.569.135-.234.348-.357.214-.123.518-.123.287 0 .5.123.211.121.351.355.14.231.21.57.07.337.07.766zm-1.806 0q0 .362.036.632t.116.45q.08.18.207.27.13.09.316.09t.316-.09q.13-.088.212-.267.085-.178.12-.448.04-.273.04-.637 0-.362-.04-.632-.035-.27-.12-.448-.082-.179-.212-.268-.13-.09-.316-.09t-.316.09q-.128.09-.207.268-.08.178-.116.448-.036.27-.036.632zM22.836 27.719h-.424v-2.202-.222l.005-.234.007-.224.007-.19-.072.074q-.032.031-.066.06-.03.03-.067.063l-.087.075-.357.292-.231-.297.923-.721h.362zM26.84 27.719h-.425v-2.202-.222l.005-.234q.005-.118.007-.224l.007-.19q-.04.043-.072.074-.032.031-.065.06l-.068.063-.087.075-.357.292-.231-.297.924-.721h.361zM30.843 27.719h-.425v-2.202-.222l.005-.234q.005-.118.007-.224l.007-.19q-.04.043-.072.074-.031.031-.065.06l-.068.063-.086.075-.357.292-.232-.297.924-.721h.361z"/></g><g style="line-height:6.61458px;-inkscape-font-specification:'Droid Sans';text-align:start" font-weight="400" font-size="4.939" font-family="Droid Sans" letter-spacing="0" word-spacing="0" stroke-width=".265"><path d="M43.457 25.951q0 .427-.063.764-.06.338-.198.572-.135.234-.35.357-.214.123-.52.123-.285 0-.497-.123-.21-.123-.35-.357-.137-.234-.207-.572-.068-.337-.068-.764t.06-.765q.063-.337.196-.569.135-.234.347-.357.215-.123.519-.123.287 0 .5.123.211.121.351.355.14.231.21.57.07.337.07.766zm-1.806 0q0 .362.036.632t.116.45q.08.18.207.27.13.09.316.09t.316-.09q.13-.088.212-.267.084-.178.12-.448.04-.273.04-.637 0-.362-.04-.632-.036-.27-.12-.448-.082-.179-.212-.268-.13-.09-.316-.09t-.316.09q-.128.09-.207.268-.08.178-.116.448-.036.27-.036.632zM47.46 25.951q0 .427-.063.764-.06.338-.197.572-.135.234-.35.357-.215.123-.52.123-.285 0-.498-.123-.21-.123-.35-.357-.137-.234-.207-.572-.067-.337-.067-.764t.06-.765q.063-.337.195-.569.135-.234.348-.357.214-.123.518-.123.287 0 .5.123.211.121.351.355.14.231.21.57.07.337.07.766zm-1.806 0q0 .362.036.632t.116.45q.08.18.207.27.13.09.316.09t.316-.09q.13-.088.212-.267.085-.178.12-.448.04-.273.04-.637 0-.362-.04-.632-.035-.27-.12-.448-.082-.179-.212-.268-.13-.09-.316-.09t-.316.09q-.128.09-.207.268-.08.178-.116.448-.036.27-.036.632zM50.69 27.719h-.425v-2.202-.222l.005-.234.007-.224.007-.19-.072.074q-.032.031-.066.06-.03.03-.067.063l-.087.075-.357.292-.231-.297.923-.721h.362zM55.467 25.951q0 .427-.063.764-.06.338-.198.572-.135.234-.35.357-.214.123-.52.123-.285 0-.497-.123-.21-.123-.35-.357-.137-.234-.207-.572-.068-.337-.068-.764t.06-.765q.063-.337.196-.569.135-.234.347-.357.215-.123.518-.123.287 0 .5.123.212.121.352.355.14.231.21.57.07.337.07.766zm-1.807 0q0 .362.036.632.037.27.116.45.08.18.208.27.13.09.315.09.186 0 .316-.09.13-.088.213-.267.084-.178.12-.448.039-.273.039-.637 0-.362-.039-.632-.036-.27-.12-.448-.082-.179-.213-.268-.13-.09-.316-.09-.185 0-.315.09-.128.09-.208.268-.08.178-.116.448-.036.27-.036.632zM59.47 25.951q0 .427-.063.764-.06.338-.198.572-.135.234-.35.357-.214.123-.52.123-.285 0-.497-.123-.21-.123-.35-.357-.137-.234-.207-.572-.068-.337-.068-.764t.06-.765q.063-.337.196-.569.135-.234.347-.357.215-.123.519-.123.287 0 .499.123.212.121.352.355.14.231.21.57.07.337.07.766zm-1.807 0q0 .362.037.632.036.27.115.45.08.18.208.27.13.09.316.09.185 0 .316-.09.13-.088.212-.267.084-.178.12-.448.039-.273.039-.637 0-.362-.039-.632-.036-.27-.12-.448-.082-.179-.212-.268-.13-.09-.316-.09t-.316.09q-.128.09-.208.268-.08.178-.115.448-.037.27-.037.632zM62.699 27.719h-.425v-2.202-.222l.005-.234q.005-.118.007-.224l.008-.19q-.041.043-.073.074-.031.031-.065.06l-.067.063-.087.075-.357.292-.232-.297.924-.721h.362zM66.702 27.719h-.424v-2.202-.222l.004-.234.008-.224.007-.19q-.041.043-.073.074-.03.031-.065.06l-.067.063-.087.075-.357.292-.231-.297.923-.721h.362zM71.48 25.951q0 .427-.063.764-.06.338-.198.572-.135.234-.35.357-.214.123-.52.123-.285 0-.497-.123-.21-.123-.35-.357-.138-.234-.208-.572-.067-.337-.067-.764t.06-.765q.063-.337.196-.569.135-.234.347-.357.214-.123.518-.123.287 0 .5.123.212.121.352.355.14.231.21.57.07.337.07.766zm-1.807 0q0 .362.036.632t.116.45q.08.18.207.27.13.09.316.09t.316-.09q.13-.088.212-.267.085-.178.121-.448.039-.273.039-.637 0-.362-.039-.632-.036-.27-.12-.448-.083-.179-.213-.268-.13-.09-.316-.09-.185 0-.316.09-.127.09-.207.268-.08.178-.116.448-.036.27-.036.632z"/></g><g style="line-height:6.61458px;-inkscape-font-specification:'Droid Sans';text-align:start" font-weight="400" font-size="4.939" font-family="Droid Sans" letter-spacing="0" word-spacing="0" stroke-width=".265"><path d="M122.408 27.719h-.424v-2.202-.222l.005-.234q.005-.118.007-.224l.007-.19q-.041.043-.073.074-.031.031-.065.06l-.067.063-.087.075-.357.292-.232-.297.924-.721h.362zM127.185 25.951q0 .427-.062.764-.06.338-.198.572-.135.234-.35.357-.214.123-.52.123-.285 0-.497-.123-.21-.123-.35-.357-.138-.234-.208-.572-.067-.337-.067-.764t.06-.765q.063-.337.196-.569.135-.234.347-.357.214-.123.518-.123.287 0 .5.123.212.121.352.355.14.231.21.57.07.337.07.766zm-1.806 0q0 .362.036.632t.116.45q.08.18.207.27.13.09.316.09t.316-.09q.13-.088.212-.267.085-.178.121-.448.039-.273.039-.637 0-.362-.039-.632-.036-.27-.12-.448-.083-.179-.213-.268-.13-.09-.316-.09-.185 0-.316.09-.127.09-.207.268-.08.178-.116.448-.036.27-.036.632zM130.414 27.719h-.424v-2.202-.222l.005-.234q.005-.118.007-.224l.007-.19-.072.074q-.032.031-.066.06-.03.03-.067.063l-.087.075-.357.292-.231-.297.923-.721h.362zM134.418 27.719h-.425v-2.202-.222l.005-.234q.005-.118.007-.224l.007-.19q-.04.043-.072.074-.032.031-.065.06l-.068.063-.087.075-.357.292-.231-.297.924-.721h.361zM138.42 27.719h-.424v-2.202-.222l.005-.234q.005-.118.007-.224l.007-.19q-.04.043-.072.074-.031.031-.065.06l-.068.063-.086.075-.357.292-.232-.297.924-.721h.362zM143.198 25.951q0 .427-.063.764-.06.338-.197.572-.135.234-.35.357-.215.123-.52.123-.285 0-.498-.123-.21-.123-.35-.357-.137-.234-.207-.572-.067-.337-.067-.764t.06-.765q.063-.337.195-.569.135-.234.348-.357.214-.123.518-.123.287 0 .5.123.212.121.351.355.14.231.21.57.07.337.07.766zm-1.806 0q0 .362.036.632t.116.45q.08.18.207.27.13.09.316.09t.316-.09q.13-.088.212-.267.085-.178.12-.448.04-.273.04-.637 0-.362-.04-.632-.035-.27-.12-.448-.082-.179-.212-.268-.13-.09-.316-.09t-.316.09q-.128.09-.207.268-.08.178-.116.448-.036.27-.036.632zM147.201 25.951q0 .427-.062.764-.06.338-.198.572-.135.234-.35.357-.214.123-.52.123-.285 0-.497-.123-.21-.123-.35-.357-.138-.234-.208-.572-.067-.337-.067-.764t.06-.765q.063-.337.196-.569.135-.234.347-.357.215-.123.518-.123.287 0 .5.123.212.121.352.355.14.231.21.57.07.337.07.766zm-1.806 0q0 .362.036.632t.116.45q.08.18.207.27.13.09.316.09t.316-.09q.13-.088.213-.267.084-.178.12-.448.039-.273.039-.637 0-.362-.039-.632-.036-.27-.12-.448-.082-.179-.213-.268-.13-.09-.316-.09-.185 0-.316.09-.127.09-.207.268-.08.178-.116.448-.036.27-.036.632zM151.205 25.951q0 .427-.063.764-.06.338-.198.572-.135.234-.35.357-.214.123-.52.123-.285 0-.497-.123-.21-.123-.35-.357-.137-.234-.207-.572-.068-.337-.068-.764t.06-.765q.063-.337.196-.569.135-.234.347-.357.215-.123.519-.123.287 0 .499.123.212.121.352.355.14.231.21.57.07.337.07.766zm-1.807 0q0 .362.037.632.036.27.115.45.08.18.208.27.13.09.316.09.185 0 .315-.09.13-.088.213-.267.084-.178.12-.448.039-.273.039-.637 0-.362-.039-.632-.036-.27-.12-.448-.082-.179-.213-.268-.13-.09-.315-.09-.186 0-.316.09-.128.09-.208.268-.08.178-.115.448-.037.27-.037.632z"/></g><g style="line-height:6.61458px;-inkscape-font-specification:'Droid Sans';text-align:start" font-weight="400" font-size="4.939" font-family="Droid Sans" letter-spacing="0" word-spacing="0" stroke-width=".265"><path d="M3.594 36.814q0 .427-.062.764-.06.338-.198.572-.135.234-.35.357-.215.123-.52.123-.285 0-.498-.123-.21-.123-.35-.357-.137-.234-.207-.572-.067-.337-.067-.764t.06-.765q.063-.337.195-.569.136-.234.348-.357.214-.123.518-.123.287 0 .5.123.212.12.352.355.14.231.21.569.07.338.07.767zm-1.806 0q0 .362.036.632t.116.45q.08.18.207.27.13.09.316.09t.316-.09q.13-.089.212-.267.085-.178.12-.449.04-.272.04-.636 0-.362-.04-.632-.035-.27-.12-.449-.082-.178-.212-.267-.13-.09-.316-.09-.185 0-.316.09-.127.089-.207.267-.08.179-.116.449-.036.27-.036.632zM7.597 36.814q0 .427-.062.764-.06.338-.198.572-.135.234-.35.357-.214.123-.52.123-.285 0-.497-.123-.21-.123-.35-.357-.137-.234-.207-.572-.068-.337-.068-.764t.06-.765q.063-.337.196-.569.135-.234.347-.357.215-.123.518-.123.287 0 .5.123.212.12.352.355.14.231.21.569.07.338.07.767zm-1.806 0q0 .362.036.632.037.27.116.45.08.18.208.27.13.09.315.09.186 0 .316-.09.13-.089.213-.267.084-.178.12-.449.039-.272.039-.636 0-.362-.039-.632-.036-.27-.12-.449-.082-.178-.213-.267-.13-.09-.316-.09-.185 0-.315.09-.128.089-.208.267-.08.179-.116.449-.036.27-.036.632zM10.827 38.581h-.425V36.38v-.222l.005-.234q.005-.118.007-.224l.007-.19q-.04.043-.072.074-.031.031-.065.06l-.068.063-.086.075-.357.291-.232-.296.924-.721h.361zM14.83 38.581h-.425V36.38v-.222l.005-.234q.005-.118.007-.224l.008-.19q-.041.043-.073.074-.031.031-.065.06l-.067.063-.087.075-.357.291-.232-.296.924-.721h.362zM19.607 36.814q0 .427-.063.764-.06.338-.197.572-.135.234-.35.357-.215.123-.521.123-.285 0-.497-.123-.21-.123-.35-.357-.137-.234-.207-.572-.067-.337-.067-.764t.06-.765q.063-.337.195-.569.135-.234.348-.357.214-.123.518-.123.287 0 .5.123.211.12.351.355.14.231.21.569.07.338.07.767zm-1.806 0q0 .362.036.632t.116.45q.08.18.207.27.13.09.316.09t.316-.09q.13-.089.212-.267.085-.178.12-.449.04-.272.04-.636 0-.362-.04-.632-.035-.27-.12-.449-.082-.178-.212-.267-.13-.09-.316-.09t-.316.09q-.128.089-.207.267-.08.179-.116.449-.036.27-.036.632zM22.836 38.581h-.424V36.38v-.222l.005-.234.007-.224.007-.19-.072.074q-.032.031-.066.06-.03.03-.067.063l-.087.075-.357.291-.231-.296.923-.721h.362zM26.84 38.581h-.425V36.38v-.222l.005-.234q.005-.118.007-.224l.007-.19q-.04.043-.072.074-.032.031-.065.06l-.068.063-.087.075-.357.291-.231-.296.924-.721h.361zM31.617 36.814q0 .427-.063.764-.06.338-.198.572-.135.234-.35.357-.214.123-.52.123-.285 0-.497-.123-.21-.123-.35-.357-.137-.234-.207-.572-.068-.337-.068-.764t.06-.765q.063-.337.196-.569.135-.234.347-.357.215-.123.519-.123.287 0 .499.123.212.12.352.355.14.231.21.569.07.338.07.767zm-1.807 0q0 .362.037.632.036.27.115.45.08.18.208.27.13.09.316.09.185 0 .316-.09.13-.089.212-.267.084-.178.12-.449.039-.272.039-.636 0-.362-.039-.632-.036-.27-.12-.449-.082-.178-.212-.267-.13-.09-.316-.09t-.316.09q-.128.089-.208.267-.08.179-.115.449-.037.27-.037.632z"/></g><g style="line-height:6.61458px;-inkscape-font-specification:'Droid Sans';text-align:start" font-weight="400" font-size="4.939" font-family="Droid Sans" letter-spacing="0" word-spacing="0" stroke-width=".265"><path d="M43.457 36.814q0 .427-.063.764-.06.338-.198.572-.135.234-.35.357-.214.123-.52.123-.285 0-.497-.123-.21-.123-.35-.357-.137-.234-.207-.572-.068-.337-.068-.764t.06-.765q.063-.337.196-.569.135-.234.347-.357.215-.123.519-.123.287 0 .5.123.211.12.351.355.14.231.21.569.07.338.07.767zm-1.806 0q0 .362.036.632t.116.45q.08.18.207.27.13.09.316.09t.316-.09q.13-.089.212-.267.084-.178.12-.449.04-.272.04-.636 0-.362-.04-.632-.036-.27-.12-.449-.082-.178-.212-.267-.13-.09-.316-.09t-.316.09q-.128.089-.207.267-.08.179-.116.449-.036.27-.036.632zM47.46 36.814q0 .427-.063.764-.06.338-.197.572-.135.234-.35.357-.215.123-.52.123-.285 0-.498-.123-.21-.123-.35-.357-.137-.234-.207-.572-.067-.337-.067-.764t.06-.765q.063-.337.195-.569.135-.234.348-.357.214-.123.518-.123.287 0 .5.123.211.12.351.355.14.231.21.569.07.338.07.767zm-1.806 0q0 .362.036.632t.116.45q.08.18.207.27.13.09.316.09t.316-.09q.13-.089.212-.267.085-.178.12-.449.04-.272.04-.636 0-.362-.04-.632-.035-.27-.12-.449-.082-.178-.212-.267-.13-.09-.316-.09t-.316.09q-.128.089-.207.267-.08.179-.116.449-.036.27-.036.632zM50.69 38.581h-.425V36.38v-.222l.005-.234.007-.224.007-.19-.072.074q-.032.031-.066.06-.03.03-.067.063l-.087.075-.357.291-.231-.296.923-.721h.362zM55.467 36.814q0 .427-.063.764-.06.338-.198.572-.135.234-.35.357-.214.123-.52.123-.285 0-.497-.123-.21-.123-.35-.357-.137-.234-.207-.572-.068-.337-.068-.764t.06-.765q.063-.337.196-.569.135-.234.347-.357.215-.123.518-.123.287 0 .5.123.212.12.352.355.14.231.21.569.07.338.07.767zm-1.807 0q0 .362.036.632.037.27.116.45.08.18.208.27.13.09.315.09.186 0 .316-.09.13-.089.213-.267.084-.178.12-.449.039-.272.039-.636 0-.362-.039-.632-.036-.27-.12-.449-.082-.178-.213-.267-.13-.09-.316-.09-.185 0-.315.09-.128.089-.208.267-.08.179-.116.449-.036.27-.036.632zM59.47 36.814q0 .427-.063.764-.06.338-.198.572-.135.234-.35.357-.214.123-.52.123-.285 0-.497-.123-.21-.123-.35-.357-.137-.234-.207-.572-.068-.337-.068-.764t.06-.765q.063-.337.196-.569.135-.234.347-.357.215-.123.519-.123.287 0 .499.123.212.12.352.355.14.231.21.569.07.338.07.767zm-1.807 0q0 .362.037.632.036.27.115.45.08.18.208.27.13.09.316.09.185 0 .316-.09.13-.089.212-.267.084-.178.12-.449.039-.272.039-.636 0-.362-.039-.632-.036-.27-.12-.449-.082-.178-.212-.267-.13-.09-.316-.09t-.316.09q-.128.089-.208.267-.08.179-.115.449-.037.27-.037.632zM62.699 38.581h-.425V36.38v-.222l.005-.234q.005-.118.007-.224l.008-.19q-.041.043-.073.074-.031.031-.065.06l-.067.063-.087.075-.357.291-.232-.296.924-.721h.362zM66.702 38.581h-.424V36.38v-.222l.004-.234.008-.224.007-.19q-.041.043-.073.074-.03.031-.065.06l-.067.063-.087.075-.357.291-.231-.296.923-.721h.362zM71.48 36.814q0 .427-.063.764-.06.338-.198.572-.135.234-.35.357-.214.123-.52.123-.285 0-.497-.123-.21-.123-.35-.357-.138-.234-.208-.572-.067-.337-.067-.764t.06-.765q.063-.337.196-.569.135-.234.347-.357.214-.123.518-.123.287 0 .5.123.212.12.352.355.14.231.21.569.07.338.07.767zm-1.807 0q0 .362.036.632t.116.45q.08.18.207.27.13.09.316.09t.316-.09q.13-.089.212-.267.085-.178.121-.449.039-.272.039-.636 0-.362-.039-.632-.036-.27-.12-.449-.083-.178-.213-.267-.13-.09-.316-.09-.185 0-.316.09-.127.089-.207.267-.08.179-.116.449-.036.27-.036.632z"/></g><g style="line-height:6.61458px;-inkscape-font-specification:'Droid Sans';text-align:start" font-weight="400" font-size="4.939" font-family="Droid Sans" letter-spacing="0" word-spacing="0" stroke-width=".265"><path d="M122.408 38.581h-.424V36.38v-.222l.005-.234q.005-.118.007-.224l.007-.19q-.041.043-.073.074-.031.031-.065.06l-.067.063-.087.075-.357.291-.232-.296.924-.721h.362zM127.185 36.814q0 .427-.062.764-.06.338-.198.572-.135.234-.35.357-.214.123-.52.123-.285 0-.497-.123-.21-.123-.35-.357-.138-.234-.208-.572-.067-.337-.067-.764t.06-.765q.063-.337.196-.569.135-.234.347-.357.214-.123.518-.123.287 0 .5.123.212.12.352.355.14.231.21.569.07.338.07.767zm-1.806 0q0 .362.036.632t.116.45q.08.18.207.27.13.09.316.09t.316-.09q.13-.089.212-.267.085-.178.121-.449.039-.272.039-.636 0-.362-.039-.632-.036-.27-.12-.449-.083-.178-.213-.267-.13-.09-.316-.09-.185 0-.316.09-.127.089-.207.267-.08.179-.116.449-.036.27-.036.632zM130.414 38.581h-.424V36.38v-.222l.005-.234q.005-.118.007-.224l.007-.19-.072.074q-.032.031-.066.06-.03.03-.067.063l-.087.075-.357.291-.231-.296.923-.721h.362zM134.418 38.581h-.425V36.38v-.222l.005-.234q.005-.118.007-.224l.007-.19q-.04.043-.072.074-.032.031-.065.06l-.068.063-.087.075-.357.291-.231-.296.924-.721h.361zM138.42 38.581h-.424V36.38v-.222l.005-.234q.005-.118.007-.224l.007-.19q-.04.043-.072.074-.031.031-.065.06l-.068.063-.086.075-.357.291-.232-.296.924-.721h.362zM143.198 36.814q0 .427-.063.764-.06.338-.197.572-.135.234-.35.357-.215.123-.52.123-.285 0-.498-.123-.21-.123-.35-.357-.137-.234-.207-.572-.067-.337-.067-.764t.06-.765q.063-.337.195-.569.135-.234.348-.357.214-.123.518-.123.287 0 .5.123.212.12.351.355.14.231.21.569.07.338.07.767zm-1.806 0q0 .362.036.632t.116.45q.08.18.207.27.13.09.316.09t.316-.09q.13-.089.212-.267.085-.178.12-.449.04-.272.04-.636 0-.362-.04-.632-.035-.27-.12-.449-.082-.178-.212-.267-.13-.09-.316-.09t-.316.09q-.128.089-.207.267-.08.179-.116.449-.036.27-.036.632zM147.201 36.814q0 .427-.062.764-.06.338-.198.572-.135.234-.35.357-.214.123-.52.123-.285 0-.497-.123-.21-.123-.35-.357-.138-.234-.208-.572-.067-.337-.067-.764t.06-.765q.063-.337.196-.569.135-.234.347-.357.215-.123.518-.123.287 0 .5.123.212.12.352.355.14.231.21.569.07.338.07.767zm-1.806 0q0 .362.036.632t.116.45q.08.18.207.27.13.09.316.09t.316-.09q.13-.089.213-.267.084-.178.12-.449.039-.272.039-.636 0-.362-.039-.632-.036-.27-.12-.449-.082-.178-.213-.267-.13-.09-.316-.09-.185 0-.316.09-.127.089-.207.267-.08.179-.116.449-.036.27-.036.632zM151.205 36.814q0 .427-.063.764-.06.338-.198.572-.135.234-.35.357-.214.123-.52.123-.285 0-.497-.123-.21-.123-.35-.357-.137-.234-.207-.572-.068-.337-.068-.764t.06-.765q.063-.337.196-.569.135-.234.347-.357.215-.123.519-.123.287 0 .499.123.212.12.352.355.14.231.21.569.07.338.07.767zm-1.807 0q0 .362.037.632.036.27.115.45.08.18.208.27.13.09.316.09.185 0 .315-.09.13-.089.213-.267.084-.178.12-.449.039-.272.039-.636 0-.362-.039-.632-.036-.27-.12-.449-.082-.178-.213-.267-.13-.09-.315-.09-.186 0-.316.09-.128.089-.208.267-.08.179-.115.449-.037.27-.037.632z"/></g><g style="line-height:6.61458px;-inkscape-font-specification:'Droid Sans';text-align:start" font-weight="400" font-size="4.939" font-family="Droid Sans" letter-spacing="0" word-spacing="0" stroke-width=".265"><path d="M3.594 47.677q0 .426-.062.764-.06.338-.198.572-.135.234-.35.357-.215.123-.52.123-.285 0-.498-.123-.21-.123-.35-.357-.137-.234-.207-.572-.067-.338-.067-.764 0-.427.06-.765.063-.337.195-.569.136-.234.348-.357.214-.123.518-.123.287 0 .5.123.212.12.352.355.14.231.21.569.07.337.07.767zm-1.806 0q0 .361.036.631t.116.451q.08.179.207.27.13.09.316.09t.316-.09q.13-.089.212-.267.085-.179.12-.449.04-.272.04-.636 0-.362-.04-.632-.035-.27-.12-.449-.082-.178-.212-.267-.13-.09-.316-.09-.185 0-.316.09-.127.089-.207.267-.08.179-.116.449-.036.27-.036.632zM7.597 47.677q0 .426-.062.764-.06.338-.198.572-.135.234-.35.357-.214.123-.52.123-.285 0-.497-.123-.21-.123-.35-.357-.137-.234-.207-.572-.068-.338-.068-.764 0-.427.06-.765.063-.337.196-.569.135-.234.347-.357.215-.123.518-.123.287 0 .5.123.212.12.352.355.14.231.21.569.07.337.07.767zm-1.806 0q0 .361.036.631.037.27.116.451.08.179.208.27.13.09.315.09.186 0 .316-.09.13-.089.213-.267.084-.179.12-.449.039-.272.039-.636 0-.362-.039-.632-.036-.27-.12-.449-.082-.178-.213-.267-.13-.09-.316-.09-.185 0-.315.09-.128.089-.208.267-.08.179-.116.449-.036.27-.036.632zM10.827 49.444h-.425v-2.201-.222l.005-.234q.005-.118.007-.224.005-.109.007-.191l-.072.075q-.031.031-.065.06l-.068.063-.086.075-.357.291-.232-.296.924-.721h.362zM14.83 49.444h-.425v-2.201-.222l.005-.234q.005-.118.007-.224l.008-.191-.073.075q-.031.031-.065.06l-.067.063-.087.075-.357.291-.232-.296.924-.721h.362zM19.607 47.677q0 .426-.063.764-.06.338-.197.572-.135.234-.35.357-.215.123-.521.123-.285 0-.497-.123-.21-.123-.35-.357-.137-.234-.207-.572-.067-.338-.067-.764 0-.427.06-.765.063-.337.195-.569.135-.234.348-.357.214-.123.518-.123.287 0 .5.123.211.12.351.355.14.231.21.569.07.337.07.767zm-1.806 0q0 .361.036.631t.116.451q.08.179.207.27.13.09.316.09t.316-.09q.13-.089.212-.267.085-.179.12-.449.04-.272.04-.636 0-.362-.04-.632-.035-.27-.12-.449-.082-.178-.212-.267-.13-.09-.316-.09t-.316.09q-.128.089-.207.267-.08.179-.116.449-.036.27-.036.632zM22.836 49.444h-.424v-2.201-.222l.005-.234.007-.224q.005-.109.007-.191l-.072.075q-.032.031-.066.06l-.067.063-.087.075-.357.291-.231-.296.923-.721h.362zM27.613 47.677q0 .426-.062.764-.06.338-.198.572-.135.234-.35.357-.214.123-.52.123-.285 0-.497-.123-.21-.123-.35-.357-.137-.234-.207-.572-.068-.338-.068-.764 0-.427.06-.765.063-.337.196-.569.135-.234.347-.357.215-.123.518-.123.287 0 .5.123.212.12.352.355.14.231.21.569.07.337.07.767zm-1.806 0q0 .361.036.631.037.27.116.451.08.179.208.27.13.09.315.09.186 0 .316-.09.13-.089.213-.267.084-.179.12-.449.039-.272.039-.636 0-.362-.039-.632-.036-.27-.12-.449-.082-.178-.213-.267-.13-.09-.316-.09-.185 0-.315.09-.128.089-.208.267-.08.179-.116.449-.036.27-.036.632zM31.617 47.677q0 .426-.063.764-.06.338-.198.572-.135.234-.35.357-.214.123-.52.123-.285 0-.497-.123-.21-.123-.35-.357-.137-.234-.207-.572-.068-.338-.068-.764 0-.427.06-.765.063-.337.196-.569.135-.234.347-.357.215-.123.519-.123.287 0 .499.123.212.12.352.355.14.231.21.569.07.337.07.767zm-1.807 0q0 .361.037.631.036.27.115.451.08.179.208.27.13.09.316.09.185 0 .316-.09.13-.089.212-.267.084-.179.12-.449.039-.272.039-.636 0-.362-.039-.632-.036-.27-.12-.449-.082-.178-.212-.267-.13-.09-.316-.09t-.316.09q-.128.089-.208.267-.08.179-.115.449-.037.27-.037.632z"/></g><g style="line-height:6.61458px;-inkscape-font-specification:'Droid Sans';text-align:start" font-weight="400" font-size="4.939" font-family="Droid Sans" letter-spacing="0" word-spacing="0" stroke-width=".265"><path d="M43.457 47.677q0 .426-.063.764-.06.338-.198.572-.135.234-.35.357-.214.123-.52.123-.285 0-.497-.123-.21-.123-.35-.357-.137-.234-.207-.572-.068-.338-.068-.764 0-.427.06-.765.063-.337.196-.569.135-.234.347-.357.215-.123.519-.123.287 0 .5.123.211.12.351.355.14.231.21.569.07.337.07.767zm-1.806 0q0 .361.036.631t.116.451q.08.179.207.27.13.09.316.09t.316-.09q.13-.089.212-.267.084-.179.12-.449.04-.272.04-.636 0-.362-.04-.632-.036-.27-.12-.449-.082-.178-.212-.267-.13-.09-.316-.09t-.316.09q-.128.089-.207.267-.08.179-.116.449-.036.27-.036.632zM47.46 47.677q0 .426-.063.764-.06.338-.197.572-.135.234-.35.357-.215.123-.52.123-.285 0-.498-.123-.21-.123-.35-.357-.137-.234-.207-.572-.067-.338-.067-.764 0-.427.06-.765.063-.337.195-.569.135-.234.348-.357.214-.123.518-.123.287 0 .5.123.211.12.351.355.14.231.21.569.07.337.07.767zm-1.806 0q0 .361.036.631t.116.451q.08.179.207.27.13.09.316.09t.316-.09q.13-.089.212-.267.085-.179.12-.449.04-.272.04-.636 0-.362-.04-.632-.035-.27-.12-.449-.082-.178-.212-.267-.13-.09-.316-.09t-.316.09q-.128.089-.207.267-.08.179-.116.449-.036.27-.036.632zM50.69 49.444h-.425v-2.201-.222l.005-.234.007-.225q.005-.108.007-.19l-.072.075q-.032.031-.066.06l-.067.063-.087.074-.357.292-.231-.296.923-.721h.362zM55.467 47.677q0 .426-.063.764-.06.338-.198.572-.135.234-.35.357-.214.123-.52.123-.285 0-.497-.123-.21-.123-.35-.357-.137-.234-.207-.572-.068-.338-.068-.764 0-.427.06-.765.063-.337.196-.569.135-.234.347-.357.215-.123.518-.123.287 0 .5.123.212.12.352.355.14.231.21.569.07.337.07.767zm-1.807 0q0 .361.036.631.037.27.116.451.08.179.208.27.13.09.315.09.186 0 .316-.09.13-.089.213-.267.084-.179.12-.449.039-.272.039-.636 0-.362-.039-.632-.036-.27-.12-.449-.082-.178-.213-.267-.13-.09-.316-.09-.185 0-.315.09-.128.089-.208.267-.08.179-.116.449-.036.27-.036.632zM59.47 47.677q0 .426-.063.764-.06.338-.198.572-.135.234-.35.357-.214.123-.52.123-.285 0-.497-.123-.21-.123-.35-.357-.137-.234-.207-.572-.068-.338-.068-.764 0-.427.06-.765.063-.337.196-.569.135-.234.347-.357.215-.123.519-.123.287 0 .499.123.212.12.352.355.14.231.21.569.07.337.07.767zm-1.807 0q0 .361.037.631.036.27.115.451.08.179.208.27.13.09.316.09.185 0 .316-.09.13-.089.212-.267.084-.179.12-.449.039-.272.039-.636 0-.362-.039-.632-.036-.27-.12-.449-.082-.178-.212-.267-.13-.09-.316-.09t-.316.09q-.128.089-.208.267-.08.179-.115.449-.037.27-.037.632zM62.699 49.444h-.425v-2.201-.222l.005-.234q.005-.118.007-.225l.008-.19-.073.075q-.031.031-.065.06l-.067.063-.087.074-.357.292-.232-.296.924-.721h.362zM66.702 49.444h-.424v-2.201-.222l.004-.234.008-.225.007-.19-.073.075q-.03.031-.065.06l-.067.063-.087.074-.357.292-.231-.296.923-.721h.362zM71.48 47.677q0 .426-.063.764-.06.338-.198.572-.135.234-.35.357-.214.123-.52.123-.285 0-.497-.123-.21-.123-.35-.357-.138-.234-.208-.572-.067-.338-.067-.764 0-.427.06-.765.063-.337.196-.569.135-.234.347-.357.214-.123.518-.123.287 0 .5.123.212.12.352.355.14.231.21.569.07.337.07.767zm-1.807 0q0 .361.036.631t.116.451q.08.179.207.27.13.09.316.09t.316-.09q.13-.089.212-.267.085-.179.121-.449.039-.272.039-.636 0-.362-.039-.632-.036-.27-.12-.449-.083-.178-.213-.267-.13-.09-.316-.09-.185 0-.316.09-.127.089-.207.267-.08.179-.116.449-.036.27-.036.632z"/></g><g style="line-height:6.61458px;-inkscape-font-specification:'Droid Sans';text-align:start" font-weight="400" font-size="4.939" font-family="Droid Sans" letter-spacing="0" word-spacing="0" stroke-width=".265"><path d="M122.408 49.444h-.424v-2.201-.222l.005-.234q.005-.118.007-.225.005-.108.007-.19l-.073.075q-.031.031-.065.06l-.067.063-.087.074-.357.292-.232-.296.924-.721h.362zM127.185 47.677q0 .426-.062.764-.06.338-.198.572-.135.234-.35.357-.214.123-.52.123-.285 0-.497-.123-.21-.123-.35-.357-.138-.234-.208-.572-.067-.338-.067-.764 0-.427.06-.765.063-.337.196-.569.135-.234.347-.357.214-.123.518-.123.287 0 .5.123.212.12.352.355.14.231.21.569.07.337.07.767zm-1.806 0q0 .361.036.631t.116.451q.08.179.207.27.13.09.316.09t.316-.09q.13-.089.212-.267.085-.179.121-.449.039-.272.039-.636 0-.362-.039-.632-.036-.27-.12-.449-.083-.178-.213-.267-.13-.09-.316-.09-.185 0-.316.09-.127.089-.207.267-.08.179-.116.449-.036.27-.036.632zM130.414 49.444h-.424v-2.201-.222l.005-.234q.005-.118.007-.225.005-.108.007-.19l-.072.075q-.032.031-.066.06l-.067.063-.087.074-.357.292-.231-.296.923-.721h.362zM134.418 49.444h-.425v-2.201-.222l.005-.234q.005-.118.007-.225.005-.108.007-.19l-.072.075q-.032.031-.065.06l-.068.063-.087.074-.357.292-.231-.296.924-.721h.361zM138.42 49.444h-.424v-2.201-.222l.005-.234q.005-.118.007-.225.005-.108.007-.19l-.072.075q-.031.031-.065.06l-.068.063-.086.074-.357.292-.232-.296.924-.721h.362zM143.198 47.677q0 .426-.063.764-.06.338-.197.572-.135.234-.35.357-.215.123-.52.123-.285 0-.498-.123-.21-.123-.35-.357-.137-.234-.207-.572-.067-.338-.067-.764 0-.427.06-.765.063-.337.195-.569.135-.234.348-.357.214-.123.518-.123.287 0 .5.123.212.12.351.355.14.231.21.569.07.337.07.767zm-1.806 0q0 .361.036.631t.116.451q.08.179.207.27.13.09.316.09t.316-.09q.13-.089.212-.267.085-.179.12-.449.04-.272.04-.636 0-.362-.04-.632-.035-.27-.12-.449-.082-.178-.212-.267-.13-.09-.316-.09t-.316.09q-.128.089-.207.267-.08.179-.116.449-.036.27-.036.632zM147.201 47.677q0 .426-.062.764-.06.338-.198.572-.135.234-.35.357-.214.123-.52.123-.285 0-.497-.123-.21-.123-.35-.357-.138-.234-.208-.572-.067-.338-.067-.764 0-.427.06-.765.063-.337.196-.569.135-.234.347-.357.215-.123.518-.123.287 0 .5.123.212.12.352.355.14.231.21.569.07.337.07.767zm-1.806 0q0 .361.036.631t.116.451q.08.179.207.27.13.09.316.09t.316-.09q.13-.089.213-.267.084-.179.12-.449.039-.272.039-.636 0-.362-.039-.632-.036-.27-.12-.449-.082-.178-.213-.267-.13-.09-.316-.09-.185 0-.316.09-.127.089-.207.267-.08.179-.116.449-.036.27-.036.632zM151.205 47.677q0 .426-.063.764-.06.338-.198.572-.135.234-.35.357-.214.123-.52.123-.285 0-.497-.123-.21-.123-.35-.357-.137-.234-.207-.572-.068-.338-.068-.764 0-.427.06-.765.063-.337.196-.569.135-.234.347-.357.215-.123.519-.123.287 0 .499.123.212.12.352.355.14.231.21.569.07.337.07.767zm-1.807 0q0 .361.037.631.036.27.115.451.08.179.208.27.13.09.316.09.185 0 .315-.09.13-.089.213-.267.084-.179.12-.449.039-.272.039-.636 0-.362-.039-.632-.036-.27-.12-.449-.082-.178-.213-.267-.13-.09-.315-.09-.186 0-.316.09-.128.089-.208.267-.08.179-.115.449-.037.27-.037.632z"/></g><g style="line-height:6.61458px;-inkscape-font-specification:'Droid Sans';text-align:start" font-weight="400" font-size="2.822" font-family="Droid Sans" letter-spacing="0" word-spacing="0" opacity=".796" stroke-width=".265"><path d="M16.264 9.293q.13 0 .236.05.106.05.18.148.076.098.117.244.042.146.042.34 0 .194-.042.341-.04.146-.117.245-.074.1-.18.15-.106.05-.236.05-.081 0-.147-.018-.066-.018-.12-.047-.053-.03-.094-.07-.04-.04-.072-.084h-.016l-.051.192h-.183V8.689h.25v.519l-.001.103q-.001.054-.004.1l-.006.108h.011q.032-.048.072-.09.04-.04.092-.071.054-.03.12-.047.066-.018.15-.018zm-.048.208q-.11 0-.185.036-.073.034-.118.106-.044.072-.064.18-.018.107-.018.251 0 .14.018.248.02.108.064.182.045.073.12.112.074.037.186.037.186 0 .272-.15.089-.15.089-.431 0-.287-.089-.429-.086-.142-.275-.142zM17.485 10.834h-.25V9.32h.25zm-.27-1.923q0-.082.041-.12.043-.037.105-.037.03 0 .057.01.027.008.046.027.021.02.032.05.012.029.012.07 0 .08-.044.12-.042.039-.103.039-.062 0-.105-.039-.041-.038-.041-.12zM18.425 10.656q.025 0 .055-.003l.06-.007q.03-.004.053-.01.025-.005.037-.009v.19q-.018.008-.045.017-.028.008-.06.013-.034.007-.07.01-.036.004-.07.004-.086 0-.159-.022-.073-.022-.126-.076-.053-.053-.083-.144-.03-.093-.03-.232V9.51h-.214v-.111l.214-.108.107-.317h.145v.348h.38v.188h-.38v.878q0 .134.043.201.044.068.143.068zM20.809 10.834l-.232-.85-.013-.054-.017-.067-.018-.07-.016-.07-.04-.165h-.009l-.037.166q-.015.07-.033.142-.016.073-.032.124l-.237.844h-.29l-.388-1.513h.264l.18.804q.014.062.028.135l.026.144.022.133.015.102h.008l.018-.095.026-.127.03-.132q.016-.066.03-.111l.246-.853h.27l.237.853q.013.046.028.11.017.063.032.13.015.064.027.125.013.06.018.1h.009l.012-.095.022-.132.026-.146q.015-.076.03-.14l.19-.805h.256l-.392 1.513zM22.016 10.834h-.25V9.32h.25zm-.27-1.923q0-.082.041-.12.043-.037.105-.037.03 0 .057.01.027.008.046.027.021.02.032.05.012.029.012.07 0 .08-.044.12-.042.039-.103.039-.062 0-.105-.039-.041-.038-.041-.12zM23.433 10.631h-.011q-.03.047-.072.09-.04.041-.094.073-.052.031-.118.05-.066.017-.15.017-.127 0-.233-.05-.106-.049-.182-.147-.076-.1-.117-.245-.042-.146-.042-.34 0-.193.042-.34.041-.147.117-.246.076-.1.182-.149.106-.051.234-.051.081 0 .147.018.067.018.119.048.054.03.095.07.041.04.072.084h.016l-.008-.09-.006-.072-.002-.06v-.602h.25v2.145h-.202zm-.396.022q.105 0 .177-.032.073-.031.117-.096.045-.065.066-.161.022-.098.025-.228v-.056q0-.14-.02-.247-.018-.109-.063-.182-.044-.074-.119-.111-.074-.039-.186-.039-.186 0-.274.15-.087.15-.087.432 0 .288.087.43.088.14.277.14zM24.61 10.656q.024 0 .055-.003l.06-.007q.03-.004.053-.01l.037-.009v.19q-.018.008-.046.017-.027.008-.06.013-.033.007-.07.01-.035.004-.07.004-.085 0-.158-.022t-.127-.076q-.052-.053-.082-.144-.03-.093-.03-.232V9.51h-.214v-.111l.213-.108.108-.317h.144v.348h.38v.188h-.38v.878q0 .134.043.201.044.068.143.068zM26.056 10.834v-.975q0-.179-.073-.268-.071-.09-.226-.09-.111 0-.187.036t-.123.106q-.045.07-.066.172-.02.102-.02.235v.784h-.25V8.689h.25v.637l-.01.198h.014q.034-.059.081-.101.048-.045.105-.074.056-.028.12-.042.063-.014.13-.014.251 0 .378.132.128.131.128.42v.989z"/></g><g style="line-height:6.61458px;-inkscape-font-specification:'Droid Sans';text-align:start" font-weight="400" font-size="2.822" font-family="Droid Sans" letter-spacing="0" word-spacing="0" stroke-width=".265"><path d="M4.407 21.233v-.974q0-.18-.074-.269-.071-.09-.226-.09-.111 0-.187.036t-.123.106q-.045.07-.066.173-.019.102-.019.234v.784h-.25V19.72h.203l.036.204h.014q.034-.06.081-.102.048-.044.105-.073.056-.03.12-.043.063-.014.13-.014.251 0 .378.133.128.13.128.42v.988zM6.106 21.233l-.038-.203h-.013q-.035.06-.083.104-.047.042-.103.071-.057.028-.12.042-.064.014-.13.014-.125 0-.22-.032t-.159-.1q-.063-.067-.096-.172-.032-.104-.032-.249v-.988h.25v.974q0 .18.074.269.073.09.226.09.112 0 .187-.036.076-.036.122-.105.046-.07.066-.172.02-.102.02-.235v-.785h.251v1.513zM8.603 21.233v-.974q0-.18-.07-.269-.068-.09-.213-.09-.1 0-.17.033-.071.032-.116.096-.045.062-.065.155-.02.093-.02.214v.835h-.253v-.974q0-.18-.069-.269-.068-.09-.212-.09-.106 0-.178.036t-.116.106q-.042.07-.062.173-.018.102-.018.234v.784h-.25V19.72h.203l.036.204h.014q.033-.06.079-.102.045-.044.099-.073.055-.03.116-.043.062-.014.125-.014.165 0 .274.061.11.06.163.19h.01q.037-.065.086-.111.051-.047.11-.078.061-.031.127-.047.066-.015.135-.015.242 0 .363.133.122.13.122.42v.988zM10.004 19.692q.13 0 .236.05.106.05.18.149.076.098.117.244.042.146.042.339 0 .194-.042.341-.04.147-.117.246-.074.099-.18.15-.106.05-.236.05-.081 0-.147-.018-.066-.018-.12-.047-.053-.03-.094-.07-.04-.04-.072-.085h-.016l-.051.192H9.32v-2.144h.25v.518l-.001.103q-.001.054-.004.1l-.006.108h.011q.032-.048.072-.09.04-.04.092-.07.054-.031.12-.048.066-.018.15-.018zm-.048.208q-.11 0-.185.036-.073.035-.118.106-.044.072-.064.18-.018.107-.018.252 0 .139.018.248.02.107.064.182.045.073.12.111.074.037.186.037.186 0 .272-.15.089-.15.089-.431 0-.287-.089-.429-.086-.142-.275-.142zM11.572 21.26q-.151 0-.277-.05-.125-.051-.216-.15-.09-.097-.14-.242-.049-.145-.049-.33 0-.188.046-.335.045-.148.128-.25.083-.103.197-.157.116-.054.255-.054.136 0 .245.05.109.048.185.138.076.088.116.213.04.124.04.276v.156h-.953q.007.266.112.391.106.125.314.125.07 0 .13-.006.06-.007.115-.02.057-.014.11-.033.052-.02.105-.045v.223q-.055.026-.109.045-.052.02-.108.032-.056.013-.116.018-.06.006-.13.006zm-.062-1.36q-.157 0-.25.108-.09.107-.105.313h.678q0-.094-.02-.171-.017-.079-.057-.134-.039-.055-.1-.085-.06-.03-.146-.03zM13.14 19.692q.04 0 .089.004.05.003.085.01l-.033.232q-.038-.007-.08-.011-.04-.006-.076-.006-.086 0-.158.036-.072.034-.124.1-.051.065-.08.158-.028.09-.028.202v.816h-.25V19.72h.204l.03.277h.01q.035-.06.074-.115.04-.055.088-.096.05-.043.11-.068.061-.026.138-.026zM15.576 20.474q0 .188-.047.336-.046.146-.133.247-.085.099-.208.151-.122.053-.275.053-.142 0-.262-.053-.12-.052-.208-.151-.087-.101-.137-.247-.048-.148-.048-.336 0-.188.046-.332.046-.146.132-.246.085-.1.208-.151.124-.053.277-.053.142 0 .262.053.12.05.207.151.088.1.136.246.05.144.05.332zm-1.059 0q0 .288.094.434.095.144.307.144t.305-.144q.093-.146.093-.434 0-.288-.095-.43-.093-.144-.306-.144-.212 0-.305.144-.093.142-.093.43zM16.631 19.909h-.338v1.324h-.252v-1.324h-.267v-.104l.267-.093v-.133q0-.147.03-.244.032-.097.09-.155.06-.058.145-.082.085-.024.193-.024.081 0 .149.016.069.015.122.035l-.064.194q-.043-.015-.094-.026-.05-.013-.105-.013-.055 0-.095.014-.04.012-.066.046-.026.033-.04.09-.013.057-.013.147v.143h.338zM18.237 21.26q-.152 0-.277-.05-.126-.051-.217-.15-.09-.097-.139-.242-.05-.145-.05-.33 0-.188.046-.335.045-.148.128-.25.083-.103.197-.157.116-.054.255-.054.136 0 .245.05.11.048.185.138.076.088.116.213.041.124.041.276v.156h-.954q.007.266.112.391.106.125.314.125.07 0 .13-.006.06-.007.116-.02.056-.014.108-.033.053-.02.107-.045v.223q-.056.026-.11.045-.052.02-.108.032-.055.013-.116.018-.06.006-.13.006zm-.062-1.36q-.158 0-.25.108-.09.107-.106.313h.678q0-.094-.02-.171-.017-.079-.057-.134-.039-.055-.1-.085-.06-.03-.145-.03zM19.471 20.457l-.486-.737h.285l.345.565.344-.565h.285l-.489.737.514.776h-.285l-.37-.6-.371.6h-.286zM21.139 21.26q-.14 0-.26-.042-.122-.044-.212-.138-.09-.095-.14-.241-.051-.148-.051-.354 0-.217.052-.367.053-.151.144-.245.092-.095.215-.138.122-.043.263-.043.107 0 .21.024.103.023.171.058l-.074.212q-.032-.014-.07-.026-.039-.014-.08-.024-.042-.01-.081-.016-.04-.007-.076-.007-.217 0-.316.139-.1.138-.1.43 0 .29.1.426.1.133.305.133.111 0 .2-.024.092-.027.166-.061v.223q-.074.04-.16.06-.084.022-.206.022zM22.464 21.26q-.151 0-.277-.05-.125-.051-.216-.15-.09-.097-.14-.242-.049-.145-.049-.33 0-.188.046-.335.045-.148.128-.25.083-.103.197-.157.116-.054.255-.054.136 0 .245.05.109.048.185.138.076.088.116.213.04.124.04.276v.156h-.953q.007.266.112.391.106.125.314.125.07 0 .13-.006.06-.007.115-.02.057-.014.11-.033.052-.02.105-.045v.223q-.055.026-.108.045-.053.02-.11.032-.054.013-.115.018-.06.006-.13.006zm-.062-1.36q-.157 0-.25.108-.09.107-.105.313h.678q0-.094-.02-.171-.017-.079-.057-.134-.039-.055-.1-.085-.06-.03-.146-.03zM24.06 21.26q-.081 0-.147-.017-.066-.018-.12-.047-.053-.03-.094-.07-.04-.04-.072-.085h-.016l.008.09.006.074.002.06v.646h-.25V19.72h.204l.035.204h.011q.032-.048.072-.09.04-.042.092-.073.054-.031.12-.05.067-.019.15-.019.129 0 .235.05.106.05.18.149.076.098.118.244.04.146.04.339 0 .194-.04.341-.042.147-.118.246-.074.099-.18.15-.106.05-.236.05zm-.048-1.36q-.105 0-.178.032-.072.032-.117.097-.044.064-.066.16-.02.097-.024.228v.057q0 .139.018.248.02.107.064.182.045.073.12.111.074.037.186.037.186 0 .273-.15.088-.15.088-.431 0-.287-.088-.429-.087-.142-.276-.142zM25.488 21.055q.025 0 .055-.003.032-.002.06-.006l.053-.01.037-.01v.19q-.018.009-.045.017-.028.008-.061.014-.033.007-.069.01-.036.004-.07.004-.086 0-.159-.023-.073-.022-.126-.075-.053-.054-.083-.145-.03-.092-.03-.232v-.877h-.214v-.112l.214-.107.107-.317h.145v.347h.38v.189h-.38v.877q0 .134.042.202.045.067.144.067zM26.24 21.233h-.25V19.72h.25zm-.27-1.922q0-.083.041-.12.043-.037.105-.037.03 0 .057.01.027.007.047.027.02.019.031.05.013.028.013.07 0 .08-.044.12-.043.038-.104.038-.062 0-.105-.039-.04-.038-.04-.12zM27.956 20.474q0 .188-.047.336-.045.146-.132.247-.086.099-.208.151-.123.053-.276.053-.142 0-.262-.053-.12-.052-.208-.151-.087-.101-.136-.247-.049-.148-.049-.336 0-.188.046-.332.047-.146.132-.246.086-.1.208-.151.124-.053.277-.053.142 0 .262.053.12.05.207.151.088.1.136.246.05.144.05.332zm-1.058 0q0 .288.093.434.095.144.308.144.212 0 .304-.144.094-.146.094-.434 0-.288-.095-.43-.094-.144-.306-.144t-.306.144q-.092.142-.092.43zM29.3 21.233v-.974q0-.18-.074-.269-.071-.09-.226-.09-.111 0-.187.036t-.123.106q-.045.07-.066.173-.02.102-.02.234v.784h-.25V19.72h.204l.036.204h.014q.034-.06.081-.102.048-.044.105-.073.056-.03.12-.043.063-.014.13-.014.251 0 .378.133.128.13.128.42v.988zM30.924 20.818q0 .11-.04.193t-.116.14q-.074.054-.18.082-.106.028-.238.028-.15 0-.258-.025-.108-.024-.189-.07v-.23q.043.023.095.045.052.02.11.037.058.017.119.028.062.01.123.01.09 0 .151-.016.063-.015.102-.043.04-.029.058-.069.018-.04.018-.09 0-.043-.014-.078-.014-.034-.05-.067-.037-.035-.1-.07-.064-.034-.163-.076-.099-.043-.179-.084-.078-.042-.134-.093-.055-.05-.085-.117-.029-.067-.029-.16 0-.096.037-.17.039-.076.108-.127.069-.051.165-.078.097-.026.215-.026.134 0 .244.03.112.028.21.075l-.086.203q-.09-.04-.185-.07-.093-.03-.191-.03-.14 0-.208.047-.068.046-.068.131 0 .048.015.084.017.036.056.068.038.031.103.065.065.031.161.071.1.042.176.083.079.041.134.094.055.05.084.117.03.066.03.158z"/></g><g style="line-height:6.61458px;-inkscape-font-specification:'Droid Sans';text-align:start" font-weight="400" font-size="2.822" font-family="Droid Sans" letter-spacing="0" word-spacing="0" stroke-width=".265"><path d="M6.596 53.555q-.152 0-.277-.05-.126-.052-.217-.15-.09-.097-.139-.242-.05-.145-.05-.33 0-.188.046-.336.045-.147.128-.25.083-.102.197-.156.116-.054.255-.054.136 0 .245.05.11.048.185.137.076.089.116.214.041.124.041.276v.155h-.954q.007.266.112.392.106.125.314.125.07 0 .13-.007t.116-.02q.056-.013.108-.032.053-.02.107-.046v.224q-.056.026-.11.045-.052.02-.108.032-.055.012-.116.018-.06.005-.13.005zm-.062-1.36q-.158 0-.25.108-.09.107-.106.312h.678q0-.093-.02-.17-.017-.079-.057-.134-.039-.055-.1-.086-.06-.03-.145-.03zM7.83 52.752l-.486-.737h.285l.345.565.344-.565h.285l-.489.737.514.776h-.285l-.37-.601-.372.6h-.285zM9.498 53.555q-.14 0-.26-.042-.122-.045-.212-.138-.09-.095-.14-.241-.051-.148-.051-.355 0-.216.052-.366.053-.152.144-.245.092-.096.215-.138.122-.043.263-.043.107 0 .21.023.103.024.171.058l-.074.213q-.032-.014-.07-.027-.039-.013-.08-.023-.042-.011-.081-.017-.04-.006-.076-.006-.217 0-.316.139-.1.137-.1.43 0 .29.1.425.1.134.305.134.111 0 .2-.025.092-.026.166-.06v.223q-.074.04-.16.06-.084.021-.206.021zM10.823 53.555q-.151 0-.277-.05-.125-.052-.216-.15-.09-.097-.14-.242-.049-.145-.049-.33 0-.188.046-.336.045-.147.128-.25.083-.102.197-.156.116-.054.255-.054.136 0 .245.05.109.048.185.137.076.089.116.214.04.124.04.276v.155H10.4q.007.266.112.392.106.125.314.125.07 0 .13-.007t.115-.02q.057-.013.11-.032.052-.02.105-.046v.224q-.055.026-.108.045-.053.02-.11.032-.054.012-.115.018-.06.005-.13.005zm-.062-1.36q-.157 0-.25.108-.09.107-.105.312h.678q0-.093-.02-.17-.017-.079-.057-.134-.039-.055-.1-.086-.06-.03-.146-.03zM12.42 53.555q-.082 0-.148-.018-.066-.018-.12-.047-.053-.03-.094-.07-.04-.04-.072-.084h-.016l.008.09.006.074.002.06v.646h-.25v-2.191h.204l.035.204h.011q.032-.049.072-.09.04-.043.092-.073.054-.032.12-.05.067-.019.15-.019.129 0 .235.05.106.05.18.148.076.098.117.244.042.146.042.34 0 .194-.042.341-.04.146-.117.245-.074.1-.18.15-.106.05-.236.05zm-.05-1.36q-.104 0-.177.032-.072.031-.117.096-.044.065-.066.161-.02.097-.024.228v.056q0 .14.018.248.02.108.064.182.045.073.12.112.074.037.186.037.186 0 .272-.15.089-.15.089-.431 0-.287-.089-.429-.086-.142-.275-.142zM13.847 53.35q.025 0 .055-.003l.06-.007q.03-.004.053-.01.025-.005.037-.009v.19q-.018.008-.045.017-.028.008-.061.014t-.069.01q-.036.003-.07.003-.086 0-.159-.022-.073-.022-.126-.076-.053-.053-.083-.144-.03-.093-.03-.232v-.878h-.214v-.111l.214-.108.107-.317h.145v.348h.38v.188h-.38v.878q0 .134.042.201.045.068.144.068zM14.6 53.528h-.252v-1.513h.251zm-.27-1.923q0-.082.04-.12.043-.037.105-.037.03 0 .057.01.027.008.047.027.02.02.031.05.013.029.013.07 0 .08-.044.12-.043.039-.104.039-.062 0-.105-.039-.04-.038-.04-.12zM16.315 52.768q0 .19-.047.337-.045.146-.132.246-.086.1-.208.152-.123.052-.276.052-.142 0-.262-.052-.12-.052-.208-.152-.087-.1-.136-.246-.049-.148-.049-.337 0-.187.046-.332.047-.146.132-.245.086-.1.208-.152.124-.052.277-.052.142 0 .262.052.12.051.207.152.088.1.136.245.05.145.05.332zm-1.058 0q0 .288.093.434.095.145.308.145.212 0 .304-.145.094-.146.094-.434 0-.288-.095-.43-.094-.143-.306-.143t-.306.143q-.092.142-.092.43zM17.658 53.528v-.975q0-.179-.073-.268-.071-.09-.226-.09-.111 0-.187.036t-.123.106q-.045.07-.066.172-.02.102-.02.235v.784h-.25v-1.513h.204l.036.204h.014q.034-.06.081-.102.048-.045.105-.073.056-.03.12-.043.063-.014.13-.014.251 0 .378.132.128.131.128.42v.989zM19.362 53.528h-.251v-1.513h.25zm-.27-1.923q0-.082.041-.12.043-.037.105-.037.03 0 .056.01.028.008.047.027.02.02.032.05.012.029.012.07 0 .08-.044.12-.043.039-.103.039-.062 0-.105-.039-.041-.038-.041-.12zM20.79 53.528v-.975q0-.179-.074-.268-.071-.09-.226-.09-.111 0-.187.036t-.123.106q-.045.07-.066.172-.02.102-.02.235v.784h-.25v-1.513h.204l.036.204h.014q.034-.06.08-.102.05-.045.106-.073.056-.03.12-.043.063-.014.129-.014.252 0 .379.132.128.131.128.42v.989zM22.443 53.325h-.011q-.03.047-.072.09-.04.041-.093.073-.053.031-.119.05-.066.017-.149.017-.128 0-.234-.05-.106-.049-.182-.147-.076-.099-.117-.245-.041-.146-.041-.34 0-.193.041-.34.041-.147.117-.246.076-.1.182-.149.106-.051.234-.051.082 0 .148.018.066.018.118.048.054.03.095.07.042.04.072.085h.017l-.009-.09-.005-.073q-.003-.039-.003-.06v-.602h.25v2.145h-.202zm-.395.022q.104 0 .176-.032.073-.031.117-.096.046-.065.066-.161.022-.098.025-.228v-.056q0-.14-.02-.247-.017-.109-.063-.182-.044-.074-.118-.111-.075-.039-.186-.039-.186 0-.274.15-.087.15-.087.432 0 .288.087.43.088.14.277.14zM23.76 53.555q-.151 0-.277-.05-.125-.052-.216-.15-.09-.097-.14-.242-.049-.145-.049-.33 0-.188.046-.336.045-.147.128-.25.083-.102.197-.156.116-.054.255-.054.136 0 .245.05.11.048.185.137.076.089.116.214.041.124.041.276v.155h-.954q.007.266.112.392.106.125.314.125.07 0 .13-.007t.115-.02q.057-.013.11-.032.052-.02.105-.046v.224q-.055.026-.108.045-.053.02-.11.032-.054.012-.115.018-.06.005-.13.005zm-.062-1.36q-.157 0-.249.108-.091.107-.106.312h.678q0-.093-.02-.17-.017-.079-.057-.134-.039-.055-.1-.086-.06-.03-.146-.03zM24.995 52.752l-.486-.737h.285l.344.565.345-.565h.285l-.489.737.514.776h-.285l-.37-.601-.372.6h-.285zM28 52.518q0 .243-.037.436-.034.193-.113.327-.077.134-.2.204-.122.07-.297.07-.163 0-.284-.07-.12-.07-.2-.204-.078-.134-.118-.327-.039-.193-.039-.436 0-.244.035-.437t.111-.325q.077-.134.199-.204.122-.07.296-.07.164 0 .285.07.121.068.201.202.08.132.12.325.04.193.04.439zm-1.033 0q0 .206.02.36.021.155.067.258.045.102.118.155.075.05.181.05t.18-.05q.075-.051.122-.153.048-.102.069-.257.022-.155.022-.363 0-.207-.022-.361-.021-.155-.07-.257-.046-.102-.12-.153-.075-.05-.181-.05t-.18.05q-.074.051-.12.153-.045.102-.065.257-.02.154-.02.36z"/></g><path d="M8.697.2v8.126h23.75V.2zM7.447.2v8.126H.572V.2z" fill="none" stroke="red" stroke-width=".401"/><g style="line-height:6.61458px;-inkscape-font-specification:'Droid Sans';text-align:start" font-weight="400" font-size="2.822" font-family="Droid Sans" letter-spacing="0" word-spacing="0" opacity=".796" stroke-width=".265"><path d="M2.04 10.581l.054-.002.06-.007q.03-.004.053-.01.025-.005.037-.01v.19q-.017.009-.045.017-.028.009-.06.014-.034.007-.07.01-.035.004-.07.004-.085 0-.158-.022t-.127-.076q-.052-.054-.083-.145-.03-.092-.03-.231v-.878h-.214v-.112l.214-.107.107-.317h.145v.347h.38v.189h-.38v.878q0 .133.043.2.044.068.143.068zM2.315 9.246h.26l.296.845q.02.055.039.116.02.06.037.12.018.061.03.118.013.057.018.105h.009q.007-.035.022-.094l.033-.125.038-.133.036-.11.275-.842h.259l-.598 1.71q-.04.112-.085.2-.044.09-.103.152-.06.062-.14.095-.079.034-.19.034-.07 0-.123-.008-.053-.007-.09-.015v-.2q.03.007.073.011.044.005.093.005.066 0 .114-.016.048-.015.084-.046.036-.03.06-.074.027-.044.047-.1l.079-.221zM4.602 10.787q-.081 0-.147-.018-.066-.018-.12-.047-.052-.03-.094-.07-.04-.04-.071-.084h-.017l.008.09.006.074q.003.037.003.059v.646h-.251v-2.19h.204l.036.203h.01q.032-.048.072-.09.04-.042.093-.073.053-.031.12-.05.066-.018.148-.018.13 0 .236.05.106.049.18.148.076.098.118.244.04.146.04.339 0 .194-.04.342-.042.146-.118.245-.074.1-.18.15-.106.05-.236.05zm-.048-1.36q-.105 0-.178.031-.071.032-.117.097-.044.065-.066.161-.02.096-.023.227V10q0 .14.017.248.02.107.064.182.045.073.12.111.074.038.186.038.186 0 .273-.15.088-.15.088-.432 0-.286-.088-.428-.087-.142-.276-.142zM6.17 10.787q-.151 0-.277-.051-.125-.051-.216-.15-.09-.097-.139-.242-.05-.144-.05-.33 0-.188.046-.335.045-.148.128-.25.083-.103.197-.157.116-.053.255-.053.136 0 .245.05.11.047.185.137.076.088.116.214.041.124.041.275v.156h-.954q.007.266.112.391.106.126.314.126.07 0 .13-.007t.116-.02q.056-.013.108-.033.053-.02.106-.045v.223q-.055.026-.108.046-.053.019-.11.031-.054.013-.115.018-.06.006-.13.006zm-.062-1.36q-.157 0-.249.107-.09.108-.106.313h.678q0-.094-.02-.17-.017-.08-.057-.135-.039-.055-.1-.085-.06-.03-.146-.03z"/></g><g style="line-height:6.61458px;-inkscape-font-specification:'Droid Sans';text-align:start" font-weight="400" font-size="2.822" font-family="Droid Sans" letter-spacing="0" word-spacing="0" stroke-width=".265"><path d="M46.675 53.655q-.151 0-.277-.051-.125-.051-.216-.149-.09-.098-.14-.242-.049-.145-.049-.331 0-.188.046-.335.045-.147.128-.25.082-.103.197-.156.116-.054.255-.054.136 0 .245.05.109.048.185.137.075.088.115.214.042.124.042.275v.156h-.954q.007.266.112.391.106.126.314.126.07 0 .13-.007t.115-.02q.057-.013.11-.032.051-.021.105-.046v.223q-.055.027-.109.046-.052.02-.109.032-.055.012-.115.017-.06.006-.13.006zm-.062-1.36q-.157 0-.25.107-.09.108-.105.313h.678q0-.094-.02-.17-.018-.08-.058-.134-.038-.056-.099-.086-.06-.03-.146-.03zM47.91 52.852l-.487-.738h.286l.344.565.345-.565h.285l-.49.738.515.775h-.285l-.37-.6-.372.6h-.285zM49.577 53.655q-.139 0-.26-.043-.121-.044-.21-.138-.09-.095-.142-.24-.05-.148-.05-.355 0-.216.052-.366.052-.152.143-.246.093-.095.215-.138.123-.042.263-.042.108 0 .21.023.103.024.172.058l-.074.212q-.032-.013-.07-.026-.04-.014-.08-.023-.042-.011-.082-.017-.04-.007-.076-.007-.216 0-.315.14-.1.137-.1.43 0 .29.1.425.1.134.304.134.112 0 .202-.025.09-.026.165-.06v.223q-.075.04-.16.06-.084.021-.207.021zM50.903 53.655q-.152 0-.277-.051-.125-.051-.216-.149-.09-.098-.14-.242-.05-.145-.05-.331 0-.188.046-.335.046-.147.129-.25.082-.103.197-.156.115-.054.255-.054.136 0 .245.05.109.048.184.137.076.088.116.214.042.124.042.275v.156h-.954q.007.266.112.391.106.126.314.126.07 0 .13-.007t.115-.02q.057-.013.109-.032.052-.021.106-.046v.223q-.055.027-.109.046-.052.02-.109.032-.055.012-.115.017-.06.006-.13.006zm-.062-1.36q-.157 0-.25.107-.09.108-.106.313h.678q0-.094-.019-.17-.018-.08-.058-.134-.038-.056-.099-.086-.06-.03-.146-.03zM52.499 53.655q-.082 0-.148-.018-.066-.018-.12-.047-.052-.03-.093-.07-.04-.04-.072-.084h-.016l.008.09.005.074q.003.037.003.06v.645h-.25v-2.19h.203l.036.203h.011q.032-.048.072-.09.04-.042.092-.072.054-.032.12-.05.066-.02.149-.02.13 0 .235.05.107.05.181.15.076.097.117.243.041.146.041.34 0 .193-.04.34-.042.147-.118.246-.074.1-.18.15-.107.05-.236.05zm-.048-1.36q-.105 0-.178.032-.072.031-.117.096-.044.065-.066.161-.021.097-.024.228v.056q0 .14.018.248.02.108.063.182.046.073.12.112.075.037.186.037.186 0 .273-.15.088-.15.088-.432 0-.286-.088-.428-.087-.142-.275-.142zM53.926 53.45q.025 0 .056-.003l.06-.007q.03-.004.053-.01.024-.005.037-.01v.19q-.018.01-.046.017-.027.009-.06.014-.033.007-.07.01-.035.004-.07.004-.085 0-.158-.022t-.127-.076q-.052-.054-.082-.145-.03-.092-.03-.231v-.878h-.214v-.112l.213-.107.108-.317h.144v.347h.38v.19h-.38v.877q0 .134.043.201.044.068.143.068zM54.679 53.627h-.25v-1.513h.25zm-.27-1.922q0-.083.041-.12.043-.037.105-.037.03 0 .056.01.028.008.047.027.02.02.032.05.012.029.012.07 0 .08-.044.12-.043.038-.103.038-.062 0-.105-.038-.041-.039-.041-.12zM56.395 52.868q0 .189-.047.336-.046.146-.133.247-.085.1-.208.152-.122.052-.275.052-.142 0-.262-.052-.12-.053-.208-.152-.087-.1-.137-.247-.048-.147-.048-.336 0-.187.046-.332.046-.146.132-.245.085-.1.208-.152.124-.052.277-.052.142 0 .262.052.12.051.206.152.089.099.137.245.05.145.05.332zm-1.059 0q0 .288.094.434.095.145.307.145t.305-.145q.093-.146.093-.434 0-.288-.095-.43-.093-.143-.306-.143-.212 0-.305.143-.093.142-.093.43zM57.738 53.627v-.974q0-.179-.073-.269-.072-.09-.226-.09-.112 0-.187.037-.076.036-.123.106-.045.07-.066.172-.02.102-.02.234v.784h-.25v-1.513h.204l.036.204h.013q.035-.059.082-.102.048-.044.104-.073.057-.029.12-.042.064-.014.13-.014.252 0 .379.132.128.131.128.42v.988zM59.441 53.627h-.25v-1.513h.25zm-.27-1.922q0-.083.042-.12.042-.037.104-.037.03 0 .057.01.027.008.047.027.02.02.031.05.013.029.013.07 0 .08-.044.12-.043.038-.104.038-.062 0-.104-.038-.042-.039-.042-.12zM60.869 53.627v-.974q0-.179-.073-.269-.072-.09-.226-.09-.112 0-.187.037-.076.036-.123.106-.046.07-.066.172-.02.102-.02.234v.784h-.25v-1.513h.204l.035.204h.014q.035-.059.082-.102.048-.044.104-.073.057-.029.12-.042.064-.014.13-.014.252 0 .379.132.128.131.128.42v.988zM62.523 53.425h-.011q-.03.047-.072.09-.04.04-.094.072-.052.032-.118.05-.066.018-.15.018-.127 0-.233-.05-.106-.05-.182-.147-.076-.1-.117-.245-.042-.146-.042-.34 0-.194.042-.34.041-.147.117-.246.076-.1.182-.15.106-.05.234-.05.081 0 .147.018.067.018.119.048.054.03.095.07.041.04.072.084h.016l-.008-.09-.006-.072-.002-.061v-.6h.25v2.143h-.202zm-.396.022q.105 0 .177-.032.073-.031.117-.096.045-.065.066-.161.022-.098.025-.228v-.056q0-.14-.02-.247-.018-.109-.063-.182-.044-.074-.119-.112-.074-.038-.186-.038-.186 0-.274.15-.087.15-.087.431 0 .288.087.43.088.14.277.14zM63.84 53.655q-.152 0-.277-.051-.125-.051-.216-.149-.09-.098-.14-.242-.049-.145-.049-.331 0-.188.045-.335.046-.147.129-.25.082-.103.197-.156.115-.054.255-.054.136 0 .245.05.109.048.185.137.075.088.115.214.042.124.042.275v.156h-.954q.007.266.112.391.106.126.314.126.07 0 .13-.007t.115-.02q.057-.013.109-.032.052-.021.106-.046v.223q-.055.027-.109.046-.052.02-.109.032-.055.012-.115.017-.06.006-.13.006zm-.062-1.36q-.157 0-.25.107-.09.108-.105.313h.678q0-.094-.02-.17-.018-.08-.058-.134-.038-.056-.099-.086-.06-.03-.146-.03zM65.075 52.852l-.487-.738h.286l.344.565.345-.565h.285l-.49.738.515.775h-.286l-.369-.6-.372.6h-.285zM67.637 53.627h-.243V52.37v-.127l.003-.133.004-.128.004-.11-.041.044-.037.034-.04.036-.049.043-.204.166-.132-.17.528-.411h.207z"/></g><g style="line-height:6.61458px;-inkscape-font-specification:'Droid Sans';text-align:start" font-weight="400" font-size="2.822" font-family="Droid Sans" letter-spacing="0" word-spacing="0" stroke-width=".265"><path d="M126.203 55.338q-.151 0-.277-.05-.125-.052-.216-.15-.09-.098-.14-.242-.049-.145-.049-.331 0-.187.046-.335.045-.147.128-.25.083-.103.197-.156.116-.054.255-.054.136 0 .245.05.11.048.185.137.076.088.116.214.04.124.04.275v.156h-.953q.007.266.112.392.106.125.314.125.07 0 .13-.007t.115-.02q.057-.013.11-.032.052-.021.105-.046v.223q-.055.027-.108.046-.053.02-.11.032-.054.012-.115.018-.06.005-.13.005zm-.062-1.36q-.157 0-.25.107-.09.108-.105.313h.678q0-.093-.02-.17-.017-.08-.057-.134-.039-.055-.1-.086-.06-.03-.146-.03zM127.438 54.535l-.486-.738h.285l.344.565.345-.565h.285l-.489.738.514.775h-.285l-.37-.6-.372.6h-.285zM129.106 55.338q-.14 0-.26-.043-.122-.044-.212-.137-.09-.096-.14-.242-.051-.147-.051-.354 0-.216.052-.366.052-.152.143-.246.093-.095.215-.137.123-.043.264-.043.107 0 .209.023.103.024.172.058l-.074.212q-.032-.013-.07-.026-.039-.014-.08-.023-.042-.011-.082-.017-.04-.007-.075-.007-.217 0-.316.14-.1.137-.1.43 0 .29.1.425.1.134.305.134.111 0 .2-.025.092-.026.166-.06v.223q-.074.04-.16.06-.084.021-.206.021zM130.431 55.338q-.151 0-.277-.05-.125-.052-.216-.15-.09-.098-.14-.242-.049-.145-.049-.331 0-.187.046-.335.045-.147.128-.25.082-.103.197-.156.116-.054.255-.054.136 0 .245.05.109.048.185.137.075.088.115.214.042.124.042.275v.156h-.954q.007.266.112.392.106.125.314.125.07 0 .13-.007t.115-.02q.057-.013.11-.032.051-.021.105-.046v.223q-.055.027-.109.046-.052.02-.109.032-.055.012-.115.018-.06.005-.13.005zm-.062-1.36q-.157 0-.25.107-.09.108-.105.313h.678q0-.093-.02-.17-.018-.08-.058-.134-.038-.055-.099-.086-.06-.03-.146-.03zM132.027 55.338q-.081 0-.147-.018-.067-.018-.12-.047-.053-.03-.094-.07-.04-.04-.072-.084h-.016l.008.09.006.074q.003.037.003.06v.645h-.251v-2.19h.204l.036.203h.01q.032-.048.072-.09.04-.042.093-.072.053-.032.12-.05.066-.02.148-.02.13 0 .236.05.106.05.18.15.076.097.118.243.041.146.041.34 0 .194-.041.341-.042.146-.117.245-.075.1-.181.15-.106.05-.236.05zm-.048-1.36q-.105 0-.178.032-.072.031-.117.096-.044.065-.066.161-.02.097-.024.228v.056q0 .14.018.248.02.108.064.182.045.073.12.112.074.037.186.037.186 0 .272-.15.089-.15.089-.432 0-.286-.089-.428-.086-.142-.275-.142zM133.455 55.133q.024 0 .055-.003l.06-.007q.03-.004.053-.01.025-.005.037-.01v.191q-.018.008-.046.017-.027.008-.06.013-.033.007-.07.01-.035.004-.07.004-.085 0-.158-.022t-.127-.076q-.052-.054-.082-.145-.03-.092-.03-.231v-.878h-.214v-.111l.213-.108.108-.317h.145v.347h.38v.19h-.38v.877q0 .134.042.201.044.068.144.068zM134.207 55.31h-.25v-1.513h.25zm-.27-1.922q0-.083.041-.12.043-.037.105-.037.03 0 .056.01.028.008.047.027.021.02.032.05.012.029.012.07 0 .08-.044.12-.042.039-.103.039-.062 0-.105-.039-.041-.039-.041-.12zM135.923 54.551q0 .189-.047.336-.046.147-.132.247-.086.1-.208.152-.123.052-.276.052-.142 0-.262-.052-.12-.053-.208-.152-.087-.1-.136-.247-.049-.147-.049-.336 0-.187.046-.332.047-.146.132-.245.086-.1.208-.152.124-.052.277-.052.142 0 .262.052.12.051.207.152.088.099.136.245.05.145.05.332zm-1.059 0q0 .288.094.434.095.145.307.145.213 0 .305-.145.094-.146.094-.434 0-.288-.095-.43-.094-.143-.306-.143-.213 0-.306.143-.093.142-.093.43zM137.266 55.31v-.974q0-.179-.073-.268-.071-.09-.226-.09-.111 0-.187.036t-.123.106q-.045.07-.066.172-.02.102-.02.234v.784h-.25v-1.513h.204l.036.204h.013q.035-.059.082-.102.048-.044.104-.073.057-.029.12-.042.064-.014.13-.014.252 0 .379.132.128.131.128.42v.988zM138.97 55.31h-.251v-1.513h.25zm-.27-1.922q0-.083.04-.12.043-.037.105-.037.03 0 .057.01.028.008.047.027.02.02.032.05.012.029.012.07 0 .08-.044.12-.043.039-.103.039-.062 0-.105-.039-.042-.039-.042-.12zM140.397 55.31v-.974q0-.179-.073-.268-.072-.09-.226-.09-.111 0-.187.036t-.123.106q-.045.07-.066.172-.02.102-.02.234v.784h-.25v-1.513h.204l.036.204h.013q.035-.059.082-.102.048-.044.104-.073.057-.029.12-.042.064-.014.13-.014.252 0 .379.132.128.131.128.42v.988zM142.05 55.108h-.01q-.03.047-.072.09-.04.04-.094.073-.052.031-.118.05-.066.017-.149.017-.128 0-.234-.05-.106-.05-.182-.147-.076-.1-.117-.245-.042-.146-.042-.34 0-.194.042-.34.041-.147.117-.246.076-.1.182-.15.106-.05.234-.05.081 0 .148.018.066.018.118.048.054.03.095.07.041.04.072.084h.016l-.008-.09-.006-.072q-.003-.039-.003-.06v-.602h.251v2.144h-.202zm-.395.022q.105 0 .177-.032.073-.031.117-.096.045-.065.066-.161.022-.098.025-.228v-.056q0-.14-.02-.247-.017-.109-.063-.182-.044-.074-.118-.111-.075-.04-.186-.04-.187 0-.275.151-.086.15-.086.431 0 .288.086.43.089.141.277.141zM143.368 55.338q-.151 0-.277-.05-.125-.052-.216-.15-.09-.098-.14-.242-.049-.145-.049-.331 0-.187.046-.335.045-.147.128-.25.082-.103.197-.156.116-.054.255-.054.136 0 .245.05.109.048.185.137.076.088.115.214.042.124.042.275v.156h-.954q.007.266.112.392.106.125.314.125.07 0 .13-.007t.115-.02q.057-.013.11-.032.052-.021.105-.046v.223q-.055.027-.109.046-.052.02-.108.032t-.116.018q-.06.005-.13.005zm-.062-1.36q-.157 0-.25.107-.09.108-.105.313h.678q0-.093-.02-.17-.017-.08-.057-.134-.04-.055-.1-.086-.06-.03-.146-.03zM144.603 54.535l-.486-.738h.285l.344.565.345-.565h.285l-.49.738.515.775h-.285l-.37-.6-.372.6h-.285zM147.37 55.31v-.974q0-.179-.073-.268-.072-.09-.226-.09-.112 0-.187.036-.076.036-.123.106-.045.07-.066.172-.02.102-.02.234v.784h-.25v-1.513h.204l.036.204h.013q.035-.059.082-.102.048-.044.104-.073.057-.029.12-.042.064-.014.13-.014.252 0 .379.132.128.131.128.42v.988z"/></g><g style="line-height:6.61458px;-inkscape-font-specification:'Droid Sans';text-align:start" font-weight="400" font-size="2.822" font-family="Droid Sans" letter-spacing="0" word-spacing="0" stroke-width=".265"><path d="M43.703 32.57l-.517-1.513h.259l.274.842q.015.045.036.117l.041.146q.021.074.037.14.018.067.024.101h.01q.006-.034.023-.1.016-.067.037-.141.02-.075.042-.146.02-.072.035-.117l.275-.842h.259l-.517 1.513zM45.63 32.57l-.052-.21h-.01q-.046.062-.092.108-.045.044-.1.073-.053.029-.119.043-.066.013-.153.013-.095 0-.175-.027-.08-.026-.14-.082-.057-.056-.09-.14-.033-.086-.033-.201 0-.226.158-.348.16-.12.485-.132l.254-.01v-.095q0-.092-.02-.154t-.059-.1q-.037-.038-.093-.054-.055-.017-.127-.017-.114 0-.214.033-.098.033-.188.08l-.089-.189q.102-.055.228-.093.125-.039.263-.039.14 0 .242.03.104.027.17.089.067.06.1.155.034.095.034.23v1.037zm-.461-.175q.084 0 .156-.026.071-.027.124-.079.052-.054.08-.134.031-.081.031-.19v-.136l-.197.01q-.124.005-.208.027-.084.022-.135.062-.05.039-.072.095-.022.055-.022.125 0 .127.066.186.068.06.177.06zM46.526 32.57h-.25v-2.144h.25zM47.988 32.57l-.037-.203h-.014q-.034.06-.082.104-.047.042-.104.071-.056.028-.12.042-.063.013-.13.013-.125 0-.22-.031-.095-.032-.158-.1-.064-.067-.097-.172-.031-.105-.031-.25v-.987h.25v.974q0 .18.074.269.073.09.226.09.111 0 .187-.037.076-.035.121-.104.047-.07.066-.173.021-.102.021-.234v-.785h.25v1.513zM49.271 32.597q-.151 0-.277-.05-.125-.052-.216-.15-.09-.097-.14-.242-.049-.145-.049-.33 0-.188.046-.336.045-.147.128-.25.082-.102.197-.156.116-.054.255-.054.136 0 .245.05.109.048.185.138.075.088.115.213.042.124.042.276v.155h-.954q.007.266.112.392.106.125.314.125.07 0 .13-.007t.115-.019q.057-.014.11-.033.052-.02.105-.046v.224q-.055.026-.109.045-.052.02-.108.032t-.116.018q-.06.005-.13.005zm-.062-1.36q-.157 0-.25.108-.09.107-.105.312h.678q0-.093-.02-.17-.017-.079-.057-.134-.04-.055-.1-.085-.06-.03-.146-.03zM51.089 32.155q0 .11-.04.193t-.116.14q-.074.054-.18.082-.106.027-.239.027-.15 0-.257-.025-.108-.023-.19-.07v-.229q.043.023.096.045.052.02.11.037.058.016.119.027.062.01.122.01.09 0 .152-.015.063-.015.102-.043.04-.029.058-.069.018-.041.018-.09 0-.044-.014-.078t-.051-.067q-.036-.035-.1-.07-.063-.034-.162-.077-.1-.042-.18-.084-.078-.041-.133-.092-.055-.05-.085-.117-.03-.068-.03-.16 0-.096.038-.17.039-.077.108-.128.068-.05.165-.077.096-.026.215-.026.134 0 .244.029.111.029.21.076l-.086.202q-.09-.04-.185-.069-.094-.03-.191-.03-.141 0-.209.047-.067.045-.067.13 0 .05.015.085.017.036.055.067.039.032.104.065.064.032.16.072.1.041.177.083.079.04.134.093.055.051.084.117.029.067.029.159zM51.42 32.417q0-.053.013-.088.014-.038.038-.06.023-.023.055-.033.031-.01.069-.01.035 0 .067.01.033.01.057.033.023.022.037.06.014.035.014.088 0 .05-.014.088-.014.036-.037.06-.024.023-.057.034-.032.01-.067.01-.038 0-.07-.01-.031-.011-.054-.035-.024-.023-.038-.059-.013-.037-.013-.088zm0-1.207q0-.054.013-.09.014-.037.038-.06.023-.023.055-.032.031-.01.069-.01.035 0 .067.01.033.01.057.033.023.022.037.06.014.035.014.089 0 .05-.014.086-.014.036-.037.06-.024.023-.057.034-.032.011-.067.011-.038 0-.07-.01-.031-.012-.054-.035-.024-.024-.038-.06-.013-.035-.013-.086zM54.04 32.03q0 .135-.048.24-.046.105-.135.178-.088.074-.215.112-.126.037-.285.037-.153 0-.286-.024-.133-.024-.222-.07v-.246q.047.022.106.044.06.02.127.037.066.017.136.028.07.01.14.01.22 0 .324-.083.106-.083.106-.237 0-.075-.02-.13-.02-.055-.07-.1-.05-.047-.134-.09-.084-.044-.212-.095-.123-.048-.214-.105-.09-.058-.149-.13-.058-.071-.087-.162-.027-.09-.027-.207 0-.12.044-.216.044-.095.124-.16.08-.066.19-.1.112-.035.245-.035.164 0 .295.032.131.03.233.078l-.092.215q-.09-.04-.204-.069-.113-.03-.234-.03-.168 0-.26.079-.093.077-.093.21 0 .078.02.136.021.056.07.103.048.045.126.087.08.04.196.085.125.05.219.102.095.052.158.119.064.066.096.153.033.086.033.205zM55.015 32.57h-.73v-.14l.237-.057v-1.62l-.237-.057v-.14h.73v.14l-.237.056v1.62l.237.057zM56.237 32.57l-.61-1.764h-.011l.014.202q.005.087.008.184.004.095.004.173v1.205h-.237v-2.015h.38l.568 1.643h.008l.57-1.643h.381v2.015h-.256v-1.223q0-.071.003-.164.002-.092.007-.176l.01-.198h-.012l-.616 1.76zM59.347 31.543q0 .255-.066.448-.066.192-.191.321-.126.128-.309.193-.182.065-.413.065h-.505v-2.015h.561q.211 0 .382.063.17.064.29.19.12.123.185.308.066.185.066.427zm-.271.008q0-.2-.045-.347-.046-.147-.133-.242-.087-.095-.213-.141-.127-.047-.288-.047h-.277v1.575h.223q.364 0 .548-.2.185-.202.185-.598zM61.175 31.03q.13 0 .235.049.107.05.18.149.077.097.118.243.041.147.041.34 0 .194-.04.341-.042.146-.118.245-.074.1-.18.15-.107.05-.236.05-.082 0-.148-.018-.066-.018-.12-.046-.052-.03-.093-.07-.04-.04-.072-.085h-.016l-.051.192h-.184v-2.144h.251v.518l-.001.103-.004.1-.006.108h.011q.032-.048.072-.09.04-.04.092-.071.054-.03.12-.047.066-.018.149-.018zm-.048.207q-.11 0-.185.036-.073.034-.119.106-.044.072-.063.18-.018.107-.018.251 0 .14.018.248.02.108.063.182.046.073.12.112.075.037.186.037.186 0 .273-.15.088-.15.088-.431 0-.287-.088-.429-.087-.142-.275-.142zM62.396 32.57h-.251v-1.513h.25zm-.27-1.923q0-.082.041-.12.043-.037.105-.037.03 0 .056.01.028.008.047.027.02.02.032.05.012.029.012.07 0 .08-.044.12-.043.039-.103.039-.062 0-.105-.039-.041-.038-.041-.12zM63.336 32.392q.024 0 .055-.003l.06-.007q.03-.004.053-.01l.037-.009v.19q-.018.009-.046.017-.027.008-.06.014t-.07.01q-.035.003-.07.003-.085 0-.158-.022t-.127-.076q-.052-.053-.082-.144-.03-.093-.03-.232v-.878h-.214v-.111l.213-.108.108-.317h.145v.348h.38v.188h-.38v.878q0 .134.042.201.044.068.144.068zM64.52 32.597q-.08 0-.147-.018-.066-.018-.12-.046-.052-.03-.093-.07-.04-.04-.072-.085h-.017l.009.09.005.074q.003.037.003.06v.646h-.25v-2.191h.203l.036.204h.011q.032-.049.072-.09.04-.043.092-.073.054-.032.12-.05.066-.019.149-.019.13 0 .235.05.106.05.18.149.077.097.118.243.041.147.041.34 0 .194-.041.341-.041.146-.117.245-.075.1-.18.15-.107.05-.236.05zm-.048-1.36q-.104 0-.177.032-.072.032-.117.096-.045.065-.067.162-.02.096-.023.227v.056q0 .14.018.248.02.108.063.182.046.073.12.112.075.037.186.037.186 0 .273-.15.088-.15.088-.431 0-.287-.088-.429-.087-.142-.276-.142zM66.344 32.57l-.051-.21h-.011q-.046.062-.091.108-.046.044-.1.073-.053.029-.12.043-.065.013-.152.013-.095 0-.175-.027-.08-.026-.14-.082-.057-.056-.09-.14-.033-.086-.033-.201 0-.226.158-.348.16-.12.485-.132l.254-.01v-.095q0-.092-.021-.154-.02-.062-.058-.1-.037-.038-.094-.054-.055-.017-.126-.017-.115 0-.214.033-.098.033-.189.08l-.088-.189q.102-.055.227-.093.126-.039.264-.039.14 0 .242.03.104.027.17.089.067.06.1.155t.033.23v1.037zm-.46-.175q.084 0 .155-.026.072-.027.124-.079.053-.054.082-.134.03-.081.03-.19v-.136l-.197.01q-.124.005-.208.027-.084.022-.135.062-.05.039-.072.095-.022.055-.022.125 0 .127.066.186.068.06.177.06zM67.569 32.597q-.14 0-.26-.042-.122-.045-.211-.138-.09-.095-.141-.241-.05-.148-.05-.355 0-.216.051-.366.053-.152.144-.245.092-.095.215-.138.122-.043.263-.043.107 0 .21.024.103.023.172.057l-.075.213q-.031-.014-.07-.027-.039-.013-.08-.023-.041-.011-.081-.017-.04-.006-.076-.006-.216 0-.316.139-.099.138-.099.43 0 .29.1.426.1.133.304.133.112 0 .201-.025.091-.026.165-.06v.223q-.074.04-.16.06-.083.021-.206.021zM68.528 31.788l.186-.234.404-.497h.29l-.552.654.59.859h-.288l-.463-.695-.15.113v.582h-.249v-2.144h.249v.983l-.023.38zM69.947 32.57h-.25v-1.513h.25zm-.27-1.923q0-.082.042-.12.042-.037.104-.037.03 0 .057.01.027.008.047.027.02.02.031.05.013.029.013.07 0 .08-.044.12-.043.039-.104.039-.062 0-.104-.039-.042-.038-.042-.12zM71.375 32.57v-.975q0-.179-.073-.268-.072-.09-.226-.09-.112 0-.187.036-.076.036-.123.106-.046.07-.066.172-.02.102-.02.235v.784h-.25v-1.513h.204l.035.204h.014q.035-.06.082-.102.048-.044.104-.073.057-.03.12-.043.064-.014.13-.014.252 0 .379.132.128.131.128.42v.989zM73.26 31.057v.155l-.271.038q.038.048.065.124.026.074.026.17 0 .104-.033.193-.032.089-.098.153-.065.065-.161.102-.097.036-.225.036h-.06q-.031-.001-.05-.005-.024.013-.047.031-.022.017-.042.039-.017.022-.03.05-.01.027-.01.06 0 .037.016.06t.044.035q.029.013.067.017.039.004.082.004h.242q.128 0 .216.033.089.032.144.087.056.055.081.13.025.075.025.16 0 .12-.046.217-.044.096-.136.163-.092.067-.234.103-.14.036-.332.036-.148 0-.258-.03-.11-.028-.183-.083-.073-.055-.11-.134-.036-.077-.036-.175 0-.083.026-.146.027-.062.073-.108.045-.045.105-.074.06-.029.125-.044-.058-.026-.095-.083-.037-.056-.037-.13 0-.083.044-.144.044-.062.139-.12-.06-.025-.109-.067-.048-.044-.083-.1-.033-.056-.052-.122-.018-.066-.018-.137 0-.122.035-.219.034-.096.102-.164.067-.067.168-.103.1-.036.234-.036.05 0 .105.008.055.007.092.02zm-1.117 1.76q0 .052.018.096.017.044.057.076.042.031.108.05.067.019.167.019.256 0 .383-.08.128-.079.128-.228 0-.063-.017-.103-.016-.04-.055-.063-.037-.023-.099-.03-.062-.01-.152-.01h-.242q-.048 0-.1.012-.053.01-.097.041-.043.03-.072.083-.027.054-.027.138zm.126-1.274q0 .159.075.236.074.077.21.077.138 0 .209-.076.071-.077.071-.241 0-.17-.073-.25-.071-.08-.21-.08-.136 0-.209.083-.073.083-.073.251zM75.522 31.81q0 .19-.047.337-.046.146-.133.246-.085.1-.208.152-.122.052-.275.052-.142 0-.262-.052-.12-.052-.208-.152-.087-.1-.137-.246-.048-.148-.048-.337 0-.187.046-.332.047-.146.132-.245.085-.1.208-.152.124-.052.277-.052.142 0 .262.052.12.051.207.152.088.1.136.245.05.145.05.332zm-1.059 0q0 .288.094.435.095.144.307.144t.305-.144q.094-.147.094-.435 0-.288-.096-.43-.093-.143-.305-.143-.213 0-.306.144-.093.141-.093.43zM76.574 31.03q.04 0 .09.003.05.003.085.01l-.033.231q-.038-.007-.08-.01-.04-.006-.075-.006-.087 0-.159.036-.072.034-.124.1-.05.065-.08.157-.027.091-.027.203v.816h-.251v-1.513h.204l.03.277h.011q.035-.06.073-.115.04-.055.088-.096.05-.043.11-.068.061-.026.138-.026zM78.46 31.03q.13 0 .237.049.106.05.18.149.076.097.117.243.042.147.042.34 0 .194-.042.341-.041.146-.117.245-.074.1-.18.15-.107.05-.236.05-.081 0-.148-.018-.066-.018-.12-.046-.052-.03-.093-.07-.04-.04-.072-.085h-.016l-.051.192h-.184v-2.144h.251v.518l-.001.103-.004.1-.006.108h.011q.032-.048.072-.09.04-.04.092-.071.054-.03.12-.047.066-.018.149-.018zm-.047.207q-.11 0-.185.036-.073.034-.118.106t-.064.18q-.018.107-.018.251 0 .14.018.248.02.108.064.182.045.073.12.112.074.037.185.037.187 0 .273-.15.089-.15.089-.431 0-.287-.089-.429-.087-.142-.275-.142zM79.682 32.57h-.25v-1.513h.25zm-.27-1.923q0-.082.041-.12.043-.037.105-.037.03 0 .056.01.028.008.047.027.02.02.032.05.012.029.012.07 0 .08-.044.12-.043.039-.103.039-.062 0-.105-.039-.041-.038-.041-.12zM80.622 32.392q.025 0 .055-.003l.06-.007q.03-.004.053-.01.025-.005.037-.009v.19q-.018.009-.045.017-.028.008-.061.014t-.069.01q-.036.003-.07.003-.086 0-.159-.022-.073-.022-.127-.076-.052-.053-.082-.144-.03-.093-.03-.232v-.878h-.214v-.111l.213-.108.108-.317h.145v.348h.38v.188h-.38v.878q0 .134.042.201.044.068.144.068zM81.807 32.597q-.081 0-.148-.018-.066-.018-.12-.046-.052-.03-.093-.07-.04-.04-.072-.085h-.016l.008.09.005.074q.003.037.003.06v.646h-.25v-2.191h.203l.036.204h.011q.032-.049.072-.09.04-.043.092-.073.054-.032.12-.05.066-.019.149-.019.13 0 .236.05.106.05.18.149.076.097.117.243.042.147.042.34 0 .194-.042.341-.041.146-.117.245-.074.1-.18.15-.107.05-.236.05zm-.048-1.36q-.105 0-.178.032-.072.032-.117.096-.044.065-.066.162-.021.096-.024.227v.056q0 .14.018.248.02.108.063.182.046.073.12.112.075.037.186.037.186 0 .273-.15.088-.15.088-.431 0-.287-.088-.429-.087-.142-.275-.142zM83.63 32.57l-.051-.21h-.011q-.046.062-.091.108-.045.044-.1.073-.053.029-.12.043-.065.013-.152.013-.095 0-.175-.027-.08-.026-.14-.082-.057-.056-.09-.14-.033-.086-.033-.201 0-.226.158-.348.16-.12.485-.132l.254-.01v-.095q0-.092-.02-.154t-.059-.1q-.037-.038-.093-.054-.056-.017-.127-.017-.115 0-.214.033-.098.033-.189.08l-.088-.189q.102-.055.228-.093.125-.039.263-.039.14 0 .242.03.104.027.17.089.067.06.1.155t.033.23v1.037zm-.46-.175q.084 0 .155-.026.072-.027.124-.079.053-.054.082-.134.03-.081.03-.19v-.136l-.197.01q-.124.005-.208.027-.084.022-.135.062-.05.039-.072.095-.022.055-.022.125 0 .127.066.186.068.06.177.06zM84.855 32.597q-.14 0-.26-.042-.122-.045-.211-.138-.09-.095-.14-.241-.052-.148-.052-.355 0-.216.053-.366.052-.152.143-.245.092-.095.215-.138.123-.043.263-.043.108 0 .21.024.103.023.172.057l-.075.213q-.031-.014-.07-.027-.038-.013-.08-.023-.041-.011-.081-.017-.04-.006-.076-.006-.216 0-.315.139-.1.138-.1.43 0 .29.1.426.1.133.304.133.112 0 .201-.025.091-.026.166-.06v.223q-.075.04-.16.06-.084.021-.207.021zM85.814 31.788l.186-.234.404-.497h.29l-.552.654.59.859h-.288l-.463-.695-.15.113v.582h-.248v-2.144h.248v.983l-.022.38zM87.234 32.57h-.251v-1.513h.25zm-.27-1.923q0-.082.04-.12.044-.037.106-.037.03 0 .056.01.028.008.047.027.02.02.032.05.012.029.012.07 0 .08-.044.12-.043.039-.103.039-.062 0-.105-.039-.042-.038-.042-.12zM88.661 32.57v-.975q0-.179-.073-.268-.071-.09-.226-.09-.111 0-.187.036t-.123.106q-.045.07-.066.172-.02.102-.02.235v.784h-.25v-1.513h.204l.036.204h.013q.035-.06.082-.102.048-.044.104-.073.057-.03.12-.043.064-.014.13-.014.252 0 .379.132.128.131.128.42v.989zM90.546 31.057v.155l-.271.038q.038.048.065.124.026.074.026.17 0 .104-.033.193-.032.089-.098.153-.065.065-.161.102-.097.036-.225.036h-.06q-.03-.001-.05-.005-.024.013-.047.031-.022.017-.041.039-.018.022-.03.05-.012.027-.012.06 0 .037.017.06.016.023.044.035.029.013.067.017.04.004.082.004h.242q.128 0 .217.033.088.032.143.087.056.055.081.13.025.075.025.16 0 .12-.045.217-.044.096-.137.163-.092.067-.234.103-.14.036-.332.036-.148 0-.258-.03-.11-.028-.183-.083-.073-.055-.11-.134-.036-.077-.036-.175 0-.083.026-.146.028-.062.073-.108.045-.045.105-.074.06-.029.125-.044-.058-.026-.095-.083-.037-.056-.037-.13 0-.083.044-.144.044-.062.14-.12-.06-.025-.11-.067-.048-.044-.082-.1-.033-.056-.053-.122-.018-.066-.018-.137 0-.122.035-.219.034-.096.102-.164.067-.067.168-.103.1-.036.234-.036.051 0 .105.008.055.007.092.02zm-1.117 1.76q0 .052.018.096.018.044.058.076.04.031.107.05.068.019.167.019.256 0 .383-.08.128-.079.128-.228 0-.063-.016-.103-.017-.04-.056-.063-.037-.023-.099-.03-.062-.01-.151-.01h-.243q-.048 0-.1.012-.053.01-.097.041-.043.03-.072.083-.027.054-.027.138zm.127-1.274q0 .159.074.236.074.077.21.077.139 0 .209-.076.072-.077.072-.241 0-.17-.073-.25-.072-.08-.21-.08-.136 0-.21.083-.072.083-.072.251zM91.448 31.797q0-.173.024-.34.025-.167.076-.325t.128-.303q.079-.146.186-.274h.237q-.193.266-.293.584-.1.319-.1.655 0 .164.025.327.027.162.075.318.05.156.123.302t.168.275h-.235q-.107-.124-.186-.266-.077-.142-.128-.296-.05-.156-.076-.321-.024-.165-.024-.336zM92.88 32.392q.026 0 .056-.003l.06-.007q.03-.004.053-.01.025-.005.037-.009v.19q-.018.009-.045.017-.028.008-.061.014t-.069.01q-.036.003-.07.003-.086 0-.159-.022-.073-.022-.126-.076-.053-.053-.083-.144-.03-.093-.03-.232v-.878h-.214v-.111l.214-.108.107-.317h.145v.348h.38v.188h-.38v.878q0 .134.042.201.045.068.144.068zM94.037 31.03q.04 0 .09.003.05.003.085.01l-.033.231q-.039-.007-.08-.01-.04-.006-.076-.006-.087 0-.158.036-.072.034-.124.1-.051.065-.08.157-.028.091-.028.203v.816h-.25v-1.513h.203l.03.277h.012q.034-.06.073-.115.04-.055.088-.096.05-.043.11-.068.06-.026.138-.026zM95.332 32.57l-.05-.21h-.012q-.045.062-.09.108-.046.044-.1.073-.054.029-.12.043-.066.013-.153.013-.095 0-.175-.027-.08-.026-.139-.082-.058-.056-.09-.14-.034-.086-.034-.201 0-.226.159-.348.16-.12.485-.132l.253-.01v-.095q0-.092-.02-.154t-.058-.1q-.038-.038-.094-.054-.055-.017-.127-.017-.114 0-.213.033-.098.033-.19.08l-.087-.189q.102-.055.227-.093.125-.039.263-.039.14 0 .243.03.103.027.17.089.067.06.1.155t.033.23v1.037zm-.46-.175q.084 0 .156-.026.071-.027.124-.079.052-.054.081-.134.03-.081.03-.19v-.136l-.197.01q-.124.005-.208.027-.084.022-.135.062-.05.039-.071.095-.022.055-.022.125 0 .127.066.186.067.06.176.06zM96.23 32.57h-.251v-1.513h.25zm-.27-1.923q0-.082.04-.12.043-.037.105-.037.03 0 .057.01.027.008.047.027.02.02.031.05.013.029.013.07 0 .08-.044.12-.043.039-.104.039-.062 0-.104-.039-.042-.038-.042-.12zM96.963 32.57h-.251v-2.144h.25zM97.696 32.57h-.251v-1.513h.25zm-.27-1.923q0-.082.04-.12.044-.037.106-.037.03 0 .056.01.028.008.047.027.02.02.032.05.012.029.012.07 0 .08-.044.12-.043.039-.103.039-.062 0-.105-.039-.041-.038-.041-.12zM99.123 32.57v-.975q0-.179-.073-.268-.071-.09-.226-.09-.111 0-.187.036t-.123.106q-.045.07-.066.172-.02.102-.02.235v.784h-.25v-1.513h.204l.036.204h.014q.034-.06.08-.102.049-.044.106-.073.056-.03.12-.043.063-.014.129-.014.252 0 .379.132.128.131.128.42v.989zM101.008 31.057v.155l-.271.038q.039.048.065.124.026.074.026.17 0 .104-.033.193-.032.089-.098.153-.065.065-.161.102-.097.036-.225.036h-.06q-.03-.001-.05-.005-.023.013-.047.031-.022.017-.041.039-.018.022-.03.05-.012.027-.012.06 0 .037.017.06.016.023.044.035.029.013.068.017.038.004.08.004h.243q.129 0 .217.033.088.032.143.087.057.055.081.13.025.075.025.16 0 .12-.045.217-.044.096-.137.163-.092.067-.234.103-.14.036-.332.036-.148 0-.258-.03-.11-.028-.183-.083-.073-.055-.11-.134-.036-.077-.036-.175 0-.083.026-.146.028-.062.073-.108.045-.045.105-.074.06-.029.125-.044-.058-.026-.095-.083-.037-.056-.037-.13 0-.083.044-.144.044-.062.14-.12-.06-.025-.11-.067-.048-.044-.082-.1-.033-.056-.053-.122-.018-.066-.018-.137 0-.122.035-.219.034-.096.102-.164.067-.067.168-.103.1-.036.234-.036.051 0 .105.008.055.007.092.02zm-1.117 1.76q0 .052.018.096.018.044.058.076.041.031.107.05.068.019.167.019.256 0 .383-.08.128-.079.128-.228 0-.063-.016-.103-.017-.04-.055-.063t-.1-.03q-.062-.01-.151-.01h-.243q-.048 0-.1.012-.053.01-.097.041-.043.03-.071.083-.028.054-.028.138zm.127-1.274q0 .159.074.236.074.077.21.077.139 0 .209-.076.072-.077.072-.241 0-.17-.073-.25-.072-.08-.21-.08-.136 0-.21.083-.072.083-.072.251zM102.72 31.03q.13 0 .236.049.106.05.18.149.076.097.117.243.042.147.042.34 0 .194-.042.341-.041.146-.117.245-.074.1-.18.15-.106.05-.236.05-.081 0-.147-.018-.067-.018-.12-.046-.053-.03-.094-.07-.04-.04-.072-.085h-.016l-.051.192h-.184v-2.144h.251v.621l-.005.1-.006.108h.011q.032-.048.072-.09.04-.04.092-.071.054-.03.12-.047.066-.018.149-.018zm-.048.207q-.11 0-.185.036-.073.034-.118.106-.044.072-.064.18-.018.107-.018.251 0 .14.018.248.02.108.064.182.045.073.12.112.074.037.186.037.186 0 .272-.15.089-.15.089-.431 0-.287-.089-.429-.086-.142-.275-.142zM103.94 32.57h-.25v-2.144h.25zM105.657 31.81q0 .19-.047.337-.046.146-.133.246-.085.1-.208.152-.122.052-.275.052-.142 0-.262-.052-.12-.052-.208-.152-.087-.1-.137-.246-.048-.148-.048-.337 0-.187.046-.332.047-.146.132-.245.085-.1.208-.152.124-.052.277-.052.142 0 .262.052.12.051.207.152.088.1.136.245.05.145.05.332zm-1.059 0q0 .288.094.435.095.144.307.144t.305-.144q.094-.147.094-.435 0-.288-.096-.43-.093-.143-.306-.143-.212 0-.305.144-.093.141-.093.43zM106.634 32.597q-.14 0-.26-.042-.122-.045-.212-.138-.09-.095-.14-.241-.051-.148-.051-.355 0-.216.052-.366.053-.152.143-.245.093-.095.215-.138.123-.043.264-.043.107 0 .21.024.102.023.171.057l-.074.213q-.032-.014-.07-.027-.039-.013-.08-.023-.042-.011-.082-.017-.04-.006-.075-.006-.217 0-.316.139-.1.138-.1.43 0 .29.1.426.1.133.305.133.111 0 .2-.025.092-.026.166-.06v.223q-.074.04-.16.06-.084.021-.206.021zM107.593 31.788l.186-.234.404-.497h.29l-.552.654.59.859h-.288l-.464-.695-.15.113v.582h-.248v-2.144h.248v.983l-.022.38zM109.259 31.797q0 .17-.025.336-.025.165-.077.321-.051.154-.13.296-.077.142-.184.266h-.235q.095-.13.168-.275.073-.146.123-.302t.074-.318q.025-.163.025-.327 0-.336-.099-.655-.1-.318-.293-.584h.237q.107.128.184.274.079.145.13.303.052.158.077.326.025.166.025.339z"/></g><g style="line-height:6.61458px;-inkscape-font-specification:'Droid Sans';text-align:start" font-weight="400" font-size="2.822" font-family="Droid Sans" letter-spacing="0" word-spacing="0" stroke-width=".265"><path d="M61.233 43.267q-.151 0-.277-.051-.125-.051-.216-.149-.09-.098-.14-.243-.049-.144-.049-.33 0-.188.046-.335.045-.148.128-.25.083-.103.197-.157.116-.053.255-.053.136 0 .245.05.109.047.185.137.076.088.116.214.04.124.04.275v.156h-.953q.007.266.112.391.106.126.314.126.07 0 .13-.007t.115-.02q.057-.013.11-.033.052-.02.105-.045v.223q-.055.026-.108.046-.053.019-.11.031-.054.013-.115.018-.06.006-.13.006zm-.062-1.36q-.157 0-.25.107-.09.108-.105.313h.678q0-.094-.02-.17-.017-.08-.057-.135-.039-.055-.1-.085-.06-.03-.146-.03zM62.468 42.463l-.486-.737h.285l.344.565.345-.565h.285l-.49.737.515.776h-.285l-.37-.6-.372.6h-.285zM64.136 43.267q-.14 0-.26-.043-.122-.044-.212-.138-.09-.095-.14-.24-.051-.148-.051-.355 0-.216.052-.367t.143-.245q.093-.095.215-.138.123-.042.264-.042.107 0 .209.023.103.023.172.058l-.074.212q-.032-.014-.07-.026-.039-.014-.08-.023-.042-.011-.082-.017-.04-.007-.075-.007-.217 0-.316.14-.1.137-.1.43 0 .29.1.425.1.134.304.134.112 0 .202-.025.09-.026.165-.06v.223q-.074.04-.16.06-.084.02-.207.02zM65.461 43.267q-.151 0-.277-.051-.125-.051-.216-.149-.09-.098-.14-.243-.049-.144-.049-.33 0-.188.046-.335.045-.148.128-.25.082-.103.197-.157.115-.053.255-.053.136 0 .245.05.109.047.185.137.075.088.115.214.042.124.042.275v.156h-.954q.007.266.112.391.106.126.314.126.07 0 .13-.007t.115-.02q.057-.013.11-.033.051-.02.105-.045v.223q-.055.026-.109.046-.052.019-.109.031-.055.013-.115.018-.06.006-.13.006zm-.062-1.36q-.157 0-.25.107-.09.108-.105.313h.678q0-.094-.02-.17-.018-.08-.058-.135-.038-.055-.099-.085-.06-.03-.146-.03zM67.057 43.267q-.081 0-.147-.018-.067-.018-.12-.047-.053-.03-.094-.07-.04-.04-.072-.084h-.016l.008.09.006.074.002.059v.646h-.25v-2.19h.203l.036.203h.011q.032-.048.072-.09.04-.042.092-.072.054-.032.12-.05.066-.02.149-.02.13 0 .236.05.106.05.18.15.076.097.117.243.042.146.042.339 0 .194-.042.342-.041.146-.117.245-.074.1-.18.15-.106.05-.236.05zm-.048-1.36q-.105 0-.178.031-.072.032-.117.097-.044.065-.066.161-.021.097-.024.227v.057q0 .14.018.248.02.107.064.182.045.073.12.112.074.037.185.037.187 0 .273-.15.089-.15.089-.432 0-.286-.089-.428-.087-.142-.275-.142zM68.485 43.061l.055-.002.06-.007q.03-.004.053-.01.025-.005.037-.01v.19q-.018.01-.046.017-.027.009-.06.014-.033.007-.07.01-.035.004-.07.004-.085 0-.158-.022t-.127-.076q-.052-.054-.082-.145-.03-.092-.03-.231v-.878h-.214v-.112l.213-.107.108-.317h.145v.347h.38v.189h-.38v.878q0 .133.042.2.044.068.144.068zM69.237 43.24h-.25v-1.514h.25zm-.27-1.923q0-.083.041-.12.043-.037.105-.037.03 0 .056.01.028.008.047.027.021.02.032.05.012.029.012.07 0 .08-.044.12-.042.038-.103.038-.062 0-.105-.038-.041-.039-.041-.12zM70.953 42.48q0 .189-.047.336-.046.146-.132.247-.086.1-.209.151-.122.053-.275.053-.142 0-.262-.053-.12-.052-.208-.151-.087-.1-.136-.247-.049-.147-.049-.336 0-.187.046-.332.047-.146.132-.245.085-.101.208-.152.124-.052.277-.052.142 0 .262.052.12.051.207.152.088.099.136.245.05.145.05.332zm-1.059 0q0 .288.094.434.095.145.307.145.213 0 .305-.145.094-.146.094-.434 0-.288-.095-.43-.094-.143-.306-.143-.213 0-.306.143-.093.142-.093.43zM72.296 43.24v-.975q0-.18-.073-.269-.071-.09-.226-.09-.111 0-.187.037-.076.035-.123.106-.045.07-.066.172-.02.102-.02.234v.784h-.25v-1.513h.204l.036.204h.013q.035-.06.082-.102.048-.044.105-.073.056-.029.12-.043.063-.013.129-.013.252 0 .379.132.128.13.128.42v.988zM73.921 42.824q0 .11-.04.193t-.116.14q-.074.055-.18.082-.106.028-.239.028-.15 0-.257-.025-.108-.023-.19-.07v-.229q.044.022.096.044.052.02.11.037.058.017.119.028.062.01.122.01.09 0 .152-.016.063-.015.102-.042.04-.03.058-.07.018-.04.018-.09 0-.043-.014-.077-.014-.035-.051-.068-.036-.034-.1-.069-.063-.034-.162-.077-.1-.043-.18-.084-.078-.041-.133-.092-.055-.051-.085-.118-.03-.067-.03-.16 0-.096.038-.17.039-.076.108-.127.068-.051.165-.077.096-.026.215-.026.134 0 .244.029.111.028.21.075l-.086.203q-.09-.04-.185-.069-.094-.03-.191-.03-.14 0-.208.047-.068.045-.068.13 0 .049.015.084.017.036.055.068.039.032.104.065.064.031.16.071.1.042.177.083.079.041.134.094.055.05.084.117.029.066.029.158zM74.252 43.086q0-.052.013-.088.014-.037.038-.06.023-.023.055-.032.032-.011.069-.011.036 0 .067.01.033.01.057.034.023.022.037.06.014.035.014.087 0 .051-.014.088-.014.036-.037.06-.024.023-.057.034-.031.011-.067.011-.037 0-.07-.01-.03-.012-.054-.035-.024-.024-.038-.06-.013-.037-.013-.088zm0-1.207q0-.054.013-.09.014-.037.038-.059.023-.023.055-.033.032-.01.069-.01.036 0 .067.01.033.01.057.033.023.022.037.06.014.035.014.09 0 .05-.014.086-.014.036-.037.06-.024.023-.057.034-.031.01-.067.01-.037 0-.07-.01-.03-.011-.054-.035-.024-.023-.038-.059-.013-.036-.013-.087zM76.054 43.24l-.517-1.514h.26l.274.842.036.117.04.146q.022.075.038.14.018.067.024.102h.01q.006-.035.023-.101.016-.066.037-.14l.041-.147q.02-.071.036-.117l.274-.842h.26l-.518 1.513zM77.98 43.24l-.05-.21h-.011q-.046.062-.091.107-.046.044-.1.073-.053.03-.12.043-.066.014-.152.014-.095 0-.175-.028-.08-.026-.14-.081-.057-.057-.09-.14-.034-.086-.034-.202 0-.226.159-.347.16-.121.485-.132l.254-.01v-.095q0-.092-.021-.154-.02-.062-.058-.1-.037-.038-.094-.055-.055-.016-.126-.016-.115 0-.214.033-.098.033-.189.08l-.088-.189q.102-.055.227-.094.126-.038.264-.038.14 0 .242.029.103.027.17.09.067.06.1.155t.033.23v1.036zm-.46-.176q.084 0 .156-.026t.124-.078q.053-.054.081-.134.03-.081.03-.19v-.137l-.196.01q-.124.005-.208.027-.084.022-.135.062-.05.039-.072.096-.022.055-.022.125 0 .127.066.186.068.06.176.06zM79.282 41.699q.04 0 .09.004.049.003.085.01l-.033.23-.08-.01q-.04-.006-.076-.006-.087 0-.159.036-.071.035-.124.1-.05.066-.08.158-.027.09-.027.202v.816h-.251v-1.513h.204l.03.277h.011q.035-.06.073-.114.04-.055.089-.097.05-.042.11-.067.06-.026.138-.026zM80.002 43.24h-.25v-1.514h.25zm-.27-1.923q0-.083.042-.12.042-.037.104-.037.03 0 .057.01.027.008.047.027.02.02.031.05.013.029.013.07 0 .08-.044.12-.043.038-.104.038-.062 0-.104-.038-.042-.039-.042-.12zM81.338 43.24l-.051-.21h-.011q-.046.062-.091.107-.046.044-.1.073-.053.03-.12.043-.066.014-.152.014-.096 0-.175-.028-.08-.026-.14-.081-.058-.057-.09-.14-.034-.086-.034-.202 0-.226.159-.347.16-.121.485-.132l.253-.01v-.095q0-.092-.02-.154t-.058-.1q-.037-.038-.094-.055-.055-.016-.127-.016-.114 0-.213.033-.098.033-.189.08l-.088-.189q.102-.055.227-.094.126-.038.263-.038.141 0 .243.029.103.027.17.09.067.06.1.155t.033.23v1.036zm-.46-.176q.083 0 .155-.026t.124-.078q.052-.054.081-.134.03-.081.03-.19v-.137l-.196.01q-.124.005-.208.027-.085.022-.135.062-.05.039-.072.096-.022.055-.022.125 0 .127.066.186.067.06.176.06zM82.667 41.699q.13 0 .236.05.106.049.18.148.076.098.118.244.041.146.041.339 0 .194-.041.342-.042.146-.117.245-.075.1-.18.15-.107.05-.237.05-.08 0-.147-.018-.066-.018-.12-.047-.052-.03-.094-.07-.04-.04-.071-.084h-.017l-.05.191h-.184v-2.144h.25v.622l-.005.1-.005.108h.01q.032-.049.072-.09.04-.041.093-.072.053-.03.12-.046.066-.018.148-.018zm-.048.208q-.11 0-.184.036-.074.034-.119.106-.044.071-.063.179-.018.107-.018.252 0 .14.018.248.019.107.063.182.045.073.12.112.074.037.186.037.186 0 .273-.15.088-.15.088-.432 0-.286-.088-.428-.087-.142-.276-.142zM83.888 43.24h-.25v-2.145h.25zM84.969 43.267q-.152 0-.277-.051-.126-.051-.217-.149-.09-.098-.139-.243-.05-.144-.05-.33 0-.188.046-.335.046-.148.128-.25.083-.103.197-.157.116-.053.255-.053.137 0 .246.05.108.047.184.137.076.088.116.214.041.124.041.275v.156h-.953q.007.266.111.391.106.126.314.126.07 0 .13-.007t.116-.02q.056-.013.109-.033.052-.02.106-.045v.223q-.055.026-.11.046-.051.019-.108.031-.055.013-.116.018-.059.006-.13.006zm-.062-1.36q-.157 0-.25.107-.09.108-.106.313h.678q0-.094-.02-.17-.017-.08-.057-.135-.039-.055-.1-.085-.06-.03-.145-.03zM87.298 41.699q.13 0 .235.05.106.049.18.148.077.098.118.244.041.146.041.339 0 .194-.041.342-.041.146-.117.245-.075.1-.18.15-.107.05-.236.05-.082 0-.148-.018-.066-.018-.12-.047-.052-.03-.093-.07-.04-.04-.072-.084h-.017l-.05.191h-.184v-2.144h.25v.622l-.005.1-.005.108h.01q.033-.049.073-.09.04-.041.092-.072.054-.03.12-.046.066-.018.149-.018zm-.049.208q-.11 0-.184.036-.073.034-.119.106-.044.071-.063.179-.018.107-.018.252 0 .14.018.248.02.107.063.182.046.073.12.112.075.037.186.037.186 0 .273-.15.088-.15.088-.432 0-.286-.088-.428-.087-.142-.276-.142zM88.042 41.726h.26l.297.845.038.116q.02.06.037.12.018.062.03.118.013.057.019.105h.008q.007-.035.022-.094l.033-.125.039-.133.035-.11.275-.842h.259l-.598 1.71q-.039.112-.084.2-.045.09-.104.152-.06.062-.139.095-.08.034-.19.034-.072 0-.124-.008-.053-.007-.09-.015v-.2q.03.007.073.011.044.006.093.006.066 0 .114-.017.048-.015.084-.046.036-.03.06-.074.027-.044.048-.1l.078-.221zM90.103 43.061l.055-.002.061-.007q.029-.004.052-.01.025-.005.038-.01v.19q-.018.01-.046.017-.027.009-.06.014-.034.007-.07.01-.035.004-.07.004-.085 0-.158-.022t-.127-.076q-.052-.054-.083-.145-.03-.092-.03-.231v-.878h-.213v-.112l.213-.107.108-.317h.144v.347h.38v.189h-.38v.878q0 .133.043.2.044.068.143.068zM91.203 43.267q-.152 0-.277-.051-.125-.051-.216-.149-.09-.098-.14-.243-.05-.144-.05-.33 0-.188.046-.335.046-.148.129-.25.082-.103.197-.157.115-.053.255-.053.136 0 .245.05.109.047.184.137.076.088.116.214.042.124.042.275v.156h-.954q.007.266.112.391.106.126.314.126.07 0 .13-.007t.115-.02q.057-.013.109-.033.052-.02.106-.045v.223q-.055.026-.109.046-.052.019-.109.031-.055.013-.115.018-.06.006-.13.006zm-.062-1.36q-.157 0-.25.107-.09.108-.106.313h.678q0-.094-.019-.17-.018-.08-.058-.135-.038-.055-.099-.085-.06-.03-.146-.03z"/></g><path d="M95.034 27.451q0-.092.024-.154.024-.065.065-.104.04-.041.096-.058.056-.02.121-.02.063 0 .118.02.058.017.099.058.041.038.065.104.024.062.024.154 0 .09-.024.154-.024.063-.065.104-.041.041-.099.06-.055.02-.118.02-.065 0-.12-.02-.056-.019-.097-.06-.041-.041-.065-.104-.024-.065-.024-.154zm1.324 0q0-.092.024-.154.024-.065.065-.104.04-.041.096-.058.056-.02.12-.02t.12.02q.057.017.098.058.041.038.065.104.024.062.024.154 0 .09-.024.154-.024.063-.065.104-.041.041-.099.06-.055.02-.118.02-.065 0-.12-.02-.056-.019-.097-.06-.041-.041-.065-.104-.024-.065-.024-.154zm1.324 0q0-.092.021-.154.024-.065.065-.104.044-.041.1-.058.055-.02.12-.02.063 0 .118.02.058.017.099.058.04.038.065.104.024.062.024.154 0 .09-.024.154-.024.063-.065.104-.041.041-.099.06-.055.02-.118.02-.13 0-.22-.08-.086-.08-.086-.258zM95.034 38.314q0-.092.024-.155.024-.065.065-.103.04-.041.096-.058.056-.02.121-.02.063 0 .118.02.058.017.099.058.041.038.065.103.024.063.024.155 0 .089-.024.154-.024.063-.065.104-.041.04-.099.06-.055.02-.118.02-.065 0-.12-.02-.056-.02-.097-.06-.041-.041-.065-.104-.024-.065-.024-.154zm1.324 0q0-.092.024-.155.024-.065.065-.103.04-.041.096-.058.056-.02.12-.02t.12.02q.057.017.098.058.041.038.065.103.024.063.024.155 0 .089-.024.154-.024.063-.065.104-.041.04-.099.06-.055.02-.118.02-.065 0-.12-.02-.056-.02-.097-.06-.041-.041-.065-.104-.024-.065-.024-.154zm1.324 0q0-.092.021-.155.024-.065.065-.103.044-.041.1-.058.055-.02.12-.02.063 0 .118.02.058.017.099.058.04.038.065.103.024.063.024.155 0 .089-.024.154-.024.063-.065.104-.041.04-.099.06-.055.02-.118.02-.13 0-.22-.08-.086-.08-.086-.258zM95.034 49.177q0-.092.024-.155.024-.065.065-.103.04-.041.096-.058.056-.02.121-.02.063 0 .118.02.058.017.099.058.041.038.065.103.024.063.024.155 0 .089-.024.154-.024.063-.065.104-.041.04-.099.06-.055.02-.118.02-.065 0-.12-.02-.056-.02-.097-.06-.041-.041-.065-.104-.024-.065-.024-.154zm1.324 0q0-.092.024-.155.024-.065.065-.103.04-.041.096-.058.056-.02.12-.02t.12.02q.057.017.098.058.041.038.065.103.024.063.024.155 0 .089-.024.154-.024.063-.065.104-.041.04-.099.06-.055.02-.118.02-.065 0-.12-.02-.056-.02-.097-.06-.041-.041-.065-.104-.024-.065-.024-.154zm1.324 0q0-.092.021-.155.024-.065.065-.103.044-.041.1-.058.055-.02.12-.02.063 0 .118.02.058.017.099.058.04.038.065.103.024.063.024.155 0 .089-.024.154-.024.063-.065.104-.041.04-.099.06-.055.02-.118.02-.13 0-.22-.08-.086-.08-.086-.258z" font-size="4.939" style="line-height:6.61458px;-inkscape-font-specification:'Droid Sans';text-align:start" font-weight="400" font-family="Droid Sans" letter-spacing="0" word-spacing="0" stroke-width=".265"/></svg>