<svg xmlns="http://www.w3.org/2000/svg" viewBox="0 0 154.33641 25.227312" height="95.347" width="583.319"><path fill="#fff" fill-rule="evenodd" stroke="#000" stroke-width=".34" d="M.17 1.058h33.679v6.56H.17z"/><g style="line-height:6.61458px;-inkscape-font-specification:'Droid Sans';text-align:start" font-weight="400" font-size="4.939" font-family="Droid Sans" letter-spacing="0" word-spacing="0" stroke-width=".265"><path d="M3.594 4.225q0 .427-.062.765-.06.337-.198.571-.135.234-.35.357-.215.123-.52.123-.285 0-.498-.123-.21-.123-.35-.357-.137-.234-.207-.571-.067-.338-.067-.765t.06-.764q.063-.338.195-.57.136-.233.348-.356.214-.123.518-.123.287 0 .5.123.212.12.352.354.14.232.21.57.07.337.07.766zm-1.806 0q0 .362.036.632t.116.451q.08.179.207.27.13.09.316.09t.316-.09q.13-.09.212-.268.085-.178.12-.448.04-.273.04-.637 0-.361-.04-.632-.035-.27-.12-.448-.082-.179-.212-.268-.13-.089-.316-.089-.185 0-.316.09-.127.088-.207.267-.08.178-.116.448-.036.27-.036.632zM7.597 4.225q0 .427-.062.765-.06.337-.198.571-.135.234-.35.357-.214.123-.52.123-.285 0-.497-.123-.21-.123-.35-.357-.137-.234-.207-.571-.068-.338-.068-.765t.06-.764q.063-.338.196-.57.135-.233.347-.356.215-.123.518-.123.287 0 .5.123.212.12.352.354.14.232.21.57.07.337.07.766zm-1.806 0q0 .362.036.632.037.27.116.451.08.179.208.27.13.09.315.09.186 0 .316-.09t.213-.268q.084-.178.12-.448.039-.273.039-.637 0-.361-.039-.632-.036-.27-.12-.448-.082-.179-.213-.268-.13-.089-.316-.089-.185 0-.315.09-.128.088-.208.267-.08.178-.116.448-.036.27-.036.632zM11.6 4.225q0 .427-.062.765-.06.337-.198.571-.135.234-.35.357-.214.123-.52.123-.285 0-.497-.123-.21-.123-.35-.357-.137-.234-.207-.571-.068-.338-.068-.765t.06-.764q.063-.338.196-.57.135-.233.347-.356.215-.123.519-.123.287 0 .499.123.212.12.352.354.14.232.21.57.07.337.07.766zm-1.806 0q0 .362.037.632.036.27.115.451.08.179.208.27.13.09.316.09.185 0 .316-.09.13-.09.212-.268.084-.178.12-.448.039-.273.039-.637 0-.361-.039-.632-.036-.27-.12-.448-.082-.179-.212-.268-.13-.089-.316-.089t-.316.09q-.128.088-.208.267-.08.178-.115.448-.037.27-.037.632zM15.604 4.225q0 .427-.063.765-.06.337-.198.571-.135.234-.35.357-.214.123-.52.123-.285 0-.497-.123-.21-.123-.35-.357-.137-.234-.207-.571-.068-.338-.068-.765t.06-.764q.063-.338.196-.57.135-.233.347-.356.215-.123.519-.123.287 0 .499.123.212.12.352.354.14.232.21.57.07.337.07.766zm-1.806 0q0 .362.036.632t.116.451q.08.179.207.27.13.09.316.09t.316-.09q.13-.09.212-.268.084-.178.12-.448.04-.273.04-.637 0-.361-.04-.632-.036-.27-.12-.448-.082-.179-.212-.268-.13-.089-.316-.089t-.316.09q-.128.088-.207.267-.08.178-.116.448-.036.27-.036.632zM19.607 4.225q0 .427-.063.765-.06.337-.197.571-.135.234-.35.357-.215.123-.521.123-.285 0-.497-.123-.21-.123-.35-.357-.137-.234-.207-.571-.067-.338-.067-.765t.06-.764q.063-.338.195-.57.135-.233.348-.356.214-.123.518-.123.287 0 .5.123.211.12.351.354.14.232.21.57.07.337.07.766zm-1.806 0q0 .362.036.632t.116.451q.08.179.207.27.13.09.316.09t.316-.09q.13-.09.212-.268.085-.178.12-.448.04-.273.04-.637 0-.361-.04-.632-.035-.27-.12-.448-.082-.179-.212-.268-.13-.089-.316-.089t-.316.09q-.128.088-.207.267-.08.178-.116.448-.036.27-.036.632zM23.61 4.225q0 .427-.062.765-.06.337-.198.571-.135.234-.35.357-.214.123-.52.123-.285 0-.498-.123-.21-.123-.35-.357-.137-.234-.207-.571-.067-.338-.067-.765t.06-.764q.063-.338.195-.57.136-.233.348-.356.214-.123.518-.123.287 0 .5.123.212.12.352.354.14.232.21.57.07.337.07.766zm-1.806 0q0 .362.036.632t.116.451q.08.179.207.27.13.09.316.09t.316-.09q.13-.09.212-.268.085-.178.12-.448.04-.273.04-.637 0-.361-.04-.632-.035-.27-.12-.448-.082-.179-.212-.268-.13-.089-.316-.089-.185 0-.316.09-.127.088-.207.267-.08.178-.116.448-.036.27-.036.632zM26.84 5.993h-.425V3.791 3.57l.005-.234q.005-.118.007-.224.005-.108.007-.19-.04.043-.072.074-.032.032-.065.06l-.068.063-.087.075-.357.292-.231-.297.924-.72h.361zM30.843 5.993h-.425V3.791 3.57l.005-.234q.005-.118.007-.224.005-.108.007-.19-.04.043-.072.074-.031.032-.065.06l-.068.063-.086.075-.357.292-.232-.297.924-.72h.362z"/></g><g style="line-height:6.61458px;-inkscape-font-specification:'Droid Sans';text-align:start" font-weight="400" font-size="2.822" font-family="Droid Sans" letter-spacing="0" word-spacing="0" opacity=".796" stroke-width=".265"><path d="M16.264 9.293q.13 0 .236.05.106.05.18.148.076.098.117.244.042.146.042.34 0 .194-.042.341-.04.146-.117.245-.074.1-.18.15-.106.05-.236.05-.081 0-.147-.018-.066-.018-.12-.047-.053-.03-.094-.07-.04-.04-.072-.084h-.016l-.051.192h-.183V8.689h.25v.519l-.001.103q-.001.054-.004.1l-.006.108h.011q.032-.048.072-.09.04-.04.092-.071.054-.03.12-.047.066-.018.15-.018zm-.048.208q-.11 0-.185.036-.073.034-.118.106-.044.072-.064.18-.018.107-.018.251 0 .14.018.248.02.108.064.182.045.073.12.112.074.037.186.037.186 0 .272-.15.089-.15.089-.431 0-.287-.089-.429-.086-.142-.275-.142zM17.485 10.834h-.25V9.32h.25zm-.27-1.923q0-.082.041-.12.043-.037.105-.037.03 0 .057.01.027.008.046.027.021.02.032.05.012.029.012.07 0 .08-.044.12-.042.039-.103.039-.062 0-.105-.039-.041-.038-.041-.12zM18.425 10.656q.025 0 .055-.003l.06-.007q.03-.004.053-.01.025-.005.037-.009v.19q-.018.008-.045.017-.028.008-.06.013-.034.007-.07.01-.036.004-.07.004-.086 0-.159-.022-.073-.022-.126-.076-.053-.053-.083-.144-.03-.093-.03-.232V9.51h-.214v-.111l.214-.108.107-.317h.145v.348h.38v.188h-.38v.878q0 .134.043.201.044.068.143.068zM20.809 10.834l-.232-.85-.013-.054-.017-.067-.018-.07-.016-.07-.04-.165h-.009l-.037.166q-.015.07-.033.142-.016.073-.032.124l-.237.844h-.29l-.388-1.513h.264l.18.804q.014.062.028.135l.026.144.022.133.015.102h.008l.018-.095.026-.127.03-.132q.016-.066.03-.111l.246-.853h.27l.237.853q.013.046.028.11.017.063.032.13.015.064.027.125.013.06.018.1h.009l.012-.095.022-.132.026-.146q.015-.076.03-.14l.19-.805h.256l-.392 1.513zM22.016 10.834h-.25V9.32h.25zm-.27-1.923q0-.082.041-.12.043-.037.105-.037.03 0 .057.01.027.008.046.027.021.02.032.05.012.029.012.07 0 .08-.044.12-.042.039-.103.039-.062 0-.105-.039-.041-.038-.041-.12zM23.433 10.631h-.011q-.03.047-.072.09-.04.041-.094.073-.052.031-.118.05-.066.017-.15.017-.127 0-.233-.05-.106-.049-.182-.147-.076-.1-.117-.245-.042-.146-.042-.34 0-.193.042-.34.041-.147.117-.246.076-.1.182-.149.106-.051.234-.051.081 0 .147.018.067.018.119.048.054.03.095.07.041.04.072.084h.016l-.008-.09-.006-.072-.002-.06v-.602h.25v2.145h-.202zm-.396.022q.105 0 .177-.032.073-.031.117-.096.045-.065.066-.161.022-.098.025-.228v-.056q0-.14-.02-.247-.018-.109-.063-.182-.044-.074-.119-.111-.074-.039-.186-.039-.186 0-.274.15-.087.15-.087.432 0 .288.087.43.088.14.277.14zM24.61 10.656q.024 0 .055-.003l.06-.007q.03-.004.053-.01l.037-.009v.19q-.018.008-.046.017-.027.008-.06.013-.033.007-.07.01-.035.004-.07.004-.085 0-.158-.022t-.127-.076q-.052-.053-.082-.144-.03-.093-.03-.232V9.51h-.214v-.111l.213-.108.108-.317h.144v.348h.38v.188h-.38v.878q0 .134.043.201.044.068.143.068zM26.056 10.834v-.975q0-.179-.073-.268-.071-.09-.226-.09-.111 0-.187.036t-.123.106q-.045.07-.066.172-.02.102-.02.235v.784h-.25V8.689h.25v.637l-.01.198h.014q.034-.059.081-.101.048-.045.105-.074.056-.028.12-.042.063-.014.13-.014.251 0 .378.132.128.131.128.42v.989z"/></g><path d="M8.697.2v8.126h23.75V.2zM7.447.2v8.126H.572V.2z" fill="none" stroke="red" stroke-width=".401"/><g style="line-height:6.61458px;-inkscape-font-specification:'Droid Sans';text-align:start" font-weight="400" font-size="2.822" font-family="Droid Sans" letter-spacing="0" word-spacing="0" opacity=".796" stroke-width=".265"><path d="M2.04 10.581l.054-.002.06-.007q.03-.004.053-.01.025-.005.037-.01v.19q-.017.009-.045.017-.028.009-.06.014-.034.007-.07.01-.035.004-.07.004-.085 0-.158-.022t-.127-.076q-.052-.054-.083-.145-.03-.092-.03-.231v-.878h-.214v-.112l.214-.107.107-.317h.145v.347h.38v.189h-.38v.878q0 .133.043.2.044.068.143.068zM2.315 9.246h.26l.296.845q.02.055.039.116.02.06.037.12.018.061.03.118.013.057.018.105h.009q.007-.035.022-.094l.033-.125.038-.133.036-.11.275-.842h.259l-.598 1.71q-.04.112-.085.2-.044.09-.103.152-.06.062-.14.095-.079.034-.19.034-.07 0-.123-.008-.053-.007-.09-.015v-.2q.03.007.073.011.044.005.093.005.066 0 .114-.016.048-.015.084-.046.036-.03.06-.074.027-.044.047-.1l.079-.221zM4.602 10.787q-.081 0-.147-.018-.066-.018-.12-.047-.052-.03-.094-.07-.04-.04-.071-.084h-.017l.008.09.006.074q.003.037.003.059v.646h-.251v-2.19h.204l.036.203h.01q.032-.048.072-.09.04-.042.093-.073.053-.031.12-.05.066-.018.148-.018.13 0 .236.05.106.049.18.148.076.098.118.244.04.146.04.339 0 .194-.04.342-.042.146-.118.245-.074.1-.18.15-.106.05-.236.05zm-.048-1.36q-.105 0-.178.031-.071.032-.117.097-.044.065-.066.161-.02.096-.023.227V10q0 .14.017.248.02.107.064.182.045.073.12.111.074.038.186.038.186 0 .273-.15.088-.15.088-.432 0-.286-.088-.428-.087-.142-.276-.142zM6.17 10.787q-.151 0-.277-.051-.125-.051-.216-.15-.09-.097-.139-.242-.05-.144-.05-.33 0-.188.046-.335.045-.148.128-.25.083-.103.197-.157.116-.053.255-.053.136 0 .245.05.11.047.185.137.076.088.116.214.041.124.041.275v.156h-.954q.007.266.112.391.106.126.314.126.07 0 .13-.007t.116-.02q.056-.013.108-.033.053-.02.106-.045v.223q-.055.026-.108.046-.053.019-.11.031-.054.013-.115.018-.06.006-.13.006zm-.062-1.36q-.157 0-.249.107-.09.108-.106.313h.678q0-.094-.02-.17-.017-.08-.057-.135-.039-.055-.1-.085-.06-.03-.146-.03z"/></g><g style="line-height:6.61458px;-inkscape-font-specification:'Droid Sans';text-align:start" font-weight="400" font-size="2.822" font-family="Droid Sans" letter-spacing="normal" word-spacing="normal" stroke-width=".265" white-space="normal"><path style="line-height:normal;font-variant-ligatures:normal;font-variant-position:normal;font-variant-caps:normal;font-variant-numeric:normal;font-variant-alternates:normal;font-variant-east-asian:normal;font-variation-settings:normal;text-indent:0;text-align:start;text-decoration-line:none;text-decoration-style:solid;text-decoration-color:#000;text-transform:none;text-orientation:mixed;shape-padding:0;shape-margin:0;inline-size:0" d="M44.475 24.638l-.517-1.514h.26l.273.842.036.118.041.146.038.14q.018.066.023.1h.01l.023-.1.037-.14.042-.146q.02-.072.036-.118l.274-.842h.259l-.517 1.514zM46.401 24.638l-.05-.21h-.012q-.045.062-.09.108-.046.044-.1.073-.054.029-.12.042-.066.014-.153.014-.095 0-.175-.027-.08-.027-.139-.082-.058-.056-.09-.14-.034-.086-.034-.202 0-.226.158-.347.16-.121.486-.132l.253-.01v-.095q0-.092-.02-.154t-.058-.1q-.038-.038-.094-.054-.055-.017-.127-.017-.114 0-.214.033-.097.033-.188.08l-.089-.189q.102-.055.228-.094.125-.038.263-.038.14 0 .243.029.103.027.17.09.067.06.1.155t.033.23v1.037zm-.46-.176q.084 0 .156-.026.071-.026.124-.078.052-.054.081-.134.03-.081.03-.19v-.136l-.197.01q-.124.005-.208.027-.084.022-.135.062-.05.038-.071.095-.023.055-.023.125 0 .127.067.186.067.06.176.06zM47.298 24.638h-.25v-2.145h.25zM48.76 24.638l-.037-.203h-.014q-.034.06-.082.103-.047.043-.104.072-.056.028-.12.041-.063.014-.129.014-.125 0-.22-.032-.096-.031-.159-.099-.063-.067-.096-.172-.032-.105-.032-.25v-.988h.25v.975q0 .179.074.268.073.09.226.09.111 0 .187-.036t.121-.105q.047-.07.067-.172.02-.102.02-.234v-.786h.251v1.514zM50.043 24.665q-.151 0-.277-.05-.125-.052-.216-.15-.09-.098-.14-.242-.049-.145-.049-.331 0-.187.046-.335.045-.147.128-.25.083-.103.197-.156.116-.054.255-.054.136 0 .245.05.11.048.185.137.076.088.116.214.041.124.041.275v.156h-.954q.007.266.112.392.106.125.314.125.07 0 .13-.007t.115-.02q.057-.013.11-.032.052-.021.105-.046v.223q-.055.027-.108.046-.053.02-.11.032-.054.012-.115.018-.06.005-.13.005zm-.062-1.36q-.157 0-.249.107-.091.108-.106.313h.678q0-.093-.02-.17-.017-.08-.057-.134-.039-.055-.1-.086-.06-.03-.146-.03zM51.861 24.223q0 .11-.04.193-.04.082-.116.139-.074.055-.18.083-.106.027-.239.027-.15 0-.257-.025-.108-.023-.19-.07v-.229q.044.022.096.044.052.021.11.038.058.016.119.027.062.01.122.01.09 0 .152-.015.063-.016.102-.043.04-.03.058-.07.018-.04.018-.09 0-.043-.014-.077-.014-.035-.051-.068-.036-.034-.1-.069-.063-.034-.162-.077t-.179-.084q-.079-.041-.134-.092-.055-.051-.085-.117-.029-.068-.029-.16 0-.097.037-.171.039-.076.108-.127.069-.05.165-.077.097-.026.215-.026.134 0 .244.029.112.029.21.076l-.086.202q-.09-.04-.185-.069-.093-.03-.191-.03-.14 0-.208.047-.068.045-.068.13 0 .049.015.085.017.036.055.067.039.032.104.065.065.032.161.072.1.041.176.082.079.042.134.094.055.051.084.117.03.066.03.159zM52.192 24.485q0-.053.014-.089.013-.037.037-.059.023-.023.055-.033.032-.011.069-.011.036 0 .067.011.033.01.057.033.023.022.037.06.014.035.014.088 0 .05-.014.088-.014.036-.037.059-.024.023-.057.034-.031.011-.067.011-.037 0-.07-.01-.03-.012-.054-.035-.024-.023-.037-.06-.014-.036-.014-.087zm0-1.208q0-.053.014-.09.013-.036.037-.058.023-.024.055-.034.032-.01.069-.01.036 0 .067.01.033.01.057.034.023.022.037.059.014.036.014.09 0 .05-.014.086-.014.036-.037.06-.024.023-.057.034-.031.01-.067.01-.037 0-.07-.01-.03-.011-.054-.035-.024-.023-.037-.059-.014-.036-.014-.087zM54.813 24.099q0 .133-.048.24-.047.104-.135.177-.089.073-.215.112-.127.037-.286.037-.153 0-.286-.025-.133-.023-.222-.07v-.245q.047.022.106.044.06.02.127.037.066.017.136.028.07.01.14.01.22 0 .325-.084.106-.082.106-.237 0-.074-.021-.13-.02-.054-.07-.1-.05-.047-.134-.09t-.212-.094q-.123-.049-.214-.105-.09-.058-.149-.13-.057-.071-.086-.162-.028-.091-.028-.207 0-.121.044-.216t.124-.16q.08-.066.19-.1.112-.035.246-.035.164 0 .294.032.131.03.233.078l-.092.215q-.09-.04-.204-.069-.113-.03-.234-.03-.168 0-.26.078-.093.078-.093.21 0 .078.02.136.021.057.07.104.048.045.126.086.08.04.196.086.125.05.22.102.094.052.158.118.063.067.095.153.033.087.033.206zM55.787 24.638h-.73v-.141l.237-.057v-1.62l-.237-.057v-.14h.73v.14l-.237.057v1.62l.237.057zM57.01 24.638l-.611-1.764h-.011l.014.202q.005.087.008.183.004.096.004.174v1.205h-.237v-2.015h.38l.568 1.642h.008l.571-1.642h.38v2.015h-.256v-1.223q0-.071.003-.164l.007-.176.01-.199h-.012l-.616 1.762zM60.12 23.61q0 .256-.066.449-.067.191-.192.32t-.309.194q-.182.065-.413.065h-.504v-2.015h.56q.211 0 .382.063.171.064.29.189.12.124.186.309.066.184.066.427zm-.272.01q0-.202-.045-.348-.046-.148-.133-.243-.086-.095-.213-.14-.127-.047-.288-.047h-.277v1.575h.223q.364 0 .549-.201.184-.201.184-.597zM61.947 23.097q.13 0 .236.05.106.05.18.148.076.098.117.244.042.146.042.34 0 .194-.042.341-.041.146-.117.245-.074.1-.18.15-.107.05-.236.05-.081 0-.147-.018-.067-.018-.12-.047-.053-.03-.094-.07-.04-.04-.072-.084h-.016l-.051.192h-.184v-2.145h.251v.518l-.001.104-.004.1-.006.108h.011q.032-.048.072-.09.04-.041.092-.071.054-.03.12-.047.066-.018.149-.018zm-.048.208q-.11 0-.185.036-.073.034-.118.106t-.064.179q-.018.108-.018.252 0 .14.018.248.02.108.064.182.045.073.12.112.074.037.185.037.187 0 .273-.15.089-.15.089-.432 0-.286-.089-.428-.086-.142-.275-.142zM63.168 24.638h-.25v-1.514h.25zm-.27-1.923q0-.083.041-.12.043-.037.105-.037.03 0 .056.01.028.008.047.027.02.02.032.05.012.029.012.07 0 .08-.044.12-.043.039-.103.039-.062 0-.105-.039-.041-.039-.041-.12zM64.108 24.46q.025 0 .055-.003l.06-.007q.03-.004.053-.01.025-.005.037-.01v.191q-.018.008-.045.017-.028.008-.061.013-.033.007-.069.01-.036.004-.07.004-.086 0-.159-.022-.073-.022-.126-.076-.053-.054-.083-.145-.03-.092-.03-.231v-.878h-.214v-.111l.214-.108.107-.317h.145v.347h.38v.19h-.38v.877q0 .134.042.201.045.068.144.068zM65.293 24.665q-.081 0-.148-.018-.066-.018-.12-.047-.052-.03-.093-.07-.04-.04-.072-.084h-.016l.008.09.005.074q.003.037.003.06v.646h-.25v-2.192h.203l.036.204h.011q.032-.048.072-.09.04-.042.092-.072.054-.032.12-.05.066-.02.149-.02.13 0 .235.05.107.05.181.15.076.097.117.243.041.146.041.34 0 .194-.04.341-.042.146-.118.245-.074.1-.18.15-.107.05-.236.05zm-.048-1.36q-.105 0-.178.032-.072.031-.117.096-.044.065-.066.161-.021.097-.024.228v.056q0 .14.018.248.02.108.063.182.046.073.12.112.075.037.186.037.186 0 .273-.15.088-.15.088-.432 0-.286-.088-.428-.087-.142-.275-.142zM67.116 24.638l-.051-.21h-.011q-.046.062-.091.108-.045.044-.1.073-.053.029-.12.042-.065.014-.152.014-.095 0-.175-.027-.08-.027-.14-.082-.057-.056-.09-.14-.033-.086-.033-.202 0-.226.158-.347.16-.121.485-.132l.254-.01v-.095q0-.092-.02-.154t-.059-.1q-.037-.038-.093-.054-.056-.017-.127-.017-.115 0-.214.033-.098.033-.189.08l-.088-.189q.102-.055.228-.094.125-.038.263-.038.14 0 .242.029.104.027.17.09.067.06.1.155.034.095.034.23v1.037zm-.46-.176q.084 0 .155-.026.072-.026.124-.078.053-.054.082-.134.03-.081.03-.19v-.136l-.197.01q-.124.005-.208.027-.084.022-.135.062-.05.038-.072.095-.022.055-.022.125 0 .127.066.186.068.06.177.06zM68.341 24.665q-.14 0-.26-.043-.122-.044-.211-.137-.09-.096-.14-.242-.052-.147-.052-.354 0-.216.053-.366.052-.152.143-.246.092-.095.215-.137.123-.043.263-.043.108 0 .21.023.103.024.172.058l-.075.212q-.031-.013-.07-.026-.038-.014-.08-.023-.041-.011-.081-.017-.04-.007-.076-.007-.216 0-.315.14-.1.137-.1.43 0 .29.1.425.1.134.304.134.112 0 .201-.025.091-.026.166-.06v.223q-.075.04-.16.06-.084.021-.207.021zM69.3 23.856l.186-.234.404-.498h.29l-.552.655.59.859h-.288l-.463-.695-.15.113v.582h-.248v-2.145h.248v.984l-.022.38zM70.72 24.638h-.251v-1.514h.25zm-.27-1.923q0-.083.04-.12.044-.037.106-.037.03 0 .056.01.028.008.047.027.02.02.032.05.012.029.012.07 0 .08-.044.12-.043.039-.103.039-.062 0-.105-.039-.042-.039-.042-.12zM72.147 24.638v-.975q0-.179-.073-.268-.071-.09-.226-.09-.111 0-.187.036t-.123.106q-.045.07-.066.172-.02.102-.02.234v.785h-.25v-1.514h.204l.036.204h.013q.035-.059.082-.102.048-.044.104-.073.057-.029.12-.042.064-.014.13-.014.252 0 .379.132.128.131.128.42v.989zM74.032 23.124v.156l-.271.037q.038.049.065.124.026.075.026.17 0 .105-.033.194-.032.088-.098.153-.065.065-.161.102-.097.036-.225.036h-.06q-.03-.001-.05-.006-.024.014-.047.032-.022.017-.041.039-.018.022-.03.05-.012.027-.012.06 0 .037.017.06.016.023.044.035.029.012.067.017.04.004.082.004h.242q.128 0 .217.033.088.031.143.087.056.055.081.13.025.075.025.159 0 .121-.045.218-.044.096-.137.162-.092.068-.234.104-.14.035-.332.035-.148 0-.258-.028-.11-.03-.183-.085-.073-.055-.11-.133-.036-.077-.036-.175 0-.083.026-.146.028-.062.073-.108.045-.045.105-.074.06-.03.125-.044-.058-.026-.095-.083-.037-.056-.037-.13 0-.084.044-.144.044-.062.14-.12-.06-.025-.11-.068-.048-.044-.082-.099-.033-.056-.053-.122-.018-.067-.018-.137 0-.123.035-.219.034-.096.102-.164.067-.067.168-.103.1-.036.234-.036.051 0 .105.008.055.007.092.02zm-1.117 1.762q0 .05.018.095.018.044.058.075.04.032.107.05.068.02.167.02.256 0 .383-.08.128-.08.128-.228 0-.063-.016-.103-.017-.04-.056-.064-.037-.022-.099-.03-.062-.008-.151-.008h-.243q-.048 0-.1.01-.053.012-.097.042-.043.03-.072.083-.027.053-.027.138zm.127-1.275q0 .158.074.236.074.077.21.077.139 0 .209-.076.072-.077.072-.241 0-.17-.073-.25-.072-.08-.21-.08-.136 0-.21.083-.072.083-.072.25zM76.294 23.878q0 .189-.047.336-.046.147-.132.247-.086.1-.208.152-.123.052-.276.052-.142 0-.262-.052-.12-.053-.208-.152-.087-.1-.136-.247-.049-.147-.049-.336 0-.187.046-.332.047-.146.132-.245.086-.1.208-.152.124-.052.277-.052.142 0 .262.052.12.051.207.152.088.099.136.245.05.145.05.332zm-1.059 0q0 .288.094.434.095.145.307.145.213 0 .305-.145.094-.146.094-.434 0-.288-.095-.43-.094-.143-.306-.143-.213 0-.306.143-.093.142-.093.43zM77.347 23.097q.04 0 .09.004.049.003.085.01l-.033.231q-.04-.007-.08-.011-.04-.005-.076-.005-.087 0-.159.035-.071.035-.124.101-.05.065-.08.157-.027.091-.027.203v.815h-.251v-1.513h.204l.03.277h.011q.035-.059.073-.114.04-.055.089-.097.05-.042.11-.067.06-.026.138-.026zM79.233 23.097q.13 0 .236.05.106.05.18.148.076.098.117.244.042.146.042.34 0 .194-.042.341-.04.146-.117.245-.074.1-.18.15-.106.05-.236.05-.081 0-.147-.018-.066-.018-.12-.047-.053-.03-.094-.07-.04-.04-.072-.084h-.016l-.051.192h-.183v-2.145h.25v.518l-.001.104q-.001.054-.004.1l-.006.108h.011q.032-.048.072-.09.04-.041.092-.071.054-.03.12-.047.066-.018.15-.018zm-.048.208q-.11 0-.185.036-.073.034-.118.106-.044.072-.064.179-.018.108-.018.252 0 .14.018.248.02.108.064.182.045.073.12.112.074.037.186.037.186 0 .272-.15.089-.15.089-.432 0-.286-.089-.428-.086-.142-.275-.142zM80.454 24.638h-.25v-1.514h.25zm-.27-1.923q0-.083.041-.12.043-.037.105-.037.03 0 .057.01.027.008.046.027.021.02.032.05.012.029.012.07 0 .08-.044.12-.042.039-.103.039-.062 0-.105-.039-.041-.039-.041-.12zM81.394 24.46q.025 0 .055-.003l.06-.007q.03-.004.053-.01.025-.005.037-.01v.191q-.018.008-.045.017-.028.008-.06.013-.034.007-.07.01-.036.004-.07.004-.086 0-.159-.022-.073-.022-.126-.076-.053-.054-.083-.145-.03-.092-.03-.231v-.878h-.214v-.111l.214-.108.107-.317h.145v.347h.38v.19h-.38v.877q0 .134.043.201.044.068.143.068zM82.579 24.665q-.081 0-.147-.018-.067-.018-.12-.047-.053-.03-.094-.07-.04-.04-.072-.084h-.016l.008.09.006.074.002.06v.646h-.25v-2.192h.203l.036.204h.011q.032-.048.072-.09.04-.042.092-.072.054-.032.12-.05.066-.02.149-.02.13 0 .236.05.106.05.18.15.076.097.117.243.042.146.042.34 0 .194-.042.341-.041.146-.117.245-.074.1-.18.15-.106.05-.236.05zm-.048-1.36q-.105 0-.178.032-.072.031-.117.096-.044.065-.066.161-.021.097-.024.228v.056q0 .14.018.248.02.108.064.182.045.073.12.112.074.037.186.037.186 0 .272-.15.089-.15.089-.432 0-.286-.089-.428-.086-.142-.275-.142zM84.402 24.638l-.05-.21h-.012q-.045.062-.09.108-.046.044-.1.073-.054.029-.12.042-.066.014-.153.014-.095 0-.175-.027-.08-.027-.14-.082-.057-.056-.09-.14-.033-.086-.033-.202 0-.226.158-.347.16-.121.485-.132l.254-.01v-.095q0-.092-.02-.154t-.059-.1q-.037-.038-.093-.054-.055-.017-.127-.017-.114 0-.214.033-.097.033-.188.08l-.089-.189q.102-.055.228-.094.125-.038.263-.038.14 0 .243.029.103.027.169.09.068.06.1.155.034.095.034.23v1.037zm-.46-.176q.084 0 .156-.026.071-.026.124-.078.052-.054.08-.134.031-.081.031-.19v-.136l-.197.01q-.124.005-.208.027-.084.022-.135.062-.05.038-.072.095-.022.055-.022.125 0 .127.067.186.067.06.176.06zM85.627 24.665q-.139 0-.26-.043-.121-.044-.211-.137-.09-.096-.14-.242-.052-.147-.052-.354 0-.216.053-.366.052-.152.143-.246.092-.095.215-.137.123-.043.263-.043.108 0 .21.023.103.024.172.058l-.074.212q-.032-.013-.07-.026-.04-.014-.08-.023-.042-.011-.082-.017-.04-.007-.076-.007-.216 0-.315.14-.1.137-.1.43 0 .29.1.425.1.134.304.134.112 0 .201-.025.091-.026.166-.06v.223q-.075.04-.16.06-.084.021-.207.021zM86.586 23.856l.186-.234.404-.498h.29l-.552.655.59.859h-.288l-.463-.695-.15.113v.582h-.248v-2.145h.248v.984l-.022.38zM88.006 24.638h-.251v-1.514h.25zm-.27-1.923q0-.083.041-.12.043-.037.105-.037.03 0 .056.01.028.008.047.027.02.02.032.05.012.029.012.07 0 .08-.044.12-.043.039-.103.039-.062 0-.105-.039-.041-.039-.041-.12zM89.433 24.638v-.975q0-.179-.073-.268-.071-.09-.226-.09-.111 0-.187.036t-.123.106q-.045.07-.066.172-.02.102-.02.234v.785h-.25v-1.514h.204l.036.204h.014q.034-.059.08-.102.05-.044.106-.073.056-.029.12-.042.063-.014.13-.014.251 0 .378.132.128.131.128.42v.989zM91.319 23.124v.156l-.272.037q.039.049.065.124.026.075.026.17 0 .105-.033.194-.032.088-.098.153-.065.065-.161.102-.097.036-.225.036h-.06q-.03-.001-.05-.006-.023.014-.047.032-.022.017-.041.039-.018.022-.03.05-.012.027-.012.06 0 .037.017.06t.044.035q.03.012.068.017.038.004.081.004h.242q.129 0 .217.033.088.031.143.087.057.055.081.13.025.075.025.159 0 .121-.045.218-.044.096-.137.162-.092.068-.234.104-.14.035-.332.035-.147 0-.258-.028-.11-.03-.183-.085-.073-.055-.11-.133-.036-.077-.036-.175 0-.083.026-.146.028-.062.073-.108.046-.045.105-.074.06-.03.125-.044-.058-.026-.095-.083-.037-.056-.037-.13 0-.084.044-.144.044-.062.14-.12-.06-.025-.11-.068-.048-.044-.082-.099-.033-.056-.053-.122-.018-.067-.018-.137 0-.123.035-.219.034-.096.102-.164.067-.067.168-.103.1-.036.234-.036.051 0 .105.008.055.007.092.02zM90.2 24.886q0 .05.018.095.018.044.058.075.041.032.107.05.068.02.167.02.256 0 .383-.08.128-.08.128-.228 0-.063-.016-.103-.017-.04-.055-.064-.038-.022-.1-.03-.062-.008-.151-.008h-.243q-.048 0-.1.01-.053.012-.097.042-.043.03-.071.083-.028.053-.028.138zm.127-1.275q0 .158.074.236.075.077.211.077.138 0 .208-.076.072-.077.072-.241 0-.17-.073-.25-.072-.08-.21-.08-.136 0-.21.083-.072.083-.072.25zM92.22 23.864q0-.172.025-.339.024-.168.075-.325.051-.158.129-.303.078-.146.186-.274h.237q-.193.266-.294.584-.1.318-.1.655 0 .164.026.326.026.163.074.319.05.155.123.301t.168.276h-.234q-.108-.124-.186-.266-.078-.142-.129-.296-.05-.156-.075-.321-.025-.166-.025-.337zM93.653 24.46q.025 0 .055-.003l.06-.007q.03-.004.053-.01.025-.005.037-.01v.191q-.018.008-.045.017-.028.008-.06.013-.034.007-.07.01-.036.004-.07.004-.085 0-.158-.022-.074-.022-.127-.076-.053-.054-.083-.145-.03-.092-.03-.231v-.878H93v-.111l.214-.108.107-.317h.145v.347h.38v.19h-.38v.877q0 .134.043.201.044.068.143.068zM94.81 23.097q.04 0 .089.004.05.003.085.01l-.033.231q-.039-.007-.08-.011-.04-.005-.076-.005-.086 0-.158.035-.072.035-.124.101-.051.065-.08.157-.028.091-.028.203v.815h-.25v-1.513h.203l.03.277h.012q.034-.059.073-.114.04-.055.088-.097.05-.042.11-.067.061-.026.138-.026zM96.104 24.638l-.05-.21h-.012q-.045.062-.09.108-.046.044-.1.073-.053.029-.12.042-.066.014-.153.014-.095 0-.175-.027-.08-.027-.139-.082-.058-.056-.09-.14-.034-.086-.034-.202 0-.226.159-.347.16-.121.485-.132l.253-.01v-.095q0-.092-.02-.154t-.058-.1q-.037-.038-.094-.054-.055-.017-.127-.017-.114 0-.213.033-.098.033-.19.08l-.087-.189q.102-.055.227-.094.125-.038.263-.038.14 0 .243.029.103.027.17.09.067.06.1.155t.033.23v1.037zm-.46-.176q.084 0 .156-.026t.124-.078q.052-.054.081-.134.03-.081.03-.19v-.136l-.196.01q-.125.005-.209.027-.084.022-.135.062-.05.038-.071.095-.022.055-.022.125 0 .127.066.186.067.06.176.06zM97.002 24.638h-.251v-1.514H97zm-.27-1.923q0-.083.04-.12.044-.037.106-.037.03 0 .056.01.028.008.047.027.02.02.032.05.012.029.012.07 0 .08-.044.12-.043.039-.103.039-.062 0-.105-.039-.042-.039-.042-.12zM97.735 24.638h-.251v-2.145h.25zM98.468 24.638h-.251v-1.514h.25zm-.27-1.923q0-.083.041-.12.043-.037.105-.037.03 0 .056.01.028.008.047.027.02.02.032.05.012.029.012.07 0 .08-.044.12-.043.039-.103.039-.062 0-.105-.039-.041-.039-.041-.12zM99.895 24.638v-.975q0-.179-.073-.268-.071-.09-.226-.09-.111 0-.187.036t-.123.106q-.045.07-.066.172-.02.102-.02.234v.785h-.25v-1.514h.204l.036.204h.014q.034-.059.081-.102.048-.044.105-.073.056-.029.12-.042.063-.014.13-.014.251 0 .378.132.128.131.128.42v.989zM101.78 23.124v.156l-.27.037q.038.049.064.124.026.075.026.17 0 .105-.033.194-.032.088-.098.153-.065.065-.161.102-.096.036-.225.036h-.06q-.03-.001-.05-.006-.023.014-.047.032-.022.017-.041.039-.018.022-.03.05-.011.027-.011.06 0 .037.016.06.017.023.044.035.03.012.068.017.038.004.081.004h.243q.128 0 .216.033.088.031.143.087.057.055.082.13.024.075.024.159 0 .121-.045.218-.044.096-.137.162-.092.068-.234.104-.14.035-.332.035-.147 0-.258-.028-.11-.03-.183-.085-.073-.055-.11-.133-.036-.077-.036-.175 0-.083.026-.146.028-.062.073-.108.046-.045.105-.074.06-.03.125-.044-.057-.026-.095-.083-.037-.056-.037-.13 0-.084.044-.144.044-.062.14-.12-.06-.025-.11-.068-.048-.044-.082-.099-.033-.056-.053-.122-.017-.067-.017-.137 0-.123.034-.219.035-.096.102-.164.068-.067.168-.103.1-.036.234-.036.051 0 .105.008.055.007.092.02zm-1.117 1.762q0 .05.018.095.018.044.058.075.041.032.107.05.068.02.167.02.256 0 .383-.08.128-.08.128-.228 0-.063-.016-.103-.017-.04-.055-.064-.037-.022-.1-.03-.061-.008-.151-.008h-.243q-.048 0-.1.01-.053.012-.097.042-.042.03-.071.083-.028.053-.028.138zm.127-1.275q0 .158.074.236.075.077.211.077.138 0 .208-.076.072-.077.072-.241 0-.17-.073-.25-.072-.08-.21-.08-.136 0-.21.083-.072.083-.072.25zM103.492 23.097q.13 0 .236.05.106.05.18.148.076.098.117.244.042.146.042.34 0 .194-.042.341-.04.146-.117.245-.074.1-.18.15-.106.05-.236.05-.081 0-.147-.018-.066-.018-.12-.047-.053-.03-.094-.07-.04-.04-.072-.084h-.016l-.051.192h-.183v-2.145h.25v.622l-.005.1-.006.108h.011q.032-.048.072-.09.04-.041.092-.071.054-.03.12-.047.066-.018.15-.018zm-.048.208q-.11 0-.185.036-.073.034-.118.106-.044.072-.064.179-.017.108-.017.252 0 .14.017.248.02.108.064.182.045.073.12.112.074.037.186.037.186 0 .273-.15.088-.15.088-.432 0-.286-.088-.428-.087-.142-.276-.142zM104.713 24.638h-.25v-2.145h.25zM106.429 23.878q0 .189-.047.336-.046.147-.132.247-.086.1-.209.152-.122.052-.275.052-.142 0-.262-.052-.12-.053-.208-.152-.087-.1-.136-.247-.049-.147-.049-.336 0-.187.046-.332.047-.146.132-.245.086-.1.208-.152.124-.052.277-.052.142 0 .262.052.12.051.207.152.088.099.136.245.05.145.05.332zm-1.059 0q0 .288.094.434.095.145.307.145.213 0 .305-.145.094-.146.094-.434 0-.288-.095-.43-.094-.143-.306-.143-.213 0-.306.143-.093.142-.093.43zM107.406 24.665q-.14 0-.26-.043-.122-.044-.211-.137-.09-.096-.141-.242-.051-.147-.051-.354 0-.216.052-.366.053-.152.144-.246.092-.095.215-.137.122-.043.263-.043.107 0 .21.023.103.024.172.058l-.075.212q-.032-.013-.07-.026-.039-.014-.08-.023-.041-.011-.081-.017-.04-.007-.076-.007-.216 0-.316.14-.099.137-.099.43 0 .29.1.425.1.134.304.134.111 0 .201-.025.091-.026.165-.06v.223q-.074.04-.16.06-.084.021-.206.021zM108.365 23.856l.186-.234.404-.498h.29l-.552.655.59.859h-.288l-.463-.695-.15.113v.582h-.249v-2.145h.248v.984l-.022.38zM110.031 23.864q0 .171-.025.337-.025.165-.077.32-.051.155-.13.297-.077.142-.184.266h-.234q.095-.13.168-.276.073-.146.122-.301.05-.156.075-.319.024-.162.024-.326 0-.337-.099-.655t-.293-.584h.237q.107.128.184.274.079.145.13.303.052.157.077.325.025.167.025.34z"/></g><path d="M95.764 18.107q0-.091.024-.154.024-.065.065-.104.04-.04.096-.057.056-.02.12-.02.063 0 .119.02.058.016.099.057.04.039.065.104.024.063.024.154 0 .09-.024.155-.024.063-.065.104-.041.04-.1.06-.055.02-.117.02-.065 0-.12-.02-.056-.02-.097-.06-.041-.041-.065-.104-.024-.065-.024-.155zm1.323 0q0-.091.025-.154.024-.065.065-.104.04-.04.096-.057.056-.02.12-.02.063 0 .119.02.058.016.099.057.04.039.065.104.024.063.024.154 0 .09-.024.155-.024.063-.065.104-.041.04-.1.06-.055.02-.117.02-.065 0-.12-.02-.056-.02-.097-.06-.041-.041-.065-.104-.025-.065-.025-.155zm1.324 0q0-.091.022-.154.024-.065.065-.104.044-.04.1-.057.055-.02.12-.02.062 0 .118.02.058.016.099.057.04.039.065.104.024.063.024.154 0 .09-.024.155-.024.063-.065.104-.041.04-.1.06-.055.02-.117.02-.13 0-.22-.08-.087-.08-.087-.259z" font-size="4.939" style="line-height:6.61458px;-inkscape-font-specification:'Droid Sans';text-align:start" font-weight="400" font-family="Droid Sans" letter-spacing="0" word-spacing="0" stroke-width=".265"/><path fill="#fff" fill-rule="evenodd" stroke="#000" stroke-width=".34" d="M40.762 13.44h33.679V20H40.762zM120.488 13.44h33.679V20h-33.679zM.9 13.44h33.679V20H.9z"/><g style="line-height:6.61458px;-inkscape-font-specification:'Droid Sans';text-align:start" font-weight="400" font-size="4.939" font-family="Droid Sans" letter-spacing="0" word-spacing="0" stroke-width=".265"><path d="M4.324 16.607q0 .427-.063.765-.06.338-.197.572-.135.233-.35.356-.215.123-.521.123-.285 0-.497-.123-.21-.123-.35-.356-.137-.234-.207-.572-.067-.338-.067-.765 0-.426.06-.764.063-.338.195-.57.135-.233.348-.356.214-.123.518-.123.287 0 .5.123.211.12.351.354.14.232.21.57.07.337.07.766zm-1.806 0q0 .362.036.632t.116.451q.08.179.207.27.13.09.316.09t.316-.09q.13-.089.212-.267.085-.179.12-.449.04-.272.04-.637 0-.361-.04-.631-.035-.27-.12-.449-.082-.178-.212-.268-.13-.089-.316-.089t-.316.09q-.128.089-.207.267-.08.179-.116.449-.036.27-.036.631zM8.327 16.607q0 .427-.062.765-.06.338-.198.572-.135.233-.35.356-.214.123-.52.123-.285 0-.498-.123-.21-.123-.35-.356-.137-.234-.207-.572-.067-.338-.067-.765 0-.426.06-.764.063-.338.195-.57.136-.233.348-.356.214-.123.518-.123.287 0 .5.123.212.12.352.354.14.232.21.57.07.337.07.766zm-1.806 0q0 .362.036.632t.116.451q.08.179.207.27.13.09.316.09t.316-.09q.13-.089.212-.267.085-.179.121-.449.039-.272.039-.637 0-.361-.039-.631-.036-.27-.12-.449-.083-.178-.213-.268-.13-.089-.316-.089-.185 0-.316.09-.127.089-.207.267-.08.179-.116.449-.036.27-.036.631zM11.556 18.375h-.424v-2.202-.221l.005-.234q.005-.119.007-.225.005-.108.007-.19l-.072.075-.065.06-.068.063-.087.074-.357.292-.231-.296.924-.722h.361zM15.56 18.375h-.425v-2.202-.221l.005-.234q.005-.119.007-.225.005-.108.007-.19l-.072.075q-.031.03-.065.06l-.068.063-.086.074-.357.292-.232-.296.924-.722h.361zM20.337 16.607q0 .427-.063.765-.06.338-.198.572-.135.233-.35.356-.214.123-.52.123-.285 0-.497-.123-.21-.123-.35-.356-.137-.234-.207-.572-.068-.338-.068-.765 0-.426.06-.764.063-.338.196-.57.135-.233.347-.356.215-.123.519-.123.287 0 .5.123.211.12.351.354.14.232.21.57.07.337.07.766zm-1.806 0q0 .362.036.632t.116.451q.08.179.207.27.13.09.316.09t.316-.09q.13-.089.212-.267.084-.179.12-.449.04-.272.04-.637 0-.361-.04-.631-.036-.27-.12-.449-.082-.178-.212-.268-.13-.089-.316-.089t-.316.09q-.128.089-.207.267-.08.179-.116.449-.036.27-.036.631zM23.566 18.375h-.424v-2.202-.221l.004-.234.008-.225.007-.19-.073.075q-.03.03-.065.06l-.067.063-.087.074-.357.292-.231-.296.923-.722h.362zM27.57 18.375h-.425v-2.202-.221l.005-.234.007-.225q.005-.108.007-.19l-.072.075-.065.06-.068.063-.087.074-.357.292-.231-.296.923-.722h.362zM32.347 16.607q0 .427-.063.765-.06.338-.198.572-.135.233-.35.356-.214.123-.52.123-.285 0-.497-.123-.21-.123-.35-.356-.137-.234-.207-.572-.068-.338-.068-.765 0-.426.06-.764.063-.338.196-.57.135-.233.347-.356.215-.123.519-.123.286 0 .499.123.212.12.352.354.14.232.21.57.07.337.07.766zm-1.807 0q0 .362.036.632.037.27.116.451.08.179.208.27.13.09.315.09.186 0 .316-.09.13-.089.213-.267.084-.179.12-.449.039-.272.039-.637 0-.361-.039-.631-.036-.27-.12-.449-.082-.178-.213-.268-.13-.089-.316-.089-.185 0-.315.09-.128.089-.208.267-.08.179-.116.449-.036.27-.036.631z"/></g><g style="line-height:6.61458px;-inkscape-font-specification:'Droid Sans';text-align:start" font-weight="400" font-size="4.939" font-family="Droid Sans" letter-spacing="0" word-spacing="0" stroke-width=".265"><path d="M44.187 16.607q0 .427-.063.765-.06.338-.198.572-.135.233-.35.356-.214.123-.52.123-.285 0-.497-.123-.21-.123-.35-.356-.137-.234-.207-.572-.068-.338-.068-.765 0-.426.06-.764.063-.338.196-.57.135-.233.347-.356.215-.123.519-.123.287 0 .499.123.212.12.352.354.14.232.21.57.07.337.07.766zm-1.807 0q0 .362.037.632.036.27.115.451.08.179.208.27.13.09.316.09.185 0 .316-.09.13-.089.212-.267.084-.179.12-.449.039-.272.039-.637 0-.361-.039-.631-.036-.27-.12-.449-.082-.178-.212-.268-.13-.089-.316-.089t-.316.09q-.128.089-.208.267-.08.179-.115.449-.037.27-.037.631zM48.19 16.607q0 .427-.063.765-.06.338-.198.572-.135.233-.35.356-.214.123-.52.123-.285 0-.497-.123-.21-.123-.35-.356-.137-.234-.207-.572-.068-.338-.068-.765 0-.426.06-.764.063-.338.196-.57.135-.233.347-.356.215-.123.519-.123.287 0 .5.123.211.12.351.354.14.232.21.57.07.337.07.766zm-1.806 0q0 .362.036.632t.116.451q.08.179.207.27.13.09.316.09t.316-.09q.13-.089.212-.267.084-.179.12-.449.04-.272.04-.637 0-.361-.04-.631-.036-.27-.12-.449-.082-.178-.212-.268-.13-.089-.316-.089t-.316.09q-.128.089-.207.267-.08.179-.116.449-.036.27-.036.631zM51.419 18.375h-.424v-2.202-.221l.004-.234.008-.225.007-.19-.073.075q-.031.03-.065.06l-.067.063-.087.074-.357.292-.231-.296.923-.722h.362zM56.196 16.607q0 .427-.062.765-.06.338-.198.572-.135.233-.35.356-.214.123-.52.123-.285 0-.498-.123-.21-.123-.35-.356-.137-.234-.207-.572-.067-.338-.067-.765 0-.426.06-.764.063-.338.196-.57.135-.233.347-.356.214-.123.518-.123.287 0 .5.123.212.12.352.354.14.232.21.57.07.337.07.766zm-1.806 0q0 .362.036.632t.116.451q.08.179.207.27.13.09.316.09t.316-.09q.13-.089.212-.267.085-.179.121-.449.039-.272.039-.637 0-.361-.039-.631-.036-.27-.12-.449-.083-.178-.213-.268-.13-.089-.316-.089-.185 0-.316.09-.127.089-.207.267-.08.179-.116.449-.036.27-.036.631zM60.2 16.607q0 .427-.063.765-.06.338-.198.572-.135.233-.35.356-.214.123-.52.123-.285 0-.497-.123-.21-.123-.35-.356-.137-.234-.207-.572-.068-.338-.068-.765 0-.426.06-.764.063-.338.196-.57.135-.233.347-.356.215-.123.518-.123.287 0 .5.123.212.12.352.354.14.232.21.57.07.337.07.766zm-1.807 0q0 .362.036.632.037.27.116.451.08.179.208.27.13.09.315.09.186 0 .316-.09.13-.089.213-.267.084-.179.12-.449.039-.272.039-.637 0-.361-.039-.631-.036-.27-.12-.449-.082-.178-.213-.268-.13-.089-.316-.089-.185 0-.315.09-.128.089-.208.267-.08.179-.116.449-.036.27-.036.631zM63.429 18.375h-.425v-2.202-.221l.005-.234q.005-.119.007-.225.005-.108.007-.19l-.072.075q-.031.03-.065.06l-.068.063-.086.074-.357.292-.232-.296.924-.722h.362zM67.432 18.375h-.425v-2.202-.221l.005-.234q.005-.119.007-.225l.008-.19-.073.075q-.031.03-.065.06l-.067.063q-.037.03-.087.074l-.357.292-.232-.296.924-.722h.362zM72.21 16.607q0 .427-.064.765-.06.338-.197.572-.135.233-.35.356-.215.123-.52.123-.285 0-.498-.123-.21-.123-.35-.356-.137-.234-.207-.572-.067-.338-.067-.765 0-.426.06-.764.063-.338.195-.57.135-.233.348-.356.214-.123.518-.123.287 0 .5.123.212.12.351.354.14.232.21.57.07.337.07.766zm-1.807 0q0 .362.036.632t.116.451q.08.179.207.27.13.09.316.09t.316-.09q.13-.089.212-.267.085-.179.12-.449.04-.272.04-.637 0-.361-.04-.631-.035-.27-.12-.449-.082-.178-.212-.268-.13-.089-.316-.089t-.316.09q-.128.089-.207.267-.08.179-.116.449-.036.27-.036.631z"/></g><g style="line-height:6.61458px;-inkscape-font-specification:'Droid Sans';text-align:start" font-weight="400" font-size="4.939" font-family="Droid Sans" letter-spacing="0" word-spacing="0" stroke-width=".265"><path d="M123.138 18.375h-.425v-2.202-.221l.005-.234q.005-.119.007-.225.005-.108.007-.19l-.072.075q-.031.03-.065.06l-.068.063-.086.074-.357.292-.232-.296.924-.722h.361zM127.915 16.607q0 .427-.063.765-.06.338-.197.572-.135.233-.35.356-.215.123-.52.123-.285 0-.498-.123-.21-.123-.35-.356-.137-.234-.207-.572-.067-.338-.067-.765 0-.426.06-.764.063-.338.195-.57.135-.233.348-.356.214-.123.518-.123.287 0 .5.123.212.12.351.354.14.232.21.57.07.337.07.766zm-1.806 0q0 .362.036.632t.116.451q.08.179.207.27.13.09.316.09t.316-.09q.13-.089.212-.267.085-.179.12-.449.04-.272.04-.637 0-.361-.04-.631-.035-.27-.12-.449-.082-.178-.212-.268-.13-.089-.316-.089t-.316.09q-.128.089-.207.267-.08.179-.116.449-.036.27-.036.631zM131.144 18.375h-.424v-2.202-.221l.005-.234q.005-.119.007-.225.005-.108.007-.19l-.073.075q-.031.03-.065.06l-.067.063-.087.074-.357.292-.231-.296.923-.722h.362zM135.147 18.375h-.424v-2.202-.221l.005-.234q.005-.119.007-.225.005-.108.007-.19l-.072.075-.066.06-.067.063-.087.074-.357.292-.231-.296.923-.722h.362zM139.15 18.375h-.424v-2.202-.221l.005-.234q.005-.119.007-.225.005-.108.007-.19l-.072.075-.065.06-.068.063-.087.074-.357.292-.231-.296.924-.722h.361zM143.928 16.607q0 .427-.063.765-.06.338-.198.572-.135.233-.35.356-.214.123-.52.123-.285 0-.497-.123-.21-.123-.35-.356-.137-.234-.207-.572-.067-.338-.067-.765 0-.426.06-.764.063-.338.195-.57.135-.233.347-.356.215-.123.519-.123.287 0 .5.123.211.12.351.354.14.232.21.57.07.337.07.766zm-1.806 0q0 .362.036.632t.116.451q.08.179.207.27.13.09.316.09t.316-.09q.13-.089.212-.267.084-.179.12-.449.04-.272.04-.637 0-.361-.04-.631-.036-.27-.12-.449-.082-.178-.212-.268-.13-.089-.316-.089t-.316.09q-.128.089-.207.267-.08.179-.116.449-.036.27-.036.631zM147.931 16.607q0 .427-.063.765-.06.338-.197.572-.135.233-.35.356-.215.123-.52.123-.285 0-.498-.123-.21-.123-.35-.356-.137-.234-.207-.572-.067-.338-.067-.765 0-.426.06-.764.063-.338.195-.57.135-.233.348-.356.214-.123.518-.123.287 0 .5.123.212.12.351.354.14.232.21.57.07.337.07.766zm-1.806 0q0 .362.036.632t.116.451q.08.179.207.27.13.09.316.09t.316-.09q.13-.089.212-.267.085-.179.12-.449.04-.272.04-.637 0-.361-.04-.631-.035-.27-.12-.449-.082-.178-.212-.268-.13-.089-.316-.089t-.316.09q-.128.089-.207.267-.08.179-.116.449-.036.27-.036.631zM151.934 16.607q0 .427-.062.765-.06.338-.198.572-.135.233-.35.356-.214.123-.52.123-.285 0-.497-.123-.21-.123-.35-.356-.138-.234-.208-.572-.067-.338-.067-.765 0-.426.06-.764.063-.338.196-.57.135-.233.347-.356.215-.123.518-.123.287 0 .5.123.212.12.352.354.14.232.21.57.07.337.07.766zm-1.806 0q0 .362.036.632.037.27.116.451.08.179.207.27.13.09.316.09t.316-.09q.13-.089.213-.267.084-.179.12-.449.039-.272.039-.637 0-.361-.039-.631-.036-.27-.12-.449-.082-.178-.213-.268-.13-.089-.316-.089-.185 0-.316.09-.127.089-.207.267-.08.179-.116.449-.036.27-.036.631z"/></g><path d="M10.051 12.744v8h11v-8zM22.301 12.744v8h11v-8zM.051 12.744h8.75v8H.051M75.676 12.744h-5.625v8h5.625M57.676 12.744v8h11v-8zM45.676 12.744v8h11v-8z" fill="none" stroke="red" stroke-width=".401"/><g style="line-height:6.61458px;-inkscape-font-specification:'Droid Sans';text-align:start" font-weight="400" font-size="2.822" font-family="Droid Sans" letter-spacing="0" word-spacing="0" opacity=".796" stroke-width=".265"><path d="M26.443 22.825q0 .189-.047.336-.046.146-.132.247-.086.1-.208.152-.123.052-.276.052-.142 0-.262-.052-.12-.053-.208-.152-.087-.1-.136-.247-.049-.147-.049-.336 0-.187.046-.332.047-.146.132-.245.086-.1.208-.152.124-.052.277-.052.142 0 .262.052.12.051.207.152.088.099.136.245.05.145.05.332zm-1.059 0q0 .288.094.434.095.145.307.145.213 0 .305-.145.094-.146.094-.434 0-.288-.095-.43-.094-.143-.306-.143-.213 0-.306.143-.093.142-.093.43zM27.82 23.584l-.036-.202h-.014q-.035.06-.083.103-.047.043-.103.072-.057.027-.12.041-.064.014-.13.014-.125 0-.22-.032-.095-.031-.159-.099-.063-.067-.096-.172-.032-.105-.032-.25v-.988h.251v.975q0 .179.073.268.073.09.226.09.112 0 .187-.036.076-.036.122-.105.047-.07.066-.172.02-.102.02-.234v-.786h.251v1.513zM28.963 23.407q.025 0 .055-.003l.06-.007q.03-.004.053-.01.025-.005.038-.01v.19q-.018.01-.046.017-.028.009-.06.014-.034.007-.07.01-.035.004-.07.004-.085 0-.158-.022t-.127-.076q-.052-.054-.083-.145-.03-.092-.03-.231v-.878h-.214v-.112l.214-.107.107-.317h.145v.347h.38v.19h-.38v.877q0 .134.043.201.044.068.143.068zM30.647 22.574q0 .244-.036.437-.034.193-.113.327-.077.133-.2.204-.122.07-.297.07-.163 0-.284-.07-.12-.07-.2-.204-.078-.134-.118-.327-.039-.193-.039-.437t.035-.437q.035-.192.111-.325.077-.133.199-.204.122-.07.296-.07.164 0 .285.07.121.07.201.203.08.132.12.325.04.193.04.438zm-1.032 0q0 .207.02.361.021.155.067.258.045.102.118.154.075.051.18.051.107 0 .181-.05.075-.052.122-.154.048-.102.069-.256.022-.156.022-.364 0-.206-.022-.36-.021-.155-.07-.257-.046-.102-.12-.153-.075-.051-.181-.051t-.18.051q-.074.051-.12.153-.045.102-.065.256-.021.155-.021.361z"/></g><g style="line-height:6.61458px;-inkscape-font-specification:'Droid Sans';text-align:start" font-weight="400" font-size="2.822" font-family="Droid Sans" letter-spacing="0" word-spacing="0" stroke-width=".265"><path d="M14.41 22.825q0 .189-.047.336-.046.146-.132.247-.086.1-.208.152-.123.052-.276.052-.142 0-.262-.052-.12-.053-.208-.152-.087-.1-.136-.247-.049-.147-.049-.336 0-.187.046-.332.047-.146.132-.245.086-.1.208-.152.124-.052.277-.052.142 0 .262.052.12.051.207.152.088.099.136.245.05.145.05.332zm-1.059 0q0 .288.094.434.095.145.307.145.213 0 .305-.145.094-.146.094-.434 0-.288-.095-.43-.094-.143-.306-.143-.213 0-.306.143-.093.142-.093.43zM15.788 23.584l-.037-.202h-.014q-.035.06-.083.103-.047.043-.103.072-.057.027-.12.041-.063.014-.13.014-.125 0-.22-.032-.095-.031-.159-.099-.063-.067-.096-.172-.032-.105-.032-.25v-.988h.251v.975q0 .179.073.268.073.09.226.09.112 0 .187-.036.076-.036.122-.105.047-.07.066-.172.02-.102.02-.234v-.786h.251v1.513zM16.93 23.407q.025 0 .055-.003l.061-.007q.029-.004.052-.01.025-.005.038-.01v.19q-.018.01-.046.017-.027.009-.06.014-.034.007-.07.01-.035.004-.07.004-.085 0-.158-.022t-.127-.076q-.052-.054-.083-.145-.03-.092-.03-.231v-.878h-.214v-.111l.214-.108.107-.317h.145v.347h.38v.19h-.38v.877q0 .134.043.201.044.068.143.068zM18.172 23.584h-.243v-1.258-.127l.003-.133.004-.128.004-.11-.041.044-.037.034-.039.036-.05.043-.203.166-.133-.17.528-.411h.207z"/></g><g style="line-height:6.61458px;-inkscape-font-specification:'Droid Sans';text-align:start" font-weight="400" font-size="2.822" font-family="Droid Sans" letter-spacing="0" word-spacing="0" stroke-width=".265"><path d="M3.203 22.825q0 .189-.047.336-.045.146-.132.247-.085.1-.208.152-.123.052-.276.052-.142 0-.262-.052-.12-.053-.208-.152-.086-.1-.136-.247-.048-.147-.048-.336 0-.187.045-.332.047-.146.133-.245.085-.1.208-.152.124-.052.277-.052.142 0 .261.052.12.051.207.152.088.099.137.245.05.145.05.332zm-1.058 0q0 .288.094.434.095.145.307.145t.304-.145q.094-.146.094-.434 0-.288-.095-.43-.094-.143-.306-.143t-.306.143q-.092.142-.092.43zM4.581 23.584l-.037-.202H4.53q-.034.06-.082.103-.047.043-.104.072-.056.027-.12.041-.063.014-.13.014-.125 0-.22-.032-.095-.031-.158-.099-.064-.067-.097-.172-.031-.105-.031-.25v-.988h.25v.975q0 .179.073.268.073.09.226.09.112 0 .188-.036t.121-.105q.047-.07.066-.172.021-.102.021-.234v-.786h.25v1.513zM5.724 23.407q.024 0 .055-.003l.06-.007q.03-.004.053-.01.025-.005.037-.01v.19q-.018.01-.046.017-.027.009-.06.014-.033.007-.07.01-.035.004-.07.004-.085 0-.158-.022t-.127-.076q-.052-.054-.082-.145-.03-.092-.03-.231v-.878h-.214v-.111l.213-.108.108-.317h.145v.347h.38v.19h-.38v.877q0 .134.042.201.044.068.144.068zM7.374 23.584H6.118v-.215l.482-.525q.103-.111.185-.204.081-.092.137-.18.058-.088.089-.176.03-.09.03-.195 0-.081-.023-.143-.024-.062-.068-.105-.043-.044-.102-.066-.06-.022-.132-.022-.131 0-.237.054-.105.052-.2.135l-.14-.164q.054-.05.118-.093.063-.044.136-.075.073-.032.155-.05.081-.02.17-.02.133 0 .239.038.107.037.182.107.074.07.114.17.042.1.042.225 0 .117-.038.223-.035.106-.1.21-.064.101-.153.205-.088.103-.192.215l-.387.412v.01h.95z"/></g></svg>