<svg xmlns="http://www.w3.org/2000/svg" viewBox="0 0 154.33641 25.227312" height="95.347" width="583.319"><path fill="#fff" fill-rule="evenodd" stroke="#000" stroke-width=".34" d="M.17 1.058h33.679v6.56H.17z"/><g style="line-height:6.61458px;-inkscape-font-specification:'Droid Sans';text-align:start" font-weight="400" font-size="4.939" font-family="Droid Sans" letter-spacing="0" word-spacing="0" stroke-width=".265"><path style="-inkscape-font-specification:'Droid Sans'" d="M2.82 5.993h-.424V3.791 3.57l.005-.234.007-.224q.005-.108.007-.19l-.072.074q-.032.032-.065.06l-.068.063-.087.075-.357.292-.231-.297.923-.72h.362zM6.823 5.993H6.4V3.791 3.57l.005-.234q.005-.118.007-.224.005-.108.007-.19-.04.043-.072.074-.032.032-.065.06l-.068.063-.087.075-.357.292-.231-.297.924-.72h.361zM10.827 5.993h-.425V3.791 3.57l.005-.234q.005-.118.007-.224.005-.108.007-.19-.04.043-.072.074-.031.032-.065.06l-.068.063-.086.075-.357.292-.232-.297.924-.72h.362zM15.604 4.225q0 .427-.063.765-.06.337-.198.571-.135.234-.35.357-.214.123-.52.123-.285 0-.497-.123-.21-.123-.35-.357-.137-.234-.207-.571-.068-.338-.068-.765t.06-.764q.063-.338.196-.57.135-.233.347-.356.215-.123.519-.123.287 0 .499.123.212.12.352.354.14.232.21.57.07.337.07.766zm-1.806 0q0 .362.036.632t.116.451q.08.179.207.27.13.09.316.09t.316-.09q.13-.09.212-.268.084-.178.12-.448.04-.273.04-.637 0-.361-.04-.632-.036-.27-.12-.448-.082-.179-.212-.268-.13-.089-.316-.089t-.316.09q-.128.088-.207.267-.08.178-.116.448-.036.27-.036.632zM19.607 4.225q0 .427-.063.765-.06.337-.197.571-.135.234-.35.357-.215.123-.521.123-.285 0-.497-.123-.21-.123-.35-.357-.137-.234-.207-.571-.067-.338-.067-.765t.06-.764q.063-.338.195-.57.135-.233.348-.356.214-.123.518-.123.287 0 .5.123.211.12.351.354.14.232.21.57.07.337.07.766zm-1.806 0q0 .362.036.632t.116.451q.08.179.207.27.13.09.316.09t.316-.09q.13-.09.212-.268.085-.178.12-.448.04-.273.04-.637 0-.361-.04-.632-.035-.27-.12-.448-.082-.179-.212-.268-.13-.089-.316-.089t-.316.09q-.128.088-.207.267-.08.178-.116.448-.036.27-.036.632zM23.61 4.225q0 .427-.062.765-.06.337-.198.571-.135.234-.35.357-.214.123-.52.123-.285 0-.498-.123-.21-.123-.35-.357-.137-.234-.207-.571-.067-.338-.067-.765t.06-.764q.063-.338.195-.57.136-.233.348-.356.214-.123.518-.123.287 0 .5.123.212.12.352.354.14.232.21.57.07.337.07.766zm-1.806 0q0 .362.036.632t.116.451q.08.179.207.27.13.09.316.09t.316-.09q.13-.09.212-.268.085-.178.12-.448.04-.273.04-.637 0-.361-.04-.632-.035-.27-.12-.448-.082-.179-.212-.268-.13-.089-.316-.089-.185 0-.316.09-.127.088-.207.267-.08.178-.116.448-.036.27-.036.632zM27.613 4.225q0 .427-.062.765-.06.337-.198.571-.135.234-.35.357-.214.123-.52.123-.285 0-.497-.123-.21-.123-.35-.357-.137-.234-.207-.571-.068-.338-.068-.765t.06-.764q.063-.338.196-.57.135-.233.347-.356.215-.123.518-.123.287 0 .5.123.212.12.352.354.14.232.21.57.07.337.07.766zm-1.806 0q0 .362.036.632.037.27.116.451.08.179.208.27.13.09.315.09.186 0 .316-.09t.213-.268q.084-.178.12-.448.039-.273.039-.637 0-.361-.039-.632-.036-.27-.12-.448-.082-.179-.213-.268-.13-.089-.316-.089-.185 0-.315.09-.128.088-.208.267-.08.178-.116.448-.036.27-.036.632zM31.617 4.225q0 .427-.063.765-.06.337-.198.571-.135.234-.35.357-.214.123-.52.123-.285 0-.497-.123-.21-.123-.35-.357-.137-.234-.207-.571-.068-.338-.068-.765t.06-.764q.063-.338.196-.57.135-.233.347-.356.215-.123.519-.123.287 0 .499.123.212.12.352.354.14.232.21.57.07.337.07.766zm-1.807 0q0 .362.037.632.036.27.115.451.08.179.208.27.13.09.316.09.185 0 .316-.09.13-.09.212-.268.084-.178.12-.448.039-.273.039-.637 0-.361-.039-.632-.036-.27-.12-.448-.082-.179-.212-.268-.13-.089-.316-.089t-.316.09q-.128.088-.208.267-.08.178-.115.448-.037.27-.037.632z"/></g><g style="line-height:6.61458px;-inkscape-font-specification:'Droid Sans';text-align:start" font-weight="400" font-size="2.822" font-family="Droid Sans" letter-spacing="0" word-spacing="0" opacity=".796" stroke-width=".265"><path style="-inkscape-font-specification:'Droid Sans'" d="M16.264 9.293q.13 0 .236.05.106.05.18.148.076.098.117.244.042.146.042.34 0 .194-.042.341-.04.146-.117.245-.074.1-.18.15-.106.05-.236.05-.081 0-.147-.018-.066-.018-.12-.047-.053-.03-.094-.07-.04-.04-.072-.084h-.016l-.051.192h-.183V8.689h.25v.519l-.001.103q-.001.054-.004.1l-.006.108h.011q.032-.048.072-.09.04-.04.092-.071.054-.03.12-.047.066-.018.15-.018zm-.048.208q-.11 0-.185.036-.073.034-.118.106-.044.072-.064.18-.018.107-.018.251 0 .14.018.248.02.108.064.182.045.073.12.112.074.037.186.037.186 0 .272-.15.089-.15.089-.431 0-.287-.089-.429-.086-.142-.275-.142zM17.485 10.834h-.25V9.32h.25zm-.27-1.923q0-.082.041-.12.043-.037.105-.037.03 0 .057.01.027.008.046.027.021.02.032.05.012.029.012.07 0 .08-.044.12-.042.039-.103.039-.062 0-.105-.039-.041-.038-.041-.12zM18.425 10.656q.025 0 .055-.003l.06-.007q.03-.004.053-.01.025-.005.037-.009v.19q-.018.008-.045.017-.028.008-.06.013-.034.007-.07.01-.036.004-.07.004-.086 0-.159-.022-.073-.022-.126-.076-.053-.053-.083-.144-.03-.093-.03-.232V9.51h-.214v-.111l.214-.108.107-.317h.145v.348h.38v.188h-.38v.878q0 .134.043.201.044.068.143.068zM20.809 10.834l-.232-.85-.013-.054-.017-.067-.018-.07-.016-.07-.04-.165h-.009l-.037.166q-.015.07-.033.142-.016.073-.032.124l-.237.844h-.29l-.388-1.513h.264l.18.804q.014.062.028.135l.026.144.022.133.015.102h.008l.018-.095.026-.127.03-.132q.016-.066.03-.111l.246-.853h.27l.237.853q.013.046.028.11.017.063.032.13.015.064.027.125.013.06.018.1h.009l.012-.095.022-.132.026-.146q.015-.076.03-.14l.19-.805h.256l-.392 1.513zM22.016 10.834h-.25V9.32h.25zm-.27-1.923q0-.082.041-.12.043-.037.105-.037.03 0 .057.01.027.008.046.027.021.02.032.05.012.029.012.07 0 .08-.044.12-.042.039-.103.039-.062 0-.105-.039-.041-.038-.041-.12zM23.433 10.631h-.011q-.03.047-.072.09-.04.041-.094.073-.052.031-.118.05-.066.017-.15.017-.127 0-.233-.05-.106-.049-.182-.147-.076-.1-.117-.245-.042-.146-.042-.34 0-.193.042-.34.041-.147.117-.246.076-.1.182-.149.106-.051.234-.051.081 0 .147.018.067.018.119.048.054.03.095.07.041.04.072.084h.016l-.008-.09-.006-.072-.002-.06v-.602h.25v2.145h-.202zm-.396.022q.105 0 .177-.032.073-.031.117-.096.045-.065.066-.161.022-.098.025-.228v-.056q0-.14-.02-.247-.018-.109-.063-.182-.044-.074-.119-.111-.074-.039-.186-.039-.186 0-.274.15-.087.15-.087.432 0 .288.087.43.088.14.277.14zM24.61 10.656q.024 0 .055-.003l.06-.007q.03-.004.053-.01l.037-.009v.19q-.018.008-.046.017-.027.008-.06.013-.033.007-.07.01-.035.004-.07.004-.085 0-.158-.022t-.127-.076q-.052-.053-.082-.144-.03-.093-.03-.232V9.51h-.214v-.111l.213-.108.108-.317h.144v.348h.38v.188h-.38v.878q0 .134.043.201.044.068.143.068zM26.056 10.834v-.975q0-.179-.073-.268-.071-.09-.226-.09-.111 0-.187.036t-.123.106q-.045.07-.066.172-.02.102-.02.235v.784h-.25V8.689h.25v.637l-.01.198h.014q.034-.059.081-.101.048-.045.105-.074.056-.028.12-.042.063-.014.13-.014.251 0 .378.132.128.131.128.42v.989z"/></g><path d="M8.697.2v8.126h23.75V.2zM7.447.2v8.126H.572V.2z" fill="none" stroke="red" stroke-width=".401"/><g style="line-height:6.61458px;-inkscape-font-specification:'Droid Sans';text-align:start" font-weight="400" font-size="2.822" font-family="Droid Sans" letter-spacing="0" word-spacing="0" opacity=".796" stroke-width=".265"><path style="-inkscape-font-specification:'Droid Sans'" d="M2.04 10.581l.054-.002.06-.007q.03-.004.053-.01.025-.005.037-.01v.19q-.017.009-.045.017-.028.009-.06.014-.034.007-.07.01-.035.004-.07.004-.085 0-.158-.022t-.127-.076q-.052-.054-.083-.145-.03-.092-.03-.231v-.878h-.214v-.112l.214-.107.107-.317h.145v.347h.38v.189h-.38v.878q0 .133.043.2.044.068.143.068zM2.315 9.246h.26l.296.845q.02.055.039.116.02.06.037.12.018.061.03.118.013.057.018.105h.009q.007-.035.022-.094l.033-.125.038-.133.036-.11.275-.842h.259l-.598 1.71q-.04.112-.085.2-.044.09-.103.152-.06.062-.14.095-.079.034-.19.034-.07 0-.123-.008-.053-.007-.09-.015v-.2q.03.007.073.011.044.005.093.005.066 0 .114-.016.048-.015.084-.046.036-.03.06-.074.027-.044.047-.1l.079-.221zM4.602 10.787q-.081 0-.147-.018-.066-.018-.12-.047-.052-.03-.094-.07-.04-.04-.071-.084h-.017l.008.09.006.074q.003.037.003.059v.646h-.251v-2.19h.204l.036.203h.01q.032-.048.072-.09.04-.042.093-.073.053-.031.12-.05.066-.018.148-.018.13 0 .236.05.106.049.18.148.076.098.118.244.04.146.04.339 0 .194-.04.342-.042.146-.118.245-.074.1-.18.15-.106.05-.236.05zm-.048-1.36q-.105 0-.178.031-.071.032-.117.097-.044.065-.066.161-.02.096-.023.227V10q0 .14.017.248.02.107.064.182.045.073.12.111.074.038.186.038.186 0 .273-.15.088-.15.088-.432 0-.286-.088-.428-.087-.142-.276-.142zM6.17 10.787q-.151 0-.277-.051-.125-.051-.216-.15-.09-.097-.139-.242-.05-.144-.05-.33 0-.188.046-.335.045-.148.128-.25.083-.103.197-.157.116-.053.255-.053.136 0 .245.05.11.047.185.137.076.088.116.214.041.124.041.275v.156h-.954q.007.266.112.391.106.126.314.126.07 0 .13-.007t.116-.02q.056-.013.108-.033.053-.02.106-.045v.223q-.055.026-.108.046-.053.019-.11.031-.054.013-.115.018-.06.006-.13.006zm-.062-1.36q-.157 0-.249.107-.09.108-.106.313h.678q0-.094-.02-.17-.017-.08-.057-.135-.039-.055-.1-.085-.06-.03-.146-.03z"/></g><g style="line-height:6.61458px;-inkscape-font-specification:'Droid Sans';text-align:start" font-weight="400" font-size="2.822" font-family="Droid Sans" letter-spacing="normal" word-spacing="normal" stroke-width=".265" white-space="normal"><path style="line-height:normal;-inkscape-font-specification:'Droid Sans';font-variant-ligatures:normal;font-variant-position:normal;font-variant-caps:normal;font-variant-numeric:normal;font-variant-alternates:normal;font-variant-east-asian:normal;text-indent:0;text-align:start;text-decoration-line:none;text-decoration-style:solid;text-decoration-color:#000;text-transform:none;text-orientation:mixed;shape-padding:0;shape-margin:0;inline-size:0" d="M51.595 24.638l-.517-1.514h.259l.274.842.036.118.041.146.037.14q.018.066.024.1h.01q.006-.034.023-.1.016-.066.037-.14.02-.075.041-.146l.036-.118.274-.842h.26l-.517 1.514zM53.521 24.638l-.051-.21h-.011q-.045.062-.091.108-.045.044-.1.073-.053.029-.12.042-.065.014-.152.014-.095 0-.175-.027-.08-.027-.14-.082-.057-.056-.09-.14-.033-.086-.033-.202 0-.226.158-.347.16-.121.485-.132l.254-.01v-.095q0-.092-.02-.154t-.059-.1q-.037-.038-.093-.054-.056-.017-.127-.017-.115 0-.214.033-.098.033-.189.08l-.088-.189q.102-.055.228-.094.125-.038.263-.038.14 0 .242.029.104.027.17.09.067.06.1.155.034.095.034.23v1.037zm-.46-.176q.084 0 .155-.026.072-.026.124-.078.053-.054.082-.134.03-.081.03-.19v-.136l-.197.01q-.124.005-.208.027-.084.022-.135.062-.05.038-.072.095-.022.055-.022.125 0 .127.066.186.068.06.177.06zM54.418 24.638h-.25v-2.145h.25zM55.88 24.638l-.037-.203h-.014q-.034.06-.082.103-.047.043-.104.072-.056.028-.12.041-.063.014-.13.014-.125 0-.22-.032-.095-.031-.158-.099-.064-.067-.097-.172-.031-.105-.031-.25v-.988h.25v.975q0 .179.073.268.074.09.226.09.112 0 .188-.036t.121-.105q.047-.07.066-.172.021-.102.021-.234v-.786h.25v1.514zM57.163 24.665q-.151 0-.277-.05-.125-.052-.216-.15-.09-.098-.14-.242-.049-.145-.049-.331 0-.187.046-.335.045-.147.128-.25.082-.103.197-.156.115-.054.255-.054.136 0 .245.05.109.048.185.137.075.088.115.214.042.124.042.275v.156h-.954q.007.266.112.392.106.125.314.125.07 0 .13-.007t.115-.02q.057-.013.11-.032.051-.021.105-.046v.223q-.055.027-.109.046-.052.02-.109.032-.055.012-.115.018-.06.005-.13.005zm-.062-1.36q-.157 0-.25.107-.09.108-.105.313h.678q0-.093-.02-.17-.018-.08-.058-.134-.038-.055-.099-.086-.06-.03-.146-.03zM58.038 24.485q0-.053.014-.089.014-.037.037-.059.024-.023.055-.033.032-.011.07-.011.035 0 .067.011.033.01.056.033.024.022.037.06.014.035.014.088 0 .05-.014.088-.013.036-.037.059-.023.023-.056.034-.032.011-.068.011-.037 0-.069-.01-.031-.012-.055-.035-.023-.023-.037-.06-.014-.036-.014-.087zm0-1.208q0-.053.014-.09.014-.036.037-.058.024-.024.055-.034.032-.01.07-.01.035 0 .067.01.033.01.056.034.024.022.037.059.014.036.014.09 0 .05-.014.086-.013.036-.037.06-.023.023-.056.034-.032.01-.068.01-.037 0-.069-.01-.031-.011-.055-.035-.023-.023-.037-.059-.014-.036-.014-.087zM60.797 23.878q0 .189-.047.336-.045.147-.132.247-.086.1-.208.152-.123.052-.276.052-.142 0-.262-.052-.12-.053-.208-.152-.087-.1-.136-.247-.048-.147-.048-.336 0-.187.045-.332.047-.146.132-.245.086-.1.209-.152.124-.052.276-.052.142 0 .262.052.12.051.207.152.088.099.136.245.05.145.05.332zm-1.058 0q0 .288.093.434.096.145.308.145t.304-.145q.094-.146.094-.434 0-.288-.095-.43-.094-.143-.306-.143t-.306.143q-.092.142-.092.43zM62.14 24.638v-.975q0-.179-.072-.268-.072-.09-.226-.09-.112 0-.188.036t-.122.106q-.046.07-.067.172-.019.102-.019.234v.785h-.25v-1.514h.203l.036.204h.014q.034-.059.081-.102.048-.044.105-.073.056-.029.12-.042.063-.014.13-.014.252 0 .378.132.128.131.128.42v.989zM63.458 24.665q-.152 0-.277-.05-.125-.052-.216-.15-.09-.098-.14-.242-.05-.145-.05-.331 0-.187.046-.335.046-.147.129-.25.082-.103.197-.156.115-.054.255-.054.136 0 .245.05.109.048.185.137.075.088.115.214.042.124.042.275v.156h-.954q.007.266.112.392.106.125.314.125.07 0 .13-.007t.115-.02q.057-.013.109-.032.052-.021.106-.046v.223q-.055.027-.109.046-.052.02-.109.032-.055.012-.115.018-.06.005-.13.005zm-.062-1.36q-.157 0-.25.107-.09.108-.105.313h.678q0-.093-.02-.17-.018-.08-.058-.134-.038-.055-.099-.086-.06-.03-.146-.03zM65.354 24.638h-.25v-1.514h.25zm-.27-1.923q0-.083.041-.12.043-.037.105-.037.03 0 .057.01.027.008.047.027.02.02.031.05.013.029.013.07 0 .08-.044.12-.043.039-.104.039-.062 0-.105-.039-.04-.039-.04-.12zM66.782 24.638v-.975q0-.179-.073-.268-.072-.09-.226-.09-.112 0-.188.036-.075.036-.122.106-.046.07-.066.172-.02.102-.02.234v.785h-.25v-1.514h.204l.035.204h.014q.035-.059.081-.102.049-.044.105-.073.057-.029.12-.042.063-.014.13-.014.252 0 .379.132.128.131.128.42v.989zM67.959 24.46q.025 0 .055-.003l.06-.007q.03-.004.053-.01.025-.005.037-.01v.191q-.018.008-.045.017-.028.008-.061.013-.033.007-.069.01-.036.004-.07.004-.086 0-.159-.022-.073-.022-.126-.076-.053-.054-.083-.145-.03-.092-.03-.231v-.878h-.214v-.111l.214-.108.107-.317h.145v.347h.38v.19h-.38v.877q0 .134.042.201.045.068.144.068zM70.173 24.638l-.037-.203h-.014q-.034.06-.082.103-.047.043-.104.072-.056.028-.12.041-.063.014-.13.014-.125 0-.22-.032-.095-.031-.158-.099-.064-.067-.097-.172-.031-.105-.031-.25v-.988h.25v.975q0 .179.074.268.073.09.226.09.111 0 .187-.036t.121-.105q.047-.07.066-.172.021-.102.021-.234v-.786h.25v1.514zM71.542 24.665q-.082 0-.148-.018-.066-.018-.12-.047-.052-.03-.093-.07-.04-.04-.072-.084h-.017l.009.09.005.074q.003.037.003.06v.646h-.25v-2.192h.203l.036.204h.011q.032-.048.072-.09.04-.042.092-.072.054-.032.12-.05.066-.02.149-.02.13 0 .235.05.106.05.18.15.077.097.118.243.041.146.041.34 0 .194-.041.341-.041.146-.117.245-.075.1-.18.15-.107.05-.236.05zm-.049-1.36q-.104 0-.177.032-.072.031-.117.096-.045.065-.067.161-.02.097-.023.228v.056q0 .14.018.248.02.108.063.182.046.073.12.112.075.037.186.037.186 0 .273-.15.088-.15.088-.432 0-.286-.088-.428-.087-.142-.276-.142zM73.702 24.46q.025 0 .056-.003l.06-.007q.03-.004.053-.01.024-.005.037-.01v.191q-.018.008-.046.017-.027.008-.06.013-.033.007-.07.01-.035.004-.07.004-.085 0-.158-.022t-.127-.076q-.052-.054-.082-.145-.03-.092-.03-.231v-.878h-.214v-.111l.213-.108.108-.317h.144v.347h.38v.19h-.38v.877q0 .134.043.201.044.068.143.068zM75.437 23.878q0 .189-.046.336-.046.147-.133.247-.085.1-.208.152-.122.052-.275.052-.142 0-.262-.052-.12-.053-.208-.152-.087-.1-.137-.247-.048-.147-.048-.336 0-.187.045-.332.047-.146.133-.245.085-.1.208-.152.124-.052.277-.052.142 0 .262.052.12.051.206.152.089.099.137.245.05.145.05.332zm-1.058 0q0 .288.094.434.095.145.307.145t.305-.145q.093-.146.093-.434 0-.288-.095-.43-.093-.143-.306-.143-.212 0-.306.143-.092.142-.092.43zM77.549 24.638l-.038-.203h-.013q-.035.06-.083.103-.047.043-.103.072-.057.028-.12.041-.064.014-.13.014-.125 0-.22-.032-.095-.031-.159-.099-.063-.067-.096-.172-.032-.105-.032-.25v-.988h.25v.975q0 .179.074.268.073.09.226.09.111 0 .187-.036t.122-.105q.046-.07.066-.172.02-.102.02-.234v-.786h.251v1.514zM78.484 24.638h-.25v-1.514h.25zm-.27-1.923q0-.083.041-.12.043-.037.105-.037.03 0 .057.01.027.008.047.027.02.02.031.05.013.029.013.07 0 .08-.044.12-.043.039-.104.039-.062 0-.105-.039-.04-.039-.04-.12zM79.912 24.638v-.975q0-.179-.073-.268-.072-.09-.226-.09-.112 0-.188.036-.075.036-.122.106-.046.07-.066.172-.02.102-.02.234v.785h-.25v-1.514h.203l.036.204h.014q.035-.059.081-.102.049-.044.105-.073.057-.029.12-.042.063-.014.13-.014.252 0 .379.132.128.131.128.42v.989zM81.089 24.46q.025 0 .055-.003l.06-.007q.03-.004.053-.01.025-.005.037-.01v.191q-.018.008-.045.017-.028.008-.061.013-.033.007-.069.01-.036.004-.07.004-.086 0-.159-.022-.073-.022-.126-.076-.053-.054-.083-.145-.03-.092-.03-.231v-.878h-.214v-.111l.214-.108.107-.317h.145v.347h.38v.19h-.38v.877q0 .134.042.201.045.068.144.068zM82.675 23.094q0 .1-.032.183-.032.083-.09.144-.056.06-.136.1-.08.039-.178.055v.009q.244.03.371.155.127.124.127.324 0 .133-.046.243-.044.11-.135.19-.09.08-.23.124-.139.044-.33.044-.15 0-.283-.023-.132-.024-.25-.086v-.234q.12.063.26.098.14.034.268.034.127 0 .22-.027.092-.028.151-.079.06-.05.088-.125.03-.075.03-.167 0-.094-.038-.16-.036-.067-.103-.11-.068-.044-.166-.065-.096-.02-.219-.02h-.183v-.209h.183q.112 0 .199-.027.086-.028.144-.079.06-.05.09-.121.03-.07.03-.154 0-.072-.025-.128-.024-.057-.07-.096-.045-.04-.109-.06-.063-.02-.14-.02-.148 0-.26.046-.112.045-.214.12l-.127-.172q.052-.043.116-.08.064-.038.14-.065.076-.029.161-.046.087-.016.184-.016.148 0 .26.037.113.037.189.105.076.066.114.158.039.091.039.2zM84.294 24.638h-1.257v-.215l.483-.525q.103-.112.184-.204.082-.093.138-.181.058-.088.088-.176.03-.09.03-.195 0-.081-.023-.143-.023-.062-.067-.105-.043-.044-.102-.066-.06-.022-.133-.022-.13 0-.237.054-.104.052-.2.135l-.14-.164q.055-.05.118-.092.064-.045.137-.076.073-.032.154-.05.082-.02.171-.02.132 0 .239.038.107.037.181.108.075.068.115.17.041.098.041.224 0 .117-.037.223-.036.106-.1.21-.064.101-.154.205-.088.103-.191.215l-.387.412v.01h.95zM85.306 23.864q0-.172.024-.339.025-.168.076-.325.051-.158.128-.303.079-.146.186-.274h.237q-.193.266-.293.584-.1.318-.1.655 0 .164.025.326.027.163.075.319.05.155.122.301.074.146.169.276h-.235q-.107-.124-.186-.266-.077-.142-.128-.296-.05-.156-.076-.321-.024-.166-.024-.337zM86.532 24.638h-.25v-2.145h.25zM87.265 24.638h-.25v-1.514h.25zm-.27-1.923q0-.083.041-.12.043-.037.105-.037.03 0 .057.01.027.008.046.027.021.02.032.05.013.029.013.07 0 .08-.045.12-.042.039-.103.039-.062 0-.105-.039-.041-.039-.041-.12zM88.205 24.46q.025 0 .055-.003l.06-.007q.03-.004.053-.01.025-.005.037-.01v.191q-.018.008-.045.017-.028.008-.06.013-.034.007-.07.01-.036.004-.07.004-.085 0-.159-.022-.073-.022-.126-.076-.053-.054-.083-.145-.03-.092-.03-.231v-.878h-.214v-.111l.214-.108.107-.317h.145v.347h.38v.19h-.38v.877q0 .134.043.201.044.068.143.068zM89.192 24.46q.024 0 .055-.003l.06-.007q.03-.004.053-.01.025-.005.037-.01v.191q-.018.008-.046.017-.027.008-.06.013-.033.007-.07.01-.035.004-.07.004-.085 0-.158-.022t-.127-.076q-.052-.054-.082-.145-.03-.092-.03-.231v-.878h-.214v-.111l.213-.108.108-.317h.145v.347h.38v.19h-.38v.877q0 .134.042.201.044.068.144.068zM89.944 24.638h-.25v-2.145h.25zM91.024 24.665q-.151 0-.277-.05-.125-.052-.216-.15-.09-.098-.14-.242-.049-.145-.049-.331 0-.187.046-.335.045-.147.128-.25.083-.103.197-.156.116-.054.255-.054.136 0 .245.05.11.048.185.137.076.088.116.214.041.124.041.275v.156h-.954q.007.266.112.392.106.125.314.125.07 0 .13-.007t.115-.02q.057-.013.11-.032.052-.021.105-.046v.223q-.055.027-.108.046-.053.02-.11.032-.054.012-.115.018-.06.005-.13.005zm-.062-1.36q-.157 0-.249.107-.091.108-.106.313h.678q0-.093-.02-.17-.017-.08-.057-.134-.039-.055-.1-.086-.06-.03-.146-.03zM93.268 24.665q-.152 0-.277-.05-.126-.052-.216-.15t-.14-.242q-.05-.145-.05-.331 0-.187.046-.335.046-.147.128-.25.083-.103.197-.156.116-.054.255-.054.137 0 .246.05.109.048.184.137.076.088.116.214.041.124.041.275v.156h-.953q.007.266.111.392.107.125.315.125.07 0 .13-.007t.115-.02q.056-.013.109-.032.052-.021.106-.046v.223q-.055.027-.109.046-.052.02-.109.032-.055.012-.116.018-.059.005-.13.005zm-.062-1.36q-.157 0-.25.107-.09.108-.106.313h.678q0-.093-.019-.17-.018-.08-.058-.134-.038-.055-.1-.086-.06-.03-.145-.03zM95.125 24.638v-.975q0-.179-.073-.268-.071-.09-.226-.09-.111 0-.187.036t-.123.106q-.045.07-.066.172-.02.102-.02.234v.785h-.25v-1.514h.204l.036.204h.014q.034-.059.081-.102.048-.044.105-.073.056-.029.12-.042.063-.014.13-.014.251 0 .378.132.128.131.128.42v.989zM96.78 24.435h-.012q-.03.047-.072.09-.04.04-.093.073-.053.031-.119.05-.066.017-.149.017-.128 0-.234-.05-.106-.05-.182-.147-.076-.1-.117-.245-.041-.146-.041-.34 0-.194.041-.34.041-.147.117-.246.076-.1.182-.15.106-.05.234-.05.082 0 .148.018.066.018.118.048.054.03.095.07.042.04.072.084h.017l-.009-.09-.005-.072q-.003-.039-.003-.06v-.602h.25v2.145h-.202zm-.396.022q.104 0 .176-.032.073-.031.117-.096.046-.065.066-.161.022-.098.025-.228v-.056q0-.14-.02-.247-.017-.109-.063-.182-.044-.074-.118-.111-.074-.04-.186-.04-.186 0-.274.151-.087.15-.087.431 0 .288.087.43.088.141.277.141zM97.75 24.638h-.252v-1.514h.251zm-.27-1.923q0-.083.04-.12.043-.037.105-.037.03 0 .057.01.027.008.047.027.02.02.031.05.013.029.013.07 0 .08-.044.12-.043.039-.104.039-.062 0-.105-.039-.04-.039-.04-.12zM99.085 24.638l-.051-.21h-.011q-.046.062-.091.108-.046.044-.1.073-.053.029-.12.042-.066.014-.152.014-.096 0-.175-.027-.08-.027-.14-.082-.058-.056-.09-.14-.034-.086-.034-.202 0-.226.159-.347.16-.121.485-.132l.253-.01v-.095q0-.092-.02-.154t-.058-.1q-.037-.038-.094-.054-.055-.017-.127-.017-.114 0-.213.033-.098.033-.189.08l-.088-.189q.102-.055.227-.094.126-.038.263-.038.141 0 .243.029.103.027.17.09.067.06.1.155t.033.23v1.037zm-.46-.176q.083 0 .155-.026t.124-.078q.052-.054.081-.134.03-.081.03-.19v-.136l-.196.01q-.124.005-.208.027-.085.022-.136.062-.05.038-.071.095-.022.055-.022.125 0 .127.066.186.067.06.176.06zM100.676 24.638v-.975q0-.179-.073-.268-.071-.09-.226-.09-.111 0-.187.036t-.123.106q-.045.07-.066.172-.02.102-.02.234v.785h-.25v-1.514h.204l.036.204h.013q.035-.059.082-.102.048-.044.104-.073.057-.029.12-.042.064-.014.13-.014.252 0 .379.132.128.131.128.42v.989zM101.893 23.864q0 .171-.025.337-.025.165-.077.32-.051.155-.13.297-.077.142-.184.266h-.234q.095-.13.168-.276.073-.146.122-.301.05-.156.075-.319.025-.162.025-.326 0-.337-.1-.655-.099-.318-.293-.584h.237q.107.128.185.274.078.145.129.303.052.157.077.325.025.167.025.34z"/></g><path fill="#fff" fill-rule="evenodd" stroke="#000" stroke-width=".34" d="M.9 13.44h33.679V20H.9z"/><g style="line-height:6.61458px;-inkscape-font-specification:'Droid Sans';text-align:start" font-weight="400" font-size="4.939" font-family="Droid Sans" letter-spacing="0" word-spacing="0" stroke-width=".265"><path style="-inkscape-font-specification:'Droid Sans'" d="M4.324 16.607q0 .427-.063.765-.06.338-.197.572-.135.233-.35.356-.215.123-.521.123-.285 0-.497-.123-.21-.123-.35-.356-.137-.234-.207-.572-.067-.338-.067-.765 0-.426.06-.764.063-.338.195-.57.135-.233.348-.356.214-.123.518-.123.287 0 .5.123.211.12.351.354.14.232.21.57.07.337.07.766zm-1.806 0q0 .362.036.632t.116.451q.08.179.207.27.13.09.316.09t.316-.09q.13-.089.212-.267.085-.179.12-.449.04-.272.04-.637 0-.361-.04-.631-.035-.27-.12-.449-.082-.178-.212-.268-.13-.089-.316-.089t-.316.09q-.128.089-.207.267-.08.179-.116.449-.036.27-.036.631zM8.327 16.607q0 .427-.062.765-.06.338-.198.572-.135.233-.35.356-.214.123-.52.123-.285 0-.498-.123-.21-.123-.35-.356-.137-.234-.207-.572-.067-.338-.067-.765 0-.426.06-.764.063-.338.195-.57.136-.233.348-.356.214-.123.518-.123.287 0 .5.123.212.12.352.354.14.232.21.57.07.337.07.766zm-1.806 0q0 .362.036.632t.116.451q.08.179.207.27.13.09.316.09t.316-.09q.13-.089.212-.267.085-.179.121-.449.039-.272.039-.637 0-.361-.039-.631-.036-.27-.12-.449-.083-.178-.213-.268-.13-.089-.316-.089-.185 0-.316.09-.127.089-.207.267-.08.179-.116.449-.036.27-.036.631zM11.556 18.375h-.424v-2.202-.221l.005-.234q.005-.119.007-.225.005-.108.007-.19l-.072.075-.065.06-.068.063-.087.074-.357.292-.231-.296.924-.722h.361zM15.56 18.375h-.425v-2.202-.221l.005-.234q.005-.119.007-.225.005-.108.007-.19l-.072.075q-.031.03-.065.06l-.068.063-.086.074-.357.292-.232-.296.924-.722h.361zM20.337 16.607q0 .427-.063.765-.06.338-.198.572-.135.233-.35.356-.214.123-.52.123-.285 0-.497-.123-.21-.123-.35-.356-.137-.234-.207-.572-.068-.338-.068-.765 0-.426.06-.764.063-.338.196-.57.135-.233.347-.356.215-.123.519-.123.287 0 .5.123.211.12.351.354.14.232.21.57.07.337.07.766zm-1.806 0q0 .362.036.632t.116.451q.08.179.207.27.13.09.316.09t.316-.09q.13-.089.212-.267.084-.179.12-.449.04-.272.04-.637 0-.361-.04-.631-.036-.27-.12-.449-.082-.178-.212-.268-.13-.089-.316-.089t-.316.09q-.128.089-.207.267-.08.179-.116.449-.036.27-.036.631zM23.566 18.375h-.424v-2.202-.221l.004-.234.008-.225.007-.19-.073.075q-.03.03-.065.06l-.067.063-.087.074-.357.292-.231-.296.923-.722h.362zM27.57 18.375h-.425v-2.202-.221l.005-.234.007-.225q.005-.108.007-.19l-.072.075-.065.06-.068.063-.087.074-.357.292-.231-.296.923-.722h.362zM32.347 16.607q0 .427-.063.765-.06.338-.198.572-.135.233-.35.356-.214.123-.52.123-.285 0-.497-.123-.21-.123-.35-.356-.137-.234-.207-.572-.068-.338-.068-.765 0-.426.06-.764.063-.338.196-.57.135-.233.347-.356.215-.123.519-.123.286 0 .499.123.212.12.352.354.14.232.21.57.07.337.07.766zm-1.807 0q0 .362.036.632.037.27.116.451.08.179.208.27.13.09.315.09.186 0 .316-.09.13-.089.213-.267.084-.179.12-.449.039-.272.039-.637 0-.361-.039-.631-.036-.27-.12-.449-.082-.178-.213-.268-.13-.089-.316-.089-.185 0-.315.09-.128.089-.208.267-.08.179-.116.449-.036.27-.036.631z"/></g><path fill="#fff" fill-rule="evenodd" stroke="#000" stroke-width=".34" d="M40.762 13.44h33.679V20H40.762z"/><g style="line-height:6.61458px;-inkscape-font-specification:'Droid Sans';text-align:start" font-weight="400" font-size="4.939" font-family="Droid Sans" letter-spacing="0" word-spacing="0" stroke-width=".265"><path style="-inkscape-font-specification:'Droid Sans'" d="M44.187 16.607q0 .427-.063.765-.06.338-.198.572-.135.233-.35.356-.214.123-.52.123-.285 0-.497-.123-.21-.123-.35-.356-.137-.234-.207-.572-.068-.338-.068-.765 0-.426.06-.764.063-.338.196-.57.135-.233.347-.356.215-.123.519-.123.287 0 .499.123.212.12.352.354.14.232.21.57.07.337.07.766zm-1.807 0q0 .362.037.632.036.27.115.451.08.179.208.27.13.09.316.09.185 0 .316-.09.13-.089.212-.267.084-.179.12-.449.039-.272.039-.637 0-.361-.039-.631-.036-.27-.12-.449-.082-.178-.212-.268-.13-.089-.316-.089t-.316.09q-.128.089-.208.267-.08.179-.115.449-.037.27-.037.631zM48.19 16.607q0 .427-.063.765-.06.338-.198.572-.135.233-.35.356-.214.123-.52.123-.285 0-.497-.123-.21-.123-.35-.356-.137-.234-.207-.572-.068-.338-.068-.765 0-.426.06-.764.063-.338.196-.57.135-.233.347-.356.215-.123.519-.123.287 0 .5.123.211.12.351.354.14.232.21.57.07.337.07.766zm-1.806 0q0 .362.036.632t.116.451q.08.179.207.27.13.09.316.09t.316-.09q.13-.089.212-.267.084-.179.12-.449.04-.272.04-.637 0-.361-.04-.631-.036-.27-.12-.449-.082-.178-.212-.268-.13-.089-.316-.089t-.316.09q-.128.089-.207.267-.08.179-.116.449-.036.27-.036.631zM51.419 18.375h-.424v-2.202-.221l.004-.234.008-.225.007-.19-.073.075q-.031.03-.065.06l-.067.063-.087.074-.357.292-.231-.296.923-.722h.362zM56.196 16.607q0 .427-.062.765-.06.338-.198.572-.135.233-.35.356-.214.123-.52.123-.285 0-.498-.123-.21-.123-.35-.356-.137-.234-.207-.572-.067-.338-.067-.765 0-.426.06-.764.063-.338.196-.57.135-.233.347-.356.214-.123.518-.123.287 0 .5.123.212.12.352.354.14.232.21.57.07.337.07.766zm-1.806 0q0 .362.036.632t.116.451q.08.179.207.27.13.09.316.09t.316-.09q.13-.089.212-.267.085-.179.121-.449.039-.272.039-.637 0-.361-.039-.631-.036-.27-.12-.449-.083-.178-.213-.268-.13-.089-.316-.089-.185 0-.316.09-.127.089-.207.267-.08.179-.116.449-.036.27-.036.631zM60.2 16.607q0 .427-.063.765-.06.338-.198.572-.135.233-.35.356-.214.123-.52.123-.285 0-.497-.123-.21-.123-.35-.356-.137-.234-.207-.572-.068-.338-.068-.765 0-.426.06-.764.063-.338.196-.57.135-.233.347-.356.215-.123.518-.123.287 0 .5.123.212.12.352.354.14.232.21.57.07.337.07.766zm-1.807 0q0 .362.036.632.037.27.116.451.08.179.208.27.13.09.315.09.186 0 .316-.09.13-.089.213-.267.084-.179.12-.449.039-.272.039-.637 0-.361-.039-.631-.036-.27-.12-.449-.082-.178-.213-.268-.13-.089-.316-.089-.185 0-.315.09-.128.089-.208.267-.08.179-.116.449-.036.27-.036.631zM63.429 18.375h-.425v-2.202-.221l.005-.234q.005-.119.007-.225.005-.108.007-.19l-.072.075q-.031.03-.065.06l-.068.063-.086.074-.357.292-.232-.296.924-.722h.362zM67.432 18.375h-.425v-2.202-.221l.005-.234q.005-.119.007-.225l.008-.19-.073.075q-.031.03-.065.06l-.067.063q-.037.03-.087.074l-.357.292-.232-.296.924-.722h.362zM72.21 16.607q0 .427-.064.765-.06.338-.197.572-.135.233-.35.356-.215.123-.52.123-.285 0-.498-.123-.21-.123-.35-.356-.137-.234-.207-.572-.067-.338-.067-.765 0-.426.06-.764.063-.338.195-.57.135-.233.348-.356.214-.123.518-.123.287 0 .5.123.212.12.351.354.14.232.21.57.07.337.07.766zm-1.807 0q0 .362.036.632t.116.451q.08.179.207.27.13.09.316.09t.316-.09q.13-.089.212-.267.085-.179.12-.449.04-.272.04-.637 0-.361-.04-.631-.035-.27-.12-.449-.082-.178-.212-.268-.13-.089-.316-.089t-.316.09q-.128.089-.207.267-.08.179-.116.449-.036.27-.036.631z"/></g><path fill="#fff" fill-rule="evenodd" stroke="#000" stroke-width=".34" d="M120.488 13.44h33.679V20h-33.679z"/><g style="line-height:6.61458px;-inkscape-font-specification:'Droid Sans';text-align:start" font-weight="400" font-size="4.939" font-family="Droid Sans" letter-spacing="0" word-spacing="0" stroke-width=".265"><path style="-inkscape-font-specification:'Droid Sans'" d="M123.138 18.375h-.425v-2.202-.221l.005-.234q.005-.119.007-.225.005-.108.007-.19l-.072.075q-.031.03-.065.06l-.068.063-.086.074-.357.292-.232-.296.924-.722h.361zM127.915 16.607q0 .427-.063.765-.06.338-.197.572-.135.233-.35.356-.215.123-.52.123-.285 0-.498-.123-.21-.123-.35-.356-.137-.234-.207-.572-.067-.338-.067-.765 0-.426.06-.764.063-.338.195-.57.135-.233.348-.356.214-.123.518-.123.287 0 .5.123.212.12.351.354.14.232.21.57.07.337.07.766zm-1.806 0q0 .362.036.632t.116.451q.08.179.207.27.13.09.316.09t.316-.09q.13-.089.212-.267.085-.179.12-.449.04-.272.04-.637 0-.361-.04-.631-.035-.27-.12-.449-.082-.178-.212-.268-.13-.089-.316-.089t-.316.09q-.128.089-.207.267-.08.179-.116.449-.036.27-.036.631zM131.144 18.375h-.424v-2.202-.221l.005-.234q.005-.119.007-.225.005-.108.007-.19l-.073.075q-.031.03-.065.06l-.067.063-.087.074-.357.292-.231-.296.923-.722h.362zM135.147 18.375h-.424v-2.202-.221l.005-.234q.005-.119.007-.225.005-.108.007-.19l-.072.075-.066.06-.067.063-.087.074-.357.292-.231-.296.923-.722h.362zM139.15 18.375h-.424v-2.202-.221l.005-.234q.005-.119.007-.225.005-.108.007-.19l-.072.075-.065.06-.068.063-.087.074-.357.292-.231-.296.924-.722h.361zM143.928 16.607q0 .427-.063.765-.06.338-.198.572-.135.233-.35.356-.214.123-.52.123-.285 0-.497-.123-.21-.123-.35-.356-.137-.234-.207-.572-.067-.338-.067-.765 0-.426.06-.764.063-.338.195-.57.135-.233.347-.356.215-.123.519-.123.287 0 .5.123.211.12.351.354.14.232.21.57.07.337.07.766zm-1.806 0q0 .362.036.632t.116.451q.08.179.207.27.13.09.316.09t.316-.09q.13-.089.212-.267.084-.179.12-.449.04-.272.04-.637 0-.361-.04-.631-.036-.27-.12-.449-.082-.178-.212-.268-.13-.089-.316-.089t-.316.09q-.128.089-.207.267-.08.179-.116.449-.036.27-.036.631zM147.931 16.607q0 .427-.063.765-.06.338-.197.572-.135.233-.35.356-.215.123-.52.123-.285 0-.498-.123-.21-.123-.35-.356-.137-.234-.207-.572-.067-.338-.067-.765 0-.426.06-.764.063-.338.195-.57.135-.233.348-.356.214-.123.518-.123.287 0 .5.123.212.12.351.354.14.232.21.57.07.337.07.766zm-1.806 0q0 .362.036.632t.116.451q.08.179.207.27.13.09.316.09t.316-.09q.13-.089.212-.267.085-.179.12-.449.04-.272.04-.637 0-.361-.04-.631-.035-.27-.12-.449-.082-.178-.212-.268-.13-.089-.316-.089t-.316.09q-.128.089-.207.267-.08.179-.116.449-.036.27-.036.631zM151.934 16.607q0 .427-.062.765-.06.338-.198.572-.135.233-.35.356-.214.123-.52.123-.285 0-.497-.123-.21-.123-.35-.356-.138-.234-.208-.572-.067-.338-.067-.765 0-.426.06-.764.063-.338.196-.57.135-.233.347-.356.215-.123.518-.123.287 0 .5.123.212.12.352.354.14.232.21.57.07.337.07.766zm-1.806 0q0 .362.036.632.037.27.116.451.08.179.207.27.13.09.316.09t.316-.09q.13-.089.213-.267.084-.179.12-.449.039-.272.039-.637 0-.361-.039-.631-.036-.27-.12-.449-.082-.178-.213-.268-.13-.089-.316-.089-.185 0-.316.09-.127.089-.207.267-.08.179-.116.449-.036.27-.036.631z"/></g><path fill="#fff" fill-rule="evenodd" stroke="#000" stroke-width=".34" d="M80.625 13.44h33.679V20H80.625z"/><g style="line-height:6.61458px;-inkscape-font-specification:'Droid Sans';text-align:start" font-weight="400" font-size="4.939" font-family="Droid Sans" letter-spacing="0" word-spacing="0" stroke-width=".265"><path style="-inkscape-font-specification:'Droid Sans'" d="M83.275 18.375h-.424v-2.202-.221l.005-.234.007-.225q.005-.108.007-.19l-.072.075-.066.06-.067.063-.087.074-.357.292-.231-.296.923-.722h.362zM88.053 16.607q0 .427-.063.765-.06.338-.198.572-.135.233-.35.356-.214.123-.52.123-.285 0-.497-.123-.21-.123-.35-.356-.137-.234-.207-.572-.068-.338-.068-.765 0-.426.06-.764.063-.338.196-.57.135-.233.347-.356.215-.123.518-.123.287 0 .5.123.212.12.352.354.14.232.21.57.07.337.07.766zm-1.807 0q0 .362.036.632.037.27.116.451.08.179.208.27.13.09.315.09.186 0 .316-.09.13-.089.213-.267.084-.179.12-.449.039-.272.039-.637 0-.361-.039-.631-.036-.27-.12-.449-.082-.178-.213-.268-.13-.089-.316-.089-.185 0-.315.09-.128.089-.208.267-.08.179-.116.449-.036.27-.036.631zM92.056 16.607q0 .427-.063.765-.06.338-.198.572-.135.233-.35.356-.214.123-.52.123-.285 0-.497-.123-.21-.123-.35-.356-.137-.234-.207-.572-.068-.338-.068-.765 0-.426.06-.764.063-.338.196-.57.135-.233.347-.356.215-.123.519-.123.287 0 .499.123.212.12.352.354.14.232.21.57.07.337.07.766zm-1.807 0q0 .362.037.632.036.27.115.451.08.179.208.27.13.09.316.09.185 0 .316-.09.13-.089.212-.267.084-.179.12-.449.039-.272.039-.637 0-.361-.039-.631-.036-.27-.12-.449-.082-.178-.212-.268-.13-.089-.316-.089t-.316.09q-.128.089-.208.267-.08.179-.115.449-.037.27-.037.631zM95.285 18.375h-.425v-2.202-.221l.005-.234q.005-.119.007-.225l.008-.19-.073.075q-.031.03-.065.06l-.067.063q-.037.03-.087.074l-.357.292-.232-.296.924-.722h.362zM100.062 16.607q0 .427-.063.765-.06.338-.197.572-.135.233-.35.356-.215.123-.52.123-.285 0-.498-.123-.21-.123-.35-.356-.137-.234-.207-.572-.067-.338-.067-.765 0-.426.06-.764.063-.338.195-.57.135-.233.348-.356.214-.123.518-.123.287 0 .5.123.212.12.351.354.14.232.21.57.07.337.07.766zm-1.806 0q0 .362.036.632t.116.451q.08.179.207.27.13.09.316.09t.316-.09q.13-.089.212-.267.085-.179.12-.449.04-.272.04-.637 0-.361-.04-.631-.035-.27-.12-.449-.082-.178-.212-.268-.13-.089-.316-.089t-.316.09q-.128.089-.207.267-.08.179-.116.449-.036.27-.036.631zM104.065 16.607q0 .427-.062.765-.06.338-.198.572-.135.233-.35.356-.214.123-.52.123-.285 0-.497-.123-.21-.123-.35-.356-.138-.234-.208-.572-.067-.338-.067-.765 0-.426.06-.764.063-.338.196-.57.135-.233.347-.356.214-.123.518-.123.287 0 .5.123.212.12.352.354.14.232.21.57.07.337.07.766zm-1.806 0q0 .362.036.632t.116.451q.08.179.207.27.13.09.316.09t.316-.09q.13-.089.212-.267.085-.179.121-.449.039-.272.039-.637 0-.361-.039-.631-.036-.27-.12-.449-.083-.178-.213-.268-.13-.089-.316-.089-.185 0-.316.09-.127.089-.207.267-.08.179-.116.449-.036.27-.036.631zM108.069 16.607q0 .427-.063.765-.06.338-.198.572-.135.233-.35.356-.214.123-.52.123-.285 0-.497-.123-.21-.123-.35-.356-.137-.234-.207-.572-.068-.338-.068-.765 0-.426.06-.764.063-.338.196-.57.135-.233.347-.356.215-.123.519-.123.287 0 .499.123.212.12.352.354.14.232.21.57.07.337.07.766zm-1.807 0q0 .362.036.632.037.27.116.451.08.179.208.27.13.09.316.09.185 0 .315-.09.13-.089.213-.267.084-.179.12-.449.039-.272.039-.637 0-.361-.039-.631-.036-.27-.12-.449-.082-.178-.213-.268-.13-.089-.315-.089-.186 0-.316.09-.128.089-.208.267-.08.179-.116.449-.036.27-.036.631zM111.298 18.375h-.425v-2.202-.221l.005-.234q.005-.119.007-.225.005-.108.007-.19l-.072.075-.065.06-.068.063-.087.074-.356.292-.232-.296.924-.722h.361z"/></g></svg>