<svg xmlns="http://www.w3.org/2000/svg" viewBox="0 0 118.65023 52.36544" height="197.917" width="448.442"><path fill="#fff" fill-rule="evenodd" stroke="#000" stroke-width=".34" d="M.241 1.058H33.92v6.56H.241z"/><g style="line-height:6.61458px;-inkscape-font-specification:'Droid Sans';text-align:start" font-weight="400" font-size="4.939" font-family="Droid Sans" letter-spacing="0" word-spacing="0" stroke-width=".265"><path d="M3.665 4.225q0 .427-.062.765-.06.337-.198.571-.135.234-.35.357-.214.123-.52.123-.285 0-.497-.123-.21-.123-.35-.357-.138-.234-.207-.571-.068-.338-.068-.765t.06-.764q.063-.338.196-.57.135-.233.347-.356.215-.123.518-.123.287 0 .5.123.212.12.352.354.14.232.21.57.07.337.07.766zm-1.806 0q0 .362.036.632t.116.451q.08.179.207.27.13.09.316.09t.316-.09q.13-.09.213-.268.084-.178.12-.448.039-.273.039-.637 0-.361-.039-.632-.036-.27-.12-.448-.082-.179-.213-.268-.13-.089-.316-.089-.185 0-.316.09-.127.088-.207.267-.08.178-.116.448-.036.27-.036.632zM7.669 4.225q0 .427-.063.765-.06.337-.198.571-.135.234-.35.357-.214.123-.52.123-.285 0-.497-.123-.21-.123-.35-.357-.137-.234-.207-.571-.068-.338-.068-.765t.06-.764q.063-.338.196-.57.135-.233.347-.356.215-.123.519-.123.287 0 .499.123.212.12.352.354.14.232.21.57.07.337.07.766zm-1.807 0q0 .362.037.632.036.27.115.451.08.179.208.27.13.09.316.09.185 0 .315-.09t.213-.268q.084-.178.12-.448.039-.273.039-.637 0-.361-.039-.632-.036-.27-.12-.448-.082-.179-.213-.268-.13-.089-.315-.089-.186 0-.316.09-.128.088-.208.267-.08.178-.115.448-.037.27-.037.632zM11.672 4.225q0 .427-.063.765-.06.337-.198.571-.135.234-.35.357-.214.123-.52.123-.285 0-.497-.123-.21-.123-.35-.357-.137-.234-.207-.571-.068-.338-.068-.765t.06-.764q.063-.338.196-.57.135-.233.347-.356.215-.123.519-.123.287 0 .499.123.212.12.352.354.14.232.21.57.07.337.07.766zm-1.806 0q0 .362.036.632t.115.451q.08.179.208.27.13.09.316.09.185 0 .316-.09.13-.09.212-.268.084-.178.12-.448.04-.273.04-.637 0-.361-.04-.632-.036-.27-.12-.448-.082-.179-.212-.268-.13-.089-.316-.089t-.316.09q-.128.088-.208.267-.08.178-.115.448-.036.27-.036.632zM15.675 4.225q0 .427-.063.765-.06.337-.197.571-.135.234-.35.357-.215.123-.521.123-.285 0-.497-.123-.21-.123-.35-.357-.137-.234-.207-.571-.067-.338-.067-.765t.06-.764q.063-.338.195-.57.135-.233.347-.356.215-.123.519-.123.287 0 .5.123.211.12.351.354.14.232.21.57.07.337.07.766zm-1.806 0q0 .362.036.632t.116.451q.08.179.207.27.13.09.316.09t.316-.09q.13-.09.212-.268.085-.178.12-.448.04-.273.04-.637 0-.361-.04-.632-.035-.27-.12-.448-.082-.179-.212-.268-.13-.089-.316-.089t-.316.09q-.128.088-.207.267-.08.178-.116.448-.036.27-.036.632zM19.678 4.225q0 .427-.062.765-.06.337-.198.571-.135.234-.35.357-.215.123-.52.123-.285 0-.498-.123-.21-.123-.35-.357-.137-.234-.207-.571-.067-.338-.067-.765t.06-.764q.063-.338.195-.57.135-.233.348-.356.214-.123.518-.123.287 0 .5.123.212.12.351.354.14.232.21.57.07.337.07.766zm-1.806 0q0 .362.036.632t.116.451q.08.179.207.27.13.09.316.09t.316-.09q.13-.09.212-.268.085-.178.12-.448.04-.273.04-.637 0-.361-.04-.632-.035-.27-.12-.448-.082-.179-.212-.268-.13-.089-.316-.089t-.316.09q-.128.088-.207.267-.08.178-.116.448-.036.27-.036.632zM23.681 4.225q0 .427-.062.765-.06.337-.198.571-.135.234-.35.357-.214.123-.52.123-.285 0-.497-.123-.21-.123-.35-.357-.138-.234-.207-.571-.068-.338-.068-.765t.06-.764q.063-.338.196-.57.135-.233.347-.356.215-.123.518-.123.287 0 .5.123.212.12.352.354.14.232.21.57.07.337.07.766zm-1.806 0q0 .362.036.632t.116.451q.08.179.207.27.13.09.316.09t.316-.09q.13-.09.213-.268.084-.178.12-.448.039-.273.039-.637 0-.361-.039-.632-.036-.27-.12-.448-.082-.179-.213-.268-.13-.089-.316-.089-.185 0-.316.09-.127.088-.207.267-.08.178-.116.448-.036.27-.036.632zM26.91 5.993h-.424V3.791 3.57l.005-.234q.005-.118.007-.224.005-.108.007-.19-.04.043-.072.074-.031.032-.065.06l-.068.063-.087.075-.356.292-.232-.297.924-.72h.361zM30.914 5.993h-.425V3.791 3.57l.005-.234q.005-.118.007-.224.005-.108.007-.19-.04.043-.072.074-.031.032-.065.06l-.068.063-.086.075-.357.292-.232-.297.924-.72h.362z"/></g><g style="line-height:6.61458px;-inkscape-font-specification:'Droid Sans';text-align:start" font-weight="400" font-size="2.822" font-family="Droid Sans" letter-spacing="0" word-spacing="0" opacity=".796" stroke-width=".265"><path d="M16.335 9.293q.13 0 .236.05.106.05.18.148.076.098.118.244.04.146.04.34 0 .194-.04.341-.042.146-.118.245-.074.1-.18.15-.106.05-.236.05-.081 0-.147-.018-.066-.018-.12-.047-.052-.03-.094-.07-.04-.04-.071-.084h-.017l-.051.192h-.183V8.689h.25v.622l-.005.1-.005.108h.01q.032-.048.072-.09.04-.04.093-.071.053-.03.12-.047.066-.018.148-.018zm-.048.208q-.11 0-.185.036-.073.034-.118.106-.044.072-.064.18-.017.107-.017.251 0 .14.017.248.02.108.064.182.045.073.12.112.074.037.186.037.186 0 .273-.15.088-.15.088-.431 0-.287-.088-.429-.087-.142-.276-.142zM17.556 10.834h-.25V9.32h.25zm-.27-1.923q0-.082.041-.12.043-.037.105-.037.03 0 .057.01.027.008.047.027.02.02.031.05.013.029.013.07 0 .08-.044.12-.043.039-.104.039-.062 0-.105-.039-.04-.038-.04-.12zM18.496 10.656q.025 0 .055-.003l.06-.007q.03-.004.053-.01.025-.005.037-.009v.19q-.018.008-.045.017-.028.008-.06.013-.034.007-.07.01-.035.004-.07.004-.085 0-.158-.022t-.127-.076q-.053-.053-.083-.144-.03-.093-.03-.232V9.51h-.214v-.111l.214-.108.107-.317h.145v.348h.38v.188h-.38v.878q0 .134.043.201.044.068.143.068zM20.88 10.834l-.231-.85-.014-.054-.017-.067-.018-.07-.016-.07-.04-.165h-.009l-.037.166q-.015.07-.033.142-.016.073-.031.124l-.237.844h-.291l-.387-1.513h.263l.18.804q.014.062.028.135l.026.144.022.133.015.102h.008l.018-.095.027-.127.03-.132q.015-.066.029-.111l.247-.853h.27l.237.853.027.11q.017.063.032.13.015.064.027.125.013.06.018.1h.009l.012-.095.022-.132.026-.146q.015-.076.03-.14l.19-.805h.256l-.392 1.513zM22.087 10.834h-.25V9.32h.25zm-.27-1.923q0-.082.041-.12.043-.037.105-.037.03 0 .057.01.027.008.047.027.02.02.031.05.013.029.013.07 0 .08-.045.12-.042.039-.103.039-.062 0-.105-.039-.04-.038-.04-.12zM23.504 10.631h-.011q-.03.047-.072.09-.04.041-.094.073-.052.031-.118.05-.066.017-.149.017-.128 0-.234-.05-.106-.049-.182-.147-.076-.1-.117-.245-.042-.146-.042-.34 0-.193.042-.34.041-.147.117-.246.076-.1.182-.149.106-.051.234-.051.081 0 .148.018.066.018.118.048.054.03.095.07.041.04.072.084h.016l-.008-.09-.005-.072q-.003-.039-.003-.06v-.602h.25v2.145h-.202zm-.396.022q.105 0 .177-.032.073-.031.117-.096.045-.065.066-.161.022-.098.025-.228v-.056q0-.14-.02-.247-.017-.109-.063-.182-.044-.074-.118-.111-.075-.039-.186-.039-.186 0-.275.15-.087.15-.087.432 0 .288.087.43.089.14.277.14zM24.68 10.656q.025 0 .056-.003l.06-.007q.03-.004.053-.01.025-.005.037-.009v.19q-.018.008-.045.017-.028.008-.061.013-.033.007-.069.01-.036.004-.07.004-.086 0-.159-.022-.073-.022-.127-.076-.052-.053-.082-.144-.03-.093-.03-.232V9.51h-.214v-.111l.213-.108.108-.317h.145v.348h.38v.188h-.38v.878q0 .134.042.201.044.068.144.068zM26.128 10.834v-.975q0-.179-.073-.268-.072-.09-.226-.09-.112 0-.188.036t-.123.106q-.045.07-.066.172-.019.102-.019.235v.784h-.25V8.689h.25v.637l-.011.198h.014q.034-.059.081-.101.048-.045.105-.074.056-.028.12-.042.063-.014.13-.014.251 0 .378.132.128.131.128.42v.989z"/></g><path d="M8.768.2v8.126h23.75V.2zM7.518.2v8.126H.643V.2z" fill="none" stroke="red" stroke-width=".401"/><g style="line-height:6.61458px;-inkscape-font-specification:'Droid Sans';text-align:start" font-weight="400" font-size="2.822" font-family="Droid Sans" letter-spacing="0" word-spacing="0" opacity=".796" stroke-width=".265"><path d="M2.11 10.581l.055-.002.061-.007q.029-.004.052-.01.025-.005.038-.01v.19q-.018.009-.046.017-.027.009-.06.014-.034.007-.07.01-.035.004-.07.004-.085 0-.158-.022t-.127-.076q-.052-.054-.083-.145-.03-.092-.03-.231v-.878h-.214v-.112l.214-.107.108-.317h.144v.347h.38v.189h-.38v.878q0 .133.043.2.044.068.143.068zM2.386 9.246h.26l.297.845.038.116q.02.06.037.12.018.061.03.118.013.057.019.105h.008q.007-.035.022-.094l.033-.125.039-.133.035-.11.275-.842h.259l-.598 1.71q-.039.112-.084.2-.045.09-.104.152t-.139.095q-.08.034-.19.034-.072 0-.124-.008-.053-.007-.09-.015v-.2q.03.007.073.011.044.005.093.005.066 0 .114-.016.048-.015.084-.046.036-.03.06-.074.027-.044.048-.1l.078-.221zM4.673 10.787q-.08 0-.147-.018-.066-.018-.12-.047-.052-.03-.094-.07-.04-.04-.071-.084h-.017l.008.09.006.074q.003.037.003.059v.646H3.99v-2.19h.204l.036.203h.01q.032-.048.072-.09.04-.042.093-.073.053-.031.12-.05.066-.018.148-.018.13 0 .236.05.106.049.18.148.076.098.118.244.041.146.041.339 0 .194-.041.342-.042.146-.117.245-.075.1-.18.15-.107.05-.237.05zm-.048-1.36q-.105 0-.178.031-.071.032-.117.097-.044.065-.066.161-.02.096-.023.227V10q0 .14.018.248.019.107.063.182.045.073.12.111.074.038.186.038.186 0 .273-.15.088-.15.088-.432 0-.286-.088-.428-.087-.142-.276-.142zM6.242 10.787q-.152 0-.277-.051-.126-.051-.217-.15-.09-.097-.139-.242-.05-.144-.05-.33 0-.188.046-.335.045-.148.128-.25.083-.103.197-.157.116-.053.255-.053.137 0 .245.05.11.047.185.137.076.088.116.214.041.124.041.275v.156H5.82q.006.266.111.391.106.126.314.126.07 0 .13-.007t.116-.02q.056-.013.109-.033.052-.02.106-.045v.223q-.055.026-.11.046-.052.019-.108.031-.055.013-.116.018-.06.006-.13.006zm-.062-1.36q-.157 0-.25.107-.09.108-.106.313h.678q0-.094-.02-.17-.017-.08-.057-.135-.039-.055-.1-.085-.06-.03-.145-.03z"/></g><g style="line-height:6.61458px;-inkscape-font-specification:'Droid Sans';text-align:start" font-weight="400" font-size="2.822" font-family="Droid Sans" letter-spacing="normal" word-spacing="normal" stroke-width=".265" white-space="normal"><path style="line-height:normal;font-variant-ligatures:normal;font-variant-position:normal;font-variant-caps:normal;font-variant-numeric:normal;font-variant-alternates:normal;font-variant-east-asian:normal;font-variation-settings:normal;text-indent:0;text-align:start;text-decoration-line:none;text-decoration-style:solid;text-decoration-color:#000;text-transform:none;text-orientation:mixed;shape-padding:0;shape-margin:0;inline-size:0" d="M49.7 36.878h-1.256v-.215l.482-.525q.104-.111.185-.204.081-.092.138-.18.058-.088.088-.176.03-.09.03-.195 0-.081-.023-.143-.023-.062-.068-.105-.042-.044-.102-.066-.059-.022-.132-.022-.13 0-.237.054-.105.052-.2.135l-.14-.164q.055-.05.118-.093.064-.044.137-.075.073-.032.154-.05.081-.02.17-.02.133 0 .24.038.107.037.181.107.075.07.115.17.04.1.04.225 0 .117-.036.223t-.1.21q-.064.101-.154.205-.088.103-.191.215l-.388.412v.01h.95zM50.617 35.642q.137 0 .254.039.118.037.205.112.088.074.138.184.05.11.05.255 0 .157-.047.283-.047.125-.14.212-.092.087-.228.134-.135.045-.312.045-.07 0-.139-.007-.067-.007-.13-.02-.063-.013-.12-.034-.056-.02-.101-.048v-.237q.045.032.106.057.062.024.13.04.067.017.134.027.07.008.127.008.11 0 .195-.024.085-.027.144-.08.06-.054.091-.135.032-.082.032-.193 0-.197-.121-.3-.122-.105-.353-.105-.037 0-.081.004-.043.002-.087.008-.043.005-.083.012l-.067.011-.125-.078.076-.948h.951v.228h-.733l-.054.578q.044-.008.116-.018.073-.01.172-.01zM51.576 36.017q0-.145.014-.288.015-.143.051-.274.037-.132.1-.245.064-.113.162-.196.098-.084.234-.131.137-.048.32-.048l.058.001q.032.002.063.006.033.002.062.008.03.004.054.011v.214q-.048-.017-.109-.025-.06-.008-.12-.008-.124 0-.219.03-.094.029-.162.083-.07.053-.116.128-.046.074-.075.165-.029.09-.042.192-.014.102-.018.212h.016q.028-.05.066-.093.04-.044.093-.074.052-.032.117-.05.066-.017.147-.017.131 0 .237.04.106.04.18.12.075.078.115.192.042.113.042.26 0 .156-.043.282-.043.125-.123.213-.08.087-.193.134-.113.047-.253.047-.138 0-.26-.054-.12-.053-.207-.164-.089-.11-.14-.277-.05-.166-.05-.394zm.655.678q.083 0 .15-.027.07-.03.119-.086.05-.058.075-.145.028-.088.028-.208 0-.096-.023-.172-.022-.077-.068-.13-.045-.055-.114-.083-.068-.03-.159-.03-.092 0-.17.034-.075.031-.129.084-.054.05-.084.117-.029.066-.029.132 0 .092.025.185.026.09.076.164.05.073.127.12.075.045.176.045zM54.199 36.878h-.251v-1.513h.25zm-.27-1.922q0-.083.041-.12.043-.037.105-.037.03 0 .056.01.028.008.047.027.02.02.032.05.012.029.012.07 0 .08-.044.12-.043.038-.103.038-.062 0-.105-.038-.041-.039-.041-.12zM55.626 36.878v-.974q0-.179-.073-.269-.071-.09-.226-.09-.111 0-.187.037-.076.036-.123.106-.045.07-.066.172-.02.102-.02.234v.784h-.25v-1.513h.204l.036.204h.014q.034-.059.081-.102.048-.044.105-.073.056-.029.12-.042.063-.014.13-.014.251 0 .378.132.128.131.128.42v.988zM56.803 36.7l.055-.002.061-.007q.029-.004.052-.01.025-.005.038-.01v.19q-.018.01-.046.017-.027.009-.06.014-.034.007-.07.01-.035.004-.07.004-.085 0-.158-.022t-.127-.076q-.052-.054-.083-.145-.03-.092-.03-.231v-.878h-.213v-.112l.213-.107.108-.317h.144v.347h.38v.19h-.38v.877q0 .134.043.201.044.068.143.068zM57.903 36.906q-.152 0-.277-.051-.125-.051-.216-.149-.09-.098-.14-.242-.05-.145-.05-.331 0-.188.046-.335.046-.147.128-.25.083-.103.198-.156.115-.054.254-.054.137 0 .246.05.109.048.184.137.076.088.116.214.042.124.042.275v.156h-.954q.007.266.112.391.106.126.314.126.07 0 .13-.007t.115-.02q.057-.013.109-.032.052-.021.106-.046v.223q-.055.027-.109.046-.052.02-.109.032-.055.012-.115.017-.06.006-.13.006zm-.062-1.36q-.157 0-.25.107-.09.108-.106.313h.678q0-.094-.019-.17-.018-.08-.058-.134-.038-.056-.099-.086-.06-.03-.146-.03zM59.981 35.365v.156l-.271.037q.038.048.064.124.027.075.027.17 0 .105-.034.194-.031.088-.097.153-.065.065-.162.102-.096.036-.224.036h-.06q-.031-.002-.05-.006-.024.014-.047.032-.022.017-.042.039-.018.022-.03.05-.011.027-.011.06 0 .037.017.06.016.023.044.035.029.012.067.016.039.005.081.005h.243q.128 0 .216.033.089.031.144.086.056.056.081.131.025.075.025.159 0 .121-.046.218-.044.096-.136.162-.092.068-.234.104-.14.035-.332.035-.148 0-.258-.029-.11-.028-.183-.084-.073-.055-.11-.133-.037-.077-.037-.175 0-.083.027-.146.027-.062.073-.108.045-.045.104-.074.061-.03.126-.044-.058-.027-.095-.083-.037-.057-.037-.13 0-.084.044-.144.044-.062.139-.12-.06-.025-.11-.068-.047-.044-.082-.099-.033-.056-.052-.123-.018-.066-.018-.136 0-.123.034-.22.035-.096.102-.163.068-.068.169-.103.1-.036.234-.036.05 0 .105.008.055.007.092.02zm-1.118 1.761q0 .051.018.096.018.044.058.075.042.032.108.05.067.02.167.02.256 0 .383-.08.128-.08.128-.228 0-.063-.017-.103-.016-.04-.055-.064-.037-.022-.1-.03-.061-.008-.15-.008h-.243q-.048 0-.1.01-.053.012-.097.042-.043.03-.072.083-.028.053-.028.137zm.127-1.274q0 .158.075.235.074.078.21.078.138 0 .209-.076.071-.077.071-.241 0-.17-.073-.25-.071-.08-.21-.08-.136 0-.209.083-.073.083-.073.25zM60.874 36.906q-.152 0-.277-.051-.125-.051-.216-.149-.09-.098-.14-.242-.05-.145-.05-.331 0-.188.046-.335.046-.147.129-.25.082-.103.197-.156.115-.054.255-.054.136 0 .245.05.109.048.184.137.076.088.116.214.042.124.042.275v.156h-.954q.007.266.112.391.106.126.314.126.07 0 .13-.007t.115-.02q.057-.013.109-.032.052-.021.106-.046v.223q-.055.027-.109.046-.052.02-.109.032-.055.012-.115.017-.06.006-.13.006zm-.062-1.36q-.157 0-.25.107-.09.108-.106.313h.678q0-.094-.019-.17-.018-.08-.058-.134-.038-.056-.099-.086-.06-.03-.146-.03zM62.44 35.338q.04 0 .09.004.05.003.086.01l-.033.231q-.039-.007-.08-.011-.04-.006-.076-.006-.087 0-.158.036-.072.035-.124.1-.051.066-.08.158-.028.09-.028.203v.815h-.25v-1.513h.203l.03.277h.012q.034-.059.073-.114.04-.055.088-.097.05-.042.11-.067.06-.026.138-.026zM64.327 35.338q.13 0 .236.05.106.049.18.148.076.098.118.244.041.146.041.34 0 .193-.041.34-.042.147-.117.246-.075.1-.18.15-.107.05-.237.05-.08 0-.147-.018-.066-.018-.12-.047-.052-.03-.094-.07-.04-.04-.071-.084h-.017l-.05.191h-.184v-2.144h.25v.622l-.005.1-.005.108h.01q.032-.048.072-.09.04-.041.093-.071.053-.03.12-.047.066-.018.148-.018zm-.048.208q-.11 0-.184.036-.074.034-.119.106-.044.071-.063.179-.018.107-.018.252 0 .14.018.248.019.108.063.182.045.073.12.112.074.037.186.037.186 0 .273-.15.088-.15.088-.432 0-.286-.088-.428-.087-.142-.276-.142zM65.548 36.878h-.25v-2.144h.25zM67.264 36.12q0 .188-.047.335-.045.146-.132.247-.086.1-.208.152-.123.052-.276.052-.142 0-.262-.052-.12-.053-.208-.152-.087-.1-.136-.247-.048-.147-.048-.336 0-.187.045-.332.047-.146.132-.245.086-.1.208-.152.124-.052.277-.052.142 0 .262.052.12.051.207.152.088.099.136.245.05.145.05.332zm-1.058 0q0 .287.093.433.095.145.308.145.212 0 .304-.145.094-.146.094-.434 0-.288-.095-.43-.094-.143-.306-.143t-.306.143q-.092.142-.092.43zM68.241 36.906q-.14 0-.26-.043-.122-.044-.211-.138-.09-.095-.14-.24-.052-.148-.052-.355 0-.216.053-.366.052-.152.143-.246.092-.095.215-.138.123-.042.263-.042.108 0 .21.023.103.024.172.058l-.075.212q-.031-.013-.07-.026-.038-.014-.08-.023-.041-.011-.081-.017-.04-.007-.076-.007-.216 0-.315.14-.1.137-.1.43 0 .29.1.425.1.134.304.134.112 0 .201-.025.091-.026.166-.06v.223q-.075.04-.16.06-.084.021-.207.021zM69.2 36.097l.186-.234.404-.498h.29l-.552.655.59.858h-.288l-.463-.694-.15.113v.581h-.248v-2.144h.248v.984l-.022.38z"/></g><path d="M59.278 17.94q.092 0 .154.025.066.024.104.065.041.04.058.096.02.056.02.12t-.02.119q-.017.058-.058.099-.038.04-.104.065-.062.024-.154.024-.09 0-.154-.024-.063-.024-.104-.065-.041-.041-.06-.099-.02-.055-.02-.118 0-.065.02-.12.019-.056.06-.097.041-.041.104-.065.065-.024.154-.024zm0 1.325q.092 0 .154.024.066.024.104.065.041.04.058.096.02.056.02.12 0 .063-.02.119-.017.058-.058.099-.038.04-.104.065-.062.024-.154.024-.09 0-.154-.024-.063-.024-.104-.065-.041-.041-.06-.1-.02-.055-.02-.117 0-.065.02-.12.019-.056.06-.097.041-.041.104-.065.065-.024.154-.024zm0 1.323q.092 0 .154.022.066.024.104.065.041.044.058.1.02.055.02.12 0 .062-.02.118-.017.058-.058.099-.038.04-.104.065-.062.024-.154.024-.09 0-.154-.024-.063-.024-.104-.065-.041-.041-.06-.1-.02-.055-.02-.117 0-.13.08-.22.08-.087.258-.087z" font-size="4.939" style="line-height:6.61458px;-inkscape-font-specification:'Droid Sans';text-align:start" font-weight="400" font-family="Droid Sans" letter-spacing="0" word-spacing="0" stroke-width=".265"/><path fill="#fff" fill-rule="evenodd" stroke="#000" stroke-width=".34" d="M36.392.94h33.679V7.5H36.392z"/><g style="line-height:6.61458px;-inkscape-font-specification:'Droid Sans';text-align:start" font-weight="400" font-size="4.939" font-family="Droid Sans" letter-spacing="0" word-spacing="0" stroke-width=".265"><path d="M39.042 5.875h-.424V3.673v-.221l.005-.234q.005-.119.007-.225.005-.108.007-.19l-.072.075q-.031.03-.065.06L38.432 3l-.087.074-.356.292-.232-.296.924-.722h.361zM43.82 4.107q0 .427-.063.765-.06.338-.198.572-.135.233-.35.356-.214.123-.52.123-.285 0-.497-.123-.21-.123-.35-.356-.137-.234-.207-.572-.068-.338-.068-.765 0-.426.06-.764.063-.338.196-.57.135-.233.347-.356.215-.123.519-.123.287 0 .499.123.212.12.352.354.14.232.21.57.07.337.07.766zm-1.806 0q0 .362.036.632t.115.451q.08.179.208.27.13.09.316.09.185 0 .316-.09.13-.089.212-.267.084-.179.12-.449.04-.272.04-.637 0-.361-.04-.631-.036-.27-.12-.449-.082-.178-.212-.268-.13-.089-.316-.089t-.316.09q-.128.089-.208.267-.08.179-.115.449-.036.27-.036.631zM47.049 5.875h-.425V3.673v-.221l.005-.234q.005-.119.007-.225l.008-.19-.073.075q-.031.03-.065.06L46.44 3l-.087.074-.357.292-.231-.296.923-.722h.362zM51.052 5.875h-.424V3.673v-.221l.004-.234.008-.225.007-.19-.072.075-.066.06-.067.063-.087.074-.357.292-.231-.296.923-.722h.362zM55.055 5.875h-.424V3.673v-.221l.005-.234.007-.225q.005-.108.007-.19l-.072.075-.065.06-.068.063-.087.074-.357.292-.231-.296.924-.722h.361zM59.833 4.107q0 .427-.063.765-.06.338-.198.572-.135.233-.35.356-.214.123-.52.123-.285 0-.497-.123-.21-.123-.35-.356-.137-.234-.207-.572-.068-.338-.068-.765 0-.426.06-.764.063-.338.196-.57.135-.233.347-.356.215-.123.519-.123.287 0 .499.123.212.12.352.354.14.232.21.57.07.337.07.766zm-1.807 0q0 .362.037.632.036.27.115.451.08.179.208.27.13.09.316.09.185 0 .316-.09.13-.089.212-.267.084-.179.12-.449.039-.272.039-.637 0-.361-.039-.631-.036-.27-.12-.449-.082-.178-.212-.268-.13-.089-.316-.089t-.316.09q-.128.089-.208.267-.08.179-.115.449-.037.27-.037.631zM63.836 4.107q0 .427-.063.765-.06.338-.198.572-.135.233-.35.356-.214.123-.52.123-.285 0-.497-.123-.21-.123-.35-.356-.137-.234-.207-.572-.068-.338-.068-.765 0-.426.06-.764.063-.338.196-.57.135-.233.347-.356.215-.123.519-.123.287 0 .499.123.212.12.352.354.14.232.21.57.07.337.07.766zm-1.806 0q0 .362.036.632t.116.451q.08.179.207.27.13.09.316.09t.316-.09q.13-.089.212-.267.084-.179.12-.449.04-.272.04-.637 0-.361-.04-.631-.036-.27-.12-.449-.082-.178-.212-.268-.13-.089-.316-.089t-.316.09q-.128.089-.207.267-.08.179-.116.449-.036.27-.036.631zM67.84 4.107q0 .427-.064.765-.06.338-.197.572-.135.233-.35.356-.215.123-.521.123-.285 0-.497-.123-.21-.123-.35-.356-.137-.234-.207-.572-.067-.338-.067-.765 0-.426.06-.764.063-.338.195-.57.135-.233.348-.356.214-.123.518-.123.287 0 .5.123.211.12.351.354.14.232.21.57.07.337.07.766zm-1.807 0q0 .362.036.632t.116.451q.08.179.207.27.13.09.316.09t.316-.09q.13-.089.212-.267.085-.179.12-.449.04-.272.04-.637 0-.361-.04-.631-.035-.27-.12-.449-.082-.178-.212-.268-.13-.089-.316-.089t-.316.09q-.128.089-.207.267-.08.179-.116.449-.036.27-.036.631z"/></g><path d="M88.134 5.607q0-.091.024-.154.024-.065.065-.104.04-.04.096-.057.056-.02.12-.02t.119.02q.058.016.099.057.04.039.065.104.024.063.024.154 0 .09-.024.155-.024.063-.065.104-.041.04-.099.06-.055.02-.118.02-.065 0-.12-.02-.056-.02-.097-.06-.041-.041-.065-.104-.024-.065-.024-.155zm1.324 0q0-.091.024-.154.024-.065.065-.104.04-.04.096-.057.056-.02.12-.02t.119.02q.058.016.099.057.04.039.065.104.024.063.024.154 0 .09-.024.155-.024.063-.065.104-.041.04-.099.06-.055.02-.118.02-.065 0-.12-.02-.056-.02-.097-.06-.041-.041-.065-.104-.024-.065-.024-.155zm1.324 0q0-.091.021-.154.024-.065.065-.104.044-.04.1-.057.055-.02.12-.02.062 0 .118.02.058.016.099.057.04.039.065.104.024.063.024.154 0 .09-.024.155-.024.063-.065.104-.041.04-.1.06-.055.02-.117.02-.13 0-.22-.08-.087-.08-.087-.259z" font-size="4.939" style="line-height:6.61458px;-inkscape-font-specification:'Droid Sans';text-align:start" font-weight="400" font-family="Droid Sans" letter-spacing="0" word-spacing="0" stroke-width=".265"/><path fill="#fff" fill-rule="evenodd" stroke="#000" stroke-width=".34" d="M.17 24.808h33.679v6.56H.17z"/><g style="line-height:6.61458px;-inkscape-font-specification:'Droid Sans';text-align:start" font-weight="400" font-size="4.939" font-family="Droid Sans" letter-spacing="0" word-spacing="0" stroke-width=".265"><path d="M3.594 27.975q0 .427-.062.765-.06.337-.198.571-.135.234-.35.357-.214.123-.52.123-.285 0-.498-.123-.21-.123-.35-.357-.137-.234-.207-.571-.067-.338-.067-.765t.06-.764q.063-.338.195-.57.136-.233.348-.356.214-.123.518-.123.287 0 .5.123.212.12.352.354.14.232.21.57.07.337.07.766zm-1.806 0q0 .362.036.632t.116.451q.08.179.207.27.13.09.316.09t.316-.09q.13-.09.212-.268.085-.178.12-.448.04-.273.04-.637 0-.361-.04-.632-.035-.27-.12-.448-.082-.179-.212-.268-.13-.089-.316-.089-.185 0-.316.09-.127.088-.207.267-.08.178-.116.448-.036.27-.036.632zM7.597 27.975q0 .427-.062.765-.06.337-.198.571-.135.234-.35.357-.214.123-.52.123-.285 0-.497-.123-.21-.123-.35-.357-.137-.234-.207-.571-.068-.338-.068-.765t.06-.764q.063-.338.196-.57.135-.233.347-.356.215-.123.518-.123.287 0 .5.123.212.12.352.354.14.232.21.57.07.337.07.766zm-1.806 0q0 .362.036.632.037.27.116.451.08.179.208.27.13.09.315.09.186 0 .316-.09t.213-.268q.084-.178.12-.448.039-.273.039-.637 0-.361-.039-.632-.036-.27-.12-.448-.082-.179-.213-.268-.13-.089-.316-.089-.185 0-.315.09-.128.088-.208.267-.08.178-.116.448-.036.27-.036.632zM11.6 27.975q0 .427-.062.765-.06.337-.198.571-.135.234-.35.357-.214.123-.52.123-.285 0-.497-.123-.21-.123-.35-.357-.137-.234-.207-.571-.068-.338-.068-.765t.06-.764q.063-.338.196-.57.135-.233.347-.356.215-.123.519-.123.287 0 .499.123.212.12.352.354.14.232.21.57.07.337.07.766zm-1.806 0q0 .362.037.632.036.27.115.451.08.179.208.27.13.09.316.09.185 0 .316-.09.13-.09.212-.268.084-.178.12-.448.039-.273.039-.637 0-.361-.039-.632-.036-.27-.12-.448-.082-.179-.212-.268-.13-.089-.316-.089t-.316.09q-.128.088-.208.267-.08.178-.115.448-.037.27-.037.632zM15.604 27.975q0 .427-.063.765-.06.337-.198.571-.135.234-.35.357-.214.123-.52.123-.285 0-.497-.123-.21-.123-.35-.357-.137-.234-.207-.571-.068-.338-.068-.765t.06-.764q.063-.338.196-.57.135-.233.347-.356.215-.123.519-.123.287 0 .5.123.211.12.351.354.14.232.21.57.07.337.07.766zm-1.806 0q0 .362.036.632t.116.451q.08.179.207.27.13.09.316.09t.316-.09q.13-.09.212-.268.084-.178.12-.448.04-.273.04-.637 0-.361-.04-.632-.036-.27-.12-.448-.082-.179-.212-.268-.13-.089-.316-.089t-.316.09q-.128.088-.207.267-.08.178-.116.448-.036.27-.036.632zM19.607 27.975q0 .427-.063.765-.06.337-.197.571-.135.234-.35.357-.215.123-.52.123-.285 0-.498-.123-.21-.123-.35-.357-.137-.234-.207-.571-.067-.338-.067-.765t.06-.764q.063-.338.195-.57.135-.233.348-.356.214-.123.518-.123.287 0 .5.123.211.12.351.354.14.232.21.57.07.337.07.766zm-1.806 0q0 .362.036.632t.116.451q.08.179.207.27.13.09.316.09t.316-.09q.13-.09.212-.268.085-.178.12-.448.04-.273.04-.637 0-.361-.04-.632-.035-.27-.12-.448-.082-.179-.212-.268-.13-.089-.316-.089t-.316.09q-.128.088-.207.267-.08.178-.116.448-.036.27-.036.632zM23.61 27.975q0 .427-.062.765-.06.337-.198.571-.135.234-.35.357-.214.123-.52.123-.285 0-.497-.123-.21-.123-.35-.357-.138-.234-.208-.571-.067-.338-.067-.765t.06-.764q.063-.338.196-.57.135-.233.347-.356.214-.123.518-.123.287 0 .5.123.212.12.352.354.14.232.21.57.07.337.07.766zm-1.806 0q0 .362.036.632t.116.451q.08.179.207.27.13.09.316.09t.316-.09q.13-.09.212-.268.085-.178.121-.448.039-.273.039-.637 0-.361-.039-.632-.036-.27-.12-.448-.083-.179-.213-.268-.13-.089-.316-.089-.185 0-.316.09-.127.088-.207.267-.08.178-.116.448-.036.27-.036.632zM26.84 29.743h-.425v-2.202-.222l.005-.234q.005-.118.007-.224.005-.108.007-.19-.04.043-.072.074-.032.032-.065.06l-.068.063-.087.075-.357.292-.231-.297.924-.72h.361zM30.843 29.743h-.425v-2.202-.222l.005-.234q.005-.118.007-.224.005-.108.007-.19-.04.043-.072.074-.031.032-.065.06l-.068.063-.086.075-.357.292-.232-.297.924-.72h.362z"/></g><g style="line-height:6.61458px;-inkscape-font-specification:'Droid Sans';text-align:start" font-weight="400" font-size="2.822" font-family="Droid Sans" letter-spacing="0" word-spacing="0" opacity=".796" stroke-width=".265"><path d="M16.264 33.043q.13 0 .236.05.106.05.18.148.076.098.117.244.042.146.042.34 0 .194-.042.341-.04.146-.117.245-.074.1-.18.15-.106.05-.236.05-.081 0-.147-.018-.066-.018-.12-.047-.053-.03-.094-.07-.04-.04-.072-.084h-.016l-.051.192h-.183v-2.145h.25v.519l-.001.103q-.001.054-.004.1l-.006.108h.011q.032-.048.072-.09.04-.04.092-.071.054-.03.12-.047.066-.018.15-.018zm-.048.208q-.11 0-.185.036-.073.034-.118.106-.044.072-.064.18-.018.107-.018.251 0 .14.018.248.02.108.064.182.045.073.12.112.074.037.186.037.186 0 .272-.15.089-.15.089-.431 0-.287-.089-.429-.086-.142-.275-.142zM17.485 34.584h-.25V33.07h.25zm-.27-1.923q0-.082.041-.12.043-.037.105-.037.03 0 .057.01.027.008.046.027.021.02.032.05.012.029.012.07 0 .08-.044.12-.042.039-.103.039-.062 0-.105-.039-.041-.038-.041-.12zM18.425 34.406q.025 0 .055-.003l.06-.007q.03-.004.053-.01.025-.005.037-.009v.19q-.018.008-.045.017-.028.008-.06.013-.034.007-.07.01-.036.004-.07.004-.086 0-.159-.022-.073-.022-.126-.076-.053-.053-.083-.144-.03-.093-.03-.232v-.878h-.214v-.111l.214-.108.107-.317h.145v.348h.38v.188h-.38v.878q0 .134.043.201.044.068.143.068zM20.809 34.584l-.232-.85-.013-.054-.017-.067-.018-.07-.016-.07-.04-.165h-.009l-.037.166q-.015.07-.033.142-.016.073-.032.124l-.237.844h-.29l-.388-1.513h.264l.18.804q.014.062.028.135l.026.144.022.133.015.102h.008l.018-.095.026-.127.03-.132q.016-.066.03-.111l.246-.853h.27l.237.853q.013.046.028.11.017.063.032.13.015.064.027.125.013.06.018.1h.009l.012-.095.022-.132.026-.146q.015-.076.03-.14l.19-.805h.256l-.392 1.513zM22.016 34.584h-.25V33.07h.25zm-.27-1.923q0-.082.041-.12.043-.037.105-.037.03 0 .057.01.027.008.046.027.021.02.032.05.012.029.012.07 0 .08-.044.12-.042.039-.103.039-.062 0-.105-.039-.041-.038-.041-.12zM23.433 34.381h-.011q-.03.047-.072.09-.04.041-.094.073-.052.031-.118.05-.066.017-.149.017-.128 0-.234-.05-.106-.049-.182-.147-.076-.1-.117-.245-.042-.146-.042-.34 0-.193.042-.34.041-.147.117-.246.076-.1.182-.149.106-.051.234-.051.081 0 .147.018.067.018.119.048.054.03.095.07.041.04.072.084h.016l-.008-.09-.006-.072-.002-.06v-.602h.25v2.145h-.202zm-.396.022q.105 0 .177-.032.073-.031.117-.096.045-.065.066-.161.022-.098.025-.228v-.056q0-.14-.02-.247-.018-.109-.063-.182-.044-.074-.119-.111-.074-.039-.186-.039-.186 0-.274.15-.087.15-.087.432 0 .288.087.43.088.14.277.14zM24.61 34.406q.024 0 .055-.003l.06-.007q.03-.004.053-.01l.037-.009v.19q-.018.008-.046.017-.027.008-.06.013-.033.007-.07.01-.035.004-.07.004-.085 0-.158-.022t-.127-.076q-.052-.053-.082-.144-.03-.093-.03-.232v-.878h-.214v-.111l.213-.108.108-.317h.145v.348h.38v.188h-.38v.878q0 .134.042.201.044.068.144.068zM26.056 34.584v-.975q0-.179-.073-.268-.071-.09-.226-.09-.111 0-.187.036t-.123.106q-.045.07-.066.172-.02.102-.02.235v.784h-.25v-2.145h.25v.637l-.01.198h.014q.034-.059.081-.101.048-.045.105-.074.056-.028.12-.042.063-.014.13-.014.251 0 .378.132.128.131.128.42v.989z"/></g><path d="M8.697 23.95v8.126h23.75V23.95zM7.447 23.95v8.126H.572V23.95z" fill="none" stroke="red" stroke-width=".401"/><g style="line-height:6.61458px;-inkscape-font-specification:'Droid Sans';text-align:start" font-weight="400" font-size="2.822" font-family="Droid Sans" letter-spacing="0" word-spacing="0" opacity=".796" stroke-width=".265"><path d="M2.04 34.331l.054-.002.06-.007q.03-.004.053-.01.025-.005.037-.01v.19q-.017.009-.045.017-.028.009-.06.014-.034.007-.07.01-.035.004-.07.004-.085 0-.158-.022t-.127-.076q-.052-.054-.083-.145-.03-.092-.03-.231v-.878h-.214v-.112l.214-.107.107-.317h.145v.347h.38v.189h-.38v.878q0 .133.043.2.044.068.143.068zM2.315 32.996h.26l.296.845q.02.055.039.116.02.06.037.12.018.061.03.118.013.057.018.105h.009q.007-.035.022-.094l.033-.125.038-.133.036-.11.275-.842h.259l-.598 1.71q-.04.112-.085.2-.044.09-.103.152-.06.062-.14.095-.079.034-.19.034-.07 0-.123-.008-.053-.007-.09-.015v-.2q.03.007.073.01.044.006.093.006.066 0 .114-.016.048-.015.084-.046.036-.03.06-.074.027-.044.047-.1l.079-.221zM4.602 34.537q-.081 0-.147-.018-.066-.018-.12-.047-.052-.03-.094-.07-.04-.04-.071-.084h-.017l.008.09.006.074q.003.037.003.059v.646h-.251v-2.19h.204l.036.203h.01q.032-.048.072-.09.04-.042.093-.073.053-.031.12-.05.066-.018.148-.018.13 0 .236.05.106.049.18.148.076.098.118.244.04.146.04.339 0 .194-.04.342-.042.146-.118.245-.074.1-.18.15-.106.05-.236.05zm-.048-1.36q-.105 0-.178.031-.071.032-.117.097-.044.065-.066.161-.02.096-.023.227v.057q0 .14.017.248.02.107.064.182.045.073.12.111.074.038.186.038.186 0 .273-.15.088-.15.088-.432 0-.287-.088-.428-.087-.142-.276-.142zM6.17 34.537q-.151 0-.277-.051-.125-.051-.216-.15-.09-.097-.139-.242-.05-.144-.05-.33 0-.188.046-.335.045-.148.128-.25.083-.103.197-.157.116-.053.255-.053.136 0 .245.05.11.047.185.137.076.088.116.214.041.124.041.275v.156h-.954q.007.266.112.391.106.126.314.126.07 0 .13-.007t.116-.02q.056-.013.108-.033.053-.02.106-.045v.223q-.055.026-.108.046-.053.019-.11.031-.054.013-.115.018-.06.006-.13.006zm-.062-1.36q-.157 0-.249.107-.09.108-.106.313h.678q0-.094-.02-.17-.017-.08-.057-.135-.039-.055-.1-.085-.06-.03-.146-.03z"/></g><path fill="#fff" fill-rule="evenodd" stroke="#000" stroke-width=".34" d="M36.321 24.69H70v6.56H36.321z"/><g style="line-height:6.61458px;-inkscape-font-specification:'Droid Sans';text-align:start" font-weight="400" font-size="4.939" font-family="Droid Sans" letter-spacing="0" word-spacing="0" stroke-width=".265"><path d="M38.971 29.625h-.424v-2.202-.221l.005-.234.007-.225q.005-.108.007-.19l-.072.075-.065.06-.068.063-.087.074-.357.292-.231-.296.923-.722h.362zM43.749 27.857q0 .427-.063.765-.06.338-.198.572-.135.233-.35.356-.214.123-.52.123-.285 0-.497-.123-.21-.123-.35-.356-.137-.234-.207-.572-.068-.338-.068-.765 0-.426.06-.764.063-.338.196-.57.135-.233.347-.356.215-.123.519-.123.287 0 .499.123.212.12.352.354.14.232.21.57.07.337.07.766zm-1.807 0q0 .362.037.632.036.27.115.451.08.179.208.27.13.09.316.09.185 0 .316-.09.13-.089.212-.267.084-.179.12-.449.039-.272.039-.637 0-.361-.039-.631-.036-.27-.12-.449-.082-.178-.212-.268-.13-.089-.316-.089t-.316.09q-.128.089-.208.267-.08.179-.115.449-.037.27-.037.631zM46.978 29.625h-.425v-2.202-.221l.005-.234q.005-.119.007-.225l.008-.19-.073.075q-.031.03-.065.06l-.067.063q-.037.03-.087.074l-.357.292-.232-.296.924-.722h.362zM50.981 29.625h-.424v-2.202-.221l.004-.234.008-.225.007-.19-.073.075q-.031.03-.065.06l-.067.063-.087.074-.357.292-.232-.296.924-.722h.362zM54.984 29.625h-.424v-2.202-.221l.005-.234.007-.225q.005-.108.007-.19l-.072.075-.066.06-.067.063-.087.074-.357.292-.231-.296.923-.722h.362zM59.761 27.857q0 .427-.062.765-.06.338-.198.572-.135.233-.35.356-.214.123-.52.123-.285 0-.497-.123-.21-.123-.35-.356-.137-.234-.207-.572-.068-.338-.068-.765 0-.426.06-.764.063-.338.196-.57.135-.233.347-.356.215-.123.518-.123.287 0 .5.123.212.12.352.354.14.232.21.57.07.337.07.766zm-1.806 0q0 .362.036.632.037.27.116.451.08.179.208.27.13.09.315.09.186 0 .316-.09.13-.089.213-.267.084-.179.12-.449.039-.272.039-.637 0-.361-.039-.631-.036-.27-.12-.449-.082-.178-.213-.268-.13-.089-.316-.089-.185 0-.315.09-.128.089-.208.267-.08.179-.116.449-.036.27-.036.631zM63.765 27.857q0 .427-.063.765-.06.338-.198.572-.135.233-.35.356-.214.123-.52.123-.285 0-.497-.123-.21-.123-.35-.356-.137-.234-.207-.572-.068-.338-.068-.765 0-.426.06-.764.063-.338.196-.57.135-.233.347-.356.215-.123.519-.123.287 0 .499.123.212.12.352.354.14.232.21.57.07.337.07.766zm-1.807 0q0 .362.037.632.036.27.115.451.08.179.208.27.13.09.316.09.185 0 .316-.09.13-.089.212-.267.084-.179.12-.449.039-.272.039-.637 0-.361-.039-.631-.036-.27-.12-.449-.082-.178-.212-.268-.13-.089-.316-.089t-.316.09q-.128.089-.208.267-.08.179-.115.449-.037.27-.037.631zM67.768 27.857q0 .427-.063.765-.06.338-.198.572-.135.233-.35.356-.214.123-.52.123-.285 0-.497-.123-.21-.123-.35-.356-.137-.234-.207-.572-.067-.338-.067-.765 0-.426.06-.764.062-.338.195-.57.135-.233.347-.356.215-.123.519-.123.287 0 .5.123.211.12.351.354.14.232.21.57.07.337.07.766zm-1.806 0q0 .362.036.632t.116.451q.08.179.207.27.13.09.316.09t.316-.09q.13-.089.212-.267.084-.179.12-.449.04-.272.04-.637 0-.361-.04-.631-.036-.27-.12-.449-.082-.178-.212-.268-.13-.089-.316-.089t-.316.09q-.128.089-.207.267-.08.179-.116.449-.036.27-.036.631z"/></g><path d="M88.062 29.357q0-.091.025-.154.024-.065.065-.104.04-.04.096-.057.056-.02.12-.02.063 0 .119.02.058.016.099.057.04.039.065.104.024.063.024.154 0 .09-.024.155-.024.063-.065.104-.041.04-.1.06-.055.02-.117.02-.065 0-.12-.02-.056-.02-.097-.06-.041-.041-.065-.104-.025-.065-.025-.155zm1.324 0q0-.091.025-.154.024-.065.065-.104.04-.04.096-.057.056-.02.12-.02.063 0 .119.02.058.016.099.057.04.039.065.104.024.063.024.154 0 .09-.024.155-.024.063-.065.104-.041.04-.1.06-.055.02-.117.02-.065 0-.12-.02-.056-.02-.097-.06-.041-.041-.065-.104-.025-.065-.025-.155zm1.324 0q0-.091.022-.154.024-.065.065-.104.044-.04.099-.057.056-.02.12-.02.063 0 .119.02.058.016.099.057.04.039.065.104.024.063.024.154 0 .09-.024.155-.024.063-.065.104-.041.04-.1.06-.055.02-.117.02-.13 0-.22-.08-.087-.08-.087-.259z" font-size="4.939" style="line-height:6.61458px;-inkscape-font-specification:'Droid Sans';text-align:start" font-weight="400" font-family="Droid Sans" letter-spacing="0" word-spacing="0" stroke-width=".265"/><path fill="#fff" fill-rule="evenodd" stroke="#000" stroke-width=".34" d="M.17 39.183h33.679v6.56H.17z"/><g style="line-height:6.61458px;-inkscape-font-specification:'Droid Sans';text-align:start" font-weight="400" font-size="4.939" font-family="Droid Sans" letter-spacing="0" word-spacing="0" stroke-width=".265"><path d="M3.594 42.35q0 .427-.062.765-.06.337-.198.571-.135.234-.35.357-.214.123-.52.123-.285 0-.498-.123-.21-.123-.35-.357-.137-.234-.207-.571-.067-.338-.067-.765t.06-.764q.063-.338.195-.57.136-.233.348-.356.214-.123.518-.123.287 0 .5.123.212.12.352.354.14.232.21.57.07.337.07.766zm-1.806 0q0 .362.036.632t.116.451q.08.179.207.27.13.09.316.09t.316-.09q.13-.09.212-.268.085-.178.12-.448.04-.273.04-.637 0-.361-.04-.632-.035-.27-.12-.448-.082-.179-.212-.268-.13-.089-.316-.089-.185 0-.316.09-.127.088-.207.267-.08.178-.116.448-.036.27-.036.632zM7.597 42.35q0 .427-.062.765-.06.337-.198.571-.135.234-.35.357-.214.123-.52.123-.285 0-.497-.123-.21-.123-.35-.357-.137-.234-.207-.571-.068-.338-.068-.765t.06-.764q.063-.338.196-.57.135-.233.347-.356.215-.123.518-.123.287 0 .5.123.212.12.352.354.14.232.21.57.07.337.07.766zm-1.806 0q0 .362.036.632.037.27.116.451.08.179.208.27.13.09.315.09.186 0 .316-.09t.213-.268q.084-.178.12-.448.039-.273.039-.637 0-.361-.039-.632-.036-.27-.12-.448-.082-.179-.213-.268-.13-.089-.316-.089-.185 0-.315.09-.128.088-.208.267-.08.178-.116.448-.036.27-.036.632zM11.6 42.35q0 .427-.062.765-.06.337-.198.571-.135.234-.35.357-.214.123-.52.123-.285 0-.497-.123-.21-.123-.35-.357-.137-.234-.207-.571-.068-.338-.068-.765t.06-.764q.063-.338.196-.57.135-.233.347-.356.215-.123.519-.123.287 0 .499.123.212.12.352.354.14.232.21.57.07.337.07.766zm-1.806 0q0 .362.037.632.036.27.115.451.08.179.208.27.13.09.316.09.185 0 .316-.09.13-.09.212-.268.084-.178.12-.448.039-.273.039-.637 0-.361-.039-.632-.036-.27-.12-.448-.082-.179-.212-.268-.13-.089-.316-.089t-.316.09q-.128.088-.208.267-.08.178-.115.448-.037.27-.037.632zM15.604 42.35q0 .427-.063.765-.06.337-.198.571-.135.234-.35.357-.214.123-.52.123-.285 0-.497-.123-.21-.123-.35-.357-.137-.234-.207-.571-.068-.338-.068-.765t.06-.764q.063-.338.196-.57.135-.233.347-.356.215-.123.519-.123.287 0 .5.123.211.12.351.354.14.232.21.57.07.337.07.766zm-1.806 0q0 .362.036.632t.116.451q.08.179.207.27.13.09.316.09t.316-.09q.13-.09.212-.268.084-.178.12-.448.04-.273.04-.637 0-.361-.04-.632-.036-.27-.12-.448-.082-.179-.212-.268-.13-.089-.316-.089t-.316.09q-.128.088-.207.267-.08.178-.116.448-.036.27-.036.632zM19.607 42.35q0 .427-.063.765-.06.337-.197.571-.135.234-.35.357-.215.123-.52.123-.285 0-.498-.123-.21-.123-.35-.357-.137-.234-.207-.571-.067-.338-.067-.765t.06-.764q.063-.338.195-.57.135-.233.348-.356.214-.123.518-.123.287 0 .5.123.211.12.351.354.14.232.21.57.07.337.07.766zm-1.806 0q0 .362.036.632t.116.451q.08.179.207.27.13.09.316.09t.316-.09q.13-.09.212-.268.085-.178.12-.448.04-.273.04-.637 0-.361-.04-.632-.035-.27-.12-.448-.082-.179-.212-.268-.13-.089-.316-.089t-.316.09q-.128.088-.207.267-.08.178-.116.448-.036.27-.036.632zM23.61 42.35q0 .427-.062.765-.06.337-.198.571-.135.234-.35.357-.214.123-.52.123-.285 0-.497-.123-.21-.123-.35-.357-.138-.234-.208-.571-.067-.338-.067-.765t.06-.764q.063-.338.196-.57.135-.233.347-.356.214-.123.518-.123.287 0 .5.123.212.12.352.354.14.232.21.57.07.337.07.766zm-1.806 0q0 .362.036.632t.116.451q.08.179.207.27.13.09.316.09t.316-.09q.13-.09.212-.268.085-.178.121-.448.039-.273.039-.637 0-.361-.039-.632-.036-.27-.12-.448-.083-.179-.213-.268-.13-.089-.316-.089-.185 0-.316.09-.127.088-.207.267-.08.178-.116.448-.036.27-.036.632zM26.84 44.118h-.425v-2.202-.222l.005-.234q.005-.118.007-.224.005-.108.007-.19-.04.043-.072.074-.032.032-.065.06l-.068.063-.087.075-.357.292-.231-.297.924-.72h.361zM30.843 44.118h-.425v-2.202-.222l.005-.234q.005-.118.007-.224.005-.108.007-.19-.04.043-.072.074-.031.032-.065.06l-.068.063-.086.075-.357.292-.232-.297.924-.72h.362z"/></g><g style="line-height:6.61458px;-inkscape-font-specification:'Droid Sans';text-align:start" font-weight="400" font-size="2.822" font-family="Droid Sans" letter-spacing="0" word-spacing="0" opacity=".796" stroke-width=".265"><path d="M16.264 47.418q.13 0 .236.05.106.05.18.148.076.098.117.244.042.146.042.34 0 .194-.042.341-.04.146-.117.245-.074.1-.18.15-.106.05-.236.05-.081 0-.147-.018-.066-.018-.12-.047-.053-.03-.094-.07-.04-.04-.072-.084h-.016l-.051.192h-.183v-2.145h.25v.519l-.001.103q-.001.054-.004.1l-.006.108h.011q.032-.048.072-.09.04-.04.092-.071.054-.03.12-.047.066-.018.15-.018zm-.048.208q-.11 0-.185.036-.073.034-.118.106-.044.072-.064.18-.018.107-.018.251 0 .14.018.248.02.108.064.182.045.073.12.112.074.037.186.037.186 0 .272-.15.089-.15.089-.431 0-.287-.089-.429-.086-.142-.275-.142zM17.485 48.959h-.25v-1.513h.25zm-.27-1.923q0-.082.041-.12.043-.037.105-.037.03 0 .057.01.027.008.046.027.021.02.032.05.012.029.012.07 0 .08-.044.12-.042.039-.103.039-.062 0-.105-.039-.041-.038-.041-.12zM18.425 48.78l.055-.002.06-.007q.03-.004.053-.01.025-.005.037-.009v.19q-.018.008-.045.017-.028.008-.06.013-.034.007-.07.01-.036.004-.07.004-.086 0-.159-.022-.073-.022-.126-.076-.053-.053-.083-.144-.03-.093-.03-.232v-.878h-.214v-.111l.214-.108.107-.317h.145v.348h.38v.188h-.38v.878q0 .134.043.201.044.068.143.068zM20.809 48.959l-.232-.85-.013-.054-.017-.067-.018-.07-.016-.07-.04-.165h-.009l-.037.166q-.015.07-.033.142-.016.073-.032.124l-.237.844h-.29l-.388-1.513h.264l.18.804q.014.062.028.135l.026.144.022.133.015.102h.008l.018-.095.026-.127.03-.132q.016-.066.03-.111l.246-.853h.27l.237.853q.013.046.028.11.017.063.032.13.015.064.027.125.013.06.018.1h.009l.012-.095.022-.132.026-.146q.015-.076.03-.14l.19-.805h.256l-.392 1.513zM22.016 48.959h-.25v-1.513h.25zm-.27-1.923q0-.082.041-.12.043-.037.105-.037.03 0 .057.01.027.008.046.027.021.02.032.05.012.029.012.07 0 .08-.044.12-.042.039-.103.039-.062 0-.105-.039-.041-.038-.041-.12zM23.433 48.756h-.011q-.03.047-.072.09-.04.041-.094.073-.052.031-.118.05-.066.017-.149.017-.128 0-.234-.05-.106-.049-.182-.147-.076-.1-.117-.245-.042-.146-.042-.34 0-.193.042-.34.041-.147.117-.246.076-.1.182-.149.106-.051.234-.051.081 0 .147.018.067.018.119.048.054.03.095.07.041.04.072.084h.016l-.008-.09-.006-.072-.002-.06v-.602h.25v2.145h-.202zm-.396.022q.105 0 .177-.032.073-.031.117-.096.045-.065.066-.161.022-.098.025-.228v-.056q0-.14-.02-.247-.018-.109-.063-.182-.044-.074-.119-.111-.074-.039-.186-.039-.186 0-.274.15-.087.15-.087.432 0 .288.087.43.088.14.277.14zM24.61 48.78l.055-.002.06-.007q.03-.004.053-.01l.037-.009v.19q-.018.008-.046.017-.027.008-.06.013-.033.007-.07.01-.035.004-.07.004-.085 0-.158-.022t-.127-.076q-.052-.053-.082-.144-.03-.093-.03-.232v-.878h-.214v-.111l.213-.108.108-.317h.144v.348h.38v.188h-.38v.878q0 .134.043.201.044.068.144.068zM26.056 48.959v-.975q0-.179-.073-.268-.071-.09-.226-.09-.111 0-.187.036t-.123.106q-.045.07-.066.172-.02.102-.02.235v.784h-.25v-2.145h.25v.637l-.01.198h.014q.034-.059.081-.101.048-.045.105-.074.056-.028.12-.042.063-.014.13-.014.251 0 .378.132.128.131.128.42v.989z"/></g><path d="M8.697 38.325v8.125h23.75v-8.125zM7.447 38.325v8.125H.572v-8.125z" fill="none" stroke="red" stroke-width=".401"/><g style="line-height:6.61458px;-inkscape-font-specification:'Droid Sans';text-align:start" font-weight="400" font-size="2.822" font-family="Droid Sans" letter-spacing="0" word-spacing="0" opacity=".796" stroke-width=".265"><path d="M2.04 48.706l.054-.002.06-.007q.03-.004.053-.01.025-.005.037-.01v.19q-.017.009-.045.017-.028.009-.06.014-.034.007-.07.01-.035.004-.07.004-.085 0-.158-.022t-.127-.076q-.052-.054-.083-.145-.03-.092-.03-.231v-.878h-.214v-.112l.214-.107.107-.317h.145v.347h.38v.189h-.38v.878q0 .133.043.2.044.068.143.068zM2.315 47.371h.26l.296.845q.02.055.039.116.02.06.037.12.018.062.03.118.013.057.018.105h.009q.007-.035.022-.094l.033-.125.038-.133.036-.11.275-.842h.259l-.598 1.71q-.04.112-.085.2-.044.09-.103.152-.06.062-.14.095-.079.034-.19.034-.07 0-.123-.008-.053-.007-.09-.015v-.2q.03.007.073.01.044.006.093.006.066 0 .114-.016.048-.015.084-.046.036-.03.06-.074.027-.044.047-.1l.079-.221zM4.602 48.912q-.081 0-.147-.018-.066-.018-.12-.047-.052-.03-.094-.07-.04-.04-.071-.084h-.017l.008.09.006.074q.003.037.003.059v.646h-.251v-2.19h.204l.036.203h.01q.032-.048.072-.09.04-.042.093-.073.053-.031.12-.05.066-.018.148-.018.13 0 .236.05.106.049.18.148.076.098.118.244.04.146.04.339 0 .194-.04.342-.042.146-.118.245-.074.1-.18.15-.106.05-.236.05zm-.048-1.36q-.105 0-.178.031-.071.032-.117.097-.044.065-.066.161-.02.096-.023.227v.057q0 .14.017.248.02.107.064.182.045.073.12.111.074.038.186.038.186 0 .273-.15.088-.15.088-.432 0-.286-.088-.428-.087-.142-.276-.142zM6.17 48.912q-.151 0-.277-.051-.125-.051-.216-.15-.09-.097-.139-.242-.05-.144-.05-.33 0-.188.046-.335.045-.148.128-.25.083-.103.197-.157.116-.053.255-.053.136 0 .245.05.11.047.185.137.076.088.116.214.041.124.041.275v.156h-.954q.007.266.112.391.106.126.314.126.07 0 .13-.007t.116-.02q.056-.013.108-.033.053-.02.106-.045v.223q-.055.026-.108.046-.053.019-.11.031-.054.013-.115.018-.06.006-.13.006zm-.062-1.36q-.157 0-.249.107-.09.108-.106.313h.678q0-.094-.02-.17-.017-.08-.057-.135-.039-.055-.1-.085-.06-.03-.146-.03z"/></g><path fill="#fff" fill-rule="evenodd" stroke="#000" stroke-width=".34" d="M36.321 39.065H70v6.56H36.321z"/><g style="line-height:6.61458px;-inkscape-font-specification:'Droid Sans';text-align:start" font-weight="400" font-size="4.939" font-family="Droid Sans" letter-spacing="0" word-spacing="0" stroke-width=".265"><path d="M38.971 44h-.424v-2.202-.221l.005-.234.007-.225q.005-.108.007-.19l-.072.075-.065.06-.068.063-.087.074-.357.292-.231-.296.923-.722h.362zM43.749 42.232q0 .427-.063.765-.06.338-.198.572-.135.233-.35.356-.214.123-.52.123-.285 0-.497-.123-.21-.123-.35-.356-.137-.234-.207-.572-.068-.338-.068-.765 0-.426.06-.764.063-.338.196-.57.135-.233.347-.356.215-.123.519-.123.287 0 .499.123.212.12.352.354.14.232.21.57.07.337.07.766zm-1.807 0q0 .362.037.632.036.27.115.451.08.179.208.27.13.09.316.09.185 0 .316-.09.13-.089.212-.267.084-.179.12-.449.039-.272.039-.637 0-.361-.039-.631-.036-.27-.12-.449-.082-.178-.212-.268-.13-.089-.316-.089t-.316.09q-.128.089-.208.267-.08.179-.115.449-.037.27-.037.631zM46.978 44h-.425v-2.202-.221l.005-.234q.005-.119.007-.225l.008-.19-.073.075q-.031.03-.065.06l-.067.063q-.037.03-.087.074l-.357.292-.232-.296.924-.722h.362zM50.981 44h-.424v-2.202-.221l.004-.234.008-.225.007-.19-.073.075q-.031.03-.065.06l-.067.063-.087.074-.357.292-.232-.296.924-.722h.362zM54.984 44h-.424v-2.202-.221l.005-.234.007-.225q.005-.108.007-.19l-.072.075-.066.06-.067.063-.087.074-.357.292-.231-.296.923-.722h.362zM59.761 42.232q0 .427-.062.765-.06.338-.198.572-.135.233-.35.356-.214.123-.52.123-.285 0-.497-.123-.21-.123-.35-.356-.137-.234-.207-.572-.068-.338-.068-.765 0-.426.06-.764.063-.338.196-.57.135-.233.347-.356.215-.123.518-.123.287 0 .5.123.212.12.352.354.14.232.21.57.07.337.07.766zm-1.806 0q0 .362.036.632.037.27.116.451.08.179.208.27.13.09.315.09.186 0 .316-.09.13-.089.213-.267.084-.179.12-.449.039-.272.039-.637 0-.361-.039-.631-.036-.27-.12-.449-.082-.178-.213-.268-.13-.089-.316-.089-.185 0-.315.09-.128.089-.208.267-.08.179-.116.449-.036.27-.036.631zM63.765 42.232q0 .427-.063.765-.06.338-.198.572-.135.233-.35.356-.214.123-.52.123-.285 0-.497-.123-.21-.123-.35-.356-.137-.234-.207-.572-.068-.338-.068-.765 0-.426.06-.764.063-.338.196-.57.135-.233.347-.356.215-.123.519-.123.287 0 .499.123.212.12.352.354.14.232.21.57.07.337.07.766zm-1.807 0q0 .362.037.632.036.27.115.451.08.179.208.27.13.09.316.09.185 0 .316-.09.13-.089.212-.267.084-.179.12-.449.039-.272.039-.637 0-.361-.039-.631-.036-.27-.12-.449-.082-.178-.212-.268-.13-.089-.316-.089t-.316.09q-.128.089-.208.267-.08.179-.115.449-.037.27-.037.631zM67.768 42.232q0 .427-.063.765-.06.338-.198.572-.135.233-.35.356-.214.123-.52.123-.285 0-.497-.123-.21-.123-.35-.356-.137-.234-.207-.572-.067-.338-.067-.765 0-.426.06-.764.062-.338.195-.57.135-.233.347-.356.215-.123.519-.123.287 0 .5.123.211.12.351.354.14.232.21.57.07.337.07.766zm-1.806 0q0 .362.036.632t.116.451q.08.179.207.27.13.09.316.09t.316-.09q.13-.089.212-.267.084-.179.12-.449.04-.272.04-.637 0-.361-.04-.631-.036-.27-.12-.449-.082-.178-.212-.268-.13-.089-.316-.089t-.316.09q-.128.089-.207.267-.08.179-.116.449-.036.27-.036.631z"/></g><path d="M88.062 43.732q0-.091.025-.154.024-.065.065-.104.04-.04.096-.057.056-.02.12-.02.063 0 .119.02.058.016.099.057.04.039.065.104.024.063.024.154 0 .09-.024.155-.024.063-.065.104-.041.04-.1.06-.055.02-.117.02-.065 0-.12-.02-.056-.02-.097-.06-.041-.041-.065-.104-.025-.065-.025-.155zm1.324 0q0-.091.025-.154.024-.065.065-.104.04-.04.096-.057.056-.02.12-.02.063 0 .119.02.058.016.099.057.04.039.065.104.024.063.024.154 0 .09-.024.155-.024.063-.065.104-.041.04-.1.06-.055.02-.117.02-.065 0-.12-.02-.056-.02-.097-.06-.041-.041-.065-.104-.025-.065-.025-.155zm1.324 0q0-.091.022-.154.024-.065.065-.104.044-.04.099-.057.056-.02.12-.02.063 0 .119.02.058.016.099.057.04.039.065.104.024.063.024.154 0 .09-.024.155-.024.063-.065.104-.041.04-.1.06-.055.02-.117.02-.13 0-.22-.08-.087-.08-.087-.259z" font-size="4.939" style="line-height:6.61458px;-inkscape-font-specification:'Droid Sans';text-align:start" font-weight="400" font-family="Droid Sans" letter-spacing="0" word-spacing="0" stroke-width=".265"/><g style="line-height:6.61458px;-inkscape-font-specification:'Droid Sans';text-align:start" font-weight="400" font-size="2.822" font-family="Droid Sans" letter-spacing="normal" word-spacing="normal" stroke-width=".265" white-space="normal"><path style="line-height:normal;font-variant-ligatures:normal;font-variant-position:normal;font-variant-caps:normal;font-variant-numeric:normal;font-variant-alternates:normal;font-variant-east-asian:normal;font-variation-settings:normal;text-indent:0;text-align:start;text-decoration-line:none;text-decoration-style:solid;text-decoration-color:#000;text-transform:none;text-orientation:mixed;shape-padding:0;shape-margin:0;inline-size:0" d="M51.622 51.609q.025 0 .055-.003l.06-.007q.03-.004.053-.01.025-.005.037-.009v.19q-.018.008-.045.017-.028.008-.06.013-.034.007-.07.01-.036.004-.07.004-.086 0-.159-.022-.073-.022-.126-.076-.053-.053-.083-.144-.03-.093-.03-.232v-.878h-.214v-.111l.214-.108.107-.317h.145v.348h.38v.188h-.38v.878q0 .134.043.201.044.068.143.068zM52.778 50.246q.04 0 .09.004.05.003.085.01l-.033.231q-.039-.007-.08-.01-.04-.006-.076-.006-.087 0-.158.036-.072.034-.124.1-.051.065-.08.157-.028.091-.028.203v.816h-.25v-1.513h.203l.03.276h.012q.034-.059.073-.114.04-.055.088-.096.05-.043.11-.068.06-.026.138-.026zM54.073 51.787l-.05-.21h-.012q-.045.062-.09.108-.046.044-.1.073-.054.029-.12.042-.066.014-.153.014-.095 0-.175-.027-.08-.027-.139-.082-.058-.056-.09-.14-.034-.086-.034-.201 0-.226.159-.348.16-.12.485-.132l.253-.01v-.095q0-.092-.02-.154t-.058-.1q-.038-.038-.094-.054-.055-.017-.127-.017-.114 0-.213.033-.098.033-.19.08l-.087-.189q.102-.055.227-.093.125-.039.263-.039.14 0 .243.029.103.028.17.09.067.06.1.155t.033.23v1.037zm-.46-.175q.084 0 .156-.027.072-.026.124-.078.052-.054.081-.134.03-.081.03-.19v-.136l-.197.01q-.124.005-.208.027-.084.022-.135.062-.05.038-.071.095-.022.055-.022.125 0 .127.066.186.067.06.176.06zM54.97 51.787h-.25v-1.513h.25zm-.27-1.923q0-.082.042-.12.042-.037.104-.037.03 0 .057.01.028.008.047.027.02.02.032.05.012.029.012.07 0 .08-.044.12-.043.039-.104.039-.062 0-.104-.039-.042-.038-.042-.12zM55.704 51.787h-.251v-2.145h.25zM56.437 51.787h-.251v-1.513h.25zm-.27-1.923q0-.082.041-.12.043-.037.105-.037.03 0 .056.01.028.008.047.027.02.02.032.05.012.029.012.07 0 .08-.044.12-.043.039-.103.039-.062 0-.105-.039-.041-.038-.041-.12zM57.864 51.787v-.975q0-.179-.073-.268-.071-.09-.226-.09-.111 0-.187.036t-.123.106q-.045.07-.066.172-.02.102-.02.235v.784h-.25v-1.513h.204l.036.204h.014q.034-.06.08-.102.05-.045.106-.073.056-.03.12-.043.063-.014.13-.014.251 0 .378.132.128.131.128.42v.989zM59.75 50.274v.155l-.272.038q.039.048.065.124.026.074.026.169 0 .105-.033.194-.032.089-.098.153-.065.065-.161.102-.097.036-.225.036h-.06q-.03-.001-.05-.005-.023.013-.047.031-.022.017-.041.039-.018.022-.03.05-.012.027-.012.06 0 .037.017.06t.044.035q.03.013.068.017.038.004.081.004h.243q.128 0 .216.033.088.032.143.087.057.055.081.13.025.075.025.16 0 .12-.045.217-.044.096-.137.162-.092.068-.234.104-.14.036-.332.036-.147 0-.258-.03-.11-.028-.183-.083-.073-.055-.11-.134-.036-.077-.036-.175 0-.083.026-.146.028-.062.073-.108.046-.045.105-.074.06-.029.125-.044-.058-.026-.095-.083-.037-.056-.037-.13 0-.083.044-.144.044-.062.14-.12-.06-.025-.11-.067-.048-.045-.082-.1-.033-.056-.053-.122-.018-.066-.018-.137 0-.122.035-.219.034-.096.102-.164.067-.067.168-.103.1-.036.234-.036.051 0 .105.008.055.007.092.02zm-1.118 1.76q0 .052.018.096.018.044.058.076.041.031.107.05.068.018.167.018.256 0 .383-.08.128-.078.128-.227 0-.063-.016-.103-.017-.04-.055-.064-.038-.022-.1-.03-.062-.008-.151-.008h-.243q-.048 0-.1.01-.053.012-.097.042-.043.03-.071.083-.028.054-.028.138zm.127-1.274q0 .158.074.236.075.077.211.077.138 0 .208-.076.072-.077.072-.241 0-.17-.073-.25-.072-.08-.21-.08-.136 0-.21.083-.072.083-.072.251zM61.461 50.246q.13 0 .236.05.106.05.18.148.076.098.117.244.042.146.042.34 0 .194-.042.341-.041.146-.117.245-.074.1-.18.15-.106.05-.236.05-.081 0-.147-.018-.067-.018-.12-.047-.053-.03-.094-.07-.04-.04-.072-.084h-.016l-.051.192h-.183v-2.145h.25v.519l-.001.103q-.001.054-.004.1l-.006.108h.011q.032-.048.072-.09.04-.04.092-.071.054-.03.12-.047.066-.018.15-.018zm-.048.208q-.11 0-.185.036-.073.034-.118.106-.044.072-.064.18-.018.107-.018.251 0 .14.018.248.02.108.064.182.045.073.12.112.074.037.186.037.186 0 .272-.15.089-.15.089-.431 0-.287-.089-.429-.086-.142-.275-.142zM62.682 51.787h-.25v-2.145h.25zM64.398 51.027q0 .19-.047.337-.046.146-.132.246-.086.1-.209.152-.122.052-.275.052-.142 0-.262-.052-.12-.053-.208-.152-.087-.1-.136-.246-.049-.148-.049-.337 0-.187.046-.332.047-.146.132-.245.085-.1.208-.152.124-.052.277-.052.142 0 .262.052.12.051.207.152.088.1.136.245.05.145.05.332zm-1.059 0q0 .288.094.434.095.145.307.145.213 0 .305-.145.094-.146.094-.434 0-.288-.095-.43-.094-.143-.306-.143-.213 0-.306.143-.093.142-.093.43zM65.375 51.814q-.14 0-.26-.042-.122-.045-.212-.138-.09-.095-.14-.241-.051-.148-.051-.355 0-.216.052-.366.053-.152.144-.245.092-.096.215-.138.122-.043.263-.043.107 0 .21.023.103.024.171.058l-.074.213q-.032-.014-.07-.027-.039-.013-.08-.023-.042-.011-.081-.017-.04-.007-.076-.007-.217 0-.316.14-.1.137-.1.43 0 .29.1.425.1.134.305.134.111 0 .2-.025.092-.026.166-.06v.223q-.074.04-.16.06-.084.021-.206.021zM66.334 51.005l.186-.234.404-.497h.29l-.552.654.59.859h-.288l-.463-.695-.15.113v.582h-.249v-2.145h.248v.984l-.022.38z"/></g><g style="line-height:6.61458px;-inkscape-font-specification:'Droid Sans';text-align:start" font-weight="400" font-size="2.822" font-family="Droid Sans" letter-spacing="normal" word-spacing="normal" stroke-width=".265" white-space="normal"><path style="line-height:normal;font-variant-ligatures:normal;font-variant-position:normal;font-variant-caps:normal;font-variant-numeric:normal;font-variant-alternates:normal;font-variant-east-asian:normal;font-variation-settings:normal;text-indent:0;text-align:start;text-decoration-line:none;text-decoration-style:solid;text-decoration-color:#000;text-transform:none;text-orientation:mixed;shape-padding:0;shape-margin:0;inline-size:0" d="M49.7 13.926h-1.256v-.215l.482-.525q.104-.111.185-.204.081-.092.138-.18.058-.088.088-.177.03-.09.03-.194 0-.081-.023-.143-.023-.062-.068-.105-.042-.044-.102-.066-.059-.022-.132-.022-.13 0-.237.054-.105.052-.2.135l-.14-.164q.055-.05.118-.093.064-.044.137-.075.073-.032.154-.05.081-.02.17-.02.133 0 .24.038.107.037.181.107.075.07.115.17.04.1.04.225 0 .117-.036.223t-.1.21q-.064.101-.154.205-.088.103-.191.215l-.388.412v.01h.95zM50.617 12.69q.137 0 .254.039.118.037.205.111.088.075.138.185.05.11.05.255 0 .157-.047.283-.047.125-.14.212-.092.087-.228.133-.135.046-.312.046-.07 0-.139-.007-.067-.007-.13-.02-.063-.013-.12-.034-.056-.02-.101-.048v-.237q.045.032.106.057.062.024.13.04.067.017.134.027.07.008.127.008.11 0 .195-.024.085-.027.144-.08.06-.054.091-.135.032-.082.032-.193 0-.197-.121-.3-.122-.106-.353-.106-.037 0-.081.005-.043.002-.087.008-.043.005-.083.012l-.067.011-.125-.078.076-.948h.951v.228h-.733l-.054.578q.044-.008.116-.018.073-.01.172-.01zM51.576 13.065q0-.145.014-.288.015-.143.051-.274.037-.132.1-.245.064-.113.162-.196.098-.084.234-.131.137-.048.32-.048l.058.001q.032.002.063.006.033.002.062.008.03.004.054.01v.215q-.048-.017-.109-.025-.06-.009-.12-.009-.124 0-.219.03-.094.03-.162.083-.07.054-.116.129-.046.074-.075.165-.029.09-.042.191-.014.102-.018.213h.016q.028-.05.066-.093.04-.044.093-.074.052-.032.117-.05.066-.018.147-.018.131 0 .237.042.106.04.18.118.075.079.115.193.042.113.042.26 0 .156-.043.282-.043.125-.123.213-.08.087-.193.134-.113.047-.253.047-.138 0-.26-.054-.12-.054-.207-.164-.089-.11-.14-.277-.05-.167-.05-.394zm.655.678q.083 0 .15-.028.07-.028.119-.085.05-.058.075-.145.028-.088.028-.208 0-.096-.023-.172-.022-.077-.068-.13-.045-.055-.114-.084-.068-.029-.159-.029-.092 0-.17.034-.075.031-.129.084-.054.05-.084.117-.029.066-.029.132 0 .092.025.185.026.09.076.164.05.073.127.12.075.045.176.045zM54.199 13.926h-.251v-1.513h.25zm-.27-1.922q0-.083.041-.12.043-.037.105-.037.03 0 .056.01.028.008.047.027.02.02.032.05.012.029.012.07 0 .08-.044.12-.043.038-.103.038-.062 0-.105-.038-.041-.039-.041-.12zM55.626 13.926v-.974q0-.18-.073-.269-.071-.09-.226-.09-.111 0-.187.037-.076.035-.123.106-.045.07-.066.172-.02.102-.02.234v.784h-.25v-1.513h.204l.036.204h.014q.034-.06.081-.102.048-.044.105-.073.056-.029.12-.043.063-.013.13-.013.251 0 .378.132.128.13.128.42v.988zM56.803 13.749q.025 0 .055-.003l.061-.007q.029-.004.052-.01.025-.005.038-.01v.19q-.018.01-.046.017-.027.009-.06.014-.034.007-.07.01-.035.004-.07.004-.085 0-.158-.022t-.127-.076q-.052-.054-.083-.145-.03-.092-.03-.231v-.878h-.213v-.112l.213-.107.108-.317h.144v.347h.38v.189h-.38v.878q0 .134.043.201.044.068.143.068zM57.903 13.954q-.152 0-.277-.051-.125-.051-.216-.149-.09-.098-.14-.242-.05-.145-.05-.331 0-.188.046-.335.046-.147.128-.25.083-.103.198-.157.115-.053.254-.053.137 0 .246.05.109.048.184.137.076.088.116.214.042.124.042.275v.156h-.954q.007.266.112.391.106.126.314.126.07 0 .13-.007t.115-.02q.057-.013.109-.032.052-.021.106-.046v.223q-.055.026-.109.046-.052.02-.109.031-.055.013-.115.018-.06.006-.13.006zm-.062-1.36q-.157 0-.25.107-.09.108-.106.313h.678q0-.094-.019-.17-.018-.08-.058-.134-.038-.056-.099-.086-.06-.03-.146-.03zM59.981 12.413v.156l-.271.037q.038.048.064.124.027.075.027.17 0 .104-.034.194-.031.088-.097.153-.065.065-.162.102-.096.036-.224.036h-.06q-.031-.002-.05-.006-.024.014-.047.032-.022.017-.042.039-.018.022-.03.05-.011.027-.011.06 0 .037.017.06.016.022.044.035.029.012.067.016.039.005.081.005h.243q.128 0 .216.033.089.031.144.086.056.056.081.131.025.075.025.159 0 .121-.046.218-.044.096-.136.162-.092.068-.234.103-.14.036-.332.036-.148 0-.258-.029-.11-.029-.183-.084-.073-.055-.11-.133-.037-.078-.037-.175 0-.083.027-.146.027-.062.073-.108.045-.045.104-.074.061-.03.126-.044-.058-.027-.095-.083-.037-.057-.037-.13 0-.084.044-.144.044-.062.139-.12-.06-.025-.11-.068-.047-.044-.082-.099-.033-.056-.052-.123-.018-.066-.018-.136 0-.123.034-.22.035-.096.102-.163.068-.068.169-.103.1-.036.234-.036.05 0 .105.008.055.007.092.02zm-1.118 1.761q0 .051.018.095.018.045.058.076.042.032.108.05.067.02.167.02.256 0 .383-.08.128-.08.128-.228 0-.064-.017-.104-.016-.04-.055-.063-.037-.022-.1-.03-.061-.009-.15-.009h-.243q-.048 0-.1.012-.053.01-.097.04-.043.031-.072.084-.028.053-.028.137zm.127-1.274q0 .158.075.235.074.078.21.078.138 0 .209-.076.071-.077.071-.241 0-.17-.073-.25-.071-.08-.21-.08-.136 0-.209.083-.073.083-.073.25zM60.874 13.954q-.152 0-.277-.051-.125-.051-.216-.149-.09-.098-.14-.242-.05-.145-.05-.331 0-.188.046-.335.046-.147.129-.25.082-.103.197-.157.115-.053.255-.053.136 0 .245.05.109.048.184.137.076.088.116.214.042.124.042.275v.156h-.954q.007.266.112.391.106.126.314.126.07 0 .13-.007t.115-.02q.057-.013.109-.032.052-.021.106-.046v.223q-.055.026-.109.046-.052.02-.109.031-.055.013-.115.018-.06.006-.13.006zm-.062-1.36q-.157 0-.25.107-.09.108-.106.313h.678q0-.094-.019-.17-.018-.08-.058-.134-.038-.056-.099-.086-.06-.03-.146-.03zM62.44 12.386q.04 0 .09.004.05.003.086.01l-.033.23q-.039-.006-.08-.01-.04-.006-.076-.006-.087 0-.158.036-.072.035-.124.1-.051.066-.08.158-.028.09-.028.202v.816h-.25v-1.513h.203l.03.277h.012q.034-.06.073-.114.04-.055.088-.097.05-.042.11-.067.06-.026.138-.026zM64.327 12.386q.13 0 .236.05.106.049.18.148.076.098.118.244.041.146.041.339 0 .194-.041.342-.042.146-.117.245-.075.1-.18.15-.107.05-.237.05-.08 0-.147-.018-.066-.018-.12-.047-.052-.03-.094-.07-.04-.04-.071-.084h-.017l-.05.191h-.184v-2.144h.25v.622l-.005.1-.005.108h.01q.032-.049.072-.09.04-.041.093-.072.053-.03.12-.046.066-.018.148-.018zm-.048.208q-.11 0-.184.036-.074.034-.119.106-.044.071-.063.179-.018.107-.018.252 0 .14.018.248.019.108.063.182.045.073.12.112.074.037.186.037.186 0 .273-.15.088-.15.088-.432 0-.286-.088-.428-.087-.142-.276-.142zM65.548 13.926h-.25v-2.144h.25zM67.264 13.167q0 .189-.047.336-.045.146-.132.247-.086.1-.208.152-.123.052-.276.052-.142 0-.262-.052-.12-.053-.208-.152-.087-.1-.136-.247-.048-.147-.048-.336 0-.187.045-.332.047-.146.132-.245.086-.101.208-.152.124-.052.277-.052.142 0 .262.052.12.051.207.152.088.099.136.245.05.145.05.332zm-1.058 0q0 .288.093.434.095.145.308.145.212 0 .304-.145.094-.146.094-.434 0-.288-.095-.43-.094-.143-.306-.143t-.306.143q-.092.142-.092.43zM68.241 13.954q-.14 0-.26-.043-.122-.044-.211-.138-.09-.095-.14-.24-.052-.148-.052-.355 0-.216.053-.366.052-.152.143-.246.092-.095.215-.138.123-.042.263-.042.108 0 .21.023.103.024.172.058l-.075.212q-.031-.014-.07-.026-.038-.014-.08-.023-.041-.011-.081-.017-.04-.007-.076-.007-.216 0-.315.14-.1.137-.1.43 0 .29.1.425.1.134.304.134.112 0 .201-.025.091-.026.166-.06v.223q-.075.04-.16.06-.084.02-.207.02zM69.2 13.145l.186-.234.404-.498h.29l-.552.655.59.858h-.288l-.463-.694-.15.113v.581h-.248v-2.144h.248v.984l-.022.379z"/></g></svg>