<svg xmlns="http://www.w3.org/2000/svg" width="896" height="354" viewBox="0 0 896 354">
<g style="font-family:'Droid Sans','DejaVu Sans',sans-serif">
<text x="68.50" y="39.00" style="font-size:7.5px;fill:#555555;text-anchor:middle">b0</text>
<text x="105.50" y="39.00" style="font-size:7.5px;fill:#555555;text-anchor:middle">b1</text>
<text x="142.50" y="39.00" style="font-size:7.5px;fill:#555555;text-anchor:middle">b2</text>
<text x="179.50" y="39.00" style="font-size:7.5px;fill:#555555;text-anchor:middle">b3</text>
<text x="216.50" y="39.00" style="font-size:7.5px;fill:#555555;text-anchor:middle">b4</text>
<text x="253.50" y="39.00" style="font-size:7.5px;fill:#555555;text-anchor:middle">b5</text>
<text x="290.50" y="39.00" style="font-size:7.5px;fill:#555555;text-anchor:middle">b6</text>
<text x="327.50" y="39.00" style="font-size:7.5px;fill:#555555;text-anchor:middle">b7</text>
<text x="43.00" y="58.00" style="font-size:8.5px;fill:#555555;text-anchor:end">lane 0</text>
<rect x="50.00" y="44.00" width="37.00" height="21.00" style="fill:#ffffff;stroke:#000000;stroke-width:0.7"/>
<text x="68.50" y="58.50" style="font-size:13px;fill:#000000;text-anchor:middle">1f</text>
<text x="68.50" y="73.00" style="font-size:8.5px;fill:#555555;text-anchor:middle">v0.b0</text>
<rect x="87.00" y="44.00" width="37.00" height="21.00" style="fill:#ffffff;stroke:#000000;stroke-width:0.7"/>
<text x="105.50" y="58.50" style="font-size:13px;fill:#000000;text-anchor:middle">00</text>
<text x="105.50" y="73.00" style="font-size:8.5px;fill:#555555;text-anchor:middle">v0.b1</text>
<rect x="124.00" y="44.00" width="37.00" height="21.00" style="fill:#ffffff;stroke:#000000;stroke-width:0.7"/>
<text x="142.50" y="58.50" style="font-size:13px;fill:#000000;text-anchor:middle">00</text>
<text x="142.50" y="73.00" style="font-size:8.5px;fill:#555555;text-anchor:middle">v0.b2</text>
<rect x="161.00" y="44.00" width="37.00" height="21.00" style="fill:#ffffff;stroke:#000000;stroke-width:0.7"/>
<text x="179.50" y="58.50" style="font-size:13px;fill:#000000;text-anchor:middle">00</text>
<text x="179.50" y="73.00" style="font-size:8.5px;fill:#555555;text-anchor:middle">v0.b3</text>
<rect x="198.00" y="44.00" width="37.00" height="21.00" style="fill:#ffffff;stroke:#000000;stroke-width:0.7"/>
<text x="216.50" y="58.50" style="font-size:13px;fill:#000000;text-anchor:middle">07</text>
<text x="216.50" y="73.00" style="font-size:8.5px;fill:#555555;text-anchor:middle">v1.b0</text>
<rect x="235.00" y="44.00" width="37.00" height="21.00" style="fill:#ffffff;stroke:#000000;stroke-width:0.7"/>
<text x="253.50" y="58.50" style="font-size:13px;fill:#000000;text-anchor:middle">00</text>
<text x="253.50" y="73.00" style="font-size:8.5px;fill:#555555;text-anchor:middle">v1.b1</text>
<rect x="272.00" y="44.00" width="37.00" height="21.00" style="fill:#ffffff;stroke:#000000;stroke-width:0.7"/>
<text x="290.50" y="58.50" style="font-size:13px;fill:#000000;text-anchor:middle">00</text>
<text x="290.50" y="73.00" style="font-size:8.5px;fill:#555555;text-anchor:middle">v1.b2</text>
<rect x="309.00" y="44.00" width="37.00" height="21.00" style="fill:#ffffff;stroke:#000000;stroke-width:0.7"/>
<text x="327.50" y="58.50" style="font-size:13px;fill:#000000;text-anchor:middle">00</text>
<text x="327.50" y="73.00" style="font-size:8.5px;fill:#555555;text-anchor:middle">v1.b3</text>
<text x="43.00" y="94.00" style="font-size:8.5px;fill:#555555;text-anchor:end">lane 1</text>
<rect x="50.00" y="80.00" width="37.00" height="21.00" style="fill:#ffffff;stroke:#000000;stroke-width:0.7"/>
<text x="68.50" y="94.50" style="font-size:13px;fill:#000000;text-anchor:middle">ff</text>
<text x="68.50" y="109.00" style="font-size:8.5px;fill:#555555;text-anchor:middle">v2.b0</text>
<rect x="87.00" y="80.00" width="37.00" height="21.00" style="fill:#ffffff;stroke:#000000;stroke-width:0.7"/>
<text x="105.50" y="94.50" style="font-size:13px;fill:#000000;text-anchor:middle">03</text>
<text x="105.50" y="109.00" style="font-size:8.5px;fill:#555555;text-anchor:middle">v2.b1</text>
<rect x="124.00" y="80.00" width="37.00" height="21.00" style="fill:#ffffff;stroke:#000000;stroke-width:0.7"/>
<text x="142.50" y="94.50" style="font-size:13px;fill:#000000;text-anchor:middle">00</text>
<text x="142.50" y="109.00" style="font-size:8.5px;fill:#555555;text-anchor:middle">v2.b2</text>
<rect x="161.00" y="80.00" width="37.00" height="21.00" style="fill:#ffffff;stroke:#000000;stroke-width:0.7"/>
<text x="179.50" y="94.50" style="font-size:13px;fill:#000000;text-anchor:middle">00</text>
<text x="179.50" y="109.00" style="font-size:8.5px;fill:#555555;text-anchor:middle">v2.b3</text>
<rect x="198.00" y="80.00" width="37.00" height="21.00" style="fill:#ffffff;stroke:#000000;stroke-width:0.7"/>
<text x="216.50" y="94.50" style="font-size:13px;fill:#000000;text-anchor:middle">7f</text>
<text x="216.50" y="109.00" style="font-size:8.5px;fill:#555555;text-anchor:middle">v3.b0</text>
<rect x="235.00" y="80.00" width="37.00" height="21.00" style="fill:#ffffff;stroke:#000000;stroke-width:0.7"/>
<text x="253.50" y="94.50" style="font-size:13px;fill:#000000;text-anchor:middle">00</text>
<text x="253.50" y="109.00" style="font-size:8.5px;fill:#555555;text-anchor:middle">v3.b1</text>
<rect x="272.00" y="80.00" width="37.00" height="21.00" style="fill:#ffffff;stroke:#000000;stroke-width:0.7"/>
<text x="290.50" y="94.50" style="font-size:13px;fill:#000000;text-anchor:middle">00</text>
<text x="290.50" y="109.00" style="font-size:8.5px;fill:#555555;text-anchor:middle">v3.b2</text>
<rect x="309.00" y="80.00" width="37.00" height="21.00" style="fill:#ffffff;stroke:#000000;stroke-width:0.7"/>
<text x="327.50" y="94.50" style="font-size:13px;fill:#000000;text-anchor:middle">00</text>
<text x="327.50" y="109.00" style="font-size:8.5px;fill:#555555;text-anchor:middle">v3.b3</text>
<text x="43.00" y="130.00" style="font-size:8.5px;fill:#555555;text-anchor:end">lane 2</text>
<rect x="50.00" y="116.00" width="37.00" height="21.00" style="fill:#ffffff;stroke:#000000;stroke-width:0.7"/>
<text x="68.50" y="130.50" style="font-size:13px;fill:#000000;text-anchor:middle">01</text>
<text x="68.50" y="145.00" style="font-size:8.5px;fill:#555555;text-anchor:middle">v4.b0</text>
<rect x="87.00" y="116.00" width="37.00" height="21.00" style="fill:#ffffff;stroke:#000000;stroke-width:0.7"/>
<text x="105.50" y="130.50" style="font-size:13px;fill:#000000;text-anchor:middle">00</text>
<text x="105.50" y="145.00" style="font-size:8.5px;fill:#555555;text-anchor:middle">v4.b1</text>
<rect x="124.00" y="116.00" width="37.00" height="21.00" style="fill:#ffffff;stroke:#000000;stroke-width:0.7"/>
<text x="142.50" y="130.50" style="font-size:13px;fill:#000000;text-anchor:middle">00</text>
<text x="142.50" y="145.00" style="font-size:8.5px;fill:#555555;text-anchor:middle">v4.b2</text>
<rect x="161.00" y="116.00" width="37.00" height="21.00" style="fill:#ffffff;stroke:#000000;stroke-width:0.7"/>
<text x="179.50" y="130.50" style="font-size:13px;fill:#000000;text-anchor:middle">00</text>
<text x="179.50" y="145.00" style="font-size:8.5px;fill:#555555;text-anchor:middle">v4.b3</text>
<rect x="198.00" y="116.00" width="37.00" height="21.00" style="fill:#ffffff;stroke:#000000;stroke-width:0.7"/>
<text x="216.50" y="130.50" style="font-size:13px;fill:#000000;text-anchor:middle">00</text>
<text x="216.50" y="145.00" style="font-size:8.5px;fill:#555555;text-anchor:middle">v5.b0</text>
<rect x="235.00" y="116.00" width="37.00" height="21.00" style="fill:#ffffff;stroke:#000000;stroke-width:0.7"/>
<text x="253.50" y="130.50" style="font-size:13px;fill:#000000;text-anchor:middle">00</text>
<text x="253.50" y="145.00" style="font-size:8.5px;fill:#555555;text-anchor:middle">v5.b1</text>
<rect x="272.00" y="116.00" width="37.00" height="21.00" style="fill:#ffffff;stroke:#000000;stroke-width:0.7"/>
<text x="290.50" y="130.50" style="font-size:13px;fill:#000000;text-anchor:middle">00</text>
<text x="290.50" y="145.00" style="font-size:8.5px;fill:#555555;text-anchor:middle">v5.b2</text>
<rect x="309.00" y="116.00" width="37.00" height="21.00" style="fill:#ffffff;stroke:#000000;stroke-width:0.7"/>
<text x="327.50" y="130.50" style="font-size:13px;fill:#000000;text-anchor:middle">00</text>
<text x="327.50" y="145.00" style="font-size:8.5px;fill:#555555;text-anchor:middle">v5.b3</text>
<text x="43.00" y="166.00" style="font-size:8.5px;fill:#555555;text-anchor:end">lane 3</text>
<rect x="50.00" y="152.00" width="37.00" height="21.00" style="fill:#ffffff;stroke:#000000;stroke-width:0.7"/>
<text x="68.50" y="166.50" style="font-size:13px;fill:#000000;text-anchor:middle">03</text>
<text x="68.50" y="181.00" style="font-size:8.5px;fill:#555555;text-anchor:middle">v6.b0</text>
<rect x="87.00" y="152.00" width="37.00" height="21.00" style="fill:#ffffff;stroke:#000000;stroke-width:0.7"/>
<text x="105.50" y="166.50" style="font-size:13px;fill:#000000;text-anchor:middle">00</text>
<text x="105.50" y="181.00" style="font-size:8.5px;fill:#555555;text-anchor:middle">v6.b1</text>
<rect x="124.00" y="152.00" width="37.00" height="21.00" style="fill:#ffffff;stroke:#000000;stroke-width:0.7"/>
<text x="142.50" y="166.50" style="font-size:13px;fill:#000000;text-anchor:middle">00</text>
<text x="142.50" y="181.00" style="font-size:8.5px;fill:#555555;text-anchor:middle">v6.b2</text>
<rect x="161.00" y="152.00" width="37.00" height="21.00" style="fill:#ffffff;stroke:#000000;stroke-width:0.7"/>
<text x="179.50" y="166.50" style="font-size:13px;fill:#000000;text-anchor:middle">00</text>
<text x="179.50" y="181.00" style="font-size:8.5px;fill:#555555;text-anchor:middle">v6.b3</text>
<rect x="198.00" y="152.00" width="37.00" height="21.00" style="fill:#ffffff;stroke:#000000;stroke-width:0.7"/>
<text x="216.50" y="166.50" style="font-size:13px;fill:#000000;text-anchor:middle">ff</text>
<text x="216.50" y="181.00" style="font-size:8.5px;fill:#555555;text-anchor:middle">v7.b0</text>
<rect x="235.00" y="152.00" width="37.00" height="21.00" style="fill:#ffffff;stroke:#000000;stroke-width:0.7"/>
<text x="253.50" y="166.50" style="font-size:13px;fill:#000000;text-anchor:middle">00</text>
<text x="253.50" y="181.00" style="font-size:8.5px;fill:#555555;text-anchor:middle">v7.b1</text>
<rect x="272.00" y="152.00" width="37.00" height="21.00" style="fill:#ffffff;stroke:#000000;stroke-width:0.7"/>
<text x="290.50" y="166.50" style="font-size:13px;fill:#000000;text-anchor:middle">00</text>
<text x="290.50" y="181.00" style="font-size:8.5px;fill:#555555;text-anchor:middle">v7.b2</text>
<rect x="309.00" y="152.00" width="37.00" height="21.00" style="fill:#ffffff;stroke:#000000;stroke-width:0.7"/>
<text x="327.50" y="166.50" style="font-size:13px;fill:#000000;text-anchor:middle">00</text>
<text x="327.50" y="181.00" style="font-size:8.5px;fill:#555555;text-anchor:middle">v7.b3</text>
<text x="43.00" y="202.00" style="font-size:8.5px;fill:#555555;text-anchor:end">lane 4</text>
<rect x="50.00" y="188.00" width="37.00" height="21.00" style="fill:#ffffff;stroke:#000000;stroke-width:0.7"/>
<text x="68.50" y="202.50" style="font-size:13px;fill:#000000;text-anchor:middle">07</text>
<text x="68.50" y="217.00" style="font-size:8.5px;fill:#555555;text-anchor:middle">v8.b0</text>
<rect x="87.00" y="188.00" width="37.00" height="21.00" style="fill:#ffffff;stroke:#000000;stroke-width:0.7"/>
<text x="105.50" y="202.50" style="font-size:13px;fill:#000000;text-anchor:middle">00</text>
<text x="105.50" y="217.00" style="font-size:8.5px;fill:#555555;text-anchor:middle">v8.b1</text>
<rect x="124.00" y="188.00" width="37.00" height="21.00" style="fill:#ffffff;stroke:#000000;stroke-width:0.7"/>
<text x="142.50" y="202.50" style="font-size:13px;fill:#000000;text-anchor:middle">00</text>
<text x="142.50" y="217.00" style="font-size:8.5px;fill:#555555;text-anchor:middle">v8.b2</text>
<rect x="161.00" y="188.00" width="37.00" height="21.00" style="fill:#ffffff;stroke:#000000;stroke-width:0.7"/>
<text x="179.50" y="202.50" style="font-size:13px;fill:#000000;text-anchor:middle">00</text>
<text x="179.50" y="217.00" style="font-size:8.5px;fill:#555555;text-anchor:middle">v8.b3</text>
<rect x="198.00" y="188.00" width="37.00" height="21.00" style="fill:#ffffff;stroke:#000000;stroke-width:0.7"/>
<text x="216.50" y="202.50" style="font-size:13px;fill:#000000;text-anchor:middle">3f</text>
<text x="216.50" y="217.00" style="font-size:8.5px;fill:#555555;text-anchor:middle">v9.b0</text>
<rect x="235.00" y="188.00" width="37.00" height="21.00" style="fill:#ffffff;stroke:#000000;stroke-width:0.7"/>
<text x="253.50" y="202.50" style="font-size:13px;fill:#000000;text-anchor:middle">00</text>
<text x="253.50" y="217.00" style="font-size:8.5px;fill:#555555;text-anchor:middle">v9.b1</text>
<rect x="272.00" y="188.00" width="37.00" height="21.00" style="fill:#ffffff;stroke:#000000;stroke-width:0.7"/>
<text x="290.50" y="202.50" style="font-size:13px;fill:#000000;text-anchor:middle">00</text>
<text x="290.50" y="217.00" style="font-size:8.5px;fill:#555555;text-anchor:middle">v9.b2</text>
<rect x="309.00" y="188.00" width="37.00" height="21.00" style="fill:#ffffff;stroke:#000000;stroke-width:0.7"/>
<text x="327.50" y="202.50" style="font-size:13px;fill:#000000;text-anchor:middle">00</text>
<text x="327.50" y="217.00" style="font-size:8.5px;fill:#555555;text-anchor:middle">v9.b3</text>
<text x="43.00" y="238.00" style="font-size:8.5px;fill:#555555;text-anchor:end">lane 5</text>
<rect x="50.00" y="224.00" width="37.00" height="21.00" style="fill:#ffffff;stroke:#000000;stroke-width:0.7"/>
<text x="68.50" y="238.50" style="font-size:13px;fill:#000000;text-anchor:middle">ff</text>
<text x="68.50" y="253.00" style="font-size:8.5px;fill:#555555;text-anchor:middle">v10.b0</text>
<rect x="87.00" y="224.00" width="37.00" height="21.00" style="fill:#ffffff;stroke:#000000;stroke-width:0.7"/>
<text x="105.50" y="238.50" style="font-size:13px;fill:#000000;text-anchor:middle">03</text>
<text x="105.50" y="253.00" style="font-size:8.5px;fill:#555555;text-anchor:middle">v10.b1</text>
<rect x="124.00" y="224.00" width="37.00" height="21.00" style="fill:#ffffff;stroke:#000000;stroke-width:0.7"/>
<text x="142.50" y="238.50" style="font-size:13px;fill:#000000;text-anchor:middle">00</text>
<text x="142.50" y="253.00" style="font-size:8.5px;fill:#555555;text-anchor:middle">v10.b2</text>
<rect x="161.00" y="224.00" width="37.00" height="21.00" style="fill:#ffffff;stroke:#000000;stroke-width:0.7"/>
<text x="179.50" y="238.50" style="font-size:13px;fill:#000000;text-anchor:middle">00</text>
<text x="179.50" y="253.00" style="font-size:8.5px;fill:#555555;text-anchor:middle">v10.b3</text>
<rect x="198.00" y="224.00" width="37.00" height="21.00" style="fill:#ffffff;stroke:#000000;stroke-width:0.7"/>
<text x="216.50" y="238.50" style="font-size:13px;fill:#000000;text-anchor:middle">03</text>
<text x="216.50" y="253.00" style="font-size:8.5px;fill:#555555;text-anchor:middle">v11.b0</text>
<rect x="235.00" y="224.00" width="37.00" height="21.00" style="fill:#ffffff;stroke:#000000;stroke-width:0.7"/>
<text x="253.50" y="238.50" style="font-size:13px;fill:#000000;text-anchor:middle">00</text>
<text x="253.50" y="253.00" style="font-size:8.5px;fill:#555555;text-anchor:middle">v11.b1</text>
<rect x="272.00" y="224.00" width="37.00" height="21.00" style="fill:#ffffff;stroke:#000000;stroke-width:0.7"/>
<text x="290.50" y="238.50" style="font-size:13px;fill:#000000;text-anchor:middle">00</text>
<text x="290.50" y="253.00" style="font-size:8.5px;fill:#555555;text-anchor:middle">v11.b2</text>
<rect x="309.00" y="224.00" width="37.00" height="21.00" style="fill:#ffffff;stroke:#000000;stroke-width:0.7"/>
<text x="327.50" y="238.50" style="font-size:13px;fill:#000000;text-anchor:middle">00</text>
<text x="327.50" y="253.00" style="font-size:8.5px;fill:#555555;text-anchor:middle">v11.b3</text>
<text x="43.00" y="274.00" style="font-size:8.5px;fill:#555555;text-anchor:end">lane 6</text>
<rect x="50.00" y="260.00" width="37.00" height="21.00" style="fill:#ffffff;stroke:#000000;stroke-width:0.7"/>
<text x="68.50" y="274.50" style="font-size:13px;fill:#000000;text-anchor:middle">ff</text>
<text x="68.50" y="289.00" style="font-size:8.5px;fill:#555555;text-anchor:middle">v12.b0</text>
<rect x="87.00" y="260.00" width="37.00" height="21.00" style="fill:#ffffff;stroke:#000000;stroke-width:0.7"/>
<text x="105.50" y="274.50" style="font-size:13px;fill:#000000;text-anchor:middle">ff</text>
<text x="105.50" y="289.00" style="font-size:8.5px;fill:#555555;text-anchor:middle">v12.b1</text>
<rect x="124.00" y="260.00" width="37.00" height="21.00" style="fill:#ffffff;stroke:#000000;stroke-width:0.7"/>
<text x="142.50" y="274.50" style="font-size:13px;fill:#000000;text-anchor:middle">03</text>
<text x="142.50" y="289.00" style="font-size:8.5px;fill:#555555;text-anchor:middle">v12.b2</text>
<rect x="161.00" y="260.00" width="37.00" height="21.00" style="fill:#ffffff;stroke:#000000;stroke-width:0.7"/>
<text x="179.50" y="274.50" style="font-size:13px;fill:#000000;text-anchor:middle">00</text>
<text x="179.50" y="289.00" style="font-size:8.5px;fill:#555555;text-anchor:middle">v12.b3</text>
<rect x="198.00" y="260.00" width="37.00" height="21.00" style="fill:#ffffff;stroke:#000000;stroke-width:0.7"/>
<text x="216.50" y="274.50" style="font-size:13px;fill:#000000;text-anchor:middle">0f</text>
<text x="216.50" y="289.00" style="font-size:8.5px;fill:#555555;text-anchor:middle">v13.b0</text>
<rect x="235.00" y="260.00" width="37.00" height="21.00" style="fill:#ffffff;stroke:#000000;stroke-width:0.7"/>
<text x="253.50" y="274.50" style="font-size:13px;fill:#000000;text-anchor:middle">00</text>
<text x="253.50" y="289.00" style="font-size:8.5px;fill:#555555;text-anchor:middle">v13.b1</text>
<rect x="272.00" y="260.00" width="37.00" height="21.00" style="fill:#ffffff;stroke:#000000;stroke-width:0.7"/>
<text x="290.50" y="274.50" style="font-size:13px;fill:#000000;text-anchor:middle">00</text>
<text x="290.50" y="289.00" style="font-size:8.5px;fill:#555555;text-anchor:middle">v13.b2</text>
<rect x="309.00" y="260.00" width="37.00" height="21.00" style="fill:#ffffff;stroke:#000000;stroke-width:0.7"/>
<text x="327.50" y="274.50" style="font-size:13px;fill:#000000;text-anchor:middle">00</text>
<text x="327.50" y="289.00" style="font-size:8.5px;fill:#555555;text-anchor:middle">v13.b3</text>
<text x="43.00" y="310.00" style="font-size:8.5px;fill:#555555;text-anchor:end">lane 7</text>
<rect x="50.00" y="296.00" width="37.00" height="21.00" style="fill:#ffffff;stroke:#000000;stroke-width:0.7"/>
<text x="68.50" y="310.50" style="font-size:13px;fill:#000000;text-anchor:middle">1f</text>
<text x="68.50" y="325.00" style="font-size:8.5px;fill:#555555;text-anchor:middle">v14.b0</text>
<rect x="87.00" y="296.00" width="37.00" height="21.00" style="fill:#ffffff;stroke:#000000;stroke-width:0.7"/>
<text x="105.50" y="310.50" style="font-size:13px;fill:#000000;text-anchor:middle">00</text>
<text x="105.50" y="325.00" style="font-size:8.5px;fill:#555555;text-anchor:middle">v14.b1</text>
<rect x="124.00" y="296.00" width="37.00" height="21.00" style="fill:#ffffff;stroke:#000000;stroke-width:0.7"/>
<text x="142.50" y="310.50" style="font-size:13px;fill:#000000;text-anchor:middle">00</text>
<text x="142.50" y="325.00" style="font-size:8.5px;fill:#555555;text-anchor:middle">v14.b2</text>
<rect x="161.00" y="296.00" width="37.00" height="21.00" style="fill:#ffffff;stroke:#000000;stroke-width:0.7"/>
<text x="179.50" y="310.50" style="font-size:13px;fill:#000000;text-anchor:middle">00</text>
<text x="179.50" y="325.00" style="font-size:8.5px;fill:#555555;text-anchor:middle">v14.b3</text>
<rect x="198.00" y="296.00" width="37.00" height="21.00" style="fill:#ffffff;stroke:#000000;stroke-width:0.7"/>
<text x="216.50" y="310.50" style="font-size:13px;fill:#000000;text-anchor:middle">ff</text>
<text x="216.50" y="325.00" style="font-size:8.5px;fill:#555555;text-anchor:middle">v15.b0</text>
<rect x="235.00" y="296.00" width="37.00" height="21.00" style="fill:#ffffff;stroke:#000000;stroke-width:0.7"/>
<text x="253.50" y="310.50" style="font-size:13px;fill:#000000;text-anchor:middle">ff</text>
<text x="253.50" y="325.00" style="font-size:8.5px;fill:#555555;text-anchor:middle">v15.b1</text>
<rect x="272.00" y="296.00" width="37.00" height="21.00" style="fill:#ffffff;stroke:#000000;stroke-width:0.7"/>
<text x="290.50" y="310.50" style="font-size:13px;fill:#000000;text-anchor:middle">ff</text>
<text x="290.50" y="325.00" style="font-size:8.5px;fill:#555555;text-anchor:middle">v15.b2</text>
<rect x="309.00" y="296.00" width="37.00" height="21.00" style="fill:#ffffff;stroke:#000000;stroke-width:0.7"/>
<text x="327.50" y="310.50" style="font-size:13px;fill:#000000;text-anchor:middle">ff</text>
<text x="327.50" y="325.00" style="font-size:8.5px;fill:#555555;text-anchor:middle">v15.b3</text>
<text x="486.50" y="39.00" style="font-size:7.5px;fill:#555555;text-anchor:middle">b0</text>
<text x="523.50" y="39.00" style="font-size:7.5px;fill:#555555;text-anchor:middle">b1</text>
<text x="560.50" y="39.00" style="font-size:7.5px;fill:#555555;text-anchor:middle">b2</text>
<text x="597.50" y="39.00" style="font-size:7.5px;fill:#555555;text-anchor:middle">b3</text>
<text x="634.50" y="39.00" style="font-size:7.5px;fill:#555555;text-anchor:middle">b4</text>
<text x="671.50" y="39.00" style="font-size:7.5px;fill:#555555;text-anchor:middle">b5</text>
<text x="708.50" y="39.00" style="font-size:7.5px;fill:#555555;text-anchor:middle">b6</text>
<text x="745.50" y="39.00" style="font-size:7.5px;fill:#555555;text-anchor:middle">b7</text>
<text x="461.00" y="58.00" style="font-size:8.5px;fill:#555555;text-anchor:end">lane 0</text>
<rect x="468.00" y="44.00" width="37.00" height="21.00" style="fill:#ffffff;stroke:#000000;stroke-width:0.7"/>
<text x="486.50" y="58.50" style="font-size:13px;fill:#000000;text-anchor:middle">1f</text>
<text x="486.50" y="73.00" style="font-size:8.5px;fill:#555555;text-anchor:middle">v0.b0</text>
<rect x="505.00" y="44.00" width="37.00" height="21.00" style="fill:#ffffff;stroke:#000000;stroke-width:0.7"/>
<text x="523.50" y="58.50" style="font-size:13px;fill:#000000;text-anchor:middle">07</text>
<text x="523.50" y="73.00" style="font-size:8.5px;fill:#555555;text-anchor:middle">v1.b0</text>
<rect x="542.00" y="44.00" width="37.00" height="21.00" style="fill:#ffffff;stroke:#000000;stroke-width:0.7"/>
<text x="560.50" y="58.50" style="font-size:13px;fill:#000000;text-anchor:middle">ff</text>
<text x="560.50" y="73.00" style="font-size:8.5px;fill:#555555;text-anchor:middle">v2.b0</text>
<rect x="579.00" y="44.00" width="37.00" height="21.00" style="fill:#ffffff;stroke:#000000;stroke-width:0.7"/>
<text x="597.50" y="58.50" style="font-size:13px;fill:#000000;text-anchor:middle">7f</text>
<text x="597.50" y="73.00" style="font-size:8.5px;fill:#555555;text-anchor:middle">v3.b0</text>
<rect x="616.00" y="44.00" width="37.00" height="21.00" style="fill:#ffffff;stroke:#000000;stroke-width:0.7"/>
<text x="634.50" y="58.50" style="font-size:13px;fill:#000000;text-anchor:middle">01</text>
<text x="634.50" y="73.00" style="font-size:8.5px;fill:#555555;text-anchor:middle">v4.b0</text>
<rect x="653.00" y="44.00" width="37.00" height="21.00" style="fill:#ffffff;stroke:#000000;stroke-width:0.7"/>
<text x="671.50" y="58.50" style="font-size:13px;fill:#000000;text-anchor:middle">00</text>
<text x="671.50" y="73.00" style="font-size:8.5px;fill:#555555;text-anchor:middle">v5.b0</text>
<rect x="690.00" y="44.00" width="37.00" height="21.00" style="fill:#ffffff;stroke:#000000;stroke-width:0.7"/>
<text x="708.50" y="58.50" style="font-size:13px;fill:#000000;text-anchor:middle">03</text>
<text x="708.50" y="73.00" style="font-size:8.5px;fill:#555555;text-anchor:middle">v6.b0</text>
<rect x="727.00" y="44.00" width="37.00" height="21.00" style="fill:#ffffff;stroke:#000000;stroke-width:0.7"/>
<text x="745.50" y="58.50" style="font-size:13px;fill:#000000;text-anchor:middle">ff</text>
<text x="745.50" y="73.00" style="font-size:8.5px;fill:#555555;text-anchor:middle">v7.b0</text>
<text x="461.00" y="94.00" style="font-size:8.5px;fill:#555555;text-anchor:end">lane 1</text>
<rect x="468.00" y="80.00" width="37.00" height="21.00" style="fill:#ffffff;stroke:#000000;stroke-width:0.7"/>
<text x="486.50" y="94.50" style="font-size:13px;fill:#000000;text-anchor:middle">00</text>
<text x="486.50" y="109.00" style="font-size:8.5px;fill:#555555;text-anchor:middle">v0.b1</text>
<rect x="505.00" y="80.00" width="37.00" height="21.00" style="fill:#ffffff;stroke:#000000;stroke-width:0.7"/>
<text x="523.50" y="94.50" style="font-size:13px;fill:#000000;text-anchor:middle">00</text>
<text x="523.50" y="109.00" style="font-size:8.5px;fill:#555555;text-anchor:middle">v1.b1</text>
<rect x="542.00" y="80.00" width="37.00" height="21.00" style="fill:#ffffff;stroke:#000000;stroke-width:0.7"/>
<text x="560.50" y="94.50" style="font-size:13px;fill:#000000;text-anchor:middle">03</text>
<text x="560.50" y="109.00" style="font-size:8.5px;fill:#555555;text-anchor:middle">v2.b1</text>
<rect x="579.00" y="80.00" width="37.00" height="21.00" style="fill:#ffffff;stroke:#000000;stroke-width:0.7"/>
<text x="597.50" y="94.50" style="font-size:13px;fill:#000000;text-anchor:middle">00</text>
<text x="597.50" y="109.00" style="font-size:8.5px;fill:#555555;text-anchor:middle">v3.b1</text>
<rect x="616.00" y="80.00" width="37.00" height="21.00" style="fill:#ffffff;stroke:#000000;stroke-width:0.7"/>
<text x="634.50" y="94.50" style="font-size:13px;fill:#000000;text-anchor:middle">00</text>
<text x="634.50" y="109.00" style="font-size:8.5px;fill:#555555;text-anchor:middle">v4.b1</text>
<rect x="653.00" y="80.00" width="37.00" height="21.00" style="fill:#ffffff;stroke:#000000;stroke-width:0.7"/>
<text x="671.50" y="94.50" style="font-size:13px;fill:#000000;text-anchor:middle">00</text>
<text x="671.50" y="109.00" style="font-size:8.5px;fill:#555555;text-anchor:middle">v5.b1</text>
<rect x="690.00" y="80.00" width="37.00" height="21.00" style="fill:#ffffff;stroke:#000000;stroke-width:0.7"/>
<text x="708.50" y="94.50" style="font-size:13px;fill:#000000;text-anchor:middle">00</text>
<text x="708.50" y="109.00" style="font-size:8.5px;fill:#555555;text-anchor:middle">v6.b1</text>
<rect x="727.00" y="80.00" width="37.00" height="21.00" style="fill:#ffffff;stroke:#000000;stroke-width:0.7"/>
<text x="745.50" y="94.50" style="font-size:13px;fill:#000000;text-anchor:middle">00</text>
<text x="745.50" y="109.00" style="font-size:8.5px;fill:#555555;text-anchor:middle">v7.b1</text>
<text x="461.00" y="130.00" style="font-size:8.5px;fill:#555555;text-anchor:end">lane 2</text>
<rect x="468.00" y="116.00" width="37.00" height="21.00" style="fill:#ffffff;stroke:#000000;stroke-width:0.7"/>
<text x="486.50" y="130.50" style="font-size:13px;fill:#000000;text-anchor:middle">00</text>
<text x="486.50" y="145.00" style="font-size:8.5px;fill:#555555;text-anchor:middle">v0.b2</text>
<rect x="505.00" y="116.00" width="37.00" height="21.00" style="fill:#ffffff;stroke:#000000;stroke-width:0.7"/>
<text x="523.50" y="130.50" style="font-size:13px;fill:#000000;text-anchor:middle">00</text>
<text x="523.50" y="145.00" style="font-size:8.5px;fill:#555555;text-anchor:middle">v1.b2</text>
<rect x="542.00" y="116.00" width="37.00" height="21.00" style="fill:#ffffff;stroke:#000000;stroke-width:0.7"/>
<text x="560.50" y="130.50" style="font-size:13px;fill:#000000;text-anchor:middle">00</text>
<text x="560.50" y="145.00" style="font-size:8.5px;fill:#555555;text-anchor:middle">v2.b2</text>
<rect x="579.00" y="116.00" width="37.00" height="21.00" style="fill:#ffffff;stroke:#000000;stroke-width:0.7"/>
<text x="597.50" y="130.50" style="font-size:13px;fill:#000000;text-anchor:middle">00</text>
<text x="597.50" y="145.00" style="font-size:8.5px;fill:#555555;text-anchor:middle">v3.b2</text>
<rect x="616.00" y="116.00" width="37.00" height="21.00" style="fill:#ffffff;stroke:#000000;stroke-width:0.7"/>
<text x="634.50" y="130.50" style="font-size:13px;fill:#000000;text-anchor:middle">00</text>
<text x="634.50" y="145.00" style="font-size:8.5px;fill:#555555;text-anchor:middle">v4.b2</text>
<rect x="653.00" y="116.00" width="37.00" height="21.00" style="fill:#ffffff;stroke:#000000;stroke-width:0.7"/>
<text x="671.50" y="130.50" style="font-size:13px;fill:#000000;text-anchor:middle">00</text>
<text x="671.50" y="145.00" style="font-size:8.5px;fill:#555555;text-anchor:middle">v5.b2</text>
<rect x="690.00" y="116.00" width="37.00" height="21.00" style="fill:#ffffff;stroke:#000000;stroke-width:0.7"/>
<text x="708.50" y="130.50" style="font-size:13px;fill:#000000;text-anchor:middle">00</text>
<text x="708.50" y="145.00" style="font-size:8.5px;fill:#555555;text-anchor:middle">v6.b2</text>
<rect x="727.00" y="116.00" width="37.00" height="21.00" style="fill:#ffffff;stroke:#000000;stroke-width:0.7"/>
<text x="745.50" y="130.50" style="font-size:13px;fill:#000000;text-anchor:middle">00</text>
<text x="745.50" y="145.00" style="font-size:8.5px;fill:#555555;text-anchor:middle">v7.b2</text>
<text x="461.00" y="166.00" style="font-size:8.5px;fill:#555555;text-anchor:end">lane 3</text>
<rect x="468.00" y="152.00" width="37.00" height="21.00" style="fill:#ffffff;stroke:#000000;stroke-width:0.7"/>
<text x="486.50" y="166.50" style="font-size:13px;fill:#000000;text-anchor:middle">00</text>
<text x="486.50" y="181.00" style="font-size:8.5px;fill:#555555;text-anchor:middle">v0.b3</text>
<rect x="505.00" y="152.00" width="37.00" height="21.00" style="fill:#ffffff;stroke:#000000;stroke-width:0.7"/>
<text x="523.50" y="166.50" style="font-size:13px;fill:#000000;text-anchor:middle">00</text>
<text x="523.50" y="181.00" style="font-size:8.5px;fill:#555555;text-anchor:middle">v1.b3</text>
<rect x="542.00" y="152.00" width="37.00" height="21.00" style="fill:#ffffff;stroke:#000000;stroke-width:0.7"/>
<text x="560.50" y="166.50" style="font-size:13px;fill:#000000;text-anchor:middle">00</text>
<text x="560.50" y="181.00" style="font-size:8.5px;fill:#555555;text-anchor:middle">v2.b3</text>
<rect x="579.00" y="152.00" width="37.00" height="21.00" style="fill:#ffffff;stroke:#000000;stroke-width:0.7"/>
<text x="597.50" y="166.50" style="font-size:13px;fill:#000000;text-anchor:middle">00</text>
<text x="597.50" y="181.00" style="font-size:8.5px;fill:#555555;text-anchor:middle">v3.b3</text>
<rect x="616.00" y="152.00" width="37.00" height="21.00" style="fill:#ffffff;stroke:#000000;stroke-width:0.7"/>
<text x="634.50" y="166.50" style="font-size:13px;fill:#000000;text-anchor:middle">00</text>
<text x="634.50" y="181.00" style="font-size:8.5px;fill:#555555;text-anchor:middle">v4.b3</text>
<rect x="653.00" y="152.00" width="37.00" height="21.00" style="fill:#ffffff;stroke:#000000;stroke-width:0.7"/>
<text x="671.50" y="166.50" style="font-size:13px;fill:#000000;text-anchor:middle">00</text>
<text x="671.50" y="181.00" style="font-size:8.5px;fill:#555555;text-anchor:middle">v5.b3</text>
<rect x="690.00" y="152.00" width="37.00" height="21.00" style="fill:#ffffff;stroke:#000000;stroke-width:0.7"/>
<text x="708.50" y="166.50" style="font-size:13px;fill:#000000;text-anchor:middle">00</text>
<text x="708.50" y="181.00" style="font-size:8.5px;fill:#555555;text-anchor:middle">v6.b3</text>
<rect x="727.00" y="152.00" width="37.00" height="21.00" style="fill:#ffffff;stroke:#000000;stroke-width:0.7"/>
<text x="745.50" y="166.50" style="font-size:13px;fill:#000000;text-anchor:middle">00</text>
<text x="745.50" y="181.00" style="font-size:8.5px;fill:#555555;text-anchor:middle">v7.b3</text>
<text x="461.00" y="202.00" style="font-size:8.5px;fill:#555555;text-anchor:end">lane 4</text>
<rect x="468.00" y="188.00" width="37.00" height="21.00" style="fill:#ffffff;stroke:#000000;stroke-width:0.7"/>
<text x="486.50" y="202.50" style="font-size:13px;fill:#000000;text-anchor:middle">07</text>
<text x="486.50" y="217.00" style="font-size:8.5px;fill:#555555;text-anchor:middle">v8.b0</text>
<rect x="505.00" y="188.00" width="37.00" height="21.00" style="fill:#ffffff;stroke:#000000;stroke-width:0.7"/>
<text x="523.50" y="202.50" style="font-size:13px;fill:#000000;text-anchor:middle">3f</text>
<text x="523.50" y="217.00" style="font-size:8.5px;fill:#555555;text-anchor:middle">v9.b0</text>
<rect x="542.00" y="188.00" width="37.00" height="21.00" style="fill:#ffffff;stroke:#000000;stroke-width:0.7"/>
<text x="560.50" y="202.50" style="font-size:13px;fill:#000000;text-anchor:middle">ff</text>
<text x="560.50" y="217.00" style="font-size:8.5px;fill:#555555;text-anchor:middle">v10.b0</text>
<rect x="579.00" y="188.00" width="37.00" height="21.00" style="fill:#ffffff;stroke:#000000;stroke-width:0.7"/>
<text x="597.50" y="202.50" style="font-size:13px;fill:#000000;text-anchor:middle">03</text>
<text x="597.50" y="217.00" style="font-size:8.5px;fill:#555555;text-anchor:middle">v11.b0</text>
<rect x="616.00" y="188.00" width="37.00" height="21.00" style="fill:#ffffff;stroke:#000000;stroke-width:0.7"/>
<text x="634.50" y="202.50" style="font-size:13px;fill:#000000;text-anchor:middle">ff</text>
<text x="634.50" y="217.00" style="font-size:8.5px;fill:#555555;text-anchor:middle">v12.b0</text>
<rect x="653.00" y="188.00" width="37.00" height="21.00" style="fill:#ffffff;stroke:#000000;stroke-width:0.7"/>
<text x="671.50" y="202.50" style="font-size:13px;fill:#000000;text-anchor:middle">0f</text>
<text x="671.50" y="217.00" style="font-size:8.5px;fill:#555555;text-anchor:middle">v13.b0</text>
<rect x="690.00" y="188.00" width="37.00" height="21.00" style="fill:#ffffff;stroke:#000000;stroke-width:0.7"/>
<text x="708.50" y="202.50" style="font-size:13px;fill:#000000;text-anchor:middle">1f</text>
<text x="708.50" y="217.00" style="font-size:8.5px;fill:#555555;text-anchor:middle">v14.b0</text>
<rect x="727.00" y="188.00" width="37.00" height="21.00" style="fill:#ffffff;stroke:#000000;stroke-width:0.7"/>
<text x="745.50" y="202.50" style="font-size:13px;fill:#000000;text-anchor:middle">ff</text>
<text x="745.50" y="217.00" style="font-size:8.5px;fill:#555555;text-anchor:middle">v15.b0</text>
<text x="461.00" y="238.00" style="font-size:8.5px;fill:#555555;text-anchor:end">lane 5</text>
<rect x="468.00" y="224.00" width="37.00" height="21.00" style="fill:#ffffff;stroke:#000000;stroke-width:0.7"/>
<text x="486.50" y="238.50" style="font-size:13px;fill:#000000;text-anchor:middle">00</text>
<text x="486.50" y="253.00" style="font-size:8.5px;fill:#555555;text-anchor:middle">v8.b1</text>
<rect x="505.00" y="224.00" width="37.00" height="21.00" style="fill:#ffffff;stroke:#000000;stroke-width:0.7"/>
<text x="523.50" y="238.50" style="font-size:13px;fill:#000000;text-anchor:middle">00</text>
<text x="523.50" y="253.00" style="font-size:8.5px;fill:#555555;text-anchor:middle">v9.b1</text>
<rect x="542.00" y="224.00" width="37.00" height="21.00" style="fill:#ffffff;stroke:#000000;stroke-width:0.7"/>
<text x="560.50" y="238.50" style="font-size:13px;fill:#000000;text-anchor:middle">03</text>
<text x="560.50" y="253.00" style="font-size:8.5px;fill:#555555;text-anchor:middle">v10.b1</text>
<rect x="579.00" y="224.00" width="37.00" height="21.00" style="fill:#ffffff;stroke:#000000;stroke-width:0.7"/>
<text x="597.50" y="238.50" style="font-size:13px;fill:#000000;text-anchor:middle">00</text>
<text x="597.50" y="253.00" style="font-size:8.5px;fill:#555555;text-anchor:middle">v11.b1</text>
<rect x="616.00" y="224.00" width="37.00" height="21.00" style="fill:#ffffff;stroke:#000000;stroke-width:0.7"/>
<text x="634.50" y="238.50" style="font-size:13px;fill:#000000;text-anchor:middle">ff</text>
<text x="634.50" y="253.00" style="font-size:8.5px;fill:#555555;text-anchor:middle">v12.b1</text>
<rect x="653.00" y="224.00" width="37.00" height="21.00" style="fill:#ffffff;stroke:#000000;stroke-width:0.7"/>
<text x="671.50" y="238.50" style="font-size:13px;fill:#000000;text-anchor:middle">00</text>
<text x="671.50" y="253.00" style="font-size:8.5px;fill:#555555;text-anchor:middle">v13.b1</text>
<rect x="690.00" y="224.00" width="37.00" height="21.00" style="fill:#ffffff;stroke:#000000;stroke-width:0.7"/>
<text x="708.50" y="238.50" style="font-size:13px;fill:#000000;text-anchor:middle">00</text>
<text x="708.50" y="253.00" style="font-size:8.5px;fill:#555555;text-anchor:middle">v14.b1</text>
<rect x="727.00" y="224.00" width="37.00" height="21.00" style="fill:#ffffff;stroke:#000000;stroke-width:0.7"/>
<text x="745.50" y="238.50" style="font-size:13px;fill:#000000;text-anchor:middle">ff</text>
<text x="745.50" y="253.00" style="font-size:8.5px;fill:#555555;text-anchor:middle">v15.b1</text>
<text x="461.00" y="274.00" style="font-size:8.5px;fill:#555555;text-anchor:end">lane 6</text>
<rect x="468.00" y="260.00" width="37.00" height="21.00" style="fill:#ffffff;stroke:#000000;stroke-width:0.7"/>
<text x="486.50" y="274.50" style="font-size:13px;fill:#000000;text-anchor:middle">00</text>
<text x="486.50" y="289.00" style="font-size:8.5px;fill:#555555;text-anchor:middle">v8.b2</text>
<rect x="505.00" y="260.00" width="37.00" height="21.00" style="fill:#ffffff;stroke:#000000;stroke-width:0.7"/>
<text x="523.50" y="274.50" style="font-size:13px;fill:#000000;text-anchor:middle">00</text>
<text x="523.50" y="289.00" style="font-size:8.5px;fill:#555555;text-anchor:middle">v9.b2</text>
<rect x="542.00" y="260.00" width="37.00" height="21.00" style="fill:#ffffff;stroke:#000000;stroke-width:0.7"/>
<text x="560.50" y="274.50" style="font-size:13px;fill:#000000;text-anchor:middle">00</text>
<text x="560.50" y="289.00" style="font-size:8.5px;fill:#555555;text-anchor:middle">v10.b2</text>
<rect x="579.00" y="260.00" width="37.00" height="21.00" style="fill:#ffffff;stroke:#000000;stroke-width:0.7"/>
<text x="597.50" y="274.50" style="font-size:13px;fill:#000000;text-anchor:middle">00</text>
<text x="597.50" y="289.00" style="font-size:8.5px;fill:#555555;text-anchor:middle">v11.b2</text>
<rect x="616.00" y="260.00" width="37.00" height="21.00" style="fill:#ffffff;stroke:#000000;stroke-width:0.7"/>
<text x="634.50" y="274.50" style="font-size:13px;fill:#000000;text-anchor:middle">03</text>
<text x="634.50" y="289.00" style="font-size:8.5px;fill:#555555;text-anchor:middle">v12.b2</text>
<rect x="653.00" y="260.00" width="37.00" height="21.00" style="fill:#ffffff;stroke:#000000;stroke-width:0.7"/>
<text x="671.50" y="274.50" style="font-size:13px;fill:#000000;text-anchor:middle">00</text>
<text x="671.50" y="289.00" style="font-size:8.5px;fill:#555555;text-anchor:middle">v13.b2</text>
<rect x="690.00" y="260.00" width="37.00" height="21.00" style="fill:#ffffff;stroke:#000000;stroke-width:0.7"/>
<text x="708.50" y="274.50" style="font-size:13px;fill:#000000;text-anchor:middle">00</text>
<text x="708.50" y="289.00" style="font-size:8.5px;fill:#555555;text-anchor:middle">v14.b2</text>
<rect x="727.00" y="260.00" width="37.00" height="21.00" style="fill:#ffffff;stroke:#000000;stroke-width:0.7"/>
<text x="745.50" y="274.50" style="font-size:13px;fill:#000000;text-anchor:middle">ff</text>
<text x="745.50" y="289.00" style="font-size:8.5px;fill:#555555;text-anchor:middle">v15.b2</text>
<text x="461.00" y="310.00" style="font-size:8.5px;fill:#555555;text-anchor:end">lane 7</text>
<rect x="468.00" y="296.00" width="37.00" height="21.00" style="fill:#ffffff;stroke:#000000;stroke-width:0.7"/>
<text x="486.50" y="310.50" style="font-size:13px;fill:#000000;text-anchor:middle">00</text>
<text x="486.50" y="325.00" style="font-size:8.5px;fill:#555555;text-anchor:middle">v8.b3</text>
<rect x="505.00" y="296.00" width="37.00" height="21.00" style="fill:#ffffff;stroke:#000000;stroke-width:0.7"/>
<text x="523.50" y="310.50" style="font-size:13px;fill:#000000;text-anchor:middle">00</text>
<text x="523.50" y="325.00" style="font-size:8.5px;fill:#555555;text-anchor:middle">v9.b3</text>
<rect x="542.00" y="296.00" width="37.00" height="21.00" style="fill:#ffffff;stroke:#000000;stroke-width:0.7"/>
<text x="560.50" y="310.50" style="font-size:13px;fill:#000000;text-anchor:middle">00</text>
<text x="560.50" y="325.00" style="font-size:8.5px;fill:#555555;text-anchor:middle">v10.b3</text>
<rect x="579.00" y="296.00" width="37.00" height="21.00" style="fill:#ffffff;stroke:#000000;stroke-width:0.7"/>
<text x="597.50" y="310.50" style="font-size:13px;fill:#000000;text-anchor:middle">00</text>
<text x="597.50" y="325.00" style="font-size:8.5px;fill:#555555;text-anchor:middle">v11.b3</text>
<rect x="616.00" y="296.00" width="37.00" height="21.00" style="fill:#ffffff;stroke:#000000;stroke-width:0.7"/>
<text x="634.50" y="310.50" style="font-size:13px;fill:#000000;text-anchor:middle">00</text>
<text x="634.50" y="325.00" style="font-size:8.5px;fill:#555555;text-anchor:middle">v12.b3</text>
<rect x="653.00" y="296.00" width="37.00" height="21.00" style="fill:#ffffff;stroke:#000000;stroke-width:0.7"/>
<text x="671.50" y="310.50" style="font-size:13px;fill:#000000;text-anchor:middle">00</text>
<text x="671.50" y="325.00" style="font-size:8.5px;fill:#555555;text-anchor:middle">v13.b3</text>
<rect x="690.00" y="296.00" width="37.00" height="21.00" style="fill:#ffffff;stroke:#000000;stroke-width:0.7"/>
<text x="708.50" y="310.50" style="font-size:13px;fill:#000000;text-anchor:middle">00</text>
<text x="708.50" y="325.00" style="font-size:8.5px;fill:#555555;text-anchor:middle">v14.b3</text>
<rect x="727.00" y="296.00" width="37.00" height="21.00" style="fill:#ffffff;stroke:#000000;stroke-width:0.7"/>
<text x="745.50" y="310.50" style="font-size:13px;fill:#000000;text-anchor:middle">ff</text>
<text x="745.50" y="325.00" style="font-size:8.5px;fill:#555555;text-anchor:middle">v15.b3</text>
<text x="387.00" y="173.00" style="font-size:7.5px;fill:#555555;text-anchor:middle">VPERMB</text>
<path d="M 362 182 l 44 0 m 0 -4 l 6 4 l -6 4" style="fill:none;stroke:#000000;stroke-width:0.7"/>
<rect x="48.00" y="42.00" width="41.00" height="25.00" style="fill:none;stroke:#ff0000;stroke-width:1.1"/>
<rect x="196.00" y="42.00" width="41.00" height="25.00" style="fill:none;stroke:#ff0000;stroke-width:1.1"/>
<rect x="48.00" y="78.00" width="41.00" height="25.00" style="fill:none;stroke:#ff0000;stroke-width:1.1"/>
<rect x="196.00" y="78.00" width="41.00" height="25.00" style="fill:none;stroke:#ff0000;stroke-width:1.1"/>
<rect x="48.00" y="114.00" width="41.00" height="25.00" style="fill:none;stroke:#ff0000;stroke-width:1.1"/>
<rect x="196.00" y="114.00" width="41.00" height="25.00" style="fill:none;stroke:#ff0000;stroke-width:1.1"/>
<rect x="48.00" y="150.00" width="41.00" height="25.00" style="fill:none;stroke:#ff0000;stroke-width:1.1"/>
<rect x="196.00" y="150.00" width="41.00" height="25.00" style="fill:none;stroke:#ff0000;stroke-width:1.1"/>
<text x="50.00" y="30.00" style="font-size:8.5px;fill:#ff0000;text-anchor:start">byte 0 of v0..v7, four slots apart</text>
<rect x="466.00" y="42.00" width="300.00" height="25.00" style="fill:none;stroke:#ff0000;stroke-width:1.1"/>
<text x="773.00" y="58.50" style="font-size:8.5px;fill:#ff0000;text-anchor:start">all in lane 0</text>
</g></svg>