<svg version="1.1" viewBox="0.0 0.0 892.8845144356956 370.5223097112861" fill="none" stroke="none" stroke-linecap="square" stroke-miterlimit="10" xmlns:xlink="http://www.w3.org/1999/xlink" xmlns="http://www.w3.org/2000/svg"><clipPath id="p.0"><path d="m0 0l892.8845 0l0 370.5223l-892.8845 0l0 -370.5223z" clip-rule="nonzero"/></clipPath><g clip-path="url(#p.0)"><path fill="#000000" fill-opacity="0.0" d="m0 0l892.8845 0l0 370.5223l-892.8845 0z" fill-rule="evenodd"/><path fill="#000000" fill-opacity="0.0" d="m64.10499 152.44357l33.6063 58.64566" fill-rule="evenodd"/><path stroke="#000000" stroke-width="1.0" stroke-linejoin="round" stroke-linecap="butt" d="m64.10499 152.44357l30.623146 53.439835" fill-rule="evenodd"/><path fill="#000000" stroke="#000000" stroke-width="1.0" stroke-linecap="butt" d="m93.29502 206.70462l3.689415 3.116211l-0.8231964 -4.758667z" fill-rule="evenodd"/><path fill="#000000" fill-opacity="0.0" d="m97.71129 152.44357l33.606293 58.64566" fill-rule="evenodd"/><path stroke="#000000" stroke-width="1.0" stroke-linejoin="round" stroke-linecap="butt" d="m97.71129 152.44357l30.623138 53.439835" fill-rule="evenodd"/><path fill="#000000" stroke="#000000" stroke-width="1.0" stroke-linecap="butt" d="m126.90132 206.70462l3.6894226 3.116211l-0.8231964 -4.758667z" fill-rule="evenodd"/><path fill="#000000" fill-opacity="0.0" d="m131.31758 152.44357l33.606308 58.64566" fill-rule="evenodd"/><path stroke="#000000" stroke-width="1.0" stroke-linejoin="round" stroke-linecap="butt" d="m131.31758 152.44357l30.623154 53.439835" fill-rule="evenodd"/><path fill="#000000" stroke="#000000" stroke-width="1.0" stroke-linecap="butt" d="m160.50761 206.70462l3.6894226 3.116211l-0.8231964 -4.758667z" fill-rule="evenodd"/><path fill="#cfe2f3" d="m26.183727 64.097115l176.6614 0l0 88.34646l-176.6614 0z" fill-rule="evenodd"/><path stroke="#000000" stroke-width="1.0" stroke-linejoin="round" stroke-linecap="butt" d="m26.183727 64.097115l176.6614 0l0 88.34646l-176.6614 0z" fill-rule="evenodd"/><path fill="#000000" d="m53.792347 104.37784l-0.453125 0l-2.859375 -6.640625l-2.859375 6.640625l-0.453125 0l-3.484375 -9.96875l1.84375 0l2.09375 6.40625l2.59375 -6.40625l0.453125 0l2.671875 6.40625l2.25 -6.40625l1.703125 0l-3.5 9.96875zm10.367245 -1.3125q-1.0312462 1.3125 -3.1718712 1.3125q-1.15625 0 -2.0 -0.828125q-0.828125 -0.84375 -0.828125 -2.078125q0 -1.484375 1.296875 -2.515625q1.296875 -1.03125 3.3125 -1.03125q0.546875 0 1.2343712 0.25q0 -2.375 -2.1093712 -2.375q-1.625 0 -2.5 0.875l-0.734375 -1.453125q0.5 -0.390625 1.359375 -0.671875q0.875 -0.296875 1.671875 -0.296875q2.125 0 3.0781212 0.96875q0.96875 0.96875 0.96875 3.0625l0 3.5q0 1.28125 0.765625 1.71875l0 0.859375q-1.0625 0 -1.59375 -0.296875q-0.515625 -0.296875 -0.75 -1.0zm-0.15625 -3.671875q-0.8281212 -0.171875 -1.1562462 -0.171875q-1.296875 0 -2.140625 0.671875q-0.828125 0.671875 -0.828125 1.59375q0 1.515625 1.796875 1.515625q1.3125 0 2.3281212 -1.25l0 -2.359375zm4.583069 2.03125l0 -10.984375l1.734375 0l0 10.703125q0 0.78125 0.453125 1.234375q0.453125 0.453125 1.1875 0.453125l0 1.546875q-3.375 0 -3.375 -2.953125zm11.674011 2.765625l-3.0625 -4.875l-1.515625 1.546875l0 3.328125l-1.71875 0l0 -13.75l1.71875 0l0 8.53125l3.75 -4.53125l2.015625 0l-3.125 3.703125l3.8125 6.046875l-1.875 0zm13.99942 -12.203125q-0.53125 -0.1875 -0.984375 -0.1875q-0.78125 0 -1.296875 0.609375q-0.515625 0.59375 -0.515625 1.515625q0 0.25 0.046875 0.515625l1.984375 0l0 1.453125l-1.984375 0l0 8.296875l-1.734375 0l0 -8.296875l-1.421875 0l0 -1.453125l1.421875 0q0 -1.875 0.921875 -2.9375q0.921875 -1.0625 2.421875 -1.0625q0.765625 0 1.625 0.265625l-0.484375 1.28125zm3.4115143 -1.25q0.453125 0 0.765625 0.328125q0.3125 0.3125 0.3125 0.75q0 0.4375 -0.3125 0.75q-0.3125 0.3125 -0.765625 0.3125q-0.4375 0 -0.75 -0.3125q-0.3125 -0.3125 -0.3125 -0.75q0 -0.453125 0.296875 -0.765625q0.3125 -0.3125 0.765625 -0.3125zm-0.953125 13.453125l0 -8.296875l-1.328125 0l0 -1.453125l3.0625 0l0 9.75l-1.734375 0zm4.6168213 -2.765625l0 -10.984375l1.734375 0l0 10.703125q0 0.78125 0.453125 1.234375q0.453125 0.453125 1.1875 0.453125l0 1.546875q-3.375 0 -3.375 -2.953125zm13.595886 -1.9375l-7.046875 0q0 1.703125 0.953125 2.625q0.828125 0.796875 2.125 0.796875q1.484375 0 2.484375 -0.859375l0.71875 1.25q-0.390625 0.40625 -1.234375 0.6875q-1.03125 0.390625 -2.3125 0.390625q-1.828125 0 -3.125 -1.25q-1.421875 -1.375 -1.421875 -3.703125q0 -2.40625 1.46875 -3.875q1.3125 -1.296875 3.109375 -1.296875q2.078125 0 3.265625 1.171875q1.140625 1.125 1.140625 3.0q0 0.578125 -0.125 1.0625zm-4.203125 -3.78125q-1.15625 0 -1.9375 0.75q-0.75 0.71875 -0.859375 1.765625l5.40625 0q0 -1.046875 -0.65625 -1.75q-0.71875 -0.765625 -1.953125 -0.765625zm11.139618 7.90625l0.609375 -1.640625q1.453125 0.9375 2.328125 0.9375q1.609375 0 1.609375 -1.34375q0 -0.96875 -1.546875 -1.65625q-1.203125 -0.546875 -1.625 -0.828125q-0.40625 -0.28125 -0.71875 -0.640625q-0.296875 -0.359375 -0.453125 -0.765625q-0.140625 -0.40625 -0.140625 -0.875q0 -1.203125 0.875 -1.875q0.875 -0.671875 2.28125 -0.671875q1.0625 0 2.6875 0.671875l-0.484375 1.609375q-1.03125 -0.828125 -2.078125 -0.828125q-0.609375 0 -1.03125 0.296875q-0.421875 0.296875 -0.421875 0.734375q0 0.9375 1.0625 1.421875l1.234375 0.5625q1.140625 0.515625 1.65625 1.1875q0.515625 0.671875 0.515625 1.671875q0 1.3125 -0.921875 2.0625q-0.90625 0.734375 -2.546875 0.734375q-1.53125 0 -2.890625 -0.765625zm11.911148 2.234375q-0.328125 0.9375 -1.421875 1.546875q-1.078125 0.625 -2.40625 0.625l0 -1.546875q1.09375 0 1.859375 -0.515625q0.78125 -0.5 0.78125 -1.234375q0 -0.796875 -0.28125 -1.578125q-0.28125 -0.78125 -0.734375 -1.921875l-2.640625 -6.78125l1.765625 0l2.875 7.53125l2.578125 -7.53125l1.765625 0l-4.140625 11.40625zm4.841217 -2.234375l0.609375 -1.640625q1.453125 0.9375 2.328125 0.9375q1.609375 0 1.609375 -1.34375q0 -0.96875 -1.546875 -1.65625q-1.203125 -0.546875 -1.625 -0.828125q-0.40625 -0.28125 -0.71875 -0.640625q-0.296875 -0.359375 -0.453125 -0.765625q-0.140625 -0.40625 -0.140625 -0.875q0 -1.203125 0.875 -1.875q0.875 -0.671875 2.28125 -0.671875q1.0625 0 2.6875 0.671875l-0.484375 1.609375q-1.03125 -0.828125 -2.078125 -0.828125q-0.609375 0 -1.03125 0.296875q-0.421875 0.296875 -0.421875 0.734375q0 0.9375 1.0625 1.421875l1.234375 0.5625q1.140625 0.515625 1.65625 1.1875q0.515625 0.671875 0.515625 1.671875q0 1.3125 -0.921875 2.0625q-0.90625 0.734375 -2.546875 0.734375q-1.53125 0 -2.890625 -0.765625zm8.801773 -7.8125l-1.125 0l0 -1.359375l1.125 0l0 -2.046875l1.734375 -0.671875l0 2.71875l2.6875 0l0 1.359375l-2.6875 0l0 4.84375q0 1.234375 0.40625 1.75q0.421875 0.515625 1.34375 0.515625q0.671875 0 1.375 -0.328125l0.25 1.515625q-1.0625 0.28125 -2.359375 0.28125q-1.15625 0 -1.953125 -0.859375q-0.796875 -0.875 -0.796875 -2.171875l0 -5.546875zm15.006302 3.6875l-7.046875 0q0 1.703125 0.953125 2.625q0.828125 0.796875 2.125 0.796875q1.484375 0 2.484375 -0.859375l0.71875 1.25q-0.390625 0.40625 -1.234375 0.6875q-1.03125 0.390625 -2.3125 0.390625q-1.828125 0 -3.125 -1.25q-1.4218903 -1.375 -1.4218903 -3.703125q0 -2.40625 1.4687653 -3.875q1.3125 -1.296875 3.109375 -1.296875q2.078125 0 3.265625 1.171875q1.140625 1.125 1.140625 3.0q0 0.578125 -0.125 1.0625zm-4.203125 -3.78125q-1.15625 0 -1.9375 0.75q-0.75 0.71875 -0.859375 1.765625l5.40625 0q0 -1.046875 -0.65625 -1.75q-0.71875 -0.765625 -1.953125 -0.765625zm17.456543 8.484375l0 -6.171875q0 -2.3125 -2.0 -2.3125q-0.625 0 -1.171875 0.390625q-0.546875 0.390625 -0.75 0.875l0 7.21875l-1.734375 0l0 -6.9375q0 -0.71875 -0.546875 -1.125q-0.53125 -0.421875 -1.421875 -0.421875q-0.53125 0 -1.125 0.40625q-0.578125 0.40625 -0.828125 0.875l0 7.203125l-1.71875 0l0 -9.75l1.125 0l0.578125 1.125q1.0 -1.3125 2.5 -1.3125q2.09375 0 2.9375 1.296875q0.28125 -0.546875 1.078125 -0.921875q0.796875 -0.375 1.640625 -0.375q1.5 0 2.328125 0.90625q0.828125 0.890625 0.828125 2.515625l0 6.515625l-1.71875 0zm5.00177 3.3125l-0.46875 -0.65625q1.5625 -1.296875 1.5625 -2.1875q0 -0.40625 -0.265625 -0.8125q-0.78125 -0.359375 -0.78125 -1.0625q0 -0.484375 0.359375 -0.796875q0.375 -0.3125 0.9375 -0.3125q0.515625 0 0.90625 0.4375q0.390625 0.421875 0.390625 1.015625q0 1.203125 -0.5 2.171875q-0.5 0.984375 -2.140625 2.203125z" fill-rule="nonzero"/><path fill="#000000" d="m63.498333 125.61221l0.6093712 -1.640625q1.453125 0.9375 2.328125 0.9375q1.609375 0 1.609375 -1.34375q0 -0.96875 -1.546875 -1.65625q-1.203125 -0.546875 -1.625 -0.828125q-0.40625 -0.28125 -0.71875 -0.640625q-0.2968712 -0.359375 -0.4531212 -0.765625q-0.140625 -0.40625 -0.140625 -0.875q0 -1.203125 0.8749962 -1.875q0.875 -0.671875 2.28125 -0.671875q1.0625 0 2.6875 0.671875l-0.484375 1.609375q-1.03125 -0.828125 -2.078125 -0.828125q-0.609375 0 -1.03125 0.296875q-0.421875 0.296875 -0.421875 0.734375q0 0.9375 1.0625 1.421875l1.234375 0.5625q1.140625 0.515625 1.65625 1.1875q0.515625 0.671875 0.515625 1.671875q0 1.3125 -0.921875 2.0625q-0.90625 0.734375 -2.546875 0.734375q-1.53125 0 -2.8906212 -0.765625zm16.411144 -4.125l-7.046875 0q0 1.703125 0.953125 2.625q0.828125 0.796875 2.125 0.796875q1.484375 0 2.484375 -0.859375l0.71875 1.25q-0.390625 0.40625 -1.234375 0.6875q-1.03125 0.390625 -2.3125 0.390625q-1.828125 0 -3.125 -1.25q-1.421875 -1.375 -1.421875 -3.703125q0 -2.40625 1.46875 -3.875q1.3125 -1.296875 3.109375 -1.296875q2.078125 0 3.265625 1.171875q1.140625 1.125 1.140625 3.0q0 0.578125 -0.125 1.0625zm-4.203125 -3.78125q-1.15625 0 -1.9375 0.75q-0.75 0.71875 -0.859375 1.765625l5.40625 0q0 -1.046875 -0.65625 -1.75q-0.71875 -0.765625 -1.953125 -0.765625zm12.159683 8.484375l0 -5.671875q0 -1.5625 -0.46875 -2.1875q-0.46875 -0.625 -1.578125 -0.625q-0.59375 0 -1.234375 0.359375q-0.640625 0.359375 -1.0 0.875l0 7.25l-1.71875 0l0 -9.75l1.171875 0l0.546875 1.25q0.859375 -1.4375 2.796875 -1.4375q3.21875 0 3.21875 3.890625l0 6.046875l-1.734375 0zm10.381027 -0.015625l0 -0.71875q-0.90625 0.90625 -2.625 0.90625q-1.84375 0 -2.984375 -1.3125q-1.125 -1.3125 -1.125 -3.5q0 -2.1875 1.3125 -3.734375q1.3125 -1.5625 3.125 -1.5625q1.5 0 2.296875 0.703125l0 -4.515625l1.71875 0l0 13.734375l-1.71875 0zm0 -7.484375q-0.65625 -0.984375 -1.796875 -0.984375q-1.390625 0 -2.265625 1.046875q-0.859375 1.03125 -0.859375 2.640625q0 3.515625 3.21875 3.515625q0.40625 0 0.96875 -0.25q0.578125 -0.265625 0.734375 -0.5625l0 -5.40625zm15.092621 -4.703125q-0.53125 -0.1875 -0.984375 -0.1875q-0.78125 0 -1.296875 0.609375q-0.515625 0.59375 -0.515625 1.515625q0 0.25 0.046875 0.515625l1.984375 0l0 1.453125l-1.984375 0l0 8.296875l-1.734375 0l0 -8.296875l-1.421875 0l0 -1.453125l1.421875 0q0 -1.875 0.921875 -2.9375q0.921875 -1.0625 2.421875 -1.0625q0.765625 0 1.625 0.265625l-0.484375 1.28125zm3.4115143 -1.25q0.453125 0 0.765625 0.328125q0.3125 0.3125 0.3125 0.75q0 0.4375 -0.3125 0.75q-0.3125 0.3125 -0.765625 0.3125q-0.4375 0 -0.75 -0.3125q-0.3125 -0.3125 -0.3125 -0.75q0 -0.453125 0.296875 -0.765625q0.3125 -0.3125 0.765625 -0.3125zm-0.953125 13.453125l0 -8.296875l-1.328125 0l0 -1.453125l3.0625 0l0 9.75l-1.734375 0zm4.6168213 -2.765625l0 -10.984375l1.734375 0l0 10.703125q0 0.78125 0.453125 1.234375q0.453125 0.453125 1.1875 0.453125l0 1.546875q-3.375 0 -3.375 -2.953125zm13.595894 -1.9375l-7.0468826 0q0 1.703125 0.953125 2.625q0.8281326 0.796875 2.1250076 0.796875q1.484375 0 2.484375 -0.859375l0.71875 1.25q-0.390625 0.40625 -1.234375 0.6875q-1.03125 0.390625 -2.3125 0.390625q-1.8281326 0 -3.1250076 -1.25q-1.421875 -1.375 -1.421875 -3.703125q0 -2.40625 1.46875 -3.875q1.3125 -1.296875 3.1093826 -1.296875q2.078125 0 3.265625 1.171875q1.140625 1.125 1.140625 3.0q0 0.578125 -0.125 1.0625zm-4.203125 -3.78125q-1.15625 0 -1.9375076 0.75q-0.75 0.71875 -0.859375 1.765625l5.4062576 0q0 -1.046875 -0.65625 -1.75q-0.71875 -0.765625 -1.953125 -0.765625zm11.905243 5.71875l0 -10.984375l1.734375 0l0 10.703125q0 0.78125 0.453125 1.234375q0.453125 0.453125 1.1875 0.453125l0 1.546875q-3.375 0 -3.375 -2.953125zm7.158386 -10.6875q0.453125 0 0.765625 0.328125q0.3125 0.3125 0.3125 0.75q0 0.4375 -0.3125 0.75q-0.3125 0.3125 -0.765625 0.3125q-0.4375 0 -0.75 -0.3125q-0.3125 -0.3125 -0.3125 -0.75q0 -0.453125 0.296875 -0.765625q0.3125 -0.3125 0.765625 -0.3125zm-0.953125 13.453125l0 -8.296875l-1.328125 0l0 -1.453125l3.0625 0l0 9.75l-1.734375 0zm3.8511963 -0.578125l0.609375 -1.640625q1.453125 0.9375 2.328125 0.9375q1.609375 0 1.609375 -1.34375q0 -0.96875 -1.546875 -1.65625q-1.203125 -0.546875 -1.625 -0.828125q-0.40625 -0.28125 -0.71875 -0.640625q-0.296875 -0.359375 -0.453125 -0.765625q-0.140625 -0.40625 -0.140625 -0.875q0 -1.203125 0.875 -1.875q0.875 -0.671875 2.28125 -0.671875q1.0625 0 2.6875 0.671875l-0.484375 1.609375q-1.03125 -0.828125 -2.078125 -0.828125q-0.609375 0 -1.03125 0.296875q-0.421875 0.296875 -0.421875 0.734375q0 0.9375 1.0625 1.421875l1.234375 0.5625q1.140625 0.515625 1.65625 1.1875q0.515625 0.671875 0.515625 1.671875q0 1.3125 -0.921875 2.0625q-0.90625 0.734375 -2.546875 0.734375q-1.53125 0 -2.890625 -0.765625zm8.801773 -7.8125l-1.125 0l0 -1.359375l1.125 0l0 -2.046875l1.734375 -0.671875l0 2.71875l2.6875 0l0 1.359375l-2.6875 0l0 4.84375q0 1.234375 0.40625 1.75q0.421875 0.515625 1.34375 0.515625q0.671875 0 1.375 -0.328125l0.25 1.515625q-1.0625 0.28125 -2.359375 0.28125q-1.15625 0 -1.953125 -0.859375q-0.796875 -0.875 -0.796875 -2.171875l0 -5.546875z" fill-rule="nonzero"/><path fill="#cfe2f3" d="m402.84515 211.08923l227.1181 0l0 88.346466l-227.1181 0z" fill-rule="evenodd"/><path stroke="#000000" stroke-width="1.0" stroke-linejoin="round" stroke-linecap="butt" d="m402.84515 211.08923l227.1181 0l0 88.346466l-227.1181 0z" fill-rule="evenodd"/><path fill="#000000" d="m468.12878 227.97934q-0.53125 -0.1875 -0.984375 -0.1875q-0.78125 0 -1.296875 0.609375q-0.515625 0.59375 -0.515625 1.515625q0 0.25 0.046875 0.515625l1.984375 0l0 1.453125l-1.984375 0l0 8.296875l-1.734375 0l0 -8.296875l-1.421875 0l0 -1.453125l1.421875 0q0 -1.875 0.921875 -2.9375q0.921875 -1.0625 2.421875 -1.0625q0.765625 0 1.625 0.265625l-0.484375 1.28125zm0.98965454 7.296875q0 -2.25 1.21875 -3.640625q1.21875 -1.390625 3.203125 -1.390625q2.09375 0 3.25 1.34375q1.15625 1.328125 1.15625 3.6875q0 2.359375 -1.1875 3.734375q-1.1875 1.359375 -3.21875 1.359375q-2.09375 0 -3.265625 -1.375q-1.15625 -1.375 -1.15625 -3.71875zm1.8125 0q0 3.671875 2.609375 3.671875q1.203125 0 1.890625 -0.984375q0.6875 -0.984375 0.6875 -2.6875q0 -3.625 -2.578125 -3.625q-1.1875 0 -1.90625 0.96875q-0.703125 0.96875 -0.703125 2.65625zm14.136322 -3.1875q-0.5625 -0.390625 -1.140625 -0.390625q-0.921875 0 -1.609375 0.859375q-0.6875 0.84375 -0.6875 2.03125l0 5.59375l-1.734375 0l0 -9.75l1.734375 0l0 1.546875q0.953125 -1.734375 2.8125 -1.734375q0.46875 0 1.34375 0.15625l-0.71875 1.6875zm15.79361 3.390625l-7.046875 0q0 1.703125 0.953125 2.625q0.828125 0.796875 2.125 0.796875q1.484375 0 2.484375 -0.859375l0.71875 1.25q-0.390625 0.40625 -1.234375 0.6875q-1.03125 0.390625 -2.3125 0.390625q-1.828125 0 -3.125 -1.25q-1.421875 -1.375 -1.421875 -3.703125q0 -2.40625 1.46875 -3.875q1.3125 -1.296875 3.109375 -1.296875q2.078125 0 3.265625 1.171875q1.140625 1.125 1.140625 3.0q0 0.578125 -0.125 1.0625zm-4.203125 -3.78125q-1.15625 0 -1.9375 0.75q-0.75 0.71875 -0.859375 1.765625l5.40625 0q0 -1.046875 -0.65625 -1.75q-0.71875 -0.765625 -1.953125 -0.765625zm11.659668 7.359375q-1.03125 1.3125 -3.171875 1.3125q-1.15625 0 -2.0 -0.828125q-0.828125 -0.84375 -0.828125 -2.078125q0 -1.484375 1.296875 -2.515625q1.296875 -1.03125 3.3125 -1.03125q0.546875 0 1.234375 0.25q0 -2.375 -2.109375 -2.375q-1.625 0 -2.5 0.875l-0.734375 -1.453125q0.5 -0.390625 1.359375 -0.671875q0.875 -0.296875 1.671875 -0.296875q2.125 0 3.078125 0.96875q0.96875 0.96875 0.96875 3.0625l0 3.5q0 1.28125 0.765625 1.71875l0 0.859375q-1.0625 0 -1.59375 -0.296875q-0.515625 -0.296875 -0.75 -1.0zm-0.15625 -3.671875q-0.828125 -0.171875 -1.15625 -0.171875q-1.296875 0 -2.140625 0.671875q-0.828125 0.671875 -0.828125 1.59375q0 1.515625 1.796875 1.515625q1.3125 0 2.328125 -1.25l0 -2.359375zm11.817474 -4.171875l-0.859375 1.21875q-0.265625 -0.25 -0.9375 -0.484375q-0.671875 -0.25 -1.3125 -0.25q-1.40625 0 -2.25 1.0q-0.828125 0.984375 -0.828125 2.703125q0 1.71875 0.84375 2.609375q0.859375 0.890625 2.359375 0.890625q1.171875 0 2.359375 -0.890625l0.671875 1.453125q-1.390625 0.90625 -3.453125 0.90625q-1.984375 0 -3.296875 -1.34375q-1.2969055 -1.34375 -1.2969055 -3.625q0 -2.328125 1.3437805 -3.734375q1.359375 -1.421875 3.703125 -1.421875q0.765625 0 1.640625 0.328125q0.890625 0.3125 1.3125 0.640625zm7.8776245 8.96875l0 -6.125q0 -1.09375 -0.53125 -1.71875q-0.53125 -0.640625 -1.515625 -0.640625q-0.625 0 -1.265625 0.375q-0.625 0.359375 -0.96875 0.859375l0 7.25l-1.71875 0l0 -13.75l1.71875 0l0 5.0625q0.359375 -0.53125 1.125 -0.890625q0.765625 -0.359375 1.59375 -0.359375q1.546875 0 2.421875 1.03125q0.875 1.015625 0.875 2.78125l0 6.125l-1.734375 0zm15.079712 -12.203125q-0.53125 -0.1875 -0.984375 -0.1875q-0.78125 0 -1.296875 0.609375q-0.515625 0.59375 -0.515625 1.515625q0 0.25 0.046875 0.515625l1.984375 0l0 1.453125l-1.984375 0l0 8.296875l-1.734375 0l0 -8.296875l-1.421875 0l0 -1.453125l1.421875 0q0 -1.875 0.921875 -2.9375q0.921875 -1.0625 2.421875 -1.0625q0.765625 0 1.625 0.265625l-0.484375 1.28125zm3.411499 -1.25q0.453125 0 0.765625 0.328125q0.3125 0.3125 0.3125 0.75q0 0.4375 -0.3125 0.75q-0.3125 0.3125 -0.765625 0.3125q-0.4375 0 -0.75 -0.3125q-0.3125 -0.3125 -0.3125 -0.75q0 -0.453125 0.296875 -0.765625q0.3125 -0.3125 0.765625 -0.3125zm-0.953125 13.453125l0 -8.296875l-1.328125 0l0 -1.453125l3.0625 0l0 9.75l-1.734375 0zm4.6168213 -2.765625l0 -10.984375l1.734375 0l0 10.703125q0 0.78125 0.453125 1.234375q0.453125 0.453125 1.1875 0.453125l0 1.546875q-3.375 0 -3.375 -2.953125zm13.595886 -1.9375l-7.046875 0q0 1.703125 0.953125 2.625q0.828125 0.796875 2.125 0.796875q1.484375 0 2.484375 -0.859375l0.71875 1.25q-0.390625 0.40625 -1.234375 0.6875q-1.03125 0.390625 -2.3125 0.390625q-1.828125 0 -3.125 -1.25q-1.421875 -1.375 -1.421875 -3.703125q0 -2.40625 1.46875 -3.875q1.3125 -1.296875 3.109375 -1.296875q2.078125 0 3.265625 1.171875q1.140625 1.125 1.140625 3.0q0 0.578125 -0.125 1.0625zm-4.203125 -3.78125q-1.15625 0 -1.9375 0.75q-0.75 0.71875 -0.859375 1.765625l5.40625 0q0 -1.046875 -0.65625 -1.75q-0.71875 -0.765625 -1.953125 -0.765625zm8.144104 -1.453125q0.578125 0 0.96875 0.40625q0.40625 0.390625 0.40625 0.953125q0 0.578125 -0.40625 0.984375q-0.390625 0.390625 -0.96875 0.390625q-0.5625 0 -0.96875 -0.390625q-0.390625 -0.40625 -0.390625 -0.984375q0 -0.5625 0.390625 -0.953125q0.40625 -0.40625 0.96875 -0.40625zm0 7.375q0.578125 0 0.96875 0.40625q0.40625 0.390625 0.40625 0.96875q0 0.5625 -0.40625 0.96875q-0.390625 0.40625 -0.96875 0.40625q-0.5625 0 -0.96875 -0.40625q-0.390625 -0.40625 -0.390625 -0.96875q0 -0.578125 0.390625 -0.96875q0.40625 -0.40625 0.96875 -0.40625z" fill-rule="nonzero"/><path fill="#000000" d="m425.25806 253.21371l-0.859375 1.21875q-0.265625 -0.25 -0.9375 -0.484375q-0.671875 -0.25 -1.3125 -0.25q-1.40625 0 -2.25 1.0q-0.828125 0.984375 -0.828125 2.703125q0 1.71875 0.84375 2.609375q0.859375 0.890625 2.359375 0.890625q1.171875 0 2.359375 -0.890625l0.671875 1.453125q-1.390625 0.90625 -3.453125 0.90625q-1.984375 0 -3.296875 -1.34375q-1.296875 -1.34375 -1.296875 -3.625q0 -2.328125 1.34375 -3.734375q1.359375 -1.421875 3.703125 -1.421875q0.765625 0 1.640625 0.328125q0.890625 0.3125 1.3125 0.640625zm7.17453 0.875q-0.5625 -0.390625 -1.140625 -0.390625q-0.921875 0 -1.609375 0.859375q-0.6875 0.84375 -0.6875 2.03125l0 5.59375l-1.734375 0l0 -9.75l1.734375 0l0 1.546875q0.953125 -1.734375 2.8125 -1.734375q0.46875 0 1.34375 0.15625l-0.71875 1.6875zm10.173035 3.390625l-7.046875 0q0 1.703125 0.953125 2.625q0.828125 0.796875 2.125 0.796875q1.484375 0 2.484375 -0.859375l0.71875 1.25q-0.390625 0.40625 -1.234375 0.6875q-1.03125 0.390625 -2.3125 0.390625q-1.828125 0 -3.125 -1.25q-1.421875 -1.375 -1.421875 -3.703125q0 -2.40625 1.46875 -3.875q1.3125 -1.296875 3.109375 -1.296875q2.078125 0 3.265625 1.171875q1.140625 1.125 1.140625 3.0q0 0.578125 -0.125 1.0625zm-4.203125 -3.78125q-1.15625 0 -1.9375 0.75q-0.75 0.71875 -0.859375 1.765625l5.40625 0q0 -1.046875 -0.65625 -1.75q-0.71875 -0.765625 -1.953125 -0.765625zm11.6596985 7.359375q-1.03125 1.3125 -3.171875 1.3125q-1.15625 0 -2.0 -0.828125q-0.828125 -0.84375 -0.828125 -2.078125q0 -1.484375 1.296875 -2.515625q1.296875 -1.03125 3.3125 -1.03125q0.546875 0 1.234375 0.25q0 -2.375 -2.109375 -2.375q-1.625 0 -2.5 0.875l-0.734375 -1.453125q0.5 -0.390625 1.359375 -0.671875q0.875 -0.296875 1.671875 -0.296875q2.125 0 3.078125 0.96875q0.96875 0.96875 0.96875 3.0625l0 3.5q0 1.28125 0.765625 1.71875l0 0.859375q-1.0625 0 -1.59375 -0.296875q-0.515625 -0.296875 -0.75 -1.0zm-0.15625 -3.671875q-0.828125 -0.171875 -1.15625 -0.171875q-1.296875 0 -2.140625 0.671875q-0.828125 0.671875 -0.828125 1.59375q0 1.515625 1.796875 1.515625q1.3125 0 2.328125 -1.25l0 -2.359375zm5.067444 -3.59375l-1.125 0l0 -1.359375l1.125 0l0 -2.046875l1.734375 -0.671875l0 2.71875l2.6875 0l0 1.359375l-2.6875 0l0 4.84375q0 1.234375 0.40625 1.75q0.421875 0.515625 1.34375 0.515625q0.671875 0 1.375 -0.328125l0.25 1.515625q-1.0625 0.28125 -2.359375 0.28125q-1.15625 0 -1.953125 -0.859375q-0.796875 -0.875 -0.796875 -2.171875l0 -5.546875zm15.006287 3.6875l-7.046875 0q0 1.703125 0.953125 2.625q0.828125 0.796875 2.125 0.796875q1.484375 0 2.484375 -0.859375l0.71875 1.25q-0.390625 0.40625 -1.234375 0.6875q-1.03125 0.390625 -2.3125 0.390625q-1.828125 0 -3.125 -1.25q-1.421875 -1.375 -1.421875 -3.703125q0 -2.40625 1.46875 -3.875q1.3125 -1.296875 3.109375 -1.296875q2.078125 0 3.265625 1.171875q1.140625 1.125 1.140625 3.0q0 0.578125 -0.125 1.0625zm-4.203125 -3.78125q-1.15625 0 -1.9375 0.75q-0.75 0.71875 -0.859375 1.765625l5.40625 0q0 -1.046875 -0.65625 -1.75q-0.71875 -0.765625 -1.953125 -0.765625zm6.972168 11.796875l-0.46875 -0.65625q1.5625 -1.296875 1.5625 -2.1875q0 -0.40625 -0.265625 -0.8125q-0.78125 -0.359375 -0.78125 -1.0625q0 -0.484375 0.359375 -0.796875q0.375 -0.3125 0.9375 -0.3125q0.515625 0 0.90625 0.4375q0.390625 0.421875 0.390625 1.015625q0 1.203125 -0.5 2.171875q-0.5 0.984375 -2.140625 2.203125zm11.017792 -3.890625l0.609375 -1.640625q1.453125 0.9375 2.328125 0.9375q1.609375 0 1.609375 -1.34375q0 -0.96875 -1.546875 -1.65625q-1.203125 -0.546875 -1.625 -0.828125q-0.40625 -0.28125 -0.71875 -0.640625q-0.296875 -0.359375 -0.453125 -0.765625q-0.140625 -0.40625 -0.140625 -0.875q0 -1.203125 0.875 -1.875q0.875 -0.671875 2.28125 -0.671875q1.0625 0 2.6875 0.671875l-0.484375 1.609375q-1.03125 -0.828125 -2.078125 -0.828125q-0.609375 0 -1.03125 0.296875q-0.421875 0.296875 -0.421875 0.734375q0 0.9375 1.0625 1.421875l1.234375 0.5625q1.140625 0.515625 1.65625 1.1875q0.515625 0.671875 0.515625 1.671875q0 1.3125 -0.921875 2.0625q-0.90625 0.734375 -2.546875 0.734375q-1.53125 0 -2.890625 -0.765625zm16.411133 -4.125l-7.046875 0q0 1.703125 0.953125 2.625q0.828125 0.796875 2.125 0.796875q1.484375 0 2.484375 -0.859375l0.71875 1.25q-0.390625 0.40625 -1.234375 0.6875q-1.03125 0.390625 -2.3125 0.390625q-1.828125 0 -3.125 -1.25q-1.421875 -1.375 -1.421875 -3.703125q0 -2.40625 1.46875 -3.875q1.3125 -1.296875 3.109375 -1.296875q2.078125 0 3.265625 1.171875q1.140625 1.125 1.140625 3.0q0 0.578125 -0.125 1.0625zm-4.203125 -3.78125q-1.15625 0 -1.9375 0.75q-0.75 0.71875 -0.859375 1.765625l5.40625 0q0 -1.046875 -0.65625 -1.75q-0.71875 -0.765625 -1.953125 -0.765625zm12.1596985 8.484375l0 -5.671875q0 -1.5625 -0.46875 -2.1875q-0.46875 -0.625 -1.578125 -0.625q-0.59375 0 -1.234375 0.359375q-0.640625 0.359375 -1.0 0.875l0 7.25l-1.71875 0l0 -9.75l1.171875 0l0.546875 1.25q0.859375 -1.4375 2.796875 -1.4375q3.21875 0 3.21875 3.890625l0 6.046875l-1.734375 0zm10.3810425 -0.015625l0 -0.71875q-0.90625 0.90625 -2.625 0.90625q-1.84375 0 -2.984375 -1.3125q-1.1250305 -1.3125 -1.1250305 -3.5q0 -2.1875 1.3125305 -3.734375q1.3125 -1.5625 3.125 -1.5625q1.5 0 2.296875 0.703125l0 -4.515625l1.71875 0l0 13.734375l-1.71875 0zm0 -7.484375q-0.65625 -0.984375 -1.796875 -0.984375q-1.390625 0 -2.265625 1.046875q-0.859375 1.03125 -0.859375 2.640625q0 3.515625 3.21875 3.515625q0.40625 0 0.96875 -0.25q0.578125 -0.265625 0.734375 -0.5625l0 -5.40625zm17.18634 -1.46875l-0.859375 1.21875q-0.265625 -0.25 -0.9375 -0.484375q-0.671875 -0.25 -1.3125 -0.25q-1.40625 0 -2.25 1.0q-0.828125 0.984375 -0.828125 2.703125q0 1.71875 0.84375 2.609375q0.859375 0.890625 2.359375 0.890625q1.171875 0 2.359375 -0.890625l0.671875 1.453125q-1.390625 0.90625 -3.453125 0.90625q-1.984375 0 -3.296875 -1.34375q-1.296875 -1.34375 -1.296875 -3.625q0 -2.328125 1.34375 -3.734375q1.359375 -1.421875 3.703125 -1.421875q0.765625 0 1.640625 0.328125q0.890625 0.3125 1.3125 0.640625zm7.8776855 8.96875l0 -6.125q0 -1.09375 -0.53125 -1.71875q-0.53125 -0.640625 -1.515625 -0.640625q-0.625 0 -1.265625 0.375q-0.625 0.359375 -0.96875 0.859375l0 7.25l-1.71875 0l0 -13.75l1.71875 0l0 5.0625q0.359375 -0.53125 1.125 -0.890625q0.765625 -0.359375 1.59375 -0.359375q1.546875 0 2.421875 1.03125q0.875 1.015625 0.875 2.78125l0 6.125l-1.734375 0zm12.412231 -4.703125l-7.046875 0q0 1.703125 0.953125 2.625q0.828125 0.796875 2.125 0.796875q1.484375 0 2.484375 -0.859375l0.71875 1.25q-0.390625 0.40625 -1.234375 0.6875q-1.03125 0.390625 -2.3125 0.390625q-1.828125 0 -3.125 -1.25q-1.421875 -1.375 -1.421875 -3.703125q0 -2.40625 1.46875 -3.875q1.3125 -1.296875 3.109375 -1.296875q2.078125 0 3.265625 1.171875q1.140625 1.125 1.140625 3.0q0 0.578125 -0.125 1.0625zm-4.203125 -3.78125q-1.15625 0 -1.9375 0.75q-0.75 0.71875 -0.859375 1.765625l5.40625 0q0 -1.046875 -0.65625 -1.75q-0.71875 -0.765625 -1.953125 -0.765625zm13.519104 -0.484375l-0.859375 1.21875q-0.265625 -0.25 -0.9375 -0.484375q-0.671875 -0.25 -1.3125 -0.25q-1.40625 0 -2.25 1.0q-0.828125 0.984375 -0.828125 2.703125q0 1.71875 0.84375 2.609375q0.859375 0.890625 2.359375 0.890625q1.171875 0 2.359375 -0.890625l0.671875 1.453125q-1.390625 0.90625 -3.453125 0.90625q-1.984375 0 -3.296875 -1.34375q-1.296875 -1.34375 -1.296875 -3.625q0 -2.328125 1.34375 -3.734375q1.359375 -1.421875 3.703125 -1.421875q0.765625 0 1.640625 0.328125q0.890625 0.3125 1.3125 0.640625zm8.1744995 8.96875l-3.0625 -4.875l-1.515625 1.546875l0 3.328125l-1.71875 0l0 -13.75l1.71875 0l0 8.53125l3.75 -4.53125l2.015625 0l-3.125 3.703125l3.8125 6.046875l-1.875 0zm2.4725952 -0.578125l0.609375 -1.640625q1.453125 0.9375 2.328125 0.9375q1.609375 0 1.609375 -1.34375q0 -0.96875 -1.546875 -1.65625q-1.203125 -0.546875 -1.625 -0.828125q-0.40625 -0.28125 -0.71875 -0.640625q-0.296875 -0.359375 -0.453125 -0.765625q-0.140625 -0.40625 -0.140625 -0.875q0 -1.203125 0.875 -1.875q0.875 -0.671875 2.28125 -0.671875q1.0625 0 2.6875 0.671875l-0.484375 1.609375q-1.03125 -0.828125 -2.078125 -0.828125q-0.609375 0 -1.03125 0.296875q-0.421875 0.296875 -0.421875 0.734375q0 0.9375 1.0625 1.421875l1.234375 0.5625q1.140625 0.515625 1.65625 1.1875q0.515625 0.671875 0.515625 1.671875q0 1.3125 -0.921875 2.0625q-0.90625 0.734375 -2.546875 0.734375q-1.53125 0 -2.890625 -0.765625zm9.833069 -9.171875l0 6.21875q0 2.25 1.953125 2.25q0.859375 0 1.5625 -0.484375q0.71875 -0.5 0.9375 -1.140625l0 -6.84375l1.734375 0l0 9.75l-1.734375 0l0 -1.34375q-0.28125 0.5625 -1.171875 1.046875q-0.875 0.484375 -1.703125 0.484375q-1.609375 0 -2.46875 -0.921875q-0.84375 -0.921875 -0.84375 -2.625l0 -6.390625l1.734375 0zm19.849731 9.75l0 -6.171875q0 -2.3125 -2.0 -2.3125q-0.625 0 -1.171875 0.390625q-0.546875 0.390625 -0.75 0.875l0 7.21875l-1.734375 0l0 -6.9375q0 -0.71875 -0.546875 -1.125q-0.53125 -0.421875 -1.421875 -0.421875q-0.53125 0 -1.125 0.40625q-0.578125 0.40625 -0.828125 0.875l0 7.203125l-1.71875 0l0 -9.75l1.125 0l0.578125 1.125q1.0 -1.3125 2.5 -1.3125q2.09375 0 2.9375 1.296875q0.28125 -0.546875 1.078125 -0.921875q0.796875 -0.375 1.640625 -0.375q1.5 0 2.328125 0.90625q0.828125 0.890625 0.828125 2.515625l0 6.515625l-1.71875 0zm3.548645 -0.578125l0.609375 -1.640625q1.453125 0.9375 2.328125 0.9375q1.609375 0 1.609375 -1.34375q0 -0.96875 -1.546875 -1.65625q-1.203125 -0.546875 -1.625 -0.828125q-0.40625 -0.28125 -0.71875 -0.640625q-0.296875 -0.359375 -0.453125 -0.765625q-0.140625 -0.40625 -0.140625 -0.875q0 -1.203125 0.875 -1.875q0.875 -0.671875 2.28125 -0.671875q1.0625 0 2.6875 0.671875l-0.484375 1.609375q-1.03125 -0.828125 -2.078125 -0.828125q-0.609375 0 -1.03125 0.296875q-0.421875 0.296875 -0.421875 0.734375q0 0.9375 1.0625 1.421875l1.234375 0.5625q1.140625 0.515625 1.65625 1.1875q0.515625 0.671875 0.515625 1.671875q0 1.3125 -0.921875 2.0625q-0.90625 0.734375 -2.546875 0.734375q-1.53125 0 -2.890625 -0.765625z" fill-rule="nonzero"/><path fill="#000000" d="m463.56494 270.72934q0.453125 0 0.765625 0.328125q0.3125 0.3125 0.3125 0.75q0 0.4375 -0.3125 0.75q-0.3125 0.3125 -0.765625 0.3125q-0.4375 0 -0.75 -0.3125q-0.3125 -0.3125 -0.3125 -0.75q0 -0.453125 0.296875 -0.765625q0.3125 -0.3125 0.765625 -0.3125zm-0.953125 13.453125l0 -8.296875l-1.328125 0l0 -1.453125l3.0625 0l0 9.75l-1.734375 0zm9.757446 -12.203125q-0.53125 -0.1875 -0.984375 -0.1875q-0.78125 0 -1.296875 0.609375q-0.515625 0.59375 -0.515625 1.515625q0 0.25 0.046875 0.515625l1.984375 0l0 1.453125l-1.984375 0l0 8.296875l-1.734375 0l0 -8.296875l-1.421875 0l0 -1.453125l1.421875 0q0 -1.875 0.921875 -2.9375q0.921875 -1.0625 2.421875 -1.0625q0.765625 0 1.625 0.265625l-0.484375 1.28125zm12.516449 0q-0.53125 -0.1875 -0.984375 -0.1875q-0.78125 0 -1.296875 0.609375q-0.515625 0.59375 -0.515625 1.515625q0 0.25 0.046875 0.515625l1.984375 0l0 1.453125l-1.984375 0l0 8.296875l-1.734375 0l0 -8.296875l-1.421875 0l0 -1.453125l1.421875 0q0 -1.875 0.921875 -2.9375q0.921875 -1.0625 2.421875 -1.0625q0.765625 0 1.625 0.265625l-0.484375 1.28125zm3.411499 -1.25q0.453125 0 0.765625 0.328125q0.3125 0.3125 0.3125 0.75q0 0.4375 -0.3125 0.75q-0.3125 0.3125 -0.765625 0.3125q-0.4375 0 -0.75 -0.3125q-0.3125 -0.3125 -0.3125 -0.75q0 -0.453125 0.296875 -0.765625q0.3125 -0.3125 0.765625 -0.3125zm-0.953125 13.453125l0 -8.296875l-1.328125 0l0 -1.453125l3.0625 0l0 9.75l-1.734375 0zm4.6168213 -2.765625l0 -10.984375l1.734375 0l0 10.703125q0 0.78125 0.453125 1.234375q0.453125 0.453125 1.1875 0.453125l0 1.546875q-3.375 0 -3.375 -2.953125zm13.595886 -1.9375l-7.046875 0q0 1.703125 0.953125 2.625q0.828125 0.796875 2.125 0.796875q1.484375 0 2.484375 -0.859375l0.71875 1.25q-0.390625 0.40625 -1.234375 0.6875q-1.03125 0.390625 -2.3125 0.390625q-1.828125 0 -3.125 -1.25q-1.421875 -1.375 -1.421875 -3.703125q0 -2.40625 1.46875 -3.875q1.3125 -1.296875 3.109375 -1.296875q2.078125 0 3.265625 1.171875q1.140625 1.125 1.140625 3.0q0 0.578125 -0.125 1.0625zm-4.203125 -3.78125q-1.15625 0 -1.9375 0.75q-0.75 0.71875 -0.859375 1.765625l5.40625 0q0 -1.046875 -0.65625 -1.75q-0.71875 -0.765625 -1.953125 -0.765625zm19.998993 3.78125l-7.046875 0q0 1.703125 0.953125 2.625q0.828125 0.796875 2.125 0.796875q1.484375 0 2.484375 -0.859375l0.71875 1.25q-0.390625 0.40625 -1.234375 0.6875q-1.03125 0.390625 -2.3125 0.390625q-1.828125 0 -3.125 -1.25q-1.421875 -1.375 -1.421875 -3.703125q0 -2.40625 1.46875 -3.875q1.3125 -1.296875 3.109375 -1.296875q2.078125 0 3.265625 1.171875q1.140625 1.125 1.140625 3.0q0 0.578125 -0.125 1.0625zm-4.203125 -3.78125q-1.15625 0 -1.9375 0.75q-0.75 0.71875 -0.859375 1.765625l5.40625 0q0 -1.046875 -0.65625 -1.75q-0.71875 -0.765625 -1.953125 -0.765625zm12.097168 8.484375l-2.65625 -3.546875l-2.390625 3.546875l-2.015625 0l3.546875 -4.984375l-3.25 -4.765625l1.9375 0l2.1875 3.34375l2.453125 -3.34375l1.921875 0l-3.546875 4.765625l3.875 4.984375l-2.0625 0zm5.1901245 -13.453125q0.453125 0 0.765625 0.328125q0.3125 0.3125 0.3125 0.75q0 0.4375 -0.3125 0.75q-0.3125 0.3125 -0.765625 0.3125q-0.4375 0 -0.75 -0.3125q-0.3125 -0.3125 -0.3125 -0.75q0 -0.453125 0.296875 -0.765625q0.3125 -0.3125 0.765625 -0.3125zm-0.953125 13.453125l0 -8.296875l-1.328125 0l0 -1.453125l3.0625 0l0 9.75l-1.734375 0zm3.8511963 -0.578125l0.609375 -1.640625q1.453125 0.9375 2.328125 0.9375q1.609375 0 1.609375 -1.34375q0 -0.96875 -1.546875 -1.65625q-1.203125 -0.546875 -1.625 -0.828125q-0.40625 -0.28125 -0.71875 -0.640625q-0.296875 -0.359375 -0.453125 -0.765625q-0.140625 -0.40625 -0.140625 -0.875q0 -1.203125 0.875 -1.875q0.875 -0.671875 2.28125 -0.671875q1.0625 0 2.6875 0.671875l-0.484375 1.609375q-1.03125 -0.828125 -2.078125 -0.828125q-0.609375 0 -1.03125 0.296875q-0.421875 0.296875 -0.421875 0.734375q0 0.9375 1.0625 1.421875l1.234375 0.5625q1.140625 0.515625 1.65625 1.1875q0.515625 0.671875 0.515625 1.671875q0 1.3125 -0.921875 2.0625q-0.90625 0.734375 -2.546875 0.734375q-1.53125 0 -2.890625 -0.765625zm8.801758 -7.8125l-1.125 0l0 -1.359375l1.125 0l0 -2.046875l1.734375 -0.671875l0 2.71875l2.6875 0l0 1.359375l-2.6875 0l0 4.84375q0 1.234375 0.40625 1.75q0.421875 0.515625 1.34375 0.515625q0.671875 0 1.375 -0.328125l0.25 1.515625q-1.0625 0.28125 -2.359375 0.28125q-1.15625 0 -1.953125 -0.859375q-0.796875 -0.875 -0.796875 -2.171875l0 -5.546875zm15.006287 3.6875l-7.046875 0q0 1.703125 0.953125 2.625q0.828125 0.796875 2.125 0.796875q1.484375 0 2.484375 -0.859375l0.71875 1.25q-0.390625 0.40625 -1.234375 0.6875q-1.03125 0.390625 -2.3125 0.390625q-1.828125 0 -3.125 -1.25q-1.421875 -1.375 -1.421875 -3.703125q0 -2.40625 1.46875 -3.875q1.3125 -1.296875 3.109375 -1.296875q2.078125 0 3.265625 1.171875q1.140625 1.125 1.140625 3.0q0 0.578125 -0.125 1.0625zm-4.203125 -3.78125q-1.15625 0 -1.9375 0.75q-0.75 0.71875 -0.859375 1.765625l5.40625 0q0 -1.046875 -0.65625 -1.75q-0.71875 -0.765625 -1.953125 -0.765625zm12.347168 8.46875l0 -0.71875q-0.90625 0.90625 -2.625 0.90625q-1.84375 0 -2.984375 -1.3125q-1.125 -1.3125 -1.125 -3.5q0 -2.1875 1.3125 -3.734375q1.3125 -1.5625 3.125 -1.5625q1.5 0 2.296875 0.703125l0 -4.515625l1.71875 0l0 13.734375l-1.71875 0zm0 -7.484375q-0.65625 -0.984375 -1.796875 -0.984375q-1.390625 0 -2.265625 1.046875q-0.859375 1.03125 -0.859375 2.640625q0 3.515625 3.21875 3.515625q0.40625 0 0.96875 -0.25q0.578125 -0.265625 0.734375 -0.5625l0 -5.40625z" fill-rule="nonzero"/><path fill="#000000" fill-opacity="0.0" d="m516.105 211.08923l33.606323 -58.64566" fill-rule="evenodd"/><path stroke="#000000" stroke-width="1.0" stroke-linejoin="round" stroke-linecap="butt" d="m516.105 211.08923l30.623169 -53.43982" fill-rule="evenodd"/><path fill="#000000" stroke="#000000" stroke-width="1.0" stroke-linecap="butt" d="m548.16125 158.47064l0.82318115 -4.758667l-3.689392 3.116211z" fill-rule="evenodd"/><path fill="#000000" fill-opacity="0.0" d="m549.7113 211.08923l33.606262 -58.64566" fill-rule="evenodd"/><path stroke="#000000" stroke-width="1.0" stroke-linejoin="round" stroke-linecap="butt" d="m549.7113 211.08923l30.623108 -53.43982" fill-rule="evenodd"/><path fill="#000000" stroke="#000000" stroke-width="1.0" stroke-linecap="butt" d="m581.7675 158.47064l0.8232422 -4.758667l-3.6894531 3.116211z" fill-rule="evenodd"/><path fill="#000000" fill-opacity="0.0" d="m582.3937 211.08923l33.606323 -58.64566" fill-rule="evenodd"/><path stroke="#000000" stroke-width="1.0" stroke-linejoin="round" stroke-linecap="butt" d="m582.3937 211.08923l30.623169 -53.43982" fill-rule="evenodd"/><path fill="#000000" stroke="#000000" stroke-width="1.0" stroke-linecap="butt" d="m614.44995 158.47064l0.82318115 -4.758667l-3.689392 3.116211z" fill-rule="evenodd"/><path fill="#cfe2f3" d="m529.6063 64.097115l227.1181 0l0 88.34646l-227.1181 0z" fill-rule="evenodd"/><path stroke="#000000" stroke-width="1.0" stroke-linejoin="round" stroke-linecap="butt" d="m529.6063 64.097115l227.1181 0l0 88.34646l-227.1181 0z" fill-rule="evenodd"/><path fill="#000000" d="m601.61383 93.19034l0 -6.125q0 -1.09375 -0.53125 -1.71875q-0.53125 -0.640625 -1.515625 -0.640625q-0.625 0 -1.265625 0.375q-0.625 0.359375 -0.96875 0.859375l0 7.25l-1.71875 0l0 -13.75l1.71875 0l0 5.0625q0.359375 -0.53125 1.125 -0.890625q0.765625 -0.359375 1.59375 -0.359375q1.546875 0 2.421875 1.03125q0.875 1.015625 0.875 2.78125l0 6.125l-1.734375 0zm9.693481 -1.125q-1.03125 1.3125 -3.171875 1.3125q-1.15625 0 -2.0 -0.828125q-0.828125 -0.84375 -0.828125 -2.078125q0 -1.484375 1.296875 -2.515625q1.296875 -1.03125 3.3125 -1.03125q0.546875 0 1.234375 0.25q0 -2.375 -2.109375 -2.375q-1.625 0 -2.5 0.875l-0.734375 -1.453125q0.5 -0.390625 1.359375 -0.671875q0.875 -0.296875 1.671875 -0.296875q2.125 0 3.078125 0.96875q0.96875 0.96875 0.96875 3.0625l0 3.5q0 1.28125 0.765625 1.71875l0 0.859375q-1.0625 0 -1.59375 -0.296875q-0.515625 -0.296875 -0.75 -1.0zm-0.15625 -3.671875q-0.828125 -0.171875 -1.15625 -0.171875q-1.296875 0 -2.140625 0.671875q-0.828125 0.671875 -0.828125 1.59375q0 1.515625 1.796875 1.515625q1.3125 0 2.328125 -1.25l0 -2.359375zm3.8174438 4.21875l0.609375 -1.640625q1.453125 0.9375 2.328125 0.9375q1.609375 0 1.609375 -1.34375q0 -0.96875 -1.546875 -1.65625q-1.203125 -0.546875 -1.625 -0.828125q-0.40625 -0.28125 -0.71875 -0.640625q-0.296875 -0.359375 -0.453125 -0.765625q-0.140625 -0.40625 -0.140625 -0.875q0 -1.203125 0.875 -1.875q0.875 -0.671875 2.28125 -0.671875q1.0625 0 2.6875 0.671875l-0.484375 1.609375q-1.03125 -0.828125 -2.078125 -0.828125q-0.609375 0 -1.03125 0.296875q-0.421875 0.296875 -0.421875 0.734375q0 0.9375 1.0625 1.421875l1.234375 0.5625q1.140625 0.515625 1.65625 1.1875q0.515625 0.671875 0.515625 1.671875q0 1.3125 -0.921875 2.0625q-0.90625 0.734375 -2.546875 0.734375q-1.53125 0 -2.890625 -0.765625zm14.192444 0.578125l0 -6.125q0 -1.09375 -0.53125 -1.71875q-0.53125 -0.640625 -1.515625 -0.640625q-0.625 0 -1.265625 0.375q-0.625 0.359375 -0.96875 0.859375l0 7.25l-1.71875 0l0 -13.75l1.71875 0l0 5.0625q0.359375 -0.53125 1.125 -0.890625q0.765625 -0.359375 1.59375 -0.359375q1.546875 0 2.421875 1.03125q0.875 1.015625 0.875 2.78125l0 6.125l-1.734375 0zm9.173462 -0.578125l0.609375 -1.640625q1.453125 0.9375 2.328125 0.9375q1.609375 0 1.609375 -1.34375q0 -0.96875 -1.546875 -1.65625q-1.203125 -0.546875 -1.625 -0.828125q-0.40625 -0.28125 -0.71875 -0.640625q-0.296875 -0.359375 -0.453125 -0.765625q-0.140625 -0.40625 -0.140625 -0.875q0 -1.203125 0.875 -1.875q0.875 -0.671875 2.28125 -0.671875q1.0625 0 2.6875 0.671875l-0.484375 1.609375q-1.03125 -0.828125 -2.078125 -0.828125q-0.609375 0 -1.03125 0.296875q-0.421875 0.296875 -0.421875 0.734375q0 0.9375 1.0625 1.421875l1.234375 0.5625q1.140625 0.515625 1.65625 1.1875q0.515625 0.671875 0.515625 1.671875q0 1.3125 -0.921875 2.0625q-0.90625 0.734375 -2.546875 0.734375q-1.53125 0 -2.890625 -0.765625zm16.411133 -4.125l-7.046875 0q0 1.703125 0.953125 2.625q0.828125 0.796875 2.125 0.796875q1.484375 0 2.484375 -0.859375l0.71875 1.25q-0.390625 0.40625 -1.234375 0.6875q-1.03125 0.390625 -2.3125 0.390625q-1.828125 0 -3.125 -1.25q-1.421875 -1.375 -1.421875 -3.703125q0 -2.40625 1.46875 -3.875q1.3125 -1.296875 3.109375 -1.296875q2.078125 0 3.265625 1.171875q1.140625 1.125 1.140625 3.0q0 0.578125 -0.125 1.0625zm-4.203125 -3.78125q-1.15625 0 -1.9375 0.75q-0.75 0.71875 -0.859375 1.765625l5.40625 0q0 -1.046875 -0.65625 -1.75q-0.71875 -0.765625 -1.953125 -0.765625zm11.659668 7.359375q-1.03125 1.3125 -3.171875 1.3125q-1.15625 0 -2.0 -0.828125q-0.828125 -0.84375 -0.828125 -2.078125q0 -1.484375 1.296875 -2.515625q1.296875 -1.03125 3.3125 -1.03125q0.546875 0 1.234375 0.25q0 -2.375 -2.109375 -2.375q-1.625 0 -2.5 0.875l-0.734375 -1.453125q0.5 -0.390625 1.359375 -0.671875q0.875 -0.296875 1.671875 -0.296875q2.125 0 3.078125 0.96875q0.96875 0.96875 0.96875 3.0625l0 3.5q0 1.28125 0.765625 1.71875l0 0.859375q-1.0625 0 -1.59375 -0.296875q-0.515625 -0.296875 -0.75 -1.0zm-0.15625 -3.671875q-0.828125 -0.171875 -1.15625 -0.171875q-1.296875 0 -2.140625 0.671875q-0.828125 0.671875 -0.828125 1.59375q0 1.515625 1.796875 1.515625q1.3125 0 2.328125 -1.25l0 -2.359375zm9.754944 -3.296875q-0.5625 -0.390625 -1.140625 -0.390625q-0.921875 0 -1.609375 0.859375q-0.6875 0.84375 -0.6875 2.03125l0 5.59375l-1.734375 0l0 -9.75l1.734375 0l0 1.546875q0.953125 -1.734375 2.8125 -1.734375q0.46875 0 1.34375 0.15625l-0.71875 1.6875zm9.31366 -0.875l-0.859375 1.21875q-0.265625 -0.25 -0.9375 -0.484375q-0.671875 -0.25 -1.3125 -0.25q-1.40625 0 -2.25 1.0q-0.828125 0.984375 -0.828125 2.703125q0 1.71875 0.84375 2.609375q0.859375 0.890625 2.359375 0.890625q1.171875 0 2.359375 -0.890625l0.671875 1.453125q-1.390625 0.90625 -3.453125 0.90625q-1.984375 0 -3.296875 -1.34375q-1.296875 -1.34375 -1.296875 -3.625q0 -2.328125 1.34375 -3.734375q1.359375 -1.421875 3.703125 -1.421875q0.765625 0 1.640625 0.328125q0.890625 0.3125 1.3125 0.640625zm7.8776855 8.96875l0 -6.125q0 -1.09375 -0.53125 -1.71875q-0.53125 -0.640625 -1.515625 -0.640625q-0.625 0 -1.265625 0.375q-0.625 0.359375 -0.96875 0.859375l0 7.25l-1.71875 0l0 -13.75l1.71875 0l0 5.0625q0.359375 -0.53125 1.125 -0.890625q0.765625 -0.359375 1.59375 -0.359375q1.546875 0 2.421875 1.03125q0.875 1.015625 0.875 2.78125l0 6.125l-1.734375 0z" fill-rule="nonzero"/><path fill="#000000" d="m568.38995 101.75284l0 0.75q-1.796875 2.609375 -1.796875 7.609375q0 5.9375 1.796875 8.015625l0 0.96875q-1.828125 -1.296875 -2.84375 -3.703125q-1.015625 -2.390625 -1.015625 -5.296875q0 -2.46875 1.15625 -5.0q1.15625 -2.53125 2.703125 -3.34375zm7.756592 5.34375q-0.5625 -0.390625 -1.140625 -0.390625q-0.921875 0 -1.609375 0.859375q-0.6875 0.84375 -0.6875 2.03125l0 5.59375l-1.734375 0l0 -9.75l1.734375 0l0 1.546875q0.953125 -1.734375 2.8125 -1.734375q0.46875 0 1.34375 0.15625l-0.71875 1.6875zm1.3136597 3.1875q0 -2.25 1.21875 -3.640625q1.21875 -1.390625 3.203125 -1.390625q2.09375 0 3.25 1.34375q1.15625 1.328125 1.15625 3.6875q0 2.359375 -1.1875 3.734375q-1.1875 1.359375 -3.21875 1.359375q-2.09375 0 -3.265625 -1.375q-1.15625 -1.375 -1.15625 -3.71875zm1.8125 0q0 3.671875 2.609375 3.671875q1.203125 0 1.890625 -0.984375q0.6875 -0.984375 0.6875 -2.6875q0 -3.625 -2.578125 -3.625q-1.1875 0 -1.90625 0.96875q-0.703125 0.96875 -0.703125 2.65625zm8.9644165 2.140625l0 -10.984375l1.734375 0l0 10.703125q0 0.78125 0.453125 1.234375q0.453125 0.453125 1.1875 0.453125l0 1.546875q-3.375 0 -3.375 -2.953125zm5.502136 0l0 -10.984375l1.734375 0l0 10.703125q0 0.78125 0.453125 1.234375q0.453125 0.453125 1.1875 0.453125l0 1.546875q-3.375 0 -3.375 -2.953125zm7.158386 -10.6875q0.453125 0 0.765625 0.328125q0.3125 0.3125 0.3125 0.75q0 0.4375 -0.3125 0.75q-0.3125 0.3125 -0.765625 0.3125q-0.4375 0 -0.75 -0.3125q-0.3125 -0.3125 -0.3125 -0.75q0 -0.453125 0.296875 -0.765625q0.3125 -0.3125 0.765625 -0.3125zm-0.953125 13.453125l0 -8.296875l-1.328125 0l0 -1.453125l3.0625 0l0 9.75l-1.734375 0zm10.491821 0l0 -5.671875q0 -1.5625 -0.46875 -2.1875q-0.46875 -0.625 -1.578125 -0.625q-0.59375 0 -1.234375 0.359375q-0.640625 0.359375 -1.0 0.875l0 7.25l-1.71875 0l0 -9.75l1.171875 0l0.546875 1.25q0.859375 -1.4375 2.796875 -1.4375q3.21875 0 3.21875 3.890625l0 6.046875l-1.734375 0zm3.8341675 2.671875l0.9375 -1.390625q1.515625 1.015625 2.78125 1.015625q1.1875 0 1.859375 -0.40625q0.671875 -0.40625 0.671875 -1.0q0 -1.1875 -1.703125 -1.1875q-0.296875 0 -1.0625 0.140625q-0.765625 0.140625 -1.1875 0.140625q-2.078125 0 -2.078125 -1.5625q0 -0.484375 0.484375 -0.875q0.484375 -0.390625 1.203125 -0.5625q-2.046875 -0.96875 -2.046875 -3.359375q0 -1.515625 1.0625 -2.53125q1.0625 -1.03125 2.625 -1.03125q1.4375 0 2.25 0.59375l0.875 -1.046875l1.125 1.078125l-1.03125 0.78125q0.65625 0.859375 0.65625 2.25q0 1.484375 -0.921875 2.484375q-0.921875 1.0 -2.40625 1.140625l-1.4375 0.15625q-0.25 0.015625 -0.6875 0.1875q-0.421875 0.171875 -0.421875 0.4375q0 0.375 0.890625 0.375q0.390625 0 1.21875 -0.140625q0.828125 -0.140625 1.234375 -0.140625q1.4375 0 2.234375 0.6875q0.8125 0.6875 0.8125 1.90625q0 1.359375 -1.203125 2.1875q-1.203125 0.828125 -3.046875 0.828125q-0.953125 0 -2.0 -0.34375q-1.046875 -0.328125 -1.6875 -0.8125zm3.671875 -11.21875q-0.90625 0 -1.484375 0.640625q-0.5625 0.640625 -0.5625 1.546875q0 1.015625 0.546875 1.6875q0.5625 0.671875 1.5 0.671875q0.921875 0 1.4375 -0.640625q0.515625 -0.65625 0.515625 -1.71875q0 -0.90625 -0.5625 -1.546875q-0.546875 -0.640625 -1.390625 -0.640625zm19.031982 -0.421875l-0.859375 1.21875q-0.265625 -0.25 -0.9375 -0.484375q-0.671875 -0.25 -1.3125 -0.25q-1.40625 0 -2.25 1.0q-0.828125 0.984375 -0.828125 2.703125q0 1.71875 0.84375 2.609375q0.859375 0.890625 2.359375 0.890625q1.171875 0 2.359375 -0.890625l0.671875 1.453125q-1.390625 0.90625 -3.453125 0.90625q-1.984375 0 -3.296875 -1.34375q-1.296875 -1.34375 -1.296875 -3.625q0 -2.328125 1.34375 -3.734375q1.359375 -1.421875 3.703125 -1.421875q0.765625 0 1.640625 0.328125q0.890625 0.3125 1.3125 0.640625zm7.8776855 8.96875l0 -6.125q0 -1.09375 -0.53125 -1.71875q-0.53125 -0.640625 -1.515625 -0.640625q-0.625 0 -1.265625 0.375q-0.625 0.359375 -0.96875 0.859375l0 7.25l-1.71875 0l0 -13.75l1.71875 0l0 5.0625q0.359375 -0.53125 1.125 -0.890625q0.765625 -0.359375 1.59375 -0.359375q1.546875 0 2.421875 1.03125q0.875 1.015625 0.875 2.78125l0 6.125l-1.734375 0zm12.4122925 -4.703125l-7.046875 0q0 1.703125 0.953125 2.625q0.828125 0.796875 2.125 0.796875q1.484375 0 2.484375 -0.859375l0.71875 1.25q-0.390625 0.40625 -1.234375 0.6875q-1.03125 0.390625 -2.3125 0.390625q-1.828125 0 -3.125 -1.25q-1.421875 -1.375 -1.421875 -3.703125q0 -2.40625 1.46875 -3.875q1.3125 -1.296875 3.109375 -1.296875q2.078125 0 3.265625 1.171875q1.140625 1.125 1.140625 3.0q0 0.578125 -0.125 1.0625zm-4.203125 -3.78125q-1.15625 0 -1.9375 0.75q-0.75 0.71875 -0.859375 1.765625l5.40625 0q0 -1.046875 -0.65625 -1.75q-0.71875 -0.765625 -1.953125 -0.765625zm13.519043 -0.484375l-0.859375 1.21875q-0.265625 -0.25 -0.9375 -0.484375q-0.671875 -0.25 -1.3125 -0.25q-1.40625 0 -2.25 1.0q-0.828125 0.984375 -0.828125 2.703125q0 1.71875 0.84375 2.609375q0.859375 0.890625 2.359375 0.890625q1.171875 0 2.359375 -0.890625l0.671875 1.453125q-1.390625 0.90625 -3.453125 0.90625q-1.984375 0 -3.296875 -1.34375q-1.296875 -1.34375 -1.296875 -3.625q0 -2.328125 1.34375 -3.734375q1.359375 -1.421875 3.703125 -1.421875q0.765625 0 1.640625 0.328125q0.890625 0.3125 1.3125 0.640625zm8.1744995 8.96875l-3.0625 -4.875l-1.515625 1.546875l0 3.328125l-1.71875 0l0 -13.75l1.71875 0l0 8.53125l3.75 -4.53125l2.015625 0l-3.125 3.703125l3.8125 6.046875l-1.875 0zm2.4726562 -0.578125l0.609375 -1.640625q1.453125 0.9375 2.328125 0.9375q1.609375 0 1.609375 -1.34375q0 -0.96875 -1.546875 -1.65625q-1.203125 -0.546875 -1.625 -0.828125q-0.40625 -0.28125 -0.71875 -0.640625q-0.296875 -0.359375 -0.453125 -0.765625q-0.140625 -0.40625 -0.140625 -0.875q0 -1.203125 0.875 -1.875q0.875 -0.671875 2.28125 -0.671875q1.0625 0 2.6875 0.671875l-0.484375 1.609375q-1.03125 -0.828125 -2.078125 -0.828125q-0.609375 0 -1.03125 0.296875q-0.421875 0.296875 -0.421875 0.734375q0 0.9375 1.0625 1.421875l1.234375 0.5625q1.140625 0.515625 1.65625 1.1875q0.515625 0.671875 0.515625 1.671875q0 1.3125 -0.921875 2.0625q-0.90625 0.734375 -2.546875 0.734375q-1.53125 0 -2.890625 -0.765625zm9.833008 -9.171875l0 6.21875q0 2.25 1.953125 2.25q0.859375 0 1.5625 -0.484375q0.71875 -0.5 0.9375 -1.140625l0 -6.84375l1.734375 0l0 9.75l-1.734375 0l0 -1.34375q-0.28125 0.5625 -1.171875 1.046875q-0.875 0.484375 -1.703125 0.484375q-1.609375 0 -2.46875 -0.921875q-0.84375 -0.921875 -0.84375 -2.625l0 -6.390625l1.734375 0zm19.849792 9.75l0 -6.171875q0 -2.3125 -2.0 -2.3125q-0.625 0 -1.171875 0.390625q-0.546875 0.390625 -0.75 0.875l0 7.21875l-1.734375 0l0 -6.9375q0 -0.71875 -0.546875 -1.125q-0.53125 -0.421875 -1.421875 -0.421875q-0.53125 0 -1.125 0.40625q-0.578125 0.40625 -0.828125 0.875l0 7.203125l-1.71875 0l0 -9.75l1.125 0l0.578125 1.125q1.0 -1.3125 2.5 -1.3125q2.09375 0 2.9375 1.296875q0.28125 -0.546875 1.078125 -0.921875q0.796875 -0.375 1.640625 -0.375q1.5 0 2.328125 0.90625q0.828125 0.890625 0.828125 2.515625l0 6.515625l-1.71875 0zm4.72052 3.90625l0 -0.96875q1.796875 -2.078125 1.796875 -8.015625q0 -5.0 -1.796875 -7.609375l0 -0.75q1.546875 0.8125 2.703125 3.34375q1.15625 2.53125 1.15625 5.0q0 2.90625 -1.015625 5.296875q-1.015625 2.40625 -2.84375 3.703125zm7.131592 -0.59375l-0.46875 -0.65625q1.5625 -1.296875 1.5625 -2.1875q0 -0.40625 -0.265625 -0.8125q-0.78125 -0.359375 -0.78125 -1.0625q0 -0.484375 0.359375 -0.796875q0.375 -0.3125 0.9375 -0.3125q0.515625 0 0.90625 0.4375q0.390625 0.421875 0.390625 1.015625q0 1.203125 -0.5 2.171875q-0.5 0.984375 -2.140625 2.203125z" fill-rule="nonzero"/><path fill="#000000" d="m548.3189 136.61221l0.609375 -1.640625q1.453125 0.9375 2.328125 0.9375q1.609375 0 1.609375 -1.34375q0 -0.96875 -1.546875 -1.65625q-1.203125 -0.546875 -1.625 -0.828125q-0.40625 -0.28125 -0.71875 -0.640625q-0.296875 -0.359375 -0.453125 -0.765625q-0.140625 -0.40625 -0.140625 -0.875q0 -1.203125 0.875 -1.8749924q0.875 -0.671875 2.28125 -0.671875q1.0625 0 2.6875 0.671875l-0.484375 1.6093674q-1.03125 -0.828125 -2.078125 -0.828125q-0.609375 0 -1.03125 0.296875q-0.421875 0.296875 -0.421875 0.734375q0 0.9375 1.0625 1.421875l1.234375 0.5625q1.140625 0.515625 1.65625 1.1875q0.515625 0.671875 0.515625 1.671875q0 1.3125 -0.921875 2.0625q-0.90625 0.734375 -2.546875 0.734375q-1.53125 0 -2.890625 -0.765625zm16.411133 -4.125l-7.046875 0q0 1.703125 0.953125 2.625q0.828125 0.796875 2.125 0.796875q1.484375 0 2.484375 -0.859375l0.71875 1.25q-0.390625 0.40625 -1.234375 0.6875q-1.03125 0.390625 -2.3125 0.390625q-1.828125 0 -3.125 -1.25q-1.421875 -1.375 -1.421875 -3.703125q0 -2.40625 1.46875 -3.875q1.3125 -1.2968674 3.109375 -1.2968674q2.078125 0 3.265625 1.1718674q1.140625 1.125 1.140625 3.0q0 0.578125 -0.125 1.0625zm-4.203125 -3.78125q-1.15625 0 -1.9375 0.75q-0.75 0.71875 -0.859375 1.765625l5.40625 0q0 -1.046875 -0.65625 -1.75q-0.71875 -0.765625 -1.953125 -0.765625zm12.159668 8.484375l0 -5.671875q0 -1.5625 -0.46875 -2.1875q-0.46875 -0.625 -1.578125 -0.625q-0.59375 0 -1.234375 0.359375q-0.640625 0.359375 -1.0 0.875l0 7.25l-1.71875 0l0 -9.749992l1.171875 0l0.546875 1.2499924q0.859375 -1.4374924 2.796875 -1.4374924q3.21875 0 3.21875 3.8906174l0 6.046875l-1.734375 0zm10.3810425 -0.015625l0 -0.71875q-0.90625 0.90625 -2.625 0.90625q-1.84375 0 -2.984375 -1.3125q-1.125 -1.3125 -1.125 -3.5q0 -2.1875 1.3125 -3.734375q1.3125 -1.5624924 3.125 -1.5624924q1.5 0 2.296875 0.703125l0 -4.515625l1.71875 0l0 13.734367l-1.71875 0zm0 -7.484375q-0.65625 -0.984375 -1.796875 -0.984375q-1.390625 0 -2.265625 1.046875q-0.859375 1.03125 -0.859375 2.640625q0 3.515625 3.21875 3.515625q0.40625 0 0.96875 -0.25q0.578125 -0.265625 0.734375 -0.5625l0 -5.40625zm14.217651 -5.9374924l0 0.75q-1.796875 2.609375 -1.796875 7.6093674q0 5.9375 1.796875 8.015625l0 0.96875q-1.828125 -1.296875 -2.84375 -3.703125q-1.015625 -2.390625 -1.015625 -5.296875q0 -2.46875 1.15625 -4.9999924q1.15625 -2.53125 2.703125 -3.34375zm4.178467 12.906242l0 4.359375l-1.71875 0l0 -13.578117l1.71875 0l0 0.7968674q0.984375 -0.9843674 2.390625 -0.9843674q2.078125 0 3.234375 1.2968674q1.15625 1.296875 1.15625 3.78125q0 2.234375 -1.171875 3.640625q-1.171875 1.40625 -3.375 1.40625q-0.609375 0 -1.328125 -0.21875q-0.703125 -0.21875 -0.90625 -0.5zm0 -7.125l0 5.6875q0.171875 0.25 0.703125 0.46875q0.53125 0.21875 1.03125 0.21875q3.21875 0 3.21875 -3.640625q0 -1.84375 -0.765625 -2.703125q-0.765625 -0.859375 -2.453125 -0.859375q-0.359375 0 -0.890625 0.265625q-0.53125 0.25 -0.84375 0.5625zm14.175171 6.53125q-1.03125 1.3125 -3.171875 1.3125q-1.15625 0 -2.0 -0.828125q-0.828125 -0.84375 -0.828125 -2.078125q0 -1.484375 1.296875 -2.515625q1.296875 -1.03125 3.3125 -1.03125q0.546875 0 1.234375 0.25q0 -2.375 -2.109375 -2.375q-1.625 0 -2.5 0.875l-0.734375 -1.453125q0.5 -0.39061737 1.359375 -0.6718674q0.875 -0.296875 1.671875 -0.296875q2.125 0 3.078125 0.9687424q0.96875 0.96875 0.96875 3.0625l0 3.5q0 1.28125 0.765625 1.71875l0 0.859375q-1.0625 0 -1.59375 -0.296875q-0.515625 -0.296875 -0.75 -1.0zm-0.15625 -3.671875q-0.828125 -0.171875 -1.15625 -0.171875q-1.296875 0 -2.140625 0.671875q-0.828125 0.671875 -0.828125 1.59375q0 1.515625 1.796875 1.515625q1.3125 0 2.328125 -1.25l0 -2.359375zm9.754944 -3.296875q-0.5625 -0.390625 -1.140625 -0.390625q-0.921875 0 -1.609375 0.859375q-0.6875 0.84375 -0.6875 2.03125l0 5.59375l-1.734375 0l0 -9.749992l1.734375 0l0 1.5468674q0.953125 -1.7343674 2.8125 -1.7343674q0.46875 0 1.34375 0.15625l-0.71875 1.6874924zm2.5636597 -0.296875l-1.125 0l0 -1.3593674l1.125 0l0 -2.046875l1.734375 -0.671875l0 2.71875l2.6875 0l0 1.3593674l-2.6875 0l0 4.84375q0 1.234375 0.40625 1.75q0.421875 0.515625 1.34375 0.515625q0.671875 0 1.375 -0.328125l0.25 1.515625q-1.0625 0.28125 -2.359375 0.28125q-1.15625 0 -1.953125 -0.859375q-0.796875 -0.875 -0.796875 -2.171875l0 -5.546875zm8.568787 -5.0624924q0.453125 0 0.765625 0.328125q0.3125 0.3125 0.3125 0.75q0 0.4375 -0.3125 0.75q-0.3125 0.3125 -0.765625 0.3125q-0.4375 0 -0.75 -0.3125q-0.3125 -0.3125 -0.3125 -0.75q0 -0.453125 0.296875 -0.765625q0.3125 -0.3125 0.765625 -0.3125zm-0.953125 13.453117l0 -8.296875l-1.328125 0l0 -1.4531174l3.0625 0l0 9.749992l-1.734375 0zm9.991821 -1.125q-1.03125 1.3125 -3.171875 1.3125q-1.15625 0 -2.0 -0.828125q-0.828125 -0.84375 -0.828125 -2.078125q0 -1.484375 1.296875 -2.515625q1.296875 -1.03125 3.3125 -1.03125q0.546875 0 1.234375 0.25q0 -2.375 -2.109375 -2.375q-1.625 0 -2.5 0.875l-0.734375 -1.453125q0.5 -0.39061737 1.359375 -0.6718674q0.875 -0.296875 1.671875 -0.296875q2.125 0 3.078125 0.9687424q0.96875 0.96875 0.96875 3.0625l0 3.5q0 1.28125 0.765625 1.71875l0 0.859375q-1.0625 0 -1.59375 -0.296875q-0.515625 -0.296875 -0.75 -1.0zm-0.15625 -3.671875q-0.828125 -0.171875 -1.15625 -0.171875q-1.296875 0 -2.140625 0.671875q-0.828125 0.671875 -0.828125 1.59375q0 1.515625 1.796875 1.515625q1.3125 0 2.328125 -1.25l0 -2.359375zm4.583069 2.03125l0 -10.984367l1.734375 0l0 10.703117q0 0.78125 0.453125 1.234375q0.453125 0.453125 1.1875 0.453125l0 1.546875q-3.375 0 -3.375 -2.953125zm5.908386 6.671875l0 -0.96875q1.796875 -2.078125 1.796875 -8.015625q0 -4.9999924 -1.796875 -7.6093674l0 -0.75q1.546875 0.8125 2.703125 3.34375q1.15625 2.5312424 1.15625 4.9999924q0 2.90625 -1.015625 5.296875q-1.015625 2.40625 -2.84375 3.703125zm19.299011 -12.875l-0.859375 1.21875q-0.265625 -0.25 -0.9375 -0.484375q-0.671875 -0.25 -1.3125 -0.25q-1.40625 0 -2.25 1.0q-0.828125 0.984375 -0.828125 2.703125q0 1.71875 0.84375 2.609375q0.859375 0.890625 2.359375 0.890625q1.171875 0 2.359375 -0.890625l0.671875 1.453125q-1.390625 0.90625 -3.453125 0.90625q-1.984375 0 -3.296875 -1.34375q-1.296875 -1.34375 -1.296875 -3.625q0 -2.328125 1.34375 -3.734375q1.359375 -1.4218674 3.703125 -1.4218674q0.765625 0 1.640625 0.328125q0.890625 0.3125 1.3125 0.6406174zm1.2370605 4.0625q0 -2.25 1.21875 -3.640625q1.21875 -1.3906174 3.203125 -1.3906174q2.09375 0 3.25 1.3437424q1.15625 1.328125 1.15625 3.6875q0 2.359375 -1.1875 3.734375q-1.1875 1.359375 -3.21875 1.359375q-2.09375 0 -3.265625 -1.375q-1.15625 -1.375 -1.15625 -3.71875zm1.8125 0q0 3.671875 2.609375 3.671875q1.203125 0 1.890625 -0.984375q0.6875 -0.984375 0.6875 -2.6875q0 -3.625 -2.578125 -3.625q-1.1875 0 -1.90625 0.96875q-0.703125 0.96875 -0.703125 2.65625zm14.8394165 4.90625l0 -5.671875q0 -1.5625 -0.46875 -2.1875q-0.46875 -0.625 -1.578125 -0.625q-0.59375 0 -1.234375 0.359375q-0.640625 0.359375 -1.0 0.875l0 7.25l-1.71875 0l0 -9.749992l1.171875 0l0.546875 1.2499924q0.859375 -1.4374924 2.796875 -1.4374924q3.21875 0 3.21875 3.8906174l0 6.046875l-1.734375 0zm4.8029175 -8.390625l-1.125 0l0 -1.3593674l1.125 0l0 -2.046875l1.734375 -0.671875l0 2.71875l2.6875 0l0 1.3593674l-2.6875 0l0 4.84375q0 1.234375 0.40625 1.75q0.421875 0.515625 1.34375 0.515625q0.671875 0 1.375 -0.328125l0.25 1.515625q-1.0625 0.28125 -2.359375 0.28125q-1.15625 0 -1.953125 -0.859375q-0.796875 -0.875 -0.796875 -2.171875l0 -5.546875zm15.006287 3.6875l-7.046875 0q0 1.703125 0.953125 2.625q0.828125 0.796875 2.125 0.796875q1.484375 0 2.484375 -0.859375l0.71875 1.25q-0.390625 0.40625 -1.234375 0.6875q-1.03125 0.390625 -2.3125 0.390625q-1.828125 0 -3.125 -1.25q-1.421875 -1.375 -1.421875 -3.703125q0 -2.40625 1.46875 -3.875q1.3125 -1.2968674 3.109375 -1.2968674q2.078125 0 3.265625 1.1718674q1.140625 1.125 1.140625 3.0q0 0.578125 -0.125 1.0625zm-4.203125 -3.78125q-1.15625 0 -1.9375 0.75q-0.75 0.71875 -0.859375 1.765625l5.40625 0q0 -1.046875 -0.65625 -1.75q-0.71875 -0.765625 -1.953125 -0.765625zm12.159668 8.484375l0 -5.671875q0 -1.5625 -0.46875 -2.1875q-0.46875 -0.625 -1.578125 -0.625q-0.59375 0 -1.234375 0.359375q-0.640625 0.359375 -1.0 0.875l0 7.25l-1.71875 0l0 -9.749992l1.171875 0l0.546875 1.2499924q0.859375 -1.4374924 2.796875 -1.4374924q3.21875 0 3.21875 3.8906174l0 6.046875l-1.734375 0zm4.8029175 -8.390625l-1.125 0l0 -1.3593674l1.125 0l0 -2.046875l1.734375 -0.671875l0 2.71875l2.6875 0l0 1.3593674l-2.6875 0l0 4.84375q0 1.234375 0.40625 1.75q0.421875 0.515625 1.34375 0.515625q0.671875 0 1.375 -0.328125l0.25 1.515625q-1.0625 0.28125 -2.359375 0.28125q-1.15625 0 -1.953125 -0.859375q-0.796875 -0.875 -0.796875 -2.171875l0 -5.546875zm6.1469116 7.8125l0.609375 -1.640625q1.453125 0.9375 2.328125 0.9375q1.609375 0 1.609375 -1.34375q0 -0.96875 -1.546875 -1.65625q-1.203125 -0.546875 -1.625 -0.828125q-0.40625 -0.28125 -0.71875 -0.640625q-0.296875 -0.359375 -0.453125 -0.765625q-0.140625 -0.40625 -0.140625 -0.875q0 -1.203125 0.875 -1.8749924q0.875 -0.671875 2.28125 -0.671875q1.0625 0 2.6875 0.671875l-0.484375 1.6093674q-1.03125 -0.828125 -2.078125 -0.828125q-0.609375 0 -1.03125 0.296875q-0.421875 0.296875 -0.421875 0.734375q0 0.9375 1.0625 1.421875l1.234375 0.5625q1.140625 0.515625 1.65625 1.1875q0.515625 0.671875 0.515625 1.671875q0 1.3125 -0.921875 2.0625q-0.90625 0.734375 -2.546875 0.734375q-1.53125 0 -2.890625 -0.765625z" fill-rule="nonzero"/><path fill="#000000" fill-opacity="0.0" d="m655.9055 152.44357l33.606323 58.64566" fill-rule="evenodd"/><path stroke="#000000" stroke-width="1.0" stroke-linejoin="round" stroke-linecap="butt" d="m655.9055 152.44357l30.623169 53.439835" fill-rule="evenodd"/><path fill="#000000" stroke="#000000" stroke-width="1.0" stroke-linecap="butt" d="m685.0955 206.70462l3.6894531 3.116211l-0.82318115 -4.758667z" fill-rule="evenodd"/><path fill="#000000" fill-opacity="0.0" d="m689.51184 152.44357l33.606262 58.64566" fill-rule="evenodd"/><path stroke="#000000" stroke-width="1.0" stroke-linejoin="round" stroke-linecap="butt" d="m689.51184 152.44357l30.623108 53.439835" fill-rule="evenodd"/><path fill="#000000" stroke="#000000" stroke-width="1.0" stroke-linecap="butt" d="m718.70184 206.70462l3.689392 3.116211l-0.82318115 -4.758667z" fill-rule="evenodd"/><path fill="#000000" fill-opacity="0.0" d="m723.1181 152.44357l33.606323 58.64566" fill-rule="evenodd"/><path stroke="#000000" stroke-width="1.0" stroke-linejoin="round" stroke-linecap="butt" d="m723.1181 152.44357l30.623108 53.439835" fill-rule="evenodd"/><path fill="#000000" stroke="#000000" stroke-width="1.0" stroke-linecap="butt" d="m752.30817 206.70462l3.689392 3.116211l-0.82318115 -4.758667z" fill-rule="evenodd"/><path fill="#cfe2f3" d="m659.9685 211.08923l227.1181 0l0 88.346466l-227.1181 0z" fill-rule="evenodd"/><path stroke="#000000" stroke-width="1.0" stroke-linejoin="round" stroke-linecap="butt" d="m659.9685 211.08923l227.1181 0l0 88.346466l-227.1181 0z" fill-rule="evenodd"/><path fill="#000000" d="m680.2415 254.08871q-0.5625 -0.390625 -1.140625 -0.390625q-0.921875 0 -1.609375 0.859375q-0.6875 0.84375 -0.6875 2.03125l0 5.59375l-1.734375 0l0 -9.75l1.734375 0l0 1.546875q0.953125 -1.734375 2.8125 -1.734375q0.46875 0 1.34375 0.15625l-0.71875 1.6875zm10.173035 3.390625l-7.046875 0q0 1.703125 0.953125 2.625q0.828125 0.796875 2.125 0.796875q1.484375 0 2.484375 -0.859375l0.71875 1.25q-0.390625 0.40625 -1.234375 0.6875q-1.03125 0.390625 -2.3125 0.390625q-1.828125 0 -3.125 -1.25q-1.421875 -1.375 -1.421875 -3.703125q0 -2.40625 1.46875 -3.875q1.3125 -1.296875 3.109375 -1.296875q2.078125 0 3.265625 1.171875q1.140625 1.125 1.140625 3.0q0 0.578125 -0.125 1.0625zm-4.203125 -3.78125q-1.15625 0 -1.9375 0.75q-0.75 0.71875 -0.859375 1.765625l5.40625 0q0 -1.046875 -0.65625 -1.75q-0.71875 -0.765625 -1.953125 -0.765625zm13.519043 -0.484375l-0.859375 1.21875q-0.265625 -0.25 -0.9375 -0.484375q-0.671875 -0.25 -1.3125 -0.25q-1.40625 0 -2.25 1.0q-0.828125 0.984375 -0.828125 2.703125q0 1.71875 0.84375 2.609375q0.859375 0.890625 2.359375 0.890625q1.171875 0 2.359375 -0.890625l0.671875 1.453125q-1.390625 0.90625 -3.453125 0.90625q-1.984375 0 -3.296875 -1.34375q-1.296875 -1.34375 -1.296875 -3.625q0 -2.328125 1.34375 -3.734375q1.359375 -1.421875 3.703125 -1.421875q0.765625 0 1.640625 0.328125q0.890625 0.3125 1.3125 0.640625zm1.2369995 4.0625q0 -2.25 1.21875 -3.640625q1.21875 -1.390625 3.203125 -1.390625q2.09375 0 3.25 1.34375q1.15625 1.328125 1.15625 3.6875q0 2.359375 -1.1875 3.734375q-1.1875 1.359375 -3.21875 1.359375q-2.09375 0 -3.265625 -1.375q-1.15625 -1.375 -1.15625 -3.71875zm1.8125 0q0 3.671875 2.609375 3.671875q1.203125 0 1.890625 -0.984375q0.6875 -0.984375 0.6875 -2.6875q0 -3.625 -2.578125 -3.625q-1.1875 0 -1.90625 0.96875q-0.703125 0.96875 -0.703125 2.65625zm14.839478 4.90625l0 -5.671875q0 -1.5625 -0.46875 -2.1875q-0.46875 -0.625 -1.578125 -0.625q-0.59375 0 -1.234375 0.359375q-0.640625 0.359375 -1.0 0.875l0 7.25l-1.71875 0l0 -9.75l1.171875 0l0.546875 1.25q0.859375 -1.4375 2.796875 -1.4375q3.21875 0 3.21875 3.890625l0 6.046875l-1.734375 0zm3.5529175 -0.578125l0.609375 -1.640625q1.453125 0.9375 2.328125 0.9375q1.609375 0 1.609375 -1.34375q0 -0.96875 -1.546875 -1.65625q-1.203125 -0.546875 -1.625 -0.828125q-0.40625 -0.28125 -0.71875 -0.640625q-0.296875 -0.359375 -0.453125 -0.765625q-0.140625 -0.40625 -0.140625 -0.875q0 -1.203125 0.875 -1.875q0.875 -0.671875 2.28125 -0.671875q1.0625 0 2.6875 0.671875l-0.484375 1.609375q-1.03125 -0.828125 -2.078125 -0.828125q-0.609375 0 -1.03125 0.296875q-0.421875 0.296875 -0.421875 0.734375q0 0.9375 1.0625 1.421875l1.234375 0.5625q1.140625 0.515625 1.65625 1.1875q0.515625 0.671875 0.515625 1.671875q0 1.3125 -0.921875 2.0625q-0.90625 0.734375 -2.546875 0.734375q-1.53125 0 -2.890625 -0.765625zm8.801758 -7.8125l-1.125 0l0 -1.359375l1.125 0l0 -2.046875l1.734375 -0.671875l0 2.71875l2.6875 0l0 1.359375l-2.6875 0l0 4.84375q0 1.234375 0.40625 1.75q0.421875 0.515625 1.34375 0.515625q0.671875 0 1.375 -0.328125l0.25 1.515625q-1.0625 0.28125 -2.359375 0.28125q-1.15625 0 -1.953125 -0.859375q-0.796875 -0.875 -0.796875 -2.171875l0 -5.546875zm12.084412 0.296875q-0.5625 -0.390625 -1.140625 -0.390625q-0.921875 0 -1.609375 0.859375q-0.6875 0.84375 -0.6875 2.03125l0 5.59375l-1.734375 0l0 -9.75l1.734375 0l0 1.546875q0.953125 -1.734375 2.8125 -1.734375q0.46875 0 1.34375 0.15625l-0.71875 1.6875zm3.5949097 -1.65625l0 6.21875q0 2.25 1.953125 2.25q0.859375 0 1.5625 -0.484375q0.71875 -0.5 0.9375 -1.140625l0 -6.84375l1.734375 0l0 9.75l-1.734375 0l0 -1.34375q-0.28125 0.5625 -1.171875 1.046875q-0.875 0.484375 -1.703125 0.484375q-1.609375 0 -2.46875 -0.921875q-0.84375 -0.921875 -0.84375 -2.625l0 -6.390625l1.734375 0zm15.9122925 0.78125l-0.859375 1.21875q-0.265625 -0.25 -0.9375 -0.484375q-0.671875 -0.25 -1.3125 -0.25q-1.40625 0 -2.25 1.0q-0.828125 0.984375 -0.828125 2.703125q0 1.71875 0.84375 2.609375q0.859375 0.890625 2.359375 0.890625q1.171875 0 2.359375 -0.890625l0.671875 1.453125q-1.390625 0.90625 -3.453125 0.90625q-1.984375 0 -3.296875 -1.34375q-1.296875 -1.34375 -1.296875 -3.625q0 -2.328125 1.34375 -3.734375q1.359375 -1.421875 3.703125 -1.421875q0.765625 0 1.640625 0.328125q0.890625 0.3125 1.3125 0.640625zm2.4869995 0.578125l-1.125 0l0 -1.359375l1.125 0l0 -2.046875l1.734375 -0.671875l0 2.71875l2.6875 0l0 1.359375l-2.6875 0l0 4.84375q0 1.234375 0.40625 1.75q0.421875 0.515625 1.34375 0.515625q0.671875 0 1.375 -0.328125l0.25 1.515625q-1.0625 0.28125 -2.359375 0.28125q-1.15625 0 -1.953125 -0.859375q-0.796875 -0.875 -0.796875 -2.171875l0 -5.546875zm17.673767 -3.8125q-0.53125 -0.1875 -0.984375 -0.1875q-0.78125 0 -1.296875 0.609375q-0.515625 0.59375 -0.515625 1.515625q0 0.25 0.046875 0.515625l1.984375 0l0 1.453125l-1.984375 0l0 8.296875l-1.734375 0l0 -8.296875l-1.421875 0l0 -1.453125l1.421875 0q0 -1.875 0.921875 -2.9375q0.921875 -1.0625 2.421875 -1.0625q0.765625 0 1.625 0.265625l-0.484375 1.28125zm3.411499 -1.25q0.453125 0 0.765625 0.328125q0.3125 0.3125 0.3125 0.75q0 0.4375 -0.3125 0.75q-0.3125 0.3125 -0.765625 0.3125q-0.4375 0 -0.75 -0.3125q-0.3125 -0.3125 -0.3125 -0.75q0 -0.453125 0.296875 -0.765625q0.3125 -0.3125 0.765625 -0.3125zm-0.953125 13.453125l0 -8.296875l-1.328125 0l0 -1.453125l3.0625 0l0 9.75l-1.734375 0zm4.6168213 -2.765625l0 -10.984375l1.734375 0l0 10.703125q0 0.78125 0.453125 1.234375q0.453125 0.453125 1.1875 0.453125l0 1.546875q-3.375 0 -3.375 -2.953125zm13.595886 -1.9375l-7.046875 0q0 1.703125 0.953125 2.625q0.828125 0.796875 2.125 0.796875q1.484375 0 2.484375 -0.859375l0.71875 1.25q-0.390625 0.40625 -1.234375 0.6875q-1.03125 0.390625 -2.3125 0.390625q-1.828125 0 -3.125 -1.25q-1.421875 -1.375 -1.421875 -3.703125q0 -2.40625 1.46875 -3.875q1.3125 -1.296875 3.109375 -1.296875q2.078125 0 3.265625 1.171875q1.140625 1.125 1.140625 3.0q0 0.578125 -0.125 1.0625zm-4.203125 -3.78125q-1.15625 0 -1.9375 0.75q-0.75 0.71875 -0.859375 1.765625l5.40625 0q0 -1.046875 -0.65625 -1.75q-0.71875 -0.765625 -1.953125 -0.765625zm19.139587 -0.484375l-0.859375 1.21875q-0.265625 -0.25 -0.9375 -0.484375q-0.671875 -0.25 -1.3125 -0.25q-1.40625 0 -2.25 1.0q-0.828125 0.984375 -0.828125 2.703125q0 1.71875 0.84375 2.609375q0.859375 0.890625 2.359375 0.890625q1.171875 0 2.359375 -0.890625l0.671875 1.453125q-1.390625 0.90625 -3.453125 0.90625q-1.984375 0 -3.296875 -1.34375q-1.296875 -1.34375 -1.296875 -3.625q0 -2.328125 1.34375 -3.734375q1.359375 -1.421875 3.703125 -1.421875q0.765625 0 1.640625 0.328125q0.890625 0.3125 1.3125 0.640625zm1.2370605 4.0625q0 -2.25 1.21875 -3.640625q1.21875 -1.390625 3.203125 -1.390625q2.09375 0 3.25 1.34375q1.15625 1.328125 1.15625 3.6875q0 2.359375 -1.1875 3.734375q-1.1875 1.359375 -3.21875 1.359375q-2.09375 0 -3.265625 -1.375q-1.15625 -1.375 -1.15625 -3.71875zm1.8125 0q0 3.671875 2.609375 3.671875q1.203125 0 1.890625 -0.984375q0.6875 -0.984375 0.6875 -2.6875q0 -3.625 -2.578125 -3.625q-1.1875 0 -1.90625 0.96875q-0.703125 0.96875 -0.703125 2.65625zm14.8394165 4.90625l0 -5.671875q0 -1.5625 -0.46875 -2.1875q-0.46875 -0.625 -1.578125 -0.625q-0.59375 0 -1.234375 0.359375q-0.640625 0.359375 -1.0 0.875l0 7.25l-1.71875 0l0 -9.75l1.171875 0l0.546875 1.25q0.859375 -1.4375 2.796875 -1.4375q3.21875 0 3.21875 3.890625l0 6.046875l-1.734375 0zm4.8029175 -8.390625l-1.125 0l0 -1.359375l1.125 0l0 -2.046875l1.734375 -0.671875l0 2.71875l2.6875 0l0 1.359375l-2.6875 0l0 4.84375q0 1.234375 0.40625 1.75q0.421875 0.515625 1.34375 0.515625q0.671875 0 1.375 -0.328125l0.25 1.515625q-1.0625 0.28125 -2.359375 0.28125q-1.15625 0 -1.953125 -0.859375q-0.796875 -0.875 -0.796875 -2.171875l0 -5.546875zm15.006287 3.6875l-7.046875 0q0 1.703125 0.953125 2.625q0.828125 0.796875 2.125 0.796875q1.484375 0 2.484375 -0.859375l0.71875 1.25q-0.390625 0.40625 -1.234375 0.6875q-1.03125 0.390625 -2.3125 0.390625q-1.828125 0 -3.125 -1.25q-1.421875 -1.375 -1.421875 -3.703125q0 -2.40625 1.46875 -3.875q1.3125 -1.296875 3.109375 -1.296875q2.078125 0 3.265625 1.171875q1.140625 1.125 1.140625 3.0q0 0.578125 -0.125 1.0625zm-4.203125 -3.78125q-1.15625 0 -1.9375 0.75q-0.75 0.71875 -0.859375 1.765625l5.40625 0q0 -1.046875 -0.65625 -1.75q-0.71875 -0.765625 -1.953125 -0.765625zm12.159668 8.484375l0 -5.671875q0 -1.5625 -0.46875 -2.1875q-0.46875 -0.625 -1.578125 -0.625q-0.59375 0 -1.234375 0.359375q-0.640625 0.359375 -1.0 0.875l0 7.25l-1.71875 0l0 -9.75l1.171875 0l0.546875 1.25q0.859375 -1.4375 2.796875 -1.4375q3.21875 0 3.21875 3.890625l0 6.046875l-1.734375 0zm4.8029175 -8.390625l-1.125 0l0 -1.359375l1.125 0l0 -2.046875l1.734375 -0.671875l0 2.71875l2.6875 0l0 1.359375l-2.6875 0l0 4.84375q0 1.234375 0.40625 1.75q0.421875 0.515625 1.34375 0.515625q0.671875 0 1.375 -0.328125l0.25 1.515625q-1.0625 0.28125 -2.359375 0.28125q-1.15625 0 -1.953125 -0.859375q-0.796875 -0.875 -0.796875 -2.171875l0 -5.546875z" fill-rule="nonzero"/><path fill="#cfe2f3" d="m26.183727 211.08923l176.6614 0l0 88.346466l-176.6614 0z" fill-rule="evenodd"/><path stroke="#000000" stroke-width="1.0" stroke-linejoin="round" stroke-linecap="butt" d="m26.183727 211.08923l176.6614 0l0 88.346466l-176.6614 0z" fill-rule="evenodd"/><path fill="#000000" d="m57.857662 254.08871q-0.5625 -0.390625 -1.140625 -0.390625q-0.921875 0 -1.609375 0.859375q-0.6875 0.84375 -0.6875 2.03125l0 5.59375l-1.734375 0l0 -9.75l1.734375 0l0 1.546875q0.953125 -1.734375 2.8125 -1.734375q0.46875 0 1.34375 0.15625l-0.71875 1.6875zm10.173031 3.390625l-7.046871 0q0 1.703125 0.953125 2.625q0.828125 0.796875 2.1249962 0.796875q1.484375 0 2.484375 -0.859375l0.71875 1.25q-0.390625 0.40625 -1.234375 0.6875q-1.03125 0.390625 -2.3124962 0.390625q-1.828125 0 -3.125 -1.25q-1.421875 -1.375 -1.421875 -3.703125q0 -2.40625 1.46875 -3.875q1.3125 -1.296875 3.109375 -1.296875q2.0781212 0 3.2656212 1.171875q1.140625 1.125 1.140625 3.0q0 0.578125 -0.125 1.0625zm-4.203121 -3.78125q-1.15625 0 -1.9375 0.75q-0.75 0.71875 -0.859375 1.765625l5.406246 0q0 -1.046875 -0.65625 -1.75q-0.71875 -0.765625 -1.9531212 -0.765625zm13.519054 -0.484375l-0.859375 1.21875q-0.265625 -0.25 -0.9375 -0.484375q-0.671875 -0.25 -1.3125 -0.25q-1.40625 0 -2.25 1.0q-0.828125 0.984375 -0.828125 2.703125q0 1.71875 0.84375 2.609375q0.859375 0.890625 2.359375 0.890625q1.171875 0 2.359375 -0.890625l0.671875 1.453125q-1.390625 0.90625 -3.453125 0.90625q-1.984375 0 -3.296875 -1.34375q-1.296875 -1.34375 -1.296875 -3.625q0 -2.328125 1.34375 -3.734375q1.359375 -1.421875 3.703125 -1.421875q0.765625 0 1.640625 0.328125q0.890625 0.3125 1.3125 0.640625zm10.096405 4.265625l-7.046875 0q0 1.703125 0.953125 2.625q0.828125 0.796875 2.125 0.796875q1.484375 0 2.484375 -0.859375l0.71875 1.25q-0.390625 0.40625 -1.234375 0.6875q-1.03125 0.390625 -2.3125 0.390625q-1.828125 0 -3.125 -1.25q-1.421875 -1.375 -1.421875 -3.703125q0 -2.40625 1.46875 -3.875q1.3125 -1.296875 3.109375 -1.296875q2.078125 0 3.265625 1.171875q1.140625 1.125 1.140625 3.0q0 0.578125 -0.125 1.0625zm-4.203125 -3.78125q-1.15625 0 -1.9375 0.75q-0.75 0.71875 -0.859375 1.765625l5.40625 0q0 -1.046875 -0.65625 -1.75q-0.71875 -0.765625 -1.953125 -0.765625zm7.940933 -4.96875q0.453125 0 0.765625 0.328125q0.3125 0.3125 0.3125 0.75q0 0.4375 -0.3125 0.75q-0.3125 0.3125 -0.765625 0.3125q-0.4375 0 -0.75 -0.3125q-0.3125 -0.3125 -0.3125 -0.75q0 -0.453125 0.296875 -0.765625q0.3125 -0.3125 0.765625 -0.3125zm-0.953125 13.453125l0 -8.296875l-1.328125 0l0 -1.453125l3.0625 0l0 9.75l-1.734375 0zm8.007446 0.1875l-0.453125 0l-4.1875 -9.96875l1.890625 0l2.578125 6.828125l2.640625 -6.828125l1.8125 0l-4.28125 9.96875zm13.839951 -4.890625l-7.046875 0q0 1.703125 0.953125 2.625q0.828125 0.796875 2.125 0.796875q1.484375 0 2.484375 -0.859375l0.71875 1.25q-0.390625 0.40625 -1.234375 0.6875q-1.03125 0.390625 -2.3125 0.390625q-1.828125 0 -3.125 -1.25q-1.421875 -1.375 -1.421875 -3.703125q0 -2.40625 1.46875 -3.875q1.3125 -1.296875 3.109375 -1.296875q2.078125 0 3.265625 1.171875q1.140625 1.125 1.140625 3.0q0 0.578125 -0.125 1.0625zm-4.203125 -3.78125q-1.15625 0 -1.9375 0.75q-0.75 0.71875 -0.859375 1.765625l5.40625 0q0 -1.046875 -0.65625 -1.75q-0.71875 -0.765625 -1.953125 -0.765625zm17.045868 -3.71875q-0.53125 -0.1875 -0.984375 -0.1875q-0.78125 0 -1.296875 0.609375q-0.515625 0.59375 -0.515625 1.515625q0 0.25 0.046875 0.515625l1.984375 0l0 1.453125l-1.984375 0l0 8.296875l-1.734375 0l0 -8.296875l-1.421875 0l0 -1.453125l1.421875 0q0 -1.875 0.921875 -2.9375q0.921875 -1.0625 2.421875 -1.0625q0.765625 0 1.625 0.265625l-0.484375 1.28125zm3.411522 -1.25q0.453125 0 0.765625 0.328125q0.3125 0.3125 0.3125 0.75q0 0.4375 -0.3125 0.75q-0.3125 0.3125 -0.765625 0.3125q-0.43750763 0 -0.7500076 -0.3125q-0.3125 -0.3125 -0.3125 -0.75q0 -0.453125 0.296875 -0.765625q0.3125 -0.3125 0.7656326 -0.3125zm-0.9531326 13.453125l0 -8.296875l-1.328125 0l0 -1.453125l3.0625076 0l0 9.75l-1.7343826 0zm4.616829 -2.765625l0 -10.984375l1.734375 0l0 10.703125q0 0.78125 0.453125 1.234375q0.453125 0.453125 1.1875 0.453125l0 1.546875q-3.375 0 -3.375 -2.953125zm13.595886 -1.9375l-7.046875 0q0 1.703125 0.953125 2.625q0.828125 0.796875 2.125 0.796875q1.484375 0 2.484375 -0.859375l0.71875 1.25q-0.390625 0.40625 -1.234375 0.6875q-1.03125 0.390625 -2.3125 0.390625q-1.828125 0 -3.125 -1.25q-1.421875 -1.375 -1.421875 -3.703125q0 -2.40625 1.46875 -3.875q1.3125 -1.296875 3.109375 -1.296875q2.078125 0 3.265625 1.171875q1.140625 1.125 1.140625 3.0q0 0.578125 -0.125 1.0625zm-4.203125 -3.78125q-1.15625 0 -1.9375 0.75q-0.75 0.71875 -0.859375 1.765625l5.40625 0q0 -1.046875 -0.65625 -1.75q-0.71875 -0.765625 -1.953125 -0.765625zm11.905243 5.71875l0 -10.984375l1.734375 0l0 10.703125q0 0.78125 0.453125 1.234375q0.453125 0.453125 1.1875 0.453125l0 1.546875q-3.375 0 -3.375 -2.953125zm7.158386 -10.6875q0.453125 0 0.765625 0.328125q0.3125 0.3125 0.3125 0.75q0 0.4375 -0.3125 0.75q-0.3125 0.3125 -0.765625 0.3125q-0.4375 0 -0.75 -0.3125q-0.3125 -0.3125 -0.3125 -0.75q0 -0.453125 0.296875 -0.765625q0.3125 -0.3125 0.765625 -0.3125zm-0.953125 13.453125l0 -8.296875l-1.328125 0l0 -1.453125l3.0625 0l0 9.75l-1.734375 0zm3.8511963 -0.578125l0.609375 -1.640625q1.453125 0.9375 2.328125 0.9375q1.609375 0 1.609375 -1.34375q0 -0.96875 -1.546875 -1.65625q-1.203125 -0.546875 -1.625 -0.828125q-0.40625 -0.28125 -0.71875 -0.640625q-0.296875 -0.359375 -0.453125 -0.765625q-0.140625 -0.40625 -0.140625 -0.875q0 -1.203125 0.875 -1.875q0.875 -0.671875 2.28125 -0.671875q1.0625 0 2.6875 0.671875l-0.484375 1.609375q-1.03125 -0.828125 -2.078125 -0.828125q-0.609375 0 -1.03125 0.296875q-0.421875 0.296875 -0.421875 0.734375q0 0.9375 1.0625 1.421875l1.234375 0.5625q1.140625 0.515625 1.65625 1.1875q0.515625 0.671875 0.515625 1.671875q0 1.3125 -0.921875 2.0625q-0.90625 0.734375 -2.546875 0.734375q-1.53125 0 -2.890625 -0.765625zm8.801773 -7.8125l-1.125 0l0 -1.359375l1.125 0l0 -2.046875l1.734375 -0.671875l0 2.71875l2.6875 0l0 1.359375l-2.6875 0l0 4.84375q0 1.234375 0.40625 1.75q0.421875 0.515625 1.34375 0.515625q0.671875 0 1.375 -0.328125l0.25 1.515625q-1.0625 0.28125 -2.359375 0.28125q-1.15625 0 -1.953125 -0.859375q-0.796875 -0.875 -0.796875 -2.171875l0 -5.546875z" fill-rule="nonzero"/><path fill="#000000" fill-opacity="0.0" d="m0 181.3727l887.81104 0.25196838" fill-rule="evenodd"/><path stroke="#000000" stroke-width="1.0" stroke-linejoin="round" stroke-linecap="butt" stroke-dasharray="4.0,3.0" d="m0 181.3727l887.81104 0.25196838" fill-rule="evenodd"/><path fill="#000000" fill-opacity="0.0" d="m2.3464568 0l176.66142 0l0 42.015747l-176.66142 0z" fill-rule="evenodd"/><path fill="#000000" d="m18.955832 18.873123q-0.546875 -0.4375 -1.28125 -0.4375q-0.921875 0 -1.765625 0.859375q-0.828125 0.84375 -1.03125 2.03125l-1.0 5.59375l-1.734375 0l1.71875 -9.75l1.734375 0l-0.265625 1.546875q1.25 -1.734375 3.125 -1.734375q0.3125 0 0.984375 0.125l-0.484375 1.765625zm0.239151 7.46875l0.90625 -1.640625q0.359375 0.34375 1.015625 0.640625q0.671875 0.296875 1.140625 0.296875q0.8125 0 1.34375 -0.4375q0.53125 -0.4375 0.53125 -1.171875q0 -0.390625 -0.28125 -0.6875q-0.28125 -0.296875 -0.96875 -0.6875l-1.28125 -0.71875q-0.59375 -0.328125 -0.890625 -0.84375q-0.296875 -0.515625 -0.296875 -1.109375q0 -1.359375 1.0625 -2.171875q1.0625 -0.828125 2.59375 -0.828125q1.0625 0 2.578125 0.671875l-0.78125 1.609375q-0.890625 -0.828125 -1.921875 -0.828125q-0.6875 0 -1.1875 0.359375q-0.484375 0.34375 -0.484375 0.921875q0 0.421875 0.28125 0.71875q0.28125 0.296875 0.96875 0.671875l1.28125 0.6875q0.59375 0.328125 0.875 0.828125q0.296875 0.5 0.296875 1.09375q0 1.5625 -1.140625 2.484375q-1.125 0.90625 -2.875 0.90625q-1.546875 0 -2.765625 -0.765625zm7.754898 4.40625l0 -1.734375q1.703125 0 2.40625 -0.515625q0.703125 -0.515625 1.015625 -1.53125q-1.28125 0 -1.703125 -2.53125l-1.21875 -7.265625l1.890625 0l1.078125 7.078125q0.15625 1.046875 0.734375 1.046875l3.515627 -8.125l1.96875 0l-4.890627 10.921875q-0.609375 1.375 -1.640625 2.015625q-1.03125 0.640625 -3.15625 0.640625zm15.544344 -3.828125l1.03125 -5.671875q0.125 -0.765625 0.125 -1.265625q0 -1.546875 -1.609375 -1.546875q-0.609375 0 -1.328125 0.375q-0.703125 0.359375 -1.125 0.859375l-1.265625 7.25l-1.75 0l1.3125 -7.390625q0.046875 -0.265625 0.046875 -0.609375q0 -0.921875 -0.1875 -1.609375l1.671875 -0.328125q0.25 1.328125 0.25 1.453125q1.109375 -1.453125 3.203125 -1.453125q2.640625 0 2.640625 2.703125q0 0.53125 -0.125 1.1875l-1.046875 6.046875l-1.84375 0zm12.021652 -9.453125l-0.3125 1.484375q-0.65625 -0.515625 -1.765625 -0.515625q-1.671875 0 -2.71875 1.328125q-1.03125 1.328125 -1.03125 3.25q0 1.1875 0.671875 1.90625q0.671875 0.703125 1.53125 0.703125q1.328125 0 2.53125 -0.8125l-0.1875 1.765625q-1.203125 0.53125 -2.609375 0.53125q-1.8125 0 -2.78125 -1.03125q-0.96875 -1.046875 -0.96875 -2.75q0 -2.796875 1.53125 -4.5625q1.53125 -1.78125 3.90625 -1.78125q1.40625 0 2.203125 0.484375zm5.826706 8.875l0.90625 -1.640625q0.359375 0.34375 1.015625 0.640625q0.671875 0.296875 1.140625 0.296875q0.8125 0 1.34375 -0.4375q0.53125 -0.4375 0.53125 -1.171875q0 -0.390625 -0.28125 -0.6875q-0.28125 -0.296875 -0.96875 -0.6875l-1.28125 -0.71875q-0.59375 -0.328125 -0.890625 -0.84375q-0.296875 -0.515625 -0.296875 -1.109375q0 -1.359375 1.0625 -2.171875q1.0625 -0.828125 2.59375 -0.828125q1.0625 0 2.578125 0.671875l-0.78125 1.609375q-0.890625 -0.828125 -1.921875 -0.828125q-0.6875 0 -1.1875 0.359375q-0.484375 0.34375 -0.484375 0.921875q0 0.421875 0.28125 0.71875q0.28125 0.296875 0.96875 0.671875l1.28125 0.6875q0.59375 0.328125 0.875 0.828125q0.296875 0.5 0.296875 1.09375q0 1.5625 -1.140625 2.484375q-1.125 0.90625 -2.875 0.90625q-1.546875 0 -2.765625 -0.765625zm10.301773 -4.03125q-0.078125 0.4375 -0.078125 0.84375q0 1.203125 0.671875 1.84375q0.671875 0.640625 1.890625 0.640625q1.078125 0 2.171875 -0.78125l-0.1875 1.765625q-1.453125 0.484375 -2.578125 0.484375q-3.765625 0 -3.765625 -4.234375q0 -2.484375 1.578125 -4.1875q1.59375 -1.703125 3.984375 -1.703125q1.453125 0 2.3125 0.625q0.875 0.609375 0.875 1.765625q0 1.59375 -1.359375 2.515625q-1.34375 0.90625 -3.296875 0.90625q-1.3125 0 -2.21875 -0.484375zm0.3125 -1.25q0.6875 0.296875 1.625 0.296875q1.421875 0 2.3125 -0.453125q0.90625 -0.46875 0.90625 -1.34375q0 -1.125 -1.546875 -1.125q-2.359375 0 -3.296875 2.625zm13.504822 5.859375l1.03125 -5.671875q0.125 -0.765625 0.125 -1.265625q0 -1.546875 -1.609375 -1.546875q-0.609375 0 -1.328125 0.375q-0.703125 0.359375 -1.125 0.859375l-1.265625 7.25l-1.75 0l1.3125 -7.390625q0.046875 -0.265625 0.046875 -0.609375q0 -0.921875 -0.1875 -1.609375l1.671875 -0.328125q0.25 1.328125 0.25 1.453125q1.109375 -1.453125 3.203125 -1.453125q2.640625 0 2.640625 2.703125q0 0.53125 -0.125 1.1875l-1.046875 6.046875l-1.84375 0zm10.365402 0l0.203125 -1.125q-1.046875 1.296875 -2.875 1.296875q-1.59375 0 -2.484375 -0.96875q-0.890625 -0.96875 -0.890625 -2.640625q0 -2.84375 1.53125 -4.65625q1.53125 -1.828125 3.90625 -1.828125q1.390625 0 2.125 1.15625l0.921875 -4.984375l1.65625 0l-2.375 13.75l-1.71875 0zm1.203125 -7.046875q0.015625 -0.078125 -0.25 -0.5q-0.25 -0.4375 -0.625 -0.671875q-0.359375 -0.25 -0.78125 -0.25q-1.609375 0 -2.671875 1.3125q-1.0625 1.3125 -1.0625 3.34375q0 2.578125 2.125 2.578125q0.953125 0 1.78125 -0.9375q0.828125 -0.9375 1.078125 -2.4375l0.40625 -2.4375zm5.222061 2.4375q-0.078125 0.4375 -0.078125 0.84375q0 1.203125 0.671875 1.84375q0.671875 0.640625 1.890625 0.640625q1.078125 0 2.171875 -0.78125l-0.1875 1.765625q-1.453125 0.484375 -2.578125 0.484375q-3.765625 0 -3.765625 -4.234375q0 -2.484375 1.578125 -4.1875q1.59375 -1.703125 3.984375 -1.703125q1.453125 0 2.3125 0.625q0.875 0.609375 0.875 1.765625q0 1.59375 -1.359375 2.515625q-1.34375 0.90625 -3.296875 0.90625q-1.3125 0 -2.21875 -0.484375zm0.3125 -1.25q0.6875 0.296875 1.625 0.296875q1.421875 0 2.3125 -0.453125q0.90625 -0.46875 0.90625 -1.34375q0 -1.125 -1.546875 -1.125q-2.359375 0 -3.296875 2.625zm14.489197 -2.1875q-0.546875 -0.4375 -1.28125 -0.4375q-0.921875 0 -1.765625 0.859375q-0.828125 0.84375 -1.03125 2.03125l-1.0 5.59375l-1.734375 0l1.71875 -9.75l1.734375 0l-0.265625 1.546875q1.25 -1.734375 3.125 -1.734375q0.3125 0 0.984375 0.125l-0.484375 1.765625z" fill-rule="nonzero"/><path fill="#000000" fill-opacity="0.0" d="m2.3464568 328.36484l176.66142 0l0 42.015747l-176.66142 0z" fill-rule="evenodd"/><path fill="#000000" d="m18.955832 347.23795q-0.546875 -0.4375 -1.28125 -0.4375q-0.921875 0 -1.765625 0.859375q-0.828125 0.84375 -1.03125 2.03125l-1.0 5.59375l-1.734375 0l1.71875 -9.75l1.734375 0l-0.265625 1.546875q1.25 -1.734375 3.125 -1.734375q0.3125 0 0.984375 0.125l-0.484375 1.765625zm0.239151 7.46875l0.90625 -1.640625q0.359375 0.34375 1.015625 0.640625q0.671875 0.296875 1.140625 0.296875q0.8125 0 1.34375 -0.4375q0.53125 -0.4375 0.53125 -1.171875q0 -0.390625 -0.28125 -0.6875q-0.28125 -0.296875 -0.96875 -0.6875l-1.28125 -0.71875q-0.59375 -0.328125 -0.890625 -0.84375q-0.296875 -0.515625 -0.296875 -1.109375q0 -1.359375 1.0625 -2.171875q1.0625 -0.828125 2.59375 -0.828125q1.0625 0 2.578125 0.671875l-0.78125 1.609375q-0.890625 -0.828125 -1.921875 -0.828125q-0.6875 0 -1.1875 0.359375q-0.484375 0.34375 -0.484375 0.921875q0 0.421875 0.28125 0.71875q0.28125 0.296875 0.96875 0.671875l1.28125 0.6875q0.59375 0.328125 0.875 0.828125q0.296875 0.5 0.296875 1.09375q0 1.5625 -1.140625 2.484375q-1.125 0.90625 -2.875 0.90625q-1.546875 0 -2.765625 -0.765625zm7.754898 4.40625l0 -1.734375q1.703125 0 2.40625 -0.515625q0.703125 -0.515625 1.015625 -1.53125q-1.28125 0 -1.703125 -2.53125l-1.21875 -7.265625l1.890625 0l1.078125 7.078125q0.15625 1.046875 0.734375 1.046875l3.515627 -8.125l1.96875 0l-4.890627 10.921875q-0.609375 1.375 -1.640625 2.015625q-1.03125 0.640625 -3.15625 0.640625zm15.544344 -3.828125l1.03125 -5.671875q0.125 -0.765625 0.125 -1.265625q0 -1.546875 -1.609375 -1.546875q-0.609375 0 -1.328125 0.375q-0.703125 0.359375 -1.125 0.859375l-1.265625 7.25l-1.75 0l1.3125 -7.390625q0.046875 -0.265625 0.046875 -0.609375q0 -0.921875 -0.1875 -1.609375l1.671875 -0.328125q0.25 1.328125 0.25 1.453125q1.109375 -1.453125 3.203125 -1.453125q2.640625 0 2.640625 2.703125q0 0.53125 -0.125 1.1875l-1.046875 6.046875l-1.84375 0zm12.021652 -9.453125l-0.3125 1.484375q-0.65625 -0.515625 -1.765625 -0.515625q-1.671875 0 -2.71875 1.328125q-1.03125 1.328125 -1.03125 3.25q0 1.1875 0.671875 1.90625q0.671875 0.703125 1.53125 0.703125q1.328125 0 2.53125 -0.8125l-0.1875 1.765625q-1.203125 0.53125 -2.609375 0.53125q-1.8125 0 -2.78125 -1.03125q-0.96875 -1.046875 -0.96875 -2.75q0 -2.796875 1.53125 -4.5625q1.53125 -1.78125 3.90625 -1.78125q1.40625 0 2.203125 0.484375zm13.357956 1.40625q-0.546875 -0.4375 -1.28125 -0.4375q-0.921875 0 -1.765625 0.859375q-0.828125 0.84375 -1.03125 2.03125l-1.0 5.59375l-1.734375 0l1.71875 -9.75l1.734375 0l-0.265625 1.546875q1.25 -1.734375 3.125 -1.734375q0.3125 0 0.984375 0.125l-0.484375 1.765625zm2.989151 3.4375q-0.078125 0.4375 -0.078125 0.84375q0 1.203125 0.671875 1.84375q0.671875 0.640625 1.890625 0.640625q1.078125 0 2.171875 -0.78125l-0.1875 1.765625q-1.453125 0.484375 -2.578125 0.484375q-3.765625 0 -3.765625 -4.234375q0 -2.484375 1.578125 -4.1875q1.59375 -1.703125 3.984375 -1.703125q1.453125 0 2.3125 0.625q0.875 0.609375 0.875 1.765625q0 1.59375 -1.359375 2.515625q-1.34375 0.90625 -3.296875 0.90625q-1.3125 0 -2.21875 -0.484375zm0.3125 -1.25q0.6875 0.296875 1.625 0.296875q1.421875 0 2.3125 -0.453125q0.90625 -0.46875 0.90625 -1.34375q0 -1.125 -1.546875 -1.125q-2.359375 0 -3.296875 2.625zm15.332947 -3.59375l-0.3125 1.484375q-0.65625 -0.515625 -1.765625 -0.515625q-1.671875 0 -2.71875 1.328125q-1.03125 1.328125 -1.03125 3.25q0 1.1875 0.671875 1.90625q0.671875 0.703125 1.53125 0.703125q1.328125 0 2.53125 -0.8125l-0.1875 1.765625q-1.203125 0.53125 -2.609375 0.53125q-1.8125 0 -2.78125 -1.03125q-0.96875 -1.046875 -0.96875 -2.75q0 -2.796875 1.53125 -4.5625q1.53125 -1.78125 3.90625 -1.78125q1.40625 0 2.203125 0.484375zm2.9561462 4.84375q-0.078125 0.4375 -0.078125 0.84375q0 1.203125 0.671875 1.84375q0.671875 0.640625 1.890625 0.640625q1.078125 0 2.171875 -0.78125l-0.1875 1.765625q-1.453125 0.484375 -2.578125 0.484375q-3.765625 0 -3.765625 -4.234375q0 -2.484375 1.578125 -4.1875q1.59375 -1.703125 3.984375 -1.703125q1.453125 0 2.3125 0.625q0.875 0.609375 0.875 1.765625q0 1.59375 -1.359375 2.515625q-1.34375 0.90625 -3.296875 0.90625q-1.3125 0 -2.21875 -0.484375zm0.3125 -1.25q0.6875 0.296875 1.625 0.296875q1.421875 0 2.3125 -0.453125q0.90625 -0.46875 0.90625 -1.34375q0 -1.125 -1.546875 -1.125q-2.359375 0 -3.296875 2.625zm10.926697 -7.71875q0.515625 0 0.859375 0.359375q0.359375 0.34375 0.359375 0.84375q0 0.5 -0.359375 0.859375q-0.34375 0.34375 -0.859375 0.34375q-0.5 0 -0.859375 -0.34375q-0.34375 -0.359375 -0.34375 -0.859375q0 -0.5 0.34375 -0.84375q0.359375 -0.359375 0.859375 -0.359375zm-2.796875 13.578125l1.484375 -8.296875l-1.296875 0l0.328125 -1.4375l2.96875 0l-1.71875 9.734375l-1.765625 0zm8.658264 0.1875l-0.453125 0l-2.828125 -9.96875l1.796875 0l1.75 6.71875l3.703125 -6.71875l2.0 0l-5.96875 9.96875zm7.7774506 -4.796875q-0.078125 0.4375 -0.078125 0.84375q0 1.203125 0.671875 1.84375q0.671875 0.640625 1.890625 0.640625q1.078125 0 2.171875 -0.78125l-0.1875 1.765625q-1.453125 0.484375 -2.578125 0.484375q-3.765625 0 -3.765625 -4.234375q0 -2.484375 1.578125 -4.1875q1.59375 -1.703125 3.984375 -1.703125q1.453125 0 2.3125 0.625q0.875 0.609375 0.875 1.765625q0 1.59375 -1.359375 2.515625q-1.34375 0.90625 -3.296875 0.90625q-1.3125 0 -2.21875 -0.484375zm0.3125 -1.25q0.6875 0.296875 1.625 0.296875q1.421875 0 2.3125 -0.453125q0.90625 -0.46875 0.90625 -1.34375q0 -1.125 -1.546875 -1.125q-2.359375 0 -3.296875 2.625zm14.489189 -2.1875q-0.546875 -0.4375 -1.2812424 -0.4375q-0.921875 0 -1.765625 0.859375q-0.828125 0.84375 -1.03125 2.03125l-1.0 5.59375l-1.734375 0l1.71875 -9.75l1.734375 0l-0.265625 1.546875q1.25 -1.734375 3.1249924 -1.734375q0.3125 0 0.984375 0.125l-0.484375 1.765625z" fill-rule="nonzero"/><path fill="#cfe2f3" d="m242.53806 211.08923l120.72443 0l0 88.346466l-120.72443 0z" fill-rule="evenodd"/><path stroke="#000000" stroke-width="1.0" stroke-linejoin="round" stroke-linecap="butt" d="m242.53806 211.08923l120.72443 0l0 88.346466l-120.72443 0z" fill-rule="evenodd"/><path fill="#000000" d="m254.93584 261.60434l0.609375 -1.640625q1.4531403 0.9375 2.3281403 0.9375q1.609375 0 1.609375 -1.34375q0 -0.96875 -1.546875 -1.65625q-1.203125 -0.546875 -1.625 -0.828125q-0.40626526 -0.28125 -0.71876526 -0.640625q-0.296875 -0.359375 -0.453125 -0.765625q-0.140625 -0.40625 -0.140625 -0.875q0 -1.203125 0.875 -1.875q0.87501526 -0.671875 2.2812653 -0.671875q1.0625 0 2.6875 0.671875l-0.484375 1.609375q-1.03125 -0.828125 -2.078125 -0.828125q-0.609375 0 -1.03125 0.296875q-0.421875 0.296875 -0.421875 0.734375q0 0.9375 1.0625 1.421875l1.234375 0.5625q1.140625 0.515625 1.65625 1.1875q0.515625 0.671875 0.515625 1.671875q0 1.3125 -0.921875 2.0625q-0.90625 0.734375 -2.546875 0.734375q-1.53125 0 -2.8906403 -0.765625zm7.551773 -4.328125q0 -2.25 1.21875 -3.640625q1.21875 -1.390625 3.203125 -1.390625q2.09375 0 3.25 1.34375q1.15625 1.328125 1.15625 3.6875q0 2.359375 -1.1875 3.734375q-1.1875 1.359375 -3.21875 1.359375q-2.09375 0 -3.265625 -1.375q-1.15625 -1.375 -1.15625 -3.71875zm1.8125 0q0 3.671875 2.609375 3.671875q1.203125 0 1.890625 -0.984375q0.6875 -0.984375 0.6875 -2.6875q0 -3.625 -2.578125 -3.625q-1.1875 0 -1.90625 0.96875q-0.703125 0.96875 -0.703125 2.65625zm14.136353 -3.1875q-0.5625 -0.390625 -1.140625 -0.390625q-0.921875 0 -1.609375 0.859375q-0.6875 0.84375 -0.6875 2.03125l0 5.59375l-1.734375 0l0 -9.75l1.734375 0l0 1.546875q0.953125 -1.734375 2.8125 -1.734375q0.46875 0 1.34375 0.15625l-0.71875 1.6875zm2.5636597 -0.296875l-1.125 0l0 -1.359375l1.125 0l0 -2.046875l1.734375 -0.671875l0 2.71875l2.6875 0l0 1.359375l-2.6875 0l0 4.84375q0 1.234375 0.40625 1.75q0.421875 0.515625 1.34375 0.515625q0.671875 0 1.375 -0.328125l0.25 1.515625q-1.0625 0.28125 -2.359375 0.28125q-1.15625 0 -1.953125 -0.859375q-0.796875 -0.875 -0.796875 -2.171875l0 -5.546875zm17.673706 -3.8125q-0.53125 -0.1875 -0.984375 -0.1875q-0.78125 0 -1.296875 0.609375q-0.515625 0.59375 -0.515625 1.515625q0 0.25 0.046875 0.515625l1.984375 0l0 1.453125l-1.984375 0l0 8.296875l-1.734375 0l0 -8.296875l-1.421875 0l0 -1.453125l1.421875 0q0 -1.875 0.921875 -2.9375q0.921875 -1.0625 2.421875 -1.0625q0.765625 0 1.625 0.265625l-0.484375 1.28125zm3.4115295 -1.25q0.453125 0 0.765625 0.328125q0.3125 0.3125 0.3125 0.75q0 0.4375 -0.3125 0.75q-0.3125 0.3125 -0.765625 0.3125q-0.4375 0 -0.75 -0.3125q-0.3125 -0.3125 -0.3125 -0.75q0 -0.453125 0.296875 -0.765625q0.3125 -0.3125 0.765625 -0.3125zm-0.953125 13.453125l0 -8.296875l-1.328125 0l0 -1.453125l3.0625 0l0 9.75l-1.734375 0zm4.6168213 -2.765625l0 -10.984375l1.734375 0l0 10.703125q0 0.78125 0.453125 1.234375q0.453125 0.453125 1.1875 0.453125l0 1.546875q-3.375 0 -3.375 -2.953125zm13.595886 -1.9375l-7.046875 0q0 1.703125 0.953125 2.625q0.828125 0.796875 2.125 0.796875q1.484375 0 2.484375 -0.859375l0.71875 1.25q-0.390625 0.40625 -1.234375 0.6875q-1.03125 0.390625 -2.3125 0.390625q-1.828125 0 -3.125 -1.25q-1.421875 -1.375 -1.421875 -3.703125q0 -2.40625 1.46875 -3.875q1.3125 -1.296875 3.109375 -1.296875q2.078125 0 3.265625 1.171875q1.140625 1.125 1.140625 3.0q0 0.578125 -0.125 1.0625zm-4.203125 -3.78125q-1.15625 0 -1.9375 0.75q-0.75 0.71875 -0.859375 1.765625l5.40625 0q0 -1.046875 -0.65625 -1.75q-0.71875 -0.765625 -1.953125 -0.765625zm11.905243 5.71875l0 -10.984375l1.734375 0l0 10.703125q0 0.78125 0.453125 1.234375q0.453125 0.453125 1.1875 0.453125l0 1.546875q-3.375 0 -3.375 -2.953125zm7.158386 -10.6875q0.453125 0 0.765625 0.328125q0.3125 0.3125 0.3125 0.75q0 0.4375 -0.3125 0.75q-0.3125 0.3125 -0.765625 0.3125q-0.4375 0 -0.75 -0.3125q-0.3125 -0.3125 -0.3125 -0.75q0 -0.453125 0.296875 -0.765625q0.3125 -0.3125 0.765625 -0.3125zm-0.953125 13.453125l0 -8.296875l-1.328125 0l0 -1.453125l3.0625 0l0 9.75l-1.734375 0zm3.8511963 -0.578125l0.609375 -1.640625q1.453125 0.9375 2.328125 0.9375q1.609375 0 1.609375 -1.34375q0 -0.96875 -1.546875 -1.65625q-1.203125 -0.546875 -1.625 -0.828125q-0.40625 -0.28125 -0.71875 -0.640625q-0.296875 -0.359375 -0.453125 -0.765625q-0.140625 -0.40625 -0.140625 -0.875q0 -1.203125 0.875 -1.875q0.875 -0.671875 2.28125 -0.671875q1.0625 0 2.6875 0.671875l-0.484375 1.609375q-1.03125 -0.828125 -2.078125 -0.828125q-0.609375 0 -1.03125 0.296875q-0.421875 0.296875 -0.421875 0.734375q0 0.9375 1.0625 1.421875l1.234375 0.5625q1.140625 0.515625 1.65625 1.1875q0.515625 0.671875 0.515625 1.671875q0 1.3125 -0.921875 2.0625q-0.90625 0.734375 -2.546875 0.734375q-1.53125 0 -2.890625 -0.765625zm8.801758 -7.8125l-1.125 0l0 -1.359375l1.125 0l0 -2.046875l1.734375 -0.671875l0 2.71875l2.6875 0l0 1.359375l-2.6875 0l0 4.84375q0 1.234375 0.40625 1.75q0.421875 0.515625 1.34375 0.515625q0.671875 0 1.375 -0.328125l0.25 1.515625q-1.0625 0.28125 -2.359375 0.28125q-1.15625 0 -1.953125 -0.859375q-0.796875 -0.875 -0.796875 -2.171875l0 -5.546875z" fill-rule="nonzero"/><path fill="#cfe2f3" d="m242.53806 64.097115l120.72443 0l0 88.34646l-120.72443 0z" fill-rule="evenodd"/><path stroke="#000000" stroke-width="1.0" stroke-linejoin="round" stroke-linecap="butt" d="m242.53806 64.097115l120.72443 0l0 88.34646l-120.72443 0z" fill-rule="evenodd"/><path fill="#000000" d="m254.93584 114.61221l0.609375 -1.640625q1.4531403 0.9375 2.3281403 0.9375q1.609375 0 1.609375 -1.34375q0 -0.96875 -1.546875 -1.65625q-1.203125 -0.546875 -1.625 -0.828125q-0.40626526 -0.28125 -0.71876526 -0.640625q-0.296875 -0.359375 -0.453125 -0.765625q-0.140625 -0.40625 -0.140625 -0.875q0 -1.203125 0.875 -1.875q0.87501526 -0.671875 2.2812653 -0.671875q1.0625 0 2.6875 0.671875l-0.484375 1.609375q-1.03125 -0.828125 -2.078125 -0.828125q-0.609375 0 -1.03125 0.296875q-0.421875 0.296875 -0.421875 0.734375q0 0.9375 1.0625 1.421875l1.234375 0.5625q1.140625 0.515625 1.65625 1.1875q0.515625 0.671875 0.515625 1.671875q0 1.3125 -0.921875 2.0625q-0.90625 0.734375 -2.546875 0.734375q-1.53125 0 -2.8906403 -0.765625zm7.551773 -4.328125q0 -2.25 1.21875 -3.640625q1.21875 -1.390625 3.203125 -1.390625q2.09375 0 3.25 1.34375q1.15625 1.328125 1.15625 3.6875q0 2.359375 -1.1875 3.734375q-1.1875 1.359375 -3.21875 1.359375q-2.09375 0 -3.265625 -1.375q-1.15625 -1.375 -1.15625 -3.71875zm1.8125 0q0 3.671875 2.609375 3.671875q1.203125 0 1.890625 -0.984375q0.6875 -0.984375 0.6875 -2.6875q0 -3.625 -2.578125 -3.625q-1.1875 0 -1.90625 0.96875q-0.703125 0.96875 -0.703125 2.65625zm14.136353 -3.1875q-0.5625 -0.390625 -1.140625 -0.390625q-0.921875 0 -1.609375 0.859375q-0.6875 0.84375 -0.6875 2.03125l0 5.59375l-1.734375 0l0 -9.75l1.734375 0l0 1.546875q0.953125 -1.734375 2.8125 -1.734375q0.46875 0 1.34375 0.15625l-0.71875 1.6875zm2.5636597 -0.296875l-1.125 0l0 -1.359375l1.125 0l0 -2.046875l1.734375 -0.671875l0 2.71875l2.6875 0l0 1.359375l-2.6875 0l0 4.84375q0 1.234375 0.40625 1.75q0.421875 0.515625 1.34375 0.515625q0.671875 0 1.375 -0.328125l0.25 1.515625q-1.0625 0.28125 -2.359375 0.28125q-1.15625 0 -1.953125 -0.859375q-0.796875 -0.875 -0.796875 -2.171875l0 -5.546875zm17.673706 -3.8125q-0.53125 -0.1875 -0.984375 -0.1875q-0.78125 0 -1.296875 0.609375q-0.515625 0.59375 -0.515625 1.515625q0 0.25 0.046875 0.515625l1.984375 0l0 1.453125l-1.984375 0l0 8.296875l-1.734375 0l0 -8.296875l-1.421875 0l0 -1.453125l1.421875 0q0 -1.875 0.921875 -2.9375q0.921875 -1.0625 2.421875 -1.0625q0.765625 0 1.625 0.265625l-0.484375 1.28125zm3.4115295 -1.25q0.453125 0 0.765625 0.328125q0.3125 0.3125 0.3125 0.75q0 0.4375 -0.3125 0.75q-0.3125 0.3125 -0.765625 0.3125q-0.4375 0 -0.75 -0.3125q-0.3125 -0.3125 -0.3125 -0.75q0 -0.453125 0.296875 -0.765625q0.3125 -0.3125 0.765625 -0.3125zm-0.953125 13.453125l0 -8.296875l-1.328125 0l0 -1.453125l3.0625 0l0 9.75l-1.734375 0zm4.6168213 -2.765625l0 -10.984375l1.734375 0l0 10.703125q0 0.78125 0.453125 1.234375q0.453125 0.453125 1.1875 0.453125l0 1.546875q-3.375 0 -3.375 -2.953125zm13.595886 -1.9375l-7.046875 0q0 1.703125 0.953125 2.625q0.828125 0.796875 2.125 0.796875q1.484375 0 2.484375 -0.859375l0.71875 1.25q-0.390625 0.40625 -1.234375 0.6875q-1.03125 0.390625 -2.3125 0.390625q-1.828125 0 -3.125 -1.25q-1.421875 -1.375 -1.421875 -3.703125q0 -2.40625 1.46875 -3.875q1.3125 -1.296875 3.109375 -1.296875q2.078125 0 3.265625 1.171875q1.140625 1.125 1.140625 3.0q0 0.578125 -0.125 1.0625zm-4.203125 -3.78125q-1.15625 0 -1.9375 0.75q-0.75 0.71875 -0.859375 1.765625l5.40625 0q0 -1.046875 -0.65625 -1.75q-0.71875 -0.765625 -1.953125 -0.765625zm11.905243 5.71875l0 -10.984375l1.734375 0l0 10.703125q0 0.78125 0.453125 1.234375q0.453125 0.453125 1.1875 0.453125l0 1.546875q-3.375 0 -3.375 -2.953125zm7.158386 -10.6875q0.453125 0 0.765625 0.328125q0.3125 0.3125 0.3125 0.75q0 0.4375 -0.3125 0.75q-0.3125 0.3125 -0.765625 0.3125q-0.4375 0 -0.75 -0.3125q-0.3125 -0.3125 -0.3125 -0.75q0 -0.453125 0.296875 -0.765625q0.3125 -0.3125 0.765625 -0.3125zm-0.953125 13.453125l0 -8.296875l-1.328125 0l0 -1.453125l3.0625 0l0 9.75l-1.734375 0zm3.8511963 -0.578125l0.609375 -1.640625q1.453125 0.9375 2.328125 0.9375q1.609375 0 1.609375 -1.34375q0 -0.96875 -1.546875 -1.65625q-1.203125 -0.546875 -1.625 -0.828125q-0.40625 -0.28125 -0.71875 -0.640625q-0.296875 -0.359375 -0.453125 -0.765625q-0.140625 -0.40625 -0.140625 -0.875q0 -1.203125 0.875 -1.875q0.875 -0.671875 2.28125 -0.671875q1.0625 0 2.6875 0.671875l-0.484375 1.609375q-1.03125 -0.828125 -2.078125 -0.828125q-0.609375 0 -1.03125 0.296875q-0.421875 0.296875 -0.421875 0.734375q0 0.9375 1.0625 1.421875l1.234375 0.5625q1.140625 0.515625 1.65625 1.1875q0.515625 0.671875 0.515625 1.671875q0 1.3125 -0.921875 2.0625q-0.90625 0.734375 -2.546875 0.734375q-1.53125 0 -2.890625 -0.765625zm8.801758 -7.8125l-1.125 0l0 -1.359375l1.125 0l0 -2.046875l1.734375 -0.671875l0 2.71875l2.6875 0l0 1.359375l-2.6875 0l0 4.84375q0 1.234375 0.40625 1.75q0.421875 0.515625 1.34375 0.515625q0.671875 0 1.375 -0.328125l0.25 1.515625q-1.0625 0.28125 -2.359375 0.28125q-1.15625 0 -1.953125 -0.859375q-0.796875 -0.875 -0.796875 -2.171875l0 -5.546875z" fill-rule="nonzero"/></g></svg>